<svg width="144" height="144" viewBox="0 0 144 144" fill="none" xmlns="http://www.w3.org/2000/svg">
<g clip-path="url(#clip0)">
<path d="M121.823 54.0589C146.225 78.4609 146.225 97.5391 121.823 121.941C97.4214 146.343 78.3431 146.343 53.9411 121.941C29.5391 97.5391 29.5391 78.4609 53.9411 54.0589C78.3431 29.6569 97.4214 29.6569 121.823 54.0589Z" fill="#FFD970"/>
<path d="M32 40C32 40 38 28 44 28C50 28 52 34 58 34C64 34 66 28 72 28C78 28 80 34 86 34C92 34 94 28 100 28C106 28 116 39.6995 116 72C116 104.301 106 116 100 116C94 116 92 110 86 110C80 110 78 116 72 116C66 116 64 110 58 110C52 110 50 116 44 116C38 116 28 104 28 76C28 44 86 52 86 52" stroke="#000842" stroke-width="8" stroke-linecap="square"/>
<path d="M86 72C86 72 72 70 58 72" stroke="#000842" stroke-width="8" stroke-linecap="square"/>
<path d="M86 92C86 92 72 90 58 92" stroke="#000842" stroke-width="8" stroke-linecap="square"/>
</g>
<defs>
<clipPath id="clip0">
<rect width="144" height="144" fill="white"/>
</clipPath>
</defs>
</svg>
