<svg width="144" height="144" viewBox="0 0 144 144" fill="none" xmlns="http://www.w3.org/2000/svg">
<g clip-path="url(#clip0)">
<path fill-rule="evenodd" clip-rule="evenodd" d="M36.4137 89.7842C35.5966 78.417 40.6585 67.508 51.1959 56.9706C61.4941 46.6724 72.6031 39.4041 84.1768 37.6281C96.0253 35.8099 107.618 39.8539 118.371 50.6066C128.716 60.9514 135.951 72.4167 137.717 84.3141C139.518 96.451 135.531 108.4 124.735 119.196C114.213 129.718 102.094 136.026 89.6306 136.809C77.0783 137.598 64.7433 132.743 54.0244 122.024C43.689 111.689 37.2196 100.997 36.4137 89.7842Z" fill="#FFD970"/>
<path fill-rule="evenodd" clip-rule="evenodd" d="M103.999 24C104 24 104 24 104 28C104 32 104 32 104 32L103.986 32L103.934 32.0001C103.887 32.0003 103.815 32.0006 103.719 32.0011C103.528 32.0023 103.243 32.0047 102.876 32.0094C102.14 32.0189 101.075 32.0381 99.7698 32.0764C97.1549 32.1532 93.5929 32.3066 89.789 32.6122C85.9724 32.9187 81.9814 33.3731 78.4867 34.0387C74.8698 34.7277 72.2371 35.5639 70.8232 36.4208C69.2292 37.3869 67.2591 39.1347 65.1035 41.437C62.9896 43.6947 60.8684 46.2993 58.9625 48.7998C58.0259 50.0287 57.149 51.2222 56.3593 52.3233C60.9105 52.0859 66.1001 52 72 52C76.7654 52 81.0555 52.0563 84.9104 52.2014C85.4512 50.6095 85.8384 49.0436 86.0309 47.5039L93.9691 48.4961C93.3863 53.1585 91.5937 57.5728 89.5784 61.5215C88.1175 64.384 86.4241 67.2089 84.8999 69.7516C84.3472 70.6736 83.8168 71.5584 83.3278 72.3945C81.3611 75.7569 80.1097 78.2591 79.7138 80.1706C79.5317 81.0497 79.5885 81.5601 79.6766 81.8501C79.7486 82.0866 79.9093 82.4176 80.4558 82.8426C80.6643 83.0048 81.7074 83.598 84.9244 81.7822C87.9029 80.101 91.475 76.9875 95.1672 72.9321C102.548 64.8253 109.478 54.0006 112.255 46.5955L119.745 49.4045C118.484 52.7693 116.555 56.6063 114.204 60.5486C116.414 63.0031 117.795 65.9861 118.641 69.4171C119.763 73.9616 120 79.5117 120 86C120 92.5047 119.762 98.0672 118.632 102.619C117.461 107.34 115.276 111.207 111.312 114.014C107.521 116.7 102.501 118.123 96.2665 118.935C89.9913 119.752 82.0201 120 72 120C61.9799 120 54.0087 119.752 47.7335 118.935C41.499 118.123 36.4791 116.7 32.6879 114.014C28.7243 111.207 26.5386 107.34 25.3677 102.619C24.2385 98.0672 24 92.5047 24 86C24 79.4953 24.2385 73.9328 25.3677 69.3807C26.5386 64.6603 28.7243 60.7935 32.6879 57.9859C36.1156 55.558 40.5475 54.1612 45.9734 53.3157C46.0318 53.2264 46.0973 53.1266 46.1696 53.0168C46.5113 52.4979 47.0057 51.7559 47.6237 50.8519C48.8578 49.0466 50.5942 46.5818 52.6 43.9502C54.6004 41.3257 56.901 38.4928 59.2637 35.9693C61.5846 33.4903 64.1458 31.1131 66.6768 29.5792C69.3879 27.9361 73.224 26.8973 76.9898 26.18C80.878 25.4394 85.1839 24.9563 89.1485 24.6378C93.1258 24.3184 96.8295 24.1593 99.5349 24.0798C100.89 24.0401 101.999 24.0201 102.772 24.0101C103.159 24.0051 103.462 24.0026 103.67 24.0013C103.775 24.0007 103.855 24.0003 103.91 24.0002L103.975 24L103.999 24ZM109.536 67.7221C106.899 71.464 104.012 75.101 101.083 78.3179C97.15 82.6375 92.9095 86.4615 88.8568 88.749C85.0425 90.902 79.8357 92.4952 75.5442 89.1574C73.8407 87.8324 72.6265 86.1634 72.0226 84.1772C71.435 82.2446 71.5152 80.3097 71.88 78.5482C72.5779 75.1784 74.514 71.6181 76.4223 68.3555C76.9999 67.3678 77.5859 66.3904 78.1712 65.4139C79.2254 63.6554 80.2775 61.9002 81.2757 60.095C78.4392 60.0284 75.3553 60 72 60C62.0201 60 54.4913 60.2523 48.7665 60.9978C43.001 61.7485 39.5209 62.9495 37.3121 64.5141C35.2757 65.9565 33.9614 67.9647 33.1323 71.3068C32.2615 74.8172 32 79.5047 32 86C32 92.4953 32.2615 97.1828 33.1323 100.693C33.9614 104.035 35.2757 106.043 37.3121 107.486C39.5209 109.05 43.001 110.252 48.7665 111.002C54.4913 111.748 62.0201 112 72 112C81.9799 112 89.5087 111.748 95.2335 111.002C100.999 110.252 104.479 109.05 106.688 107.486C108.724 106.043 110.039 104.035 110.868 100.693C111.738 97.1828 112 92.4953 112 86C112 79.5222 111.74 74.8419 110.874 71.3335C110.522 69.9067 110.082 68.7228 109.536 67.7221ZM46.7029 75.0736C46.4324 75.3216 46 75.923 46 78C46 80.077 46.4324 80.6784 46.7029 80.9264C47.0867 81.2782 48.3293 82 52 82C55.6707 82 56.9133 81.2782 57.2971 80.9264C57.5676 80.6784 58 80.077 58 78C58 75.923 57.5676 75.3216 57.2971 75.0736C56.9133 74.7218 55.6707 74 52 74C48.3293 74 47.0867 74.7218 46.7029 75.0736ZM41.2971 69.1764C43.9133 66.7782 47.6707 66 52 66C56.3293 66 60.0867 66.7782 62.7029 69.1764C65.4324 71.6784 66 75.077 66 78C66 80.923 65.4324 84.3216 62.7029 86.8236C60.0867 89.2218 56.3293 90 52 90C47.6707 90 43.9133 89.2218 41.2971 86.8236C38.5676 84.3216 38 80.923 38 78C38 75.077 38.5676 71.6784 41.2971 69.1764Z" fill="#002129"/>
</g>
<defs>
<clipPath id="clip0">
<path d="M0 0H144V144H0V0Z" fill="white"/>
</clipPath>
</defs>
</svg>
