<svg width="144" height="144" viewBox="0 0 144 144" fill="none" xmlns="http://www.w3.org/2000/svg">
<g clip-path="url(#clip0)">
<path d="M121.823 54.0589C146.225 78.4609 146.225 97.5391 121.823 121.941C97.4214 146.343 78.3431 146.343 53.9411 121.941C29.5391 97.5391 29.5391 78.4609 53.9411 54.0589C78.3431 29.6569 97.4214 29.6569 121.823 54.0589Z" fill="#FFD970"/>
<path d="M116 88C116 112 112 116 72 116C32 116 28 112 28 88C28 64 32 60 72 60C112 60 116 64 116 88Z" stroke="#000842" stroke-width="8"/>
<path d="M62 94C62 99 60 102 52 102C44 102 42 99 42 94C42 89 44 86 52 86C60 86 62 89 62 94Z" stroke="#000842" stroke-width="8"/>
<path d="M42.5503 57.9752C41.4321 59.8804 42.07 62.3314 43.9752 63.4497C45.8804 64.5679 48.3314 63.93 49.4497 62.0248L42.5503 57.9752ZM104 28C103.846 24.003 103.846 24.003 103.845 24.003C103.845 24.003 103.845 24.003 103.844 24.003C103.843 24.0031 103.841 24.0031 103.839 24.0032C103.835 24.0034 103.83 24.0036 103.823 24.0039C103.809 24.0044 103.789 24.0052 103.762 24.0063C103.71 24.0084 103.633 24.0116 103.534 24.0159C103.334 24.0245 103.044 24.0375 102.672 24.0554C101.929 24.0913 100.861 24.1468 99.5514 24.2261C96.9354 24.3844 93.3447 24.6379 89.4538 25.0191C85.5707 25.3994 81.3439 25.9112 77.4685 26.5915C73.6657 27.2591 69.9238 28.1344 67.1624 29.3286L70.3376 36.6714C72.2012 35.8656 75.1781 35.1159 78.8518 34.471C82.453 33.8388 86.4606 33.3506 90.2337 32.9809C93.999 32.6121 97.4864 32.3656 100.035 32.2114C101.307 32.1344 102.343 32.0806 103.057 32.0461C103.415 32.0289 103.692 32.0165 103.878 32.0085C103.971 32.0045 104.041 32.0016 104.088 31.9997C104.111 31.9987 104.128 31.998 104.139 31.9976C104.145 31.9974 104.149 31.9972 104.151 31.9971C104.152 31.9971 104.153 31.9971 104.154 31.997C104.154 31.997 104.154 31.997 104.154 31.997C104.154 31.997 104.154 31.997 104 28ZM67.1624 29.3286C64.0693 30.6661 61.0299 33.3577 58.3842 36.1605C55.6538 39.0529 52.9862 42.4543 50.6678 45.6521C48.3408 48.8618 46.3175 51.9333 44.878 54.1982C44.1571 55.3325 43.5796 56.2692 43.1805 56.9255C42.9809 57.2538 42.8256 57.5123 42.7192 57.6906C42.666 57.7797 42.6249 57.8489 42.5966 57.8967C42.5825 57.9207 42.5715 57.9393 42.5637 57.9524C42.5599 57.959 42.5568 57.9642 42.5546 57.968C42.5535 57.9699 42.5525 57.9714 42.5518 57.9726C42.5515 57.9732 42.5511 57.9739 42.5509 57.9742C42.5506 57.9747 42.5503 57.9752 46 60C49.4497 62.0248 49.4495 62.0251 49.4494 62.0253C49.4494 62.0252 49.4493 62.0254 49.4494 62.0253C49.4495 62.0251 49.4498 62.0245 49.4503 62.0236C49.4514 62.0219 49.4532 62.0187 49.4559 62.0142C49.4612 62.0052 49.4697 61.9908 49.4814 61.971C49.5047 61.9316 49.5406 61.8711 49.5885 61.7909C49.6844 61.6303 49.8282 61.3907 50.0158 61.0823C50.3911 60.4652 50.9406 59.5737 51.6298 58.4893C53.0106 56.3167 54.9405 53.3882 57.1447 50.3479C59.3575 47.2957 61.7993 44.1971 64.2017 41.652C66.6888 39.0173 68.8057 37.3339 70.3376 36.6714L67.1624 29.3286Z" fill="#000842"/>
<path d="M75.0274 75.3124C68.2721 68.0061 88.0072 51.3932 94.7192 44L114 54.4375C103.824 64.44 81.7826 82.6186 75.0274 75.3124Z" fill="#FFD970"/>
<path d="M87 52C87 52 60.9069 73.5829 71.9999 82C83.093 90.4171 116 52 116 52" stroke="#000842" stroke-width="8"/>
</g>
<defs>
<clipPath id="clip0">
<rect width="144" height="144" fill="white"/>
</clipPath>
</defs>
</svg>
