<svg width="144" height="144" viewBox="0 0 144 144" fill="none" xmlns="http://www.w3.org/2000/svg">
<g clip-path="url(#clip0)">
<path d="M121.823 54.0589C146.225 78.4609 146.225 97.5391 121.823 121.941C97.4214 146.343 78.3431 146.343 53.9411 121.941C29.5391 97.5391 29.5391 78.4609 53.9411 54.0589C78.3431 29.6569 97.4214 29.6569 121.823 54.0589Z" fill="#FFD970"/>
<path d="M48 52C48 52 58.5 74 72 74C85.5 74 108 51.5 108 40C108 28.5 90 28 75 28C38 28 28 39.5 28 72C28 104.5 33 116 72 116C116.5 116 118.5 101 114 64" stroke="#000842" stroke-width="8" stroke-linecap="square"/>
<path d="M60 69.5L47.5 89.5" stroke="#000842" stroke-width="8" stroke-linecap="square"/>
<path d="M84 71L95 88" stroke="#000842" stroke-width="8" stroke-linecap="square"/>
</g>
<defs>
<clipPath id="clip0">
<rect width="144" height="144" fill="white"/>
</clipPath>
</defs>
</svg>
