<svg width="144" height="144" viewBox="0 0 144 144" fill="none" xmlns="http://www.w3.org/2000/svg">
<g clip-path="url(#clip0)">
<path d="M121.823 54.0589C146.225 78.4609 146.225 97.5391 121.823 121.941C97.4214 146.343 78.3431 146.343 53.9411 121.941C29.5391 97.5391 29.5391 78.4609 53.9411 54.0589C78.3431 29.6569 97.4214 29.6569 121.823 54.0589Z" fill="#FFD970"/>
<path d="M46.5 84C46.5 84 36.5 87 32 96C32 96 28 79.5 28 56C28 38.5 37.5 28 60 28C82.5 28 92 40 92 62C92 79 86 88 72 88C58.5 88 52 79 52 68C52 53.5 61 48 78 48C103 48 116 58 116 76C116 97.5 112 116 112 116C102.5 90 52 108 52 108" stroke="#000842" stroke-width="8" stroke-linejoin="round"/>
</g>
<defs>
<clipPath id="clip0">
<rect width="144" height="144" fill="white"/>
</clipPath>
</defs>
</svg>
