<svg width="144" height="144" viewBox="0 0 144 144" fill="none" xmlns="http://www.w3.org/2000/svg">
<g clip-path="url(#clip0)">
<path d="M121.823 54.0589C146.225 78.4609 146.225 97.5391 121.823 121.941C97.4214 146.343 78.3431 146.343 53.9411 121.941C29.5391 97.5391 29.5391 78.4609 53.9411 54.0589C78.3431 29.6569 97.4214 29.6569 121.823 54.0589Z" fill="#FFD970"/>
<path d="M116 84C116 109.673 108.301 116 72 116C35.6995 116 28 109.673 28 84C28 58.3269 35.6995 52 72 52C108.301 52 116 58.3269 116 84Z" stroke="#000842" stroke-width="8"/>
<path d="M66 76C66 82.4183 64.0751 84 55 84C45.9249 84 44 82.4183 44 76C44 69.5817 45.9249 68 55 68C64.0751 68 66 69.5817 66 76Z" stroke="#000842" stroke-width="8"/>
<path d="M48.6869 50.7588C47.4491 52.5886 47.929 55.0753 49.7588 56.3131C51.5886 57.5509 54.0753 57.071 55.3131 55.2412L48.6869 50.7588ZM108 28C108 24 108 24 107.999 24C107.999 24 107.998 24 107.998 24C107.996 24 107.995 24 107.993 24C107.989 24 107.983 24 107.976 24C107.962 24 107.942 24.0001 107.915 24.0001C107.862 24.0003 107.785 24.0005 107.685 24.001C107.486 24.002 107.194 24.0041 106.822 24.008C106.077 24.016 105.007 24.0319 103.696 24.0637C101.077 24.1271 97.4807 24.254 93.5831 24.5085C89.6942 24.7625 85.4554 25.1466 81.565 25.732C77.754 26.3055 73.9704 27.1143 71.1624 28.3286L74.3376 35.6714C76.1546 34.8857 79.0898 34.1945 82.7553 33.643C86.3414 33.1034 90.337 32.7375 94.1044 32.4915C97.863 32.246 101.345 32.1229 103.89 32.0613C105.161 32.0306 106.194 32.0152 106.908 32.0076C107.264 32.0038 107.54 32.0019 107.726 32.0009C107.819 32.0005 107.889 32.0002 107.935 32.0001C107.958 32.0001 107.975 32 107.986 32C107.991 32 107.995 32 107.998 32C107.999 32 108 32 108 32C108 32 108 32 108 32C108 32 108 32 108 28ZM71.1624 28.3286C68.2622 29.5827 65.4291 31.73 62.9191 34.005C60.3674 36.3179 57.9391 38.9578 55.8565 41.4117C53.7673 43.8735 51.9837 46.1982 50.7233 47.9056C50.0918 48.761 49.5886 49.4656 49.2407 49.9602C49.0666 50.2076 48.9312 50.4027 48.8379 50.5382C48.7912 50.6059 48.755 50.6588 48.7297 50.6959C48.717 50.7144 48.7071 50.729 48.6999 50.7395C48.6964 50.7448 48.6935 50.749 48.6913 50.7522C48.6902 50.7538 48.6893 50.7552 48.6886 50.7563C48.6882 50.7568 48.6878 50.7574 48.6876 50.7577C48.6872 50.7583 48.6869 50.7588 52 53C55.3131 55.2412 55.3129 55.2416 55.3127 55.2419C55.3127 55.2419 55.3125 55.2421 55.3125 55.2422C55.3125 55.2422 55.3126 55.242 55.3129 55.2416C55.3135 55.2407 55.3148 55.2387 55.3168 55.2358C55.3208 55.23 55.3275 55.2201 55.3369 55.2063C55.3557 55.1788 55.3852 55.1358 55.425 55.078C55.5045 54.9625 55.6253 54.7885 55.7837 54.5633C56.1008 54.1125 56.5683 53.4578 57.1595 52.6569C58.3444 51.0518 60.014 48.8765 61.956 46.5883C63.9047 44.2922 66.0857 41.9321 68.2918 39.9325C70.5396 37.895 72.6128 36.4173 74.3376 35.6714L71.1624 28.3286Z" fill="#000842"/>
<path d="M82.5 62C77.3 56.4 86.3334 43.6667 91.5 38L112.5 46C104.667 53.6667 87.7 67.6 82.5 62Z" fill="#FFD970"/>
<path d="M92 43C92 43 72.5 61 81.5 67C90.5 73 117 43 117 43" stroke="#000842" stroke-width="8"/>
</g>
<defs>
<clipPath id="clip0">
<rect width="144" height="144" fill="white"/>
</clipPath>
</defs>
</svg>
