<svg width="144" height="144" viewBox="0 0 144 144" fill="none" xmlns="http://www.w3.org/2000/svg">
<g clip-path="url(#clip0)">
<path d="M121.823 54.0589C146.225 78.4609 146.225 97.5391 121.823 121.941C97.4214 146.343 78.3431 146.343 53.9411 121.941C29.5391 97.5391 29.5391 78.4609 53.9411 54.0589C78.3431 29.6569 97.4214 29.6569 121.823 54.0589Z" fill="#FFD970"/>
<path d="M116 86C116 112 112 116 72 116C32 116 28 112 28 86C28 60 32 56 72 56C112 56 116 60 116 86Z" stroke="#000842" stroke-width="8"/>
<path d="M62 78C62 83 60 86 52 86C44 86 42 83 42 78C42 73 44 70 52 70C60 70 62 73 62 78Z" stroke="#000842" stroke-width="8"/>
<path d="M45.6292 53.8464C44.4398 55.7081 44.9848 58.1814 46.8464 59.3708C48.7081 60.5602 51.1814 60.0152 52.3708 58.1536L45.6292 53.8464ZM104 28C104 24 104 24 103.999 24C103.999 24 103.998 24 103.997 24C103.996 24 103.994 24 103.992 24C103.988 24 103.982 24 103.975 24C103.96 24 103.938 24.0001 103.91 24.0002C103.855 24.0003 103.775 24.0007 103.67 24.0013C103.462 24.0026 103.159 24.0051 102.772 24.0101C101.999 24.0201 100.89 24.0401 99.5349 24.0798C96.8295 24.1593 93.1258 24.3184 89.1485 24.6378C85.1839 24.9563 80.878 25.4394 76.9898 26.18C73.224 26.8973 69.3879 27.9361 66.6768 29.5792L70.8232 36.4208C72.2371 35.5639 74.8698 34.7277 78.4867 34.0387C81.9814 33.3731 85.9724 32.9187 89.789 32.6122C93.5929 32.3066 97.1549 32.1532 99.7698 32.0764C101.075 32.0381 102.14 32.0189 102.876 32.0094C103.243 32.0047 103.528 32.0023 103.719 32.0011C103.815 32.0006 103.887 32.0003 103.934 32.0001C103.958 32.0001 103.975 32 103.986 32C103.992 32 103.996 32 103.998 32C103.999 32 104 32 104 32C104 32 104 32 104 32C104 32 104 32 104 28ZM66.6768 29.5792C64.1458 31.1131 61.5846 33.4903 59.2637 35.9693C56.901 38.4927 54.6004 41.3257 52.6 43.9502C50.5942 46.5818 48.8578 49.0466 47.6237 50.8519C47.0057 51.7559 46.5113 52.4979 46.1696 53.0168C45.9987 53.2763 45.8658 53.4802 45.7746 53.621C45.729 53.6914 45.6937 53.746 45.6694 53.7839C45.6572 53.8028 45.6477 53.8176 45.641 53.8281C45.6376 53.8333 45.635 53.8374 45.633 53.8405C45.632 53.842 45.6312 53.8433 45.6306 53.8443C45.6303 53.8448 45.6299 53.8453 45.6298 53.8456C45.6295 53.846 45.6292 53.8464 49 56C52.3708 58.1536 52.3706 58.1538 52.3705 58.154C52.3705 58.154 52.3704 58.1541 52.3705 58.154C52.3705 58.1539 52.3708 58.1536 52.3712 58.1529C52.372 58.1516 52.3735 58.1492 52.3757 58.1458C52.3802 58.1389 52.3873 58.1278 52.3971 58.1125C52.4168 58.082 52.4471 58.0349 52.4878 57.9722C52.569 57.8469 52.6912 57.6592 52.8509 57.4168C53.1703 56.9318 53.6389 56.2284 54.2279 55.3668C55.4078 53.6409 57.062 51.2932 58.9625 48.7998C60.8684 46.2993 62.9896 43.6947 65.1035 41.437C67.2591 39.1347 69.2292 37.3869 70.8232 36.4208L66.6768 29.5792Z" fill="#000842"/>
<path d="M81.5001 86C74.7448 78.6938 94.7192 42 94.7192 42L114 52.4375C114 52.4375 88.2553 93.3062 81.5001 86Z" fill="#FFD970"/>
<path d="M90 48C88 64 69 79 78 86C86.9999 93 110 64 116 48" stroke="#000842" stroke-width="8"/>
</g>
<defs>
<clipPath id="clip0">
<rect width="144" height="144" fill="white"/>
</clipPath>
</defs>
</svg>
