<svg width="144" height="144" viewBox="0 0 144 144" fill="none" xmlns="http://www.w3.org/2000/svg">
<g clip-path="url(#clip0)">
<path fill-rule="evenodd" clip-rule="evenodd" d="M139.351 86.2158C140.168 97.583 135.106 108.492 124.568 119.029C114.27 129.328 103.161 136.596 91.5876 138.372C79.7391 140.19 68.146 136.146 57.3933 125.393C47.0485 115.049 39.8134 103.583 38.0479 91.6859C36.2469 79.549 40.2332 67.6002 51.0294 56.8041C61.551 46.2824 73.6709 39.9742 86.1338 39.191C98.6861 38.4021 111.021 43.2567 121.74 53.9756C132.075 64.311 138.545 75.0031 139.351 86.2158Z" fill="#FFD970"/>
<path fill-rule="evenodd" clip-rule="evenodd" d="M34.8345 34.9466C43.1645 26.8358 56.3483 24 75 24C82.414 24 91.1539 24.1056 98.0772 25.8025C101.55 26.6536 104.966 27.9936 107.571 30.2495C110.33 32.6379 112 35.9112 112 40C112 44.0011 110.12 48.3426 107.669 52.2783C105.144 56.3334 101.687 60.4752 97.8413 64.1897C95.0999 66.8374 92.1077 69.3192 89.0401 71.4261L100.531 89.1853L93.8147 93.5313L82.106 75.436C78.7684 76.9844 75.3058 78 72 78C68.0726 78 64.5238 76.6002 61.4874 74.6674L48.772 95.012L41.988 90.772L55.284 69.4983C54.0087 68.1791 52.8407 66.8085 51.7897 65.4681C49.4857 62.5296 47.6484 59.6132 46.3908 57.4432C45.7594 56.3537 45.2677 55.4413 44.9303 54.7938C44.7614 54.4698 44.6308 54.2114 44.5403 54.0294C44.495 53.9384 44.4597 53.8665 44.4346 53.815L44.4046 53.7531L44.3954 53.734L44.391 53.7249C44.3905 53.7239 44.3901 53.7229 48 52L44.3901 53.7229L42.6672 50.113L49.887 46.6672L51.6099 50.2771L51.6107 50.2787L51.6265 50.3113C51.642 50.343 51.6673 50.3946 51.7022 50.4647C51.772 50.605 51.8802 50.8193 52.0248 51.0968C52.3143 51.6524 52.7485 52.4588 53.3124 53.4318C54.4454 55.3868 56.0768 57.9704 58.0853 60.5319C60.1077 63.1112 62.4183 65.5466 64.8821 67.3094C67.3498 69.0748 69.7341 70 72 70C74.3722 70 77.5942 68.9687 81.3365 66.8313C85.0022 64.7376 88.818 61.7826 92.2837 58.4353C95.7502 55.0873 98.7621 51.4479 100.878 48.0498C103.068 44.5324 104 41.7489 104 40C104 38.3388 103.42 37.2371 102.335 36.2974C101.096 35.2251 99.0753 34.2839 96.1728 33.5725C90.3461 32.1444 82.586 32 75 32C56.6517 32 46.3355 34.9142 40.4155 40.6784C34.5387 46.4005 32 55.9086 32 72C32 80.0753 32.3156 86.5754 33.3197 91.836C34.3168 97.06 35.9443 100.789 38.3736 103.54C43.2237 109.034 52.5227 112 72 112C94.2744 112 103.795 108.131 108.032 101.679C110.215 98.3542 111.36 93.8422 111.597 87.5832C111.834 81.3203 111.153 73.7224 110.029 64.4829L109.546 60.5122L117.488 59.5463L117.971 63.5171C119.097 72.7776 119.854 80.9297 119.591 87.8856C119.328 94.8453 118.035 101.021 114.718 106.071C107.955 116.369 94.2256 120 72 120C52.4773 120 39.7763 117.216 32.3764 108.835C28.6807 104.649 26.6207 99.4088 25.4616 93.3359C24.3094 87.2996 24 80.1747 24 72C24 55.5914 26.4613 43.0995 34.8345 34.9466Z" fill="#002129"/>
</g>
<defs>
<clipPath id="clip0">
<path d="M0 0H144V144H0V0Z" fill="white"/>
</clipPath>
</defs>
</svg>
