<svg width="144" height="144" viewBox="0 0 144 144" fill="none" xmlns="http://www.w3.org/2000/svg">
<g clip-path="url(#clip0)">
<path fill-rule="evenodd" clip-rule="evenodd" d="M86.098 36.5314C97.4652 35.7143 108.374 40.7762 118.912 51.3136C129.21 61.6118 136.478 72.7208 138.254 84.2945C140.072 96.1429 136.028 107.736 125.276 118.489C114.931 128.834 103.466 136.069 91.5681 137.834C79.4312 139.635 67.4824 135.649 56.6863 124.853C46.1646 114.331 39.8564 102.211 39.0732 89.7483C38.2843 77.196 43.1389 64.8609 53.8578 54.1421C64.1932 43.8067 74.8853 37.3373 86.098 36.5314Z" fill="#FFD970"/>
<path fill-rule="evenodd" clip-rule="evenodd" d="M37.6551 36.8042C34.0424 40.0105 32 45.9066 32 58C32 70.8699 34.3064 76.727 38.4036 79.8072C39.4087 80.5628 40 81.747 40 83.0045V88L45.2514 84.0615L50.0514 90.4615L38.4 99.2C37.1879 100.109 35.5663 100.255 34.2111 99.5777C32.856 98.9001 32 97.5151 32 96V84.8672C25.8977 79.1968 24 70.1969 24 58C24 45.5934 25.9576 36.4895 32.3449 30.8208C38.5844 25.2832 48.0307 24 60 24C69.7661 24 77.5835 25.8853 83.462 30.0195C88.6961 33.7005 91.9998 38.8851 93.8872 45.1346C101.491 46.4454 107.931 49.0967 112.552 54.1248C117.732 59.7616 120 67.6984 120 78C120 89.9922 118.087 98.9598 112 104.676V116C112 117.515 111.144 118.9 109.789 119.578C108.434 120.255 106.812 120.109 105.6 119.2L95.2155 111.412C91.841 111.83 88.1033 112 84 112C73.5959 112 65.4759 110.439 59.9011 108.846C57.1149 108.05 54.9662 107.247 53.4867 106.627C52.7469 106.318 52.1743 106.054 51.7727 105.86C51.5719 105.763 51.4139 105.684 51.299 105.625C51.2416 105.595 51.195 105.571 51.1592 105.552L51.1137 105.527L51.0971 105.518L51.0903 105.515L51.0873 105.513C51.0859 105.512 51.0846 105.512 53 102C54.9154 98.4884 54.9141 98.4877 54.9129 98.4871L54.9107 98.4858L54.9069 98.4838L54.9051 98.4828C54.9122 98.4865 54.9298 98.4958 54.9578 98.5102C55.0139 98.5391 55.1117 98.5885 55.2507 98.6556C55.5288 98.7899 55.9718 98.9949 56.5758 99.2477C57.7838 99.7534 59.6351 100.45 62.0989 101.154C67.0241 102.561 74.4041 104 84 104C88.5771 104 92.4331 103.775 95.6835 103.27C96.7484 103.105 97.8351 103.376 98.6973 104.023L104 108V102.83C104 101.584 104.581 100.409 105.57 99.6523C109.707 96.489 112 90.5721 112 78C112 68.7647 109.961 63.1285 106.661 59.538C104.157 56.8128 100.571 54.875 95.5702 53.6476C95.8656 56.2969 96 59.0856 96 62C96 70.8389 94.4648 78.3705 90.461 83.7603C86.2781 89.3911 79.9333 92 72 92C64.3099 92 58.1704 89.4039 53.9847 84.8233C49.8534 80.3023 48 74.2603 48 68C48 59.8574 50.5845 53.4715 56.2696 49.3296C61.6775 45.3895 69.222 44 78 44C80.4294 44 82.7692 44.0552 85.0146 44.1785C83.5415 40.9219 81.5071 38.4249 78.8599 36.5632C74.817 33.7199 68.8377 32 60 32C47.9693 32 41.4156 33.4668 37.6551 36.8042ZM87.3287 52.3605C84.4813 52.1123 81.3751 52 78 52C69.778 52 64.3225 53.3605 60.9804 55.7954C57.9155 58.0285 56 61.6426 56 68C56 72.7397 57.3966 76.6977 59.8903 79.4267C62.3296 82.0961 66.1901 84 72 84C78.0667 84 81.7219 82.1089 84.039 78.9897C86.5352 75.6295 88 70.1611 88 62C88 58.4433 87.7811 55.2344 87.3287 52.3605ZM54.9024 98.4813L54.9051 98.4828C54.9016 98.4809 54.9006 98.4804 54.9024 98.4813Z" fill="#002129"/>
</g>
<defs>
<clipPath id="clip0">
<path d="M0 0H144V144H0V0Z" fill="white"/>
</clipPath>
</defs>
</svg>
