<svg width="144" height="144" viewBox="0 0 144 144" fill="none" xmlns="http://www.w3.org/2000/svg">
<g clip-path="url(#clip0)">
<path d="M121.823 54.0589C146.225 78.4609 146.225 97.5391 121.823 121.941C97.4214 146.343 78.3431 146.343 53.9411 121.941C29.5391 97.5391 29.5391 78.4609 53.9411 54.0589C78.3431 29.6569 97.4214 29.6569 121.823 54.0589Z" fill="#FFD970"/>
<path d="M30 50C30 50 34 28 44 28C50 28 52 34 58 34C64 34 66 28 72 28C78 28 80 34 86 34C92 34 94.0001 28 100 28C106 28 116 39.6995 116 72C116 104.301 106 116 100 116C94.0001 116 92 110 86 110C80 110 78 116 72 116C66 116 64 110 58 110C52 110 50 116 44 116C35 116 22.0001 88 32 73C42 58 86 56 86 56M86 80C86 80 72.0004 80.6364 58 83.8832" stroke="#000842" stroke-width="8" stroke-linecap="square"/>
</g>
<defs>
<clipPath id="clip0">
<rect width="144" height="144" fill="white"/>
</clipPath>
</defs>
</svg>
