<svg width="144" height="144" viewBox="0 0 144 144" fill="none" xmlns="http://www.w3.org/2000/svg">
<g clip-path="url(#clip0)">
<path fill-rule="evenodd" clip-rule="evenodd" d="M89.6664 139.469C78.2992 140.286 67.3902 135.224 56.8528 124.686C46.5546 114.388 39.2863 103.279 37.5103 91.7055C35.6921 79.8571 39.7361 68.264 50.4888 57.5112C60.8336 47.1664 72.2989 39.9313 84.1963 38.1658C96.3332 36.3648 108.282 40.3511 119.078 51.1473C129.6 61.669 135.908 73.7888 136.691 86.2517C137.48 98.804 132.625 111.139 121.907 121.858C111.571 132.193 100.879 138.663 89.6664 139.469Z" fill="#FFD970"/>
<path fill-rule="evenodd" clip-rule="evenodd" d="M34.4797 40.2787C42.1971 30.4566 54.4153 24 72 24C89.2116 24 101.417 28.7087 109.278 36.9976C117.098 45.2446 120 56.3894 120 68C120 79.3814 118.112 89.9609 114.666 97.8511C111.347 105.449 105.856 112 98 112C93.5793 112 90.5049 109.427 88.3632 106.748C86.6096 104.554 85.071 101.757 83.6955 99.2559C83.4495 98.8086 83.2087 98.3707 82.9728 97.9475C81.2954 94.9383 79.7411 92.4052 77.9075 90.6017C76.1961 88.9184 74.3762 88 72 88C67.6233 88 64.0759 90.2443 61.4353 92.8481C60.1346 94.1308 59.1357 95.4246 58.4646 96.397C58.1314 96.8799 57.8852 97.2744 57.7288 97.5363C57.6507 97.6669 57.5954 97.7638 57.5632 97.8211C57.5472 97.8498 57.5369 97.8685 57.5325 97.8766L57.5325 97.8765L57.5345 97.8728L57.5357 97.8706C57.5363 97.8694 57.537 97.8681 54 96C50.463 94.1319 50.4638 94.1305 50.4645 94.1291L50.4661 94.1261L50.4698 94.1192L50.479 94.102L50.5046 94.0545C50.5249 94.0172 50.5516 93.9686 50.5848 93.9093C50.6512 93.7909 50.7435 93.63 50.8615 93.4325C51.0972 93.0381 51.4373 92.4951 51.8804 91.853C52.7621 90.5754 54.0767 88.8692 55.8182 87.1519C59.2622 83.7557 64.7148 80 72 80C76.9126 80 80.6537 82.0816 83.5174 84.8983C86.2588 87.5948 88.2934 91.0617 89.9605 94.0525C90.2466 94.5656 90.5209 95.0624 90.7861 95.543C92.181 98.0696 93.3265 100.144 94.612 101.752C96.0675 103.573 97.0875 104 98 104C100.81 104 104.32 101.551 107.334 94.6489C110.221 88.0391 112 78.6187 112 68C112 57.6106 109.402 48.7554 103.473 42.5024C97.5827 36.2913 87.7885 32 72 32C56.5847 32 46.8029 37.5434 40.7703 45.2213C34.6143 53.0562 32 63.586 32 74C32 84.3806 34.5911 93.668 41.4307 100.399C48.284 107.144 60.0908 112 80 112V120C58.9092 120 44.716 114.856 35.8193 106.101C26.9089 97.332 24 85.6194 24 74C24 62.414 26.8857 49.9438 34.4797 40.2787ZM67.1075 54.1564C66.5734 54.7833 66 56.1368 66 59C66 61.5582 66.6795 62.8976 67.3909 63.6091C68.1024 64.3205 69.4418 65 72 65C74.7108 65 76.0143 64.3684 76.6629 63.7437C77.2828 63.1469 78 61.8844 78 59C78 56.4098 77.2082 55.1453 76.3671 54.4398C75.4052 53.6331 73.708 53 71 53C68.4488 53 67.524 53.6673 67.1075 54.1564ZM61.0175 48.9686C63.476 46.0827 67.0512 45 71 45C74.792 45 78.5948 45.8669 81.5079 48.3102C84.5418 50.8547 86 54.5902 86 59C86 63.1156 84.9672 66.8532 82.2121 69.5063C79.4857 72.1317 75.7892 73 72 73C68.0582 73 64.3976 71.9295 61.7341 69.2659C59.0705 66.6024 58 62.9418 58 59C58 55.3632 58.6766 51.7167 61.0175 48.9686Z" fill="#002129"/>
</g>
<defs>
<clipPath id="clip0">
<path d="M0 0H144V144H0V0Z" fill="white"/>
</clipPath>
</defs>
</svg>
