<svg width="144" height="144" viewBox="0 0 144 144" fill="none" xmlns="http://www.w3.org/2000/svg">
<g clip-path="url(#clip0)">
<path d="M121.823 54.0589C146.225 78.4609 146.225 97.5391 121.823 121.941C97.4214 146.343 78.3431 146.343 53.9411 121.941C29.5391 97.5391 29.5391 78.4609 53.9411 54.0589C78.3431 29.6569 97.4214 29.6569 121.823 54.0589Z" fill="#FFD970"/>
<path d="M116 88C116 112 112 116 72 116C32 116 28 112 28 88C28 64 32 60 72 60C112 60 116 64 116 88Z" stroke="#000842" stroke-width="8"/>
<path d="M62 94C62 99 60 102 52 102C44 102 42 99 42 94C42 89 44 86 52 86C60 86 62 89 62 94Z" stroke="#000842" stroke-width="8"/>
<path d="M45.4551 58.147C44.4317 60.1048 45.1892 62.5215 47.147 63.5449C49.1048 64.5683 51.5215 63.8108 52.5449 61.853L45.4551 58.147ZM104 28C104 24 104 24 103.999 24C103.999 24 103.998 24 103.997 24C103.996 24 103.994 24 103.992 24C103.988 24 103.982 24 103.975 24C103.96 24 103.938 24.0001 103.91 24.0002C103.855 24.0003 103.775 24.0007 103.67 24.0013C103.462 24.0026 103.159 24.0051 102.772 24.0101C101.999 24.0201 100.89 24.0401 99.5349 24.0798C96.8295 24.1593 93.1258 24.3184 89.1485 24.6378C85.1839 24.9563 80.878 25.4394 76.9898 26.18C73.224 26.8973 69.3879 27.9361 66.6768 29.5792L70.8232 36.4208C72.2371 35.5639 74.8698 34.7277 78.4867 34.0387C81.9814 33.3731 85.9724 32.9187 89.789 32.6122C93.5929 32.3066 97.1549 32.1532 99.7698 32.0764C101.075 32.0381 102.14 32.0189 102.876 32.0094C103.243 32.0047 103.528 32.0023 103.719 32.0011C103.815 32.0006 103.887 32.0003 103.934 32.0001C103.958 32.0001 103.975 32 103.986 32C103.992 32 103.996 32 103.998 32C103.999 32 104 32 104 32C104 32 104 32 104 32C104 32 104 32 104 28ZM66.6768 29.5792C63.9992 31.202 61.3783 33.9649 59.0743 36.8117C56.7059 39.7381 54.4051 43.0939 52.4087 46.2242C50.4059 49.3646 48.6726 52.3364 47.4415 54.5197C46.825 55.6131 46.3321 56.5128 45.9917 57.1423C45.8215 57.4572 45.6892 57.7046 45.5986 57.8752C45.5533 57.9605 45.5184 58.0266 45.4943 58.0723C45.4823 58.0951 45.473 58.1129 45.4664 58.1254C45.4631 58.1316 45.4606 58.1366 45.4587 58.1402C45.4577 58.142 45.4569 58.1434 45.4564 58.1446C45.4561 58.1451 45.4557 58.1457 45.4556 58.146C45.4553 58.1465 45.4551 58.147 49 60C52.5449 61.853 52.5448 61.8533 52.5447 61.8535C52.5447 61.8534 52.5446 61.8535 52.5447 61.8534C52.5448 61.8532 52.5451 61.8527 52.5455 61.8518C52.5464 61.8501 52.548 61.847 52.5503 61.8427C52.5549 61.834 52.5622 61.8201 52.5721 61.8012C52.5921 61.7633 52.6228 61.7053 52.6637 61.6282C52.7456 61.4741 52.8685 61.244 53.0288 60.9475C53.3495 60.3543 53.8195 59.4963 54.41 58.449C55.593 56.3511 57.2504 53.5103 59.1538 50.5258C61.0637 47.5311 63.1847 44.4493 65.2929 41.8445C67.4655 39.1601 69.3758 37.298 70.8232 36.4208L66.6768 29.5792Z" fill="#000842"/>
<path d="M75.0274 75.3124C68.2721 68.0061 88.0072 51.3932 94.7192 44L114 54.4375C103.824 64.44 81.7826 82.6186 75.0274 75.3124Z" fill="#FFD970"/>
<path d="M87 52C87 52 60.9069 73.5829 71.9999 82C83.093 90.4171 116 52 116 52" stroke="#000842" stroke-width="8"/>
</g>
<defs>
<clipPath id="clip0">
<rect width="144" height="144" fill="white"/>
</clipPath>
</defs>
</svg>
