<svg width="96" height="96" viewBox="0 0 96 96" fill="none" xmlns="http://www.w3.org/2000/svg">
<path d="M24.7871 89.8117L28.5988 91.0245L31.0245 83.4011L27.2128 82.1883L24.7871 89.8117ZM69.6379 82.0164L65.6543 82.3786L66.3786 90.3457L70.3621 89.9836L69.6379 82.0164ZM96 48C96 31.8995 92.964 19.5672 84.841 11.3717C76.7104 3.16847 64.3686 0 48 0V8C63.6314 8 73.2896 11.0815 79.159 17.0033C85.036 22.9328 88 32.6005 88 48H96ZM48 0C31.5954 0 19.2646 3.30879 11.1467 11.5717C3.04349 19.8196 0 32.1315 0 48H8C8 32.8685 10.9565 23.1804 16.8533 17.1783C22.7354 11.1912 32.4046 8 48 8V0ZM0 48C0 64.5628 5.92152 75.0617 12.1399 81.4215C15.2098 84.5611 18.2887 86.6293 20.6266 87.9222C21.7971 88.5695 22.7882 89.0261 23.5094 89.3281C23.8702 89.4793 24.1645 89.5921 24.3809 89.6712C24.4891 89.7107 24.578 89.7418 24.6461 89.765C24.6802 89.7766 24.7091 89.7863 24.7327 89.794C24.7444 89.7979 24.7549 89.8013 24.764 89.8043C24.7685 89.8057 24.7727 89.8071 24.7766 89.8083C24.7785 89.8089 24.7812 89.8098 24.7821 89.8101C24.7847 89.8109 24.7871 89.8117 26 86C27.2128 82.1883 27.2151 82.189 27.2173 82.1897C27.2179 82.1899 27.2201 82.1906 27.2213 82.191C27.2238 82.1918 27.226 82.1926 27.2279 82.1932C27.2317 82.1944 27.2341 82.1952 27.2353 82.1956C27.2377 82.1964 27.2351 82.1955 27.2275 82.1929C27.2124 82.1878 27.1778 82.1758 27.1249 82.1565C27.019 82.1178 26.8406 82.05 26.5999 81.9492C26.1179 81.7473 25.3903 81.4148 24.4983 80.9215C22.7112 79.9332 20.2902 78.3139 17.86 75.8285C13.0785 70.9383 8 62.4372 8 48H0ZM88 48C88 65.1305 82.8022 73.4558 78.3093 77.5402C76.0074 79.6329 73.731 80.762 72.0705 81.3658C71.2396 81.668 70.5671 81.8369 70.1315 81.9274C69.9142 81.9726 69.7574 81.9979 69.6713 82.0104C69.6283 82.0167 69.6031 82.0197 69.5971 82.0204C69.5941 82.0208 69.5959 82.0205 69.6026 82.0198C69.606 82.0195 69.6106 82.019 69.6164 82.0184C69.6194 82.0182 69.6226 82.0178 69.6262 82.0175C69.628 82.0173 69.6309 82.0171 69.6318 82.017C69.6348 82.0167 69.6379 82.0164 70 86C70.3621 89.9836 70.3654 89.9833 70.3687 89.983C70.3699 89.9829 70.3734 89.9825 70.3758 89.9823C70.3807 89.9818 70.386 89.9813 70.3916 89.9808C70.4028 89.9797 70.4154 89.9784 70.4293 89.977C70.4572 89.9741 70.4905 89.9705 70.5291 89.9659C70.6063 89.9569 70.7047 89.9443 70.8228 89.9271C71.059 89.8927 71.3749 89.8399 71.7591 89.7601C72.5267 89.6006 73.5729 89.332 74.8045 88.8842C77.269 87.988 80.4926 86.3671 83.6907 83.4598C90.1978 77.5442 96 66.8695 96 48H88Z" fill="#000842"/>
<path d="M41 85C41 80.1 43.45 78 48 78C52.55 78 55 80.45 55 85C55 89.55 53.25 92 48.7 92C44.15 92 41 89.9 41 85Z" stroke="#000842" stroke-width="8" stroke-linecap="round"/>
<path d="M44 63V67H52V63H44ZM31.0609 39.6951L31.756 43.6343L39.6343 42.244L38.9391 38.3049L31.0609 39.6951ZM58 35C58 39.5774 55.5601 42.6605 51.9897 46.741C48.6902 50.5119 44 55.5032 44 63H52C52 58.9968 54.3098 56.2381 58.0103 52.009C61.4399 48.0895 66 42.9226 66 35H58ZM35 39C38.9391 38.3049 38.9394 38.3066 38.9397 38.3082C38.9398 38.3086 38.9401 38.3102 38.9402 38.3111C38.9406 38.313 38.9408 38.3146 38.9411 38.3159C38.9415 38.3186 38.9418 38.3204 38.942 38.3211C38.9422 38.3227 38.9418 38.3203 38.9408 38.3143C38.9389 38.3022 38.9347 38.2754 38.9288 38.2347C38.9169 38.1533 38.8986 38.0174 38.8787 37.8351C38.8387 37.4689 38.7934 36.925 38.7805 36.2653C38.754 34.9168 38.8661 33.2313 39.3375 31.6287C39.804 30.0423 40.5678 28.7106 41.7355 27.7652C42.8664 26.8498 44.7401 26 48 26V18C43.2599 18 39.5086 19.2752 36.702 21.5473C33.9322 23.7894 32.446 26.7077 31.6625 29.3713C30.8839 32.0187 30.746 34.5832 30.782 36.4222C30.8003 37.3562 30.8644 38.1405 30.926 38.7039C30.9569 38.9865 30.9873 39.2159 31.0117 39.3835C31.0238 39.4673 31.0345 39.5359 31.0429 39.5882C31.0471 39.6143 31.0508 39.6364 31.0538 39.6542C31.0553 39.6632 31.0567 39.6711 31.0578 39.6779C31.0584 39.6813 31.059 39.6844 31.0595 39.6873C31.0597 39.6887 31.0601 39.6907 31.0602 39.6914C31.0605 39.6933 31.0609 39.6951 35 39ZM48 26C51.2827 26 53.7645 26.9215 55.366 28.3228C56.8949 29.6606 58 31.7591 58 35H66C66 29.7409 64.1051 25.3394 60.634 22.3022C57.2355 19.3285 52.7173 18 48 18V26Z" fill="#000842"/>
</svg>
