<svg width="144" height="144" viewBox="0 0 144 144" fill="none" xmlns="http://www.w3.org/2000/svg">
<path d="M121.823 54.0589C146.225 78.4609 146.225 97.5391 121.823 121.941C97.4214 146.343 78.3431 146.343 53.9411 121.941C29.5391 97.5391 29.5391 78.4609 53.9411 54.0589C78.3431 29.6569 97.4214 29.6569 121.823 54.0589Z" fill="#FFD970"/>
<path d="M90.6957 48.6996C87.5936 35.2104 78.6037 28 60 28C36 28 28 33.5 28 58C28 71.0362 30.2649 78.6931 36 83.0045V96L47.6514 87.2615M90.6957 48.6996C91.5956 52.6124 92 57.0534 92 62C92 79 86 88 72 88C58.5 88 52 79 52 68C52 53.5 61 48 78 48C82.649 48 86.8831 48.2075 90.6957 48.6996ZM90.6957 48.6996C107.385 50.854 116 58.4631 116 78C116 90.7701 113.735 98.4441 108 102.83V116L96.2973 107.223C92.7695 107.771 88.6903 108 84 108C64 108 53 102 53 102" stroke="#000842" stroke-width="8" stroke-linejoin="round"/>
</svg>
