<svg width="144" height="144" viewBox="0 0 144 144" fill="none" xmlns="http://www.w3.org/2000/svg">
<g clip-path="url(#clip0)">
<path fill-rule="evenodd" clip-rule="evenodd" d="M36.4137 89.7842C35.5966 78.417 40.6585 67.508 51.1959 56.9706C61.4941 46.6724 72.6031 39.4041 84.1768 37.6281C96.0253 35.8099 107.618 39.8539 118.371 50.6066C128.716 60.9514 135.951 72.4167 137.717 84.3141C139.518 96.451 135.531 108.4 124.735 119.196C114.213 129.718 102.094 136.026 89.6306 136.809C77.0783 137.598 64.7433 132.743 54.0244 122.024C43.689 111.689 37.2196 100.997 36.4137 89.7842Z" fill="#FFD970"/>
<path fill-rule="evenodd" clip-rule="evenodd" d="M103.284 40.7157C97.4781 34.9096 87.8511 32 72 32V24C88.4495 24 100.822 26.9401 108.941 35.0589C117.06 43.1776 120 55.5505 120 72C120 88.4495 117.06 100.822 108.941 108.941C100.822 117.06 88.4495 120 72 120C65.536 120 60.1407 116.366 58.485 110.912C56.7508 105.199 59.5672 99.2117 66.0154 95.527C66.0443 95.5106 66.0733 95.4944 66.1026 95.4787L66.103 95.4785L66.1036 95.4781L66.1116 95.4738L66.1563 95.4494C66.198 95.4267 66.2633 95.3908 66.3506 95.3423C66.5252 95.2454 66.7877 95.0981 67.1255 94.9042C67.8014 94.5161 68.7764 93.9424 69.9503 93.2125C72.306 91.7477 75.4249 89.677 78.5234 87.2339C81.6438 84.7736 84.6176 82.0337 86.7776 79.2506C88.9874 76.4033 90 73.9556 90 72C90 70.0517 88.8477 67.1653 86.2246 63.5538C83.6964 60.0731 80.1907 56.4461 76.42 53.1279C72.6603 49.8194 68.7515 46.918 65.4997 44.8682C64.111 43.9927 62.8865 43.3007 61.8774 42.8041C61.8758 42.9057 61.8742 43.0112 61.8726 43.1208L61.8723 43.1452C61.8589 44.0595 61.8423 45.2029 61.7325 46.3734C61.5158 48.685 60.8883 51.7783 58.5436 54.2518C56.1135 56.8155 52.5412 58 48 58C42.2942 58 38.4065 58.9819 35.9713 60.8953C33.7467 62.6432 32 65.7699 32 72C32 78.2531 33.6146 81.1117 36.4196 82.85C39.7974 84.9433 45.7426 86 56 86V94C45.7574 94 37.7026 93.0567 32.2054 89.65C26.1354 85.8883 24 79.7469 24 72C24 64.2301 26.2533 58.3568 31.0287 54.6047C35.5935 51.0181 41.7058 50 48 50C51.2088 50 52.324 49.1845 52.7376 48.7482C53.2367 48.2217 53.6092 47.315 53.7675 45.6266C53.8443 44.8076 53.8595 43.9609 53.8735 43.0042C53.8741 42.9628 53.8747 42.9209 53.8753 42.8785C53.8875 42.0266 53.9023 40.9876 54.0104 40.0446C54.1155 39.1275 54.3639 37.6617 55.2792 36.3722C56.4164 34.7701 58.1546 34 60 34C61.63 34 63.3686 34.677 64.7094 35.2927C66.2259 35.9892 67.9508 36.9564 69.7659 38.1006C73.4048 40.3945 77.6522 43.5556 81.705 47.1221C85.7468 50.6789 89.7099 54.7394 92.6973 58.8524C95.5898 62.8347 98 67.4483 98 72C98 76.5444 95.7626 80.7217 93.0975 84.1556C90.3824 87.6538 86.8562 90.8514 83.4766 93.5161C80.0751 96.198 76.694 98.4398 74.1747 100.006C72.9111 100.792 71.8548 101.414 71.1089 101.842C70.7358 102.056 70.4396 102.222 70.2334 102.337C70.1303 102.394 70.0496 102.438 69.9929 102.469L69.949 102.493C65.9317 104.803 65.7504 107.304 66.14 108.588C66.6093 110.134 68.464 112 72 112C87.8511 112 97.4781 109.09 103.284 103.284C109.09 97.4781 112 87.8511 112 72C112 56.1489 109.09 46.5219 103.284 40.7157ZM62.0179 40.5987C62.0179 40.5987 62.0175 40.6003 62.0165 40.6034C62.0174 40.6002 62.0179 40.5987 62.0179 40.5987Z" fill="#002129"/>
</g>
<defs>
<clipPath id="clip0">
<path d="M0 0H144V144H0V0Z" fill="white"/>
</clipPath>
</defs>
</svg>
