<svg width="144" height="144" viewBox="0 0 144 144" fill="none" xmlns="http://www.w3.org/2000/svg">
<g clip-path="url(#clip0)">
<path d="M121.823 54.0589C146.225 78.4609 146.225 97.5391 121.823 121.941C97.4214 146.343 78.3431 146.343 53.9411 121.941C29.5391 97.5391 29.5391 78.4609 53.9411 54.0589C78.3431 29.6569 97.4214 29.6569 121.823 54.0589Z" fill="#FFD970"/>
<path d="M72 28C104.301 28 116 39.6995 116 72C116 104.301 104.301 116 72 116C62 116 57.5 106 68 100C68 100 94 85 94 72C94 59 65.5 38 60 38C54.5 38 63.5 54 48 54C36 54 28 58 28 72C28 86 35.5 90 56 90" stroke="#000842" stroke-width="8" stroke-linejoin="round"/>
</g>
<defs>
<clipPath id="clip0">
<rect width="144" height="144" fill="white"/>
</clipPath>
</defs>
</svg>
