<svg width="666" height="600" viewBox="0 0 666 600" fill="none" xmlns="http://www.w3.org/2000/svg">
<path d="M478.685 533.098L480.564 525.889V493.889L478.685 501.098L472.864 508.363L465.277 514.087L463.098 515.732L449.38 523.255L431.705 530.982L410.068 538.963L386.837 546.413L364.297 552.514L342.309 557.262L320.736 560.656L299.44 562.692L278.282 563.371L257.124 562.692L235.828 560.656L214.255 557.262L192.267 552.514L169.726 546.413L146.496 538.963L124.859 530.982L107.184 523.255L93.4661 515.732L91.2862 514.087L83.6994 508.363L77.879 501.098L76 493.889V525.889L77.879 533.098L83.6994 540.363L93.4661 547.732L107.184 555.255L124.859 562.982L146.496 570.963L169.726 578.413L192.267 584.514L214.255 589.262L235.828 592.656L257.124 594.692L278.282 595.371L299.44 594.692L320.736 592.656L342.309 589.262L364.297 584.514L386.837 578.413L410.068 570.963L431.705 562.982L449.38 555.255L463.098 547.732L472.864 540.363L478.685 533.098Z" fill="#F5F6FA"/>
<path d="M480.564 493.889L478.506 486.687L472.516 479.442L462.599 472.106L448.76 464.63L431.003 456.966L409.336 449.066L386.136 441.705L363.677 435.687L341.81 431.01L320.388 427.67L299.261 425.668L278.282 425L257.303 425.668L236.176 427.67L214.753 431.01L192.887 435.687L170.428 441.705L147.228 449.066L125.56 456.966L107.804 464.63L93.9647 472.106L84.0476 479.442L78.0578 486.687L76 493.889M480.564 493.889L478.685 501.098L472.864 508.363L465.277 514.087L463.098 515.732L449.38 523.255L431.705 530.982L410.068 538.963L386.837 546.413L364.297 552.514L342.309 557.262L320.736 560.656L299.44 562.692L278.282 563.371L257.124 562.692L235.828 560.656L214.255 557.262L192.267 552.514L169.726 546.413L146.496 538.963L124.859 530.982L107.184 523.255L93.4661 515.732L91.2862 514.087L83.6994 508.363L77.879 501.098L76 493.889M480.564 493.889V525.889L478.685 533.098L472.864 540.363L463.098 547.732L449.38 555.255L431.705 562.982L410.068 570.963L386.837 578.413L364.297 584.514L342.309 589.262L320.736 592.656L299.44 594.692L278.282 595.371L257.124 594.692L235.828 592.656L214.255 589.262L192.267 584.514L169.726 578.413L146.496 570.963L124.859 562.982L107.184 555.255L93.4661 547.732L83.6994 540.363L77.879 533.098L76 525.889V493.889" stroke="#DDDFED" stroke-width="8" stroke-linejoin="round"/>
<path d="M278.282 425L257.303 425.668L236.176 427.67L214.753 431.01L192.887 435.687L170.428 441.705L147.228 449.066L125.56 456.966L107.804 464.63L93.9647 472.106L84.0476 479.442L78.0578 486.687L76 493.889L77.879 501.098L83.6994 508.363L91.2862 514.087L93.4661 515.732L107.184 523.255L124.859 530.982L146.496 538.963L169.726 546.413L192.267 552.514L214.255 557.262L235.828 560.656L257.124 562.692L278.282 563.371L299.44 562.692L320.736 560.656L342.309 557.262L364.297 552.514L386.837 546.413L410.068 538.963L431.705 530.982L449.38 523.255L463.098 515.732L465.277 514.087L472.864 508.363L478.685 501.098L480.564 493.889L478.506 486.687L472.516 479.442L462.599 472.106L448.76 464.63L431.003 456.966L409.336 449.066L386.136 441.705L363.677 435.687L341.81 431.01L320.388 427.67L299.261 425.668L278.282 425Z" fill="white" stroke="#DDDFED" stroke-width="8" stroke-linejoin="round"/>
<path d="M478.685 501.098L480.564 493.889V461.889L478.685 469.098L472.864 476.363L465.277 482.087L463.098 483.732L449.38 491.255L431.705 498.982L410.068 506.963L386.837 514.413L364.297 520.514L342.309 525.262L320.736 528.656L299.44 530.692L278.282 531.371L257.124 530.692L235.828 528.656L214.255 525.262L192.267 520.514L169.726 514.413L146.496 506.963L124.859 498.982L107.184 491.255L93.4661 483.732L91.2862 482.087L83.6994 476.363L77.879 469.098L76 461.889V493.889L77.879 501.098L83.6994 508.363L93.4661 515.732L107.184 523.255L124.859 530.982L146.496 538.963L169.726 546.413L192.267 552.514L214.255 557.262L235.828 560.656L257.124 562.692L278.282 563.371L299.44 562.692L320.736 560.656L342.309 557.262L364.297 552.514L386.837 546.413L410.068 538.963L431.705 530.982L449.38 523.255L463.098 515.732L472.864 508.363L478.685 501.098Z" fill="#F5F6FA"/>
<path d="M480.564 461.889L478.506 454.687L472.516 447.442L462.599 440.106L448.76 432.63L431.003 424.966L409.336 417.066L386.136 409.705L363.677 403.687L341.81 399.01L320.388 395.67L299.261 393.668L278.282 393L257.303 393.668L236.176 395.67L214.753 399.01L192.887 403.687L170.428 409.705L147.228 417.066L125.56 424.966L107.804 432.63L93.9647 440.106L84.0476 447.442L78.0578 454.687L76 461.889M480.564 461.889L478.685 469.098L472.864 476.363L465.277 482.087L463.098 483.732L449.38 491.255L431.705 498.982L410.068 506.963L386.837 514.413L364.297 520.514L342.309 525.262L320.736 528.656L299.44 530.692L278.282 531.371L257.124 530.692L235.828 528.656L214.255 525.262L192.267 520.514L169.726 514.413L146.496 506.963L124.859 498.982L107.184 491.255L93.4661 483.732L91.2862 482.087L83.6994 476.363L77.879 469.098L76 461.889M480.564 461.889V493.889L478.685 501.098L472.864 508.363L463.098 515.732L449.38 523.255L431.705 530.982L410.068 538.963L386.837 546.413L364.297 552.514L342.309 557.262L320.736 560.656L299.44 562.692L278.282 563.371L257.124 562.692L235.828 560.656L214.255 557.262L192.267 552.514L169.726 546.413L146.496 538.963L124.859 530.982L107.184 523.255L93.4661 515.732L83.6994 508.363L77.879 501.098L76 493.889V461.889" stroke="#DDDFED" stroke-width="8" stroke-linejoin="round"/>
<path d="M278.282 393L257.303 393.668L236.176 395.67L214.753 399.01L192.887 403.687L170.428 409.705L147.228 417.066L125.56 424.966L107.804 432.63L93.9647 440.106L84.0476 447.442L78.0578 454.687L76 461.889L77.879 469.098L83.6994 476.363L91.2862 482.087L93.4661 483.732L107.184 491.255L124.859 498.982L146.496 506.963L169.726 514.413L192.267 520.514L214.255 525.262L235.828 528.656L257.124 530.692L278.282 531.371L299.44 530.692L320.736 528.656L342.309 525.262L364.297 520.514L386.837 514.413L410.068 506.963L431.705 498.982L449.38 491.255L463.098 483.732L465.277 482.087L472.864 476.363L478.685 469.098L480.564 461.889L478.506 454.687L472.516 447.442L462.599 440.106L448.76 432.63L431.003 424.966L409.336 417.066L386.136 409.705L363.677 403.687L341.81 399.01L320.388 395.67L299.261 393.668L278.282 393Z" fill="white" stroke="#DDDFED" stroke-width="8" stroke-linejoin="round"/>
<path d="M478.685 469.098L480.564 461.889V429.889L478.685 437.098L472.864 444.363L465.277 450.087L463.098 451.732L449.38 459.255L431.705 466.982L410.068 474.963L386.837 482.413L364.297 488.514L342.309 493.262L320.736 496.656L299.44 498.692L278.282 499.371L257.124 498.692L235.828 496.656L214.255 493.262L192.267 488.514L169.726 482.413L146.496 474.963L124.859 466.982L107.184 459.255L93.4661 451.732L91.2862 450.087L83.6994 444.363L77.879 437.098L76 429.889V461.889L77.879 469.098L83.6994 476.363L93.4661 483.732L107.184 491.255L124.859 498.982L146.496 506.963L169.726 514.413L192.267 520.514L214.255 525.262L235.828 528.656L257.124 530.692L278.282 531.371L299.44 530.692L320.736 528.656L342.309 525.262L364.297 520.514L386.837 514.413L410.068 506.963L431.705 498.982L449.38 491.255L463.098 483.732L472.864 476.363L478.685 469.098Z" fill="#F5F6FA"/>
<path d="M480.564 429.889L478.506 422.687L472.516 415.442L462.599 408.106L448.76 400.63L431.003 392.966L409.336 385.066L386.136 377.705L363.677 371.687L341.81 367.01L320.388 363.67L299.261 361.668L278.282 361L257.303 361.668L236.176 363.67L214.753 367.01L192.887 371.687L170.428 377.705L147.228 385.066L125.56 392.966L107.804 400.63L93.9647 408.106L84.0476 415.442L78.0578 422.687L76 429.889M480.564 429.889L478.685 437.098L472.864 444.363L465.277 450.087L463.098 451.732L449.38 459.255L431.705 466.982L410.068 474.963L386.837 482.413L364.297 488.514L342.309 493.262L320.736 496.656L299.44 498.692L278.282 499.371L257.124 498.692L235.828 496.656L214.255 493.262L192.267 488.514L169.726 482.413L146.496 474.963L124.859 466.982L107.184 459.255L93.4661 451.732L91.2862 450.087L83.6994 444.363L77.879 437.098L76 429.889M480.564 429.889V461.889L478.685 469.098L472.864 476.363L463.098 483.732L449.38 491.255L431.705 498.982L410.068 506.963L386.837 514.413L364.297 520.514L342.309 525.262L320.736 528.656L299.44 530.692L278.282 531.371L257.124 530.692L235.828 528.656L214.255 525.262L192.267 520.514L169.726 514.413L146.496 506.963L124.859 498.982L107.184 491.255L93.4661 483.732L83.6994 476.363L77.879 469.098L76 461.889V429.889" stroke="#DDDFED" stroke-width="8" stroke-linejoin="round"/>
<path d="M278.282 361L257.303 361.668L236.176 363.67L214.753 367.01L192.887 371.687L170.428 377.705L147.228 385.066L125.56 392.966L107.804 400.63L93.9647 408.106L84.0476 415.442L78.0578 422.687L76 429.889L77.879 437.098L83.6994 444.363L91.2862 450.087L93.4661 451.732L107.184 459.255L124.859 466.982L146.496 474.963L169.726 482.413L192.267 488.514L214.255 493.262L235.828 496.656L257.124 498.692L278.282 499.371L299.44 498.692L320.736 496.656L342.309 493.262L364.297 488.514L386.837 482.413L410.068 474.963L431.705 466.982L449.38 459.255L463.098 451.732L465.277 450.087L472.864 444.363L478.685 437.098L480.564 429.889L478.506 422.687L472.516 415.442L462.599 408.106L448.76 400.63L431.003 392.966L409.336 385.066L386.136 377.705L363.677 371.687L341.81 367.01L320.388 363.67L299.261 361.668L278.282 361Z" fill="white" stroke="#DDDFED" stroke-width="8" stroke-linejoin="round"/>
<path d="M494.685 405.098L496.564 397.889V365.889L494.685 373.098L488.864 380.363L481.277 386.087L479.098 387.732L465.38 395.255L447.705 402.982L426.068 410.963L402.837 418.413L380.297 424.514L358.309 429.262L336.736 432.656L315.44 434.692L294.282 435.371L273.124 434.692L251.828 432.656L230.255 429.262L208.267 424.514L185.726 418.413L162.496 410.963L140.859 402.982L123.184 395.255L109.466 387.732L107.286 386.087L99.6994 380.363L93.879 373.098L92 365.889V397.889L93.879 405.098L99.6994 412.363L109.466 419.732L123.184 427.255L140.859 434.982L162.496 442.963L185.726 450.413L208.267 456.514L230.255 461.262L251.828 464.656L273.124 466.692L294.282 467.371L315.44 466.692L336.736 464.656L358.309 461.262L380.297 456.514L402.837 450.413L426.068 442.963L447.705 434.982L465.38 427.255L479.098 419.732L488.864 412.363L494.685 405.098Z" fill="#F5F6FA"/>
<path d="M496.564 365.889L494.506 358.687L488.516 351.442L478.599 344.106L464.76 336.63L447.003 328.966L425.336 321.066L402.136 313.705L379.677 307.687L357.81 303.01L336.388 299.67L315.261 297.668L294.282 297L273.303 297.668L252.176 299.67L230.753 303.01L208.887 307.687L186.428 313.705L163.228 321.066L141.56 328.966L123.804 336.63L109.965 344.106L100.048 351.442L94.0578 358.687L92 365.889M496.564 365.889L494.685 373.098L488.864 380.363L481.277 386.087L479.098 387.732L465.38 395.255L447.705 402.982L426.068 410.963L402.837 418.413L380.297 424.514L358.309 429.262L336.736 432.656L315.44 434.692L294.282 435.371L273.124 434.692L251.828 432.656L230.255 429.262L208.267 424.514L185.726 418.413L162.496 410.963L140.859 402.982L123.184 395.255L109.466 387.732L107.286 386.087L99.6994 380.363L93.879 373.098L92 365.889M496.564 365.889V397.889L494.685 405.098L488.864 412.363L479.098 419.732L465.38 427.255L447.705 434.982L426.068 442.963L402.837 450.413L380.297 456.514L358.309 461.262L336.736 464.656L315.44 466.692L294.282 467.371L273.124 466.692L251.828 464.656L230.255 461.262L208.267 456.514L185.726 450.413L162.496 442.963L140.859 434.982L123.184 427.255L109.466 419.732L99.6994 412.363L93.879 405.098L92 397.889V365.889" stroke="#DDDFED" stroke-width="8" stroke-linejoin="round"/>
<path d="M294.282 297L273.303 297.668L252.176 299.67L230.753 303.01L208.887 307.687L186.428 313.705L163.228 321.066L141.56 328.966L123.804 336.63L109.965 344.106L100.048 351.442L94.0578 358.687L92 365.889L93.879 373.098L99.6994 380.363L107.286 386.087L109.466 387.732L123.184 395.255L140.859 402.982L162.496 410.963L185.726 418.413L208.267 424.514L230.255 429.262L251.828 432.656L273.124 434.692L294.282 435.371L315.44 434.692L336.736 432.656L358.309 429.262L380.297 424.514L402.837 418.413L426.068 410.963L447.705 402.982L465.38 395.255L479.098 387.732L481.277 386.087L488.864 380.363L494.685 373.098L496.564 365.889L494.506 358.687L488.516 351.442L478.599 344.106L464.76 336.63L447.003 328.966L425.336 321.066L402.136 313.705L379.677 307.687L357.81 303.01L336.388 299.67L315.261 297.668L294.282 297Z" fill="white" stroke="#DDDFED" stroke-width="8" stroke-linejoin="round"/>
<path d="M462.685 341.098L464.564 333.889V301.889L462.685 309.098L456.864 316.363L449.277 322.087L447.098 323.732L433.38 331.255L415.705 338.982L394.068 346.963L370.837 354.413L348.297 360.514L326.309 365.262L304.736 368.656L283.44 370.692L262.282 371.371L241.124 370.692L219.828 368.656L198.255 365.262L176.267 360.514L153.726 354.413L130.496 346.963L108.859 338.982L91.184 331.255L77.4661 323.732L75.2862 322.087L67.6994 316.363L61.879 309.098L60 301.889V333.889L61.879 341.098L67.6994 348.363L77.4661 355.732L91.184 363.255L108.859 370.982L130.496 378.963L153.726 386.413L176.267 392.514L198.255 397.262L219.828 400.656L241.124 402.692L262.282 403.371L283.44 402.692L304.736 400.656L326.309 397.262L348.297 392.514L370.837 386.413L394.068 378.963L415.705 370.982L433.38 363.255L447.098 355.732L456.864 348.363L462.685 341.098Z" fill="#F5F6FA"/>
<path d="M464.564 301.889L462.506 294.687L456.516 287.442L446.599 280.106L432.76 272.63L415.003 264.966L393.336 257.066L370.136 249.705L347.677 243.687L325.81 239.01L304.388 235.67L283.261 233.668L262.282 233L241.303 233.668L220.176 235.67L198.753 239.01L176.887 243.687L154.428 249.705L131.228 257.066L109.56 264.966L91.8041 272.63L77.9647 280.106L68.0476 287.442L62.0578 294.687L60 301.889M464.564 301.889L462.685 309.098L456.864 316.363L449.277 322.087L447.098 323.732L433.38 331.255L415.705 338.982L394.068 346.963L370.837 354.413L348.297 360.514L326.309 365.262L304.736 368.656L283.44 370.692L262.282 371.371L241.124 370.692L219.828 368.656L198.255 365.262L176.267 360.514L153.726 354.413L130.496 346.963L108.859 338.982L91.184 331.255L77.4661 323.732L75.2862 322.087L67.6994 316.363L61.879 309.098L60 301.889M464.564 301.889V333.889L462.685 341.098L456.864 348.363L447.098 355.732L433.38 363.255L415.705 370.982L394.068 378.963L370.837 386.413L348.297 392.514L326.309 397.262L304.736 400.656L283.44 402.692L262.282 403.371L241.124 402.692L219.828 400.656L198.255 397.262L176.267 392.514L153.726 386.413L130.496 378.963L108.859 370.982L91.184 363.255L77.4661 355.732L67.6994 348.363L61.879 341.098L60 333.889V301.889" stroke="#DDDFED" stroke-width="8" stroke-linejoin="round"/>
<path d="M262.282 233L241.303 233.668L220.176 235.67L198.753 239.01L176.887 243.687L154.428 249.705L131.228 257.066L109.56 264.966L91.8041 272.63L77.9647 280.106L68.0476 287.442L62.0578 294.687L60 301.889L61.879 309.098L67.6994 316.363L75.2862 322.087L77.4661 323.732L91.184 331.255L108.859 338.982L130.496 346.963L153.726 354.413L176.267 360.514L198.255 365.262L219.828 368.656L241.124 370.692L262.282 371.371L283.44 370.692L304.736 368.656L326.309 365.262L348.297 360.514L370.837 354.413L394.068 346.963L415.705 338.982L433.38 331.255L447.098 323.732L449.277 322.087L456.864 316.363L462.685 309.098L464.564 301.889L462.506 294.687L456.516 287.442L446.599 280.106L432.76 272.63L415.003 264.966L393.336 257.066L370.136 249.705L347.677 243.687L325.81 239.01L304.388 235.67L283.261 233.668L262.282 233Z" fill="white" stroke="#DDDFED" stroke-width="8" stroke-linejoin="round"/>
<path d="M406.685 277.098L408.564 269.889V237.889L406.685 245.098L400.864 252.363L393.277 258.087L391.098 259.732L377.38 267.255L359.705 274.982L338.068 282.963L314.837 290.413L292.297 296.514L270.309 301.262L248.736 304.656L227.44 306.692L206.282 307.371L185.124 306.692L163.828 304.656L142.255 301.262L120.267 296.514L97.7263 290.413L74.4961 282.963L52.8587 274.982L35.184 267.255L21.4661 259.732L19.2862 258.087L11.6994 252.363L5.87899 245.098L4 237.889V269.889L5.87899 277.098L11.6994 284.363L21.4661 291.732L35.184 299.255L52.8587 306.982L74.4961 314.963L97.7263 322.413L120.267 328.514L142.255 333.262L163.828 336.656L185.124 338.692L206.282 339.371L227.44 338.692L248.736 336.656L270.309 333.262L292.297 328.514L314.837 322.413L338.068 314.963L359.705 306.982L377.38 299.255L391.098 291.732L400.864 284.363L406.685 277.098Z" fill="#F5F6FA"/>
<path d="M408.564 237.889L406.506 230.687L400.516 223.442L390.599 216.106L376.76 208.63L359.003 200.966L337.336 193.066L314.136 185.705L291.677 179.687L269.81 175.01L248.388 171.67L227.261 169.668L206.282 169L185.303 169.668L164.176 171.67L142.753 175.01L120.887 179.687L98.4279 185.705L75.2277 193.066L53.5603 200.966L35.8041 208.63L21.9647 216.106L12.0476 223.442L6.05775 230.687L4 237.889M408.564 237.889L406.685 245.098L400.864 252.363L393.277 258.087L391.098 259.732L377.38 267.255L359.705 274.982L338.068 282.963L314.837 290.413L292.297 296.514L270.309 301.262L248.736 304.656L227.44 306.692L206.282 307.371L185.124 306.692L163.828 304.656L142.255 301.262L120.267 296.514L97.7263 290.413L74.4961 282.963L52.8587 274.982L35.184 267.255L21.4661 259.732L19.2862 258.087L11.6994 252.363L5.87899 245.098L4 237.889M408.564 237.889V269.889L406.685 277.098L400.864 284.363L391.098 291.732L377.38 299.255L359.705 306.982L338.068 314.963L314.837 322.413L292.297 328.514L270.309 333.262L248.736 336.656L227.44 338.692L206.282 339.371L185.124 338.692L163.828 336.656L142.255 333.262L120.267 328.514L97.7263 322.413L74.4961 314.963L52.8587 306.982L35.184 299.255L21.4661 291.732L11.6994 284.363L5.87899 277.098L4 269.889V237.889" stroke="#DDDFED" stroke-width="8" stroke-linejoin="round"/>
<path d="M206.282 169L185.303 169.668L164.176 171.67L142.753 175.01L120.887 179.687L98.4279 185.705L75.2277 193.066L53.5603 200.966L35.8041 208.63L21.9647 216.106L12.0476 223.442L6.05775 230.687L4 237.889L5.87899 245.098L11.6994 252.363L19.2862 258.087L21.4661 259.732L35.184 267.255L52.8587 274.982L74.4961 282.963L97.7263 290.413L120.267 296.514L142.255 301.262L163.828 304.656L185.124 306.692L206.282 307.371L227.44 306.692L248.736 304.656L270.309 301.262L292.297 296.514L314.837 290.413L338.068 282.963L359.705 274.982L377.38 267.255L391.098 259.732L393.277 258.087L400.864 252.363L406.685 245.098L408.564 237.889L406.506 230.687L400.516 223.442L390.599 216.106L376.76 208.63L359.003 200.966L337.336 193.066L314.136 185.705L291.677 179.687L269.81 175.01L248.388 171.67L227.261 169.668L206.282 169Z" fill="white" stroke="#DDDFED" stroke-width="8" stroke-linejoin="round"/>
<path d="M518.685 213.098L520.564 205.889V173.889L518.685 181.098L512.864 188.363L505.277 194.087L503.098 195.732L489.38 203.255L471.705 210.982L450.068 218.963L426.837 226.413L404.297 232.514L382.309 237.262L360.736 240.656L339.44 242.692L318.282 243.371L297.124 242.692L275.828 240.656L254.255 237.262L232.267 232.514L209.726 226.413L186.496 218.963L164.859 210.982L147.184 203.255L133.466 195.732L131.286 194.087L123.699 188.363L117.879 181.098L116 173.889V205.889L117.879 213.098L123.699 220.363L133.466 227.732L147.184 235.255L164.859 242.982L186.496 250.963L209.726 258.413L232.267 264.514L254.255 269.262L275.828 272.656L297.124 274.692L318.282 275.371L339.44 274.692L360.736 272.656L382.309 269.262L404.297 264.514L426.837 258.413L450.068 250.963L471.705 242.982L489.38 235.255L503.098 227.732L512.864 220.363L518.685 213.098Z" fill="#F5F6FA"/>
<path d="M520.564 173.889L518.506 166.687L512.516 159.442L502.599 152.106L488.76 144.63L471.003 136.966L449.336 129.066L426.136 121.705L403.677 115.687L381.81 111.01L360.388 107.67L339.261 105.668L318.282 105L297.303 105.668L276.176 107.67L254.753 111.01L232.887 115.687L210.428 121.705L187.228 129.066L165.56 136.966L147.804 144.63L133.965 152.106L124.048 159.442L118.058 166.687L116 173.889M520.564 173.889L518.685 181.098L512.864 188.363L505.277 194.087L503.098 195.732L489.38 203.255L471.705 210.982L450.068 218.963L426.837 226.413L404.297 232.514L382.309 237.262L360.736 240.656L339.44 242.692L318.282 243.371L297.124 242.692L275.828 240.656L254.255 237.262L232.267 232.514L209.726 226.413L186.496 218.963L164.859 210.982L147.184 203.255L133.466 195.732L131.286 194.087L123.699 188.363L117.879 181.098L116 173.889M520.564 173.889V205.889L518.685 213.098L512.864 220.363L503.098 227.732L489.38 235.255L471.705 242.982L450.068 250.963L426.837 258.413L404.297 264.514L382.309 269.262L360.736 272.656L339.44 274.692L318.282 275.371L297.124 274.692L275.828 272.656L254.255 269.262L232.267 264.514L209.726 258.413L186.496 250.963L164.859 242.982L147.184 235.255L133.466 227.732L123.699 220.363L117.879 213.098L116 205.889V173.889" stroke="#DDDFED" stroke-width="8" stroke-linejoin="round"/>
<path d="M318.282 105L297.303 105.668L276.176 107.67L254.753 111.01L232.887 115.687L210.428 121.705L187.228 129.066L165.56 136.966L147.804 144.63L133.965 152.106L124.048 159.442L118.058 166.687L116 173.889L117.879 181.098L123.699 188.363L131.286 194.087L133.466 195.732L147.184 203.255L164.859 210.982L186.496 218.963L209.726 226.413L232.267 232.514L254.255 237.262L275.828 240.656L297.124 242.692L318.282 243.371L339.44 242.692L360.736 240.656L382.309 237.262L404.297 232.514L426.837 226.413L450.068 218.963L471.705 210.982L489.38 203.255L503.098 195.732L505.277 194.087L512.864 188.363L518.685 181.098L520.564 173.889L518.506 166.687L512.516 159.442L502.599 152.106L488.76 144.63L471.003 136.966L449.336 129.066L426.136 121.705L403.677 115.687L381.81 111.01L360.388 107.67L339.261 105.668L318.282 105Z" fill="white" stroke="#DDDFED" stroke-width="8" stroke-linejoin="round"/>
<path d="M639.115 185.36L642.281 178.616L648.133 147.155L644.967 153.899L637.916 159.977L629.411 164.217L626.967 165.436L612.104 170.323L593.315 174.688L570.583 178.577L546.382 181.654L523.106 183.53L500.62 184.177L478.791 183.568L457.481 181.676L436.556 178.475L415.879 173.938L395.314 168.041L374.725 160.76L353.977 152.071L332.932 141.951L311.456 130.378L291.643 118.575L275.679 107.746L263.568 97.841L261.726 95.8254L255.314 88.8101L250.92 80.6038L250.391 73.1728L244.539 104.633L245.068 112.064L249.462 120.271L257.717 129.301L269.827 139.206L285.791 150.035L305.604 161.838L327.08 173.411L348.125 183.531L368.874 192.22L389.462 199.501L410.027 205.398L430.704 209.935L451.629 213.137L472.939 215.029L494.769 215.638L517.254 214.99L540.53 213.114L564.731 210.037L587.463 206.148L606.253 201.784L621.115 196.896L632.065 191.437L639.115 185.36Z" fill="#F5F6FA"/>
<path d="M648.133 147.155L647.427 139.698L642.863 131.48L634.455 122.454L622.216 112.573L606.16 101.792L586.303 90.0627L564.84 78.583L543.86 68.5596L523.218 59.9624L502.767 52.7618L482.363 46.9292L461.86 42.4365L441.112 39.2563L419.975 37.362L398.303 36.7274L375.95 37.3272L352.77 39.1365L328.615 42.1309L305.868 45.9354L287.01 50.2229L272.036 55.0418L260.945 60.4407L253.731 66.4681L250.391 73.1728M648.133 147.155L644.967 153.899L637.916 159.977L629.411 164.217L626.967 165.436L612.104 170.323L593.315 174.688L570.583 178.577L546.382 181.654L523.106 183.53L500.62 184.177L478.791 183.568L457.481 181.676L436.556 178.475L415.879 173.938L395.314 168.041L374.725 160.76L353.977 152.071L332.932 141.951L311.456 130.378L291.643 118.575L275.679 107.746L263.568 97.841L261.726 95.8254L255.314 88.8101L250.92 80.6038L250.391 73.1728M648.133 147.155L642.281 178.616L639.115 185.36L632.065 191.437L621.115 196.896L606.253 201.784L587.463 206.148L564.731 210.037L540.53 213.114L517.254 214.99L494.769 215.638L472.939 215.029L451.629 213.137L430.704 209.935L410.027 205.398L389.462 199.501L368.874 192.22L348.125 183.531L327.08 173.411L305.604 161.838L285.791 150.035L269.827 139.206L257.717 129.301L249.462 120.271L245.068 112.064L244.539 104.633L250.391 73.1728" stroke="#DDDFED" stroke-width="8" stroke-linejoin="round"/>
<path d="M461.86 42.4365L441.112 39.2563L419.975 37.362L398.303 36.7274L375.95 37.3272L352.77 39.1365L328.615 42.1309L305.868 45.9354L287.01 50.2229L272.036 55.0418L260.945 60.4407L253.731 66.4681L250.391 73.1728L250.92 80.6038L255.314 88.8101L261.726 95.8254L263.568 97.841L275.679 107.746L291.643 118.575L311.456 130.378L332.932 141.951L353.977 152.071L374.725 160.76L395.314 168.041L415.879 173.938L436.556 178.475L457.481 181.676L478.791 183.568L500.62 184.177L523.106 183.53L546.382 181.654L570.583 178.577L593.315 174.688L612.104 170.323L626.967 165.436L629.411 164.217L637.916 159.977L644.967 153.899L648.133 147.155L647.427 139.698L642.863 131.48L634.455 122.454L622.216 112.573L606.16 101.792L586.303 90.0627L564.84 78.583L543.86 68.5596L523.218 59.9624L502.767 52.7618L482.363 46.9292L461.86 42.4365Z" fill="white" stroke="#DDDFED" stroke-width="8" stroke-linejoin="round"/>
<path opacity="0.7" d="M209 504.5L156 565.499" stroke="#FFD970" stroke-width="32"/>
<path opacity="0.7" d="M316 94L280 109L283 150L220 173" stroke="#FFD970" stroke-width="32"/>
<path opacity="0.7" d="M29.5 338V263.5L64.5 244.5" stroke="#FFD970" stroke-width="32"/>
<path opacity="0.7" d="M447 425L425 524" stroke="#6B7FFF" stroke-width="32"/>
<path opacity="0.7" d="M301.5 343L320 366L325.5 398L338 414.5" stroke="#6B7FFF" stroke-width="32"/>
</svg>
