<svg width="895" height="684" viewBox="0 0 895 684" fill="none" xmlns="http://www.w3.org/2000/svg">
<path d="M888.685 511.653L890.564 504.444V472.444L888.685 479.653L882.864 486.917L875.277 492.642L873.098 494.287L859.38 501.81L841.705 509.537L820.068 517.518L796.837 524.968L774.297 531.069L752.309 535.817L730.736 539.211L709.44 541.247L688.282 541.926L667.124 541.247L645.828 539.211L624.255 535.817L602.267 531.069L579.726 524.968L556.496 517.518L534.859 509.537L517.184 501.81L503.466 494.287L501.286 492.642L493.699 486.917L487.879 479.653L486 472.444V504.444L487.879 511.653L493.699 518.917L503.466 526.287L517.184 533.81L534.859 541.537L556.496 549.518L579.726 556.968L602.267 563.069L624.255 567.817L645.828 571.211L667.124 573.247L688.282 573.926L709.44 573.247L730.736 571.211L752.309 567.817L774.297 563.069L796.837 556.968L820.068 549.518L841.705 541.537L859.38 533.81L873.098 526.287L882.864 518.917L888.685 511.653Z" fill="#F5F6FA"/>
<path d="M890.564 472.444L888.506 465.242L882.516 457.997L872.599 450.661L858.76 443.185L841.003 435.521L819.336 427.621L796.136 420.26L773.677 414.242L751.81 409.565L730.388 406.225L709.261 404.222L688.282 403.555L667.303 404.222L646.176 406.225L624.753 409.565L602.887 414.242L580.428 420.26L557.228 427.621L535.56 435.521L517.804 443.185L503.965 450.661L494.048 457.997L488.058 465.242L486 472.444M890.564 472.444L888.685 479.653L882.864 486.917L875.277 492.642L873.098 494.287L859.38 501.81L841.705 509.537L820.068 517.518L796.837 524.968L774.297 531.069L752.309 535.817L730.736 539.211L709.44 541.247L688.282 541.926L667.124 541.247L645.828 539.211L624.255 535.817L602.267 531.069L579.726 524.968L556.496 517.518L534.859 509.537L517.184 501.81L503.466 494.287L501.286 492.642L493.699 486.917L487.879 479.653L486 472.444M890.564 472.444V504.444L888.685 511.653L882.864 518.917L873.098 526.287L859.38 533.81L841.705 541.537L820.068 549.518L796.837 556.968L774.297 563.069L752.309 567.817L730.736 571.211L709.44 573.247L688.282 573.926L667.124 573.247L645.828 571.211L624.255 567.817L602.267 563.069L579.726 556.968L556.496 549.518L534.859 541.537L517.184 533.81L503.466 526.287L493.699 518.917L487.879 511.653L486 504.444V472.444" stroke="#DDDFED" stroke-width="8" stroke-linejoin="round"/>
<path d="M688.282 403.555L667.303 404.222L646.176 406.225L624.753 409.565L602.887 414.242L580.428 420.26L557.228 427.621L535.56 435.521L517.804 443.185L503.965 450.661L494.048 457.997L488.058 465.242L486 472.444L487.879 479.653L493.699 486.917L501.286 492.642L503.466 494.287L517.184 501.81L534.859 509.537L556.496 517.518L579.726 524.968L602.267 531.069L624.255 535.817L645.828 539.211L667.124 541.247L688.282 541.926L709.44 541.247L730.736 539.211L752.309 535.817L774.297 531.069L796.837 524.968L820.068 517.518L841.705 509.537L859.38 501.81L873.098 494.287L875.277 492.642L882.864 486.917L888.685 479.653L890.564 472.444L888.506 465.242L882.516 457.997L872.599 450.661L858.76 443.185L841.003 435.521L819.336 427.621L796.136 420.26L773.677 414.242L751.81 409.565L730.388 406.225L709.261 404.222L688.282 403.555Z" fill="white" stroke="#DDDFED" stroke-width="8" stroke-linejoin="round"/>
<path d="M783.435 390.729L782.736 383.313L771.791 353.242L772.491 360.659L769.506 369.476L764.335 377.45L762.849 379.741L752.531 391.503L738.565 404.809L720.962 419.709L701.681 434.655L682.587 448.097L663.549 460.079L644.437 470.647L625.122 479.844L605.472 487.719L585.358 494.317L564.65 499.687L543.217 503.877L520.931 506.935L497.664 508.911L473.286 509.855L450.224 509.757L430.972 508.541L415.509 506.163L412.898 505.363L403.811 502.579L395.857 497.743L391.625 491.611L402.57 521.682L406.801 527.813L414.755 532.649L426.453 536.233L441.917 538.611L461.169 539.827L484.231 539.926L508.608 538.982L531.876 537.005L554.162 533.947L575.594 529.757L596.303 524.387L616.417 517.789L636.067 509.914L655.382 500.717L674.494 490.15L693.531 478.167L712.626 464.725L731.907 449.779L749.51 434.879L763.476 421.573L773.793 409.812L780.451 399.546L783.435 390.729Z" fill="#F5F6FA"/>
<path d="M771.791 353.242L767.394 347.178L759.287 342.419L747.459 338.917L731.898 336.625L712.591 335.497L689.528 335.484L665.21 336.501L642.047 338.528L619.899 341.611L598.627 345.8L578.089 351.144L558.147 357.692L538.661 365.495L519.493 374.603L500.505 385.068L481.557 396.942L462.51 410.278L443.227 425.13L425.568 439.964L411.504 453.239L401.056 464.997L394.246 475.283L391.096 484.139L391.625 491.611M771.791 353.242L772.491 360.659L769.506 369.476L764.335 377.45L762.849 379.741L752.531 391.503L738.565 404.809L720.962 419.709L701.681 434.655L682.587 448.097L663.549 460.079L644.437 470.647L625.122 479.844L605.472 487.719L585.358 494.317L564.65 499.687L543.217 503.877L520.931 506.935L497.664 508.911L473.286 509.855L450.224 509.757L430.972 508.541L415.509 506.163L412.898 505.363L403.811 502.579L395.857 497.743L391.625 491.611M771.791 353.242L782.736 383.313L783.435 390.729L780.451 399.546L773.793 409.812L763.476 421.573L749.51 434.879L731.907 449.779L712.626 464.725L693.531 478.167L674.494 490.15L655.382 500.717L636.067 509.914L616.417 517.789L596.303 524.387L575.594 529.757L554.162 533.947L531.876 537.005L508.608 538.982L484.231 539.926L461.169 539.827L441.917 538.611L426.453 536.233L414.755 532.649L406.801 527.813L402.57 521.682L391.625 491.611" stroke="#DDDFED" stroke-width="8" stroke-linejoin="round"/>
<path d="M558.147 357.692L538.661 365.495L519.493 374.603L500.505 385.068L481.557 396.942L462.51 410.278L443.227 425.13L425.568 439.964L411.504 453.239L401.056 464.997L394.246 475.283L391.096 484.139L391.625 491.611L395.857 497.743L403.811 502.579L412.898 505.363L415.509 506.163L430.972 508.541L450.224 509.757L473.286 509.855L497.664 508.911L520.931 506.935L543.217 503.877L564.65 499.687L585.358 494.317L605.472 487.719L625.122 479.844L644.437 470.647L663.549 460.079L682.587 448.097L701.681 434.655L720.962 419.709L738.565 404.809L752.531 391.503L762.849 379.741L764.335 377.45L769.506 369.476L772.491 360.659L771.791 353.242L767.394 347.178L759.287 342.419L747.459 338.917L731.898 336.625L712.591 335.497L689.528 335.484L665.21 336.501L642.047 338.528L619.899 341.611L598.627 345.8L578.089 351.144L558.147 357.692Z" fill="white" stroke="#DDDFED" stroke-width="8" stroke-linejoin="round"/>
<path d="M478.685 617.653L480.564 610.444V578.444L478.685 585.653L472.864 592.917L465.277 598.642L463.098 600.287L449.38 607.81L431.705 615.537L410.068 623.518L386.837 630.968L364.297 637.069L342.309 641.817L320.736 645.211L299.44 647.247L278.282 647.926L257.124 647.247L235.828 645.211L214.255 641.817L192.267 637.069L169.726 630.968L146.496 623.518L124.859 615.537L107.184 607.81L93.4661 600.287L91.2862 598.642L83.6994 592.917L77.879 585.653L76 578.444V610.444L77.879 617.653L83.6994 624.917L93.4661 632.287L107.184 639.81L124.859 647.537L146.496 655.518L169.726 662.968L192.267 669.069L214.255 673.817L235.828 677.211L257.124 679.247L278.282 679.926L299.44 679.247L320.736 677.211L342.309 673.817L364.297 669.069L386.837 662.968L410.068 655.518L431.705 647.537L449.38 639.81L463.098 632.287L472.864 624.917L478.685 617.653Z" fill="#F5F6FA"/>
<path d="M480.564 578.444L478.506 571.242L472.516 563.997L462.599 556.661L448.76 549.185L431.003 541.521L409.336 533.621L386.136 526.26L363.677 520.242L341.81 515.565L320.388 512.225L299.261 510.222L278.282 509.555L257.303 510.222L236.176 512.225L214.753 515.565L192.887 520.242L170.428 526.26L147.228 533.621L125.56 541.521L107.804 549.185L93.9647 556.661L84.0476 563.997L78.0578 571.242L76 578.444M480.564 578.444L478.685 585.653L472.864 592.917L465.277 598.642L463.098 600.287L449.38 607.81L431.705 615.537L410.068 623.518L386.837 630.968L364.297 637.069L342.309 641.817L320.736 645.211L299.44 647.247L278.282 647.926L257.124 647.247L235.828 645.211L214.255 641.817L192.267 637.069L169.726 630.968L146.496 623.518L124.859 615.537L107.184 607.81L93.4661 600.287L91.2862 598.642L83.6994 592.917L77.879 585.653L76 578.444M480.564 578.444V610.444L478.685 617.653L472.864 624.917L463.098 632.287L449.38 639.81L431.705 647.537L410.068 655.518L386.837 662.968L364.297 669.069L342.309 673.817L320.736 677.211L299.44 679.247L278.282 679.926L257.124 679.247L235.828 677.211L214.255 673.817L192.267 669.069L169.726 662.968L146.496 655.518L124.859 647.537L107.184 639.81L93.4661 632.287L83.6994 624.917L77.879 617.653L76 610.444V578.444" stroke="#DDDFED" stroke-width="8" stroke-linejoin="round"/>
<path d="M278.282 509.555L257.303 510.222L236.176 512.225L214.753 515.565L192.887 520.242L170.428 526.26L147.228 533.621L125.56 541.521L107.804 549.185L93.9647 556.661L84.0476 563.997L78.0578 571.242L76 578.444L77.879 585.653L83.6994 592.917L91.2862 598.642L93.4661 600.287L107.184 607.81L124.859 615.537L146.496 623.518L169.726 630.968L192.267 637.069L214.255 641.817L235.828 645.211L257.124 647.247L278.282 647.926L299.44 647.247L320.736 645.211L342.309 641.817L364.297 637.069L386.837 630.968L410.068 623.518L431.705 615.537L449.38 607.81L463.098 600.287L465.277 598.642L472.864 592.917L478.685 585.653L480.564 578.444L478.506 571.242L472.516 563.997L462.599 556.661L448.76 549.185L431.003 541.521L409.336 533.621L386.136 526.26L363.677 520.242L341.81 515.565L320.388 512.225L299.261 510.222L278.282 509.555Z" fill="white" stroke="#DDDFED" stroke-width="8" stroke-linejoin="round"/>
<path d="M478.685 585.653L480.564 578.444V546.444L478.685 553.653L472.864 560.917L465.277 566.642L463.098 568.287L449.38 575.81L431.705 583.537L410.068 591.518L386.837 598.968L364.297 605.069L342.309 609.817L320.736 613.211L299.44 615.247L278.282 615.926L257.124 615.247L235.828 613.211L214.255 609.817L192.267 605.069L169.726 598.968L146.496 591.518L124.859 583.537L107.184 575.81L93.4661 568.287L91.2862 566.642L83.6994 560.917L77.879 553.653L76 546.444V578.444L77.879 585.653L83.6994 592.917L93.4661 600.287L107.184 607.81L124.859 615.537L146.496 623.518L169.726 630.968L192.267 637.069L214.255 641.817L235.828 645.211L257.124 647.247L278.282 647.926L299.44 647.247L320.736 645.211L342.309 641.817L364.297 637.069L386.837 630.968L410.068 623.518L431.705 615.537L449.38 607.81L463.098 600.287L472.864 592.917L478.685 585.653Z" fill="#F5F6FA"/>
<path d="M480.564 546.444L478.506 539.242L472.516 531.997L462.599 524.661L448.76 517.185L431.003 509.521L409.336 501.621L386.136 494.26L363.677 488.242L341.81 483.565L320.388 480.225L299.261 478.222L278.282 477.555L257.303 478.222L236.176 480.225L214.753 483.565L192.887 488.242L170.428 494.26L147.228 501.621L125.56 509.521L107.804 517.185L93.9647 524.661L84.0476 531.997L78.0578 539.242L76 546.444M480.564 546.444L478.685 553.653L472.864 560.917L465.277 566.642L463.098 568.287L449.38 575.81L431.705 583.537L410.068 591.518L386.837 598.968L364.297 605.069L342.309 609.817L320.736 613.211L299.44 615.247L278.282 615.926L257.124 615.247L235.828 613.211L214.255 609.817L192.267 605.069L169.726 598.968L146.496 591.518L124.859 583.537L107.184 575.81L93.4661 568.287L91.2862 566.642L83.6994 560.917L77.879 553.653L76 546.444M480.564 546.444V578.444L478.685 585.653L472.864 592.917L463.098 600.287L449.38 607.81L431.705 615.537L410.068 623.518L386.837 630.968L364.297 637.069L342.309 641.817L320.736 645.211L299.44 647.247L278.282 647.926L257.124 647.247L235.828 645.211L214.255 641.817L192.267 637.069L169.726 630.968L146.496 623.518L124.859 615.537L107.184 607.81L93.4661 600.287L83.6994 592.917L77.879 585.653L76 578.444V546.444" stroke="#DDDFED" stroke-width="8" stroke-linejoin="round"/>
<path d="M278.282 477.555L257.303 478.222L236.176 480.225L214.753 483.565L192.887 488.242L170.428 494.26L147.228 501.621L125.56 509.521L107.804 517.185L93.9647 524.661L84.0476 531.997L78.0578 539.242L76 546.444L77.879 553.653L83.6994 560.917L91.2862 566.642L93.4661 568.287L107.184 575.81L124.859 583.537L146.496 591.518L169.726 598.968L192.267 605.069L214.255 609.817L235.828 613.211L257.124 615.247L278.282 615.926L299.44 615.247L320.736 613.211L342.309 609.817L364.297 605.069L386.837 598.968L410.068 591.518L431.705 583.537L449.38 575.81L463.098 568.287L465.277 566.642L472.864 560.917L478.685 553.653L480.564 546.444L478.506 539.242L472.516 531.997L462.599 524.661L448.76 517.185L431.003 509.521L409.336 501.621L386.136 494.26L363.677 488.242L341.81 483.565L320.388 480.225L299.261 478.222L278.282 477.555Z" fill="white" stroke="#DDDFED" stroke-width="8" stroke-linejoin="round"/>
<path d="M478.685 553.653L480.564 546.444V514.444L478.685 521.653L472.864 528.917L465.277 534.642L463.098 536.287L449.38 543.81L431.705 551.537L410.068 559.518L386.837 566.968L364.297 573.069L342.309 577.817L320.736 581.211L299.44 583.247L278.282 583.926L257.124 583.247L235.828 581.211L214.255 577.817L192.267 573.069L169.726 566.968L146.496 559.518L124.859 551.537L107.184 543.81L93.4661 536.287L91.2862 534.642L83.6994 528.917L77.879 521.653L76 514.444V546.444L77.879 553.653L83.6994 560.917L93.4661 568.287L107.184 575.81L124.859 583.537L146.496 591.518L169.726 598.968L192.267 605.069L214.255 609.817L235.828 613.211L257.124 615.247L278.282 615.926L299.44 615.247L320.736 613.211L342.309 609.817L364.297 605.069L386.837 598.968L410.068 591.518L431.705 583.537L449.38 575.81L463.098 568.287L472.864 560.917L478.685 553.653Z" fill="#F5F6FA"/>
<path d="M480.564 514.444L478.506 507.242L472.516 499.997L462.599 492.661L448.76 485.185L431.003 477.521L409.336 469.621L386.136 462.26L363.677 456.242L341.81 451.565L320.388 448.225L299.261 446.222L278.282 445.555L257.303 446.222L236.176 448.225L214.753 451.565L192.887 456.242L170.428 462.26L147.228 469.621L125.56 477.521L107.804 485.185L93.9647 492.661L84.0476 499.997L78.0578 507.242L76 514.444M480.564 514.444L478.685 521.653L472.864 528.917L465.277 534.642L463.098 536.287L449.38 543.81L431.705 551.537L410.068 559.518L386.837 566.968L364.297 573.069L342.309 577.817L320.736 581.211L299.44 583.247L278.282 583.926L257.124 583.247L235.828 581.211L214.255 577.817L192.267 573.069L169.726 566.968L146.496 559.518L124.859 551.537L107.184 543.81L93.4661 536.287L91.2862 534.642L83.6994 528.917L77.879 521.653L76 514.444M480.564 514.444V546.444L478.685 553.653L472.864 560.917L463.098 568.287L449.38 575.81L431.705 583.537L410.068 591.518L386.837 598.968L364.297 605.069L342.309 609.817L320.736 613.211L299.44 615.247L278.282 615.926L257.124 615.247L235.828 613.211L214.255 609.817L192.267 605.069L169.726 598.968L146.496 591.518L124.859 583.537L107.184 575.81L93.4661 568.287L83.6994 560.917L77.879 553.653L76 546.444V514.444" stroke="#DDDFED" stroke-width="8" stroke-linejoin="round"/>
<path d="M278.282 445.555L257.303 446.222L236.176 448.225L214.753 451.565L192.887 456.242L170.428 462.26L147.228 469.621L125.56 477.521L107.804 485.185L93.9647 492.661L84.0476 499.997L78.0578 507.242L76 514.444L77.879 521.653L83.6994 528.917L91.2862 534.642L93.4661 536.287L107.184 543.81L124.859 551.537L146.496 559.518L169.726 566.968L192.267 573.069L214.255 577.817L235.828 581.211L257.124 583.247L278.282 583.926L299.44 583.247L320.736 581.211L342.309 577.817L364.297 573.069L386.837 566.968L410.068 559.518L431.705 551.537L449.38 543.81L463.098 536.287L465.277 534.642L472.864 528.917L478.685 521.653L480.564 514.444L478.506 507.242L472.516 499.997L462.599 492.661L448.76 485.185L431.003 477.521L409.336 469.621L386.136 462.26L363.677 456.242L341.81 451.565L320.388 448.225L299.261 446.222L278.282 445.555Z" fill="white" stroke="#DDDFED" stroke-width="8" stroke-linejoin="round"/>
<path d="M494.685 489.653L496.564 482.444V450.444L494.685 457.653L488.864 464.917L481.277 470.642L479.098 472.287L465.38 479.81L447.705 487.537L426.068 495.518L402.837 502.968L380.297 509.069L358.309 513.817L336.736 517.211L315.44 519.247L294.282 519.926L273.124 519.247L251.828 517.211L230.255 513.817L208.267 509.069L185.726 502.968L162.496 495.518L140.859 487.537L123.184 479.81L109.466 472.287L107.286 470.642L99.6994 464.917L93.879 457.653L92 450.444V482.444L93.879 489.653L99.6994 496.917L109.466 504.287L123.184 511.81L140.859 519.537L162.496 527.518L185.726 534.968L208.267 541.069L230.255 545.817L251.828 549.211L273.124 551.247L294.282 551.926L315.44 551.247L336.736 549.211L358.309 545.817L380.297 541.069L402.837 534.968L426.068 527.518L447.705 519.537L465.38 511.81L479.098 504.287L488.864 496.917L494.685 489.653Z" fill="#F5F6FA"/>
<path d="M496.564 450.444L494.506 443.242L488.516 435.997L478.599 428.661L464.76 421.185L447.003 413.521L425.336 405.621L402.136 398.26L379.677 392.242L357.81 387.565L336.388 384.225L315.261 382.222L294.282 381.555L273.303 382.222L252.176 384.225L230.753 387.565L208.887 392.242L186.428 398.26L163.228 405.621L141.56 413.521L123.804 421.185L109.965 428.661L100.048 435.997L94.0578 443.242L92 450.444M496.564 450.444L494.685 457.653L488.864 464.917L481.277 470.642L479.098 472.287L465.38 479.81L447.705 487.537L426.068 495.518L402.837 502.968L380.297 509.069L358.309 513.817L336.736 517.211L315.44 519.247L294.282 519.926L273.124 519.247L251.828 517.211L230.255 513.817L208.267 509.069L185.726 502.968L162.496 495.518L140.859 487.537L123.184 479.81L109.466 472.287L107.286 470.642L99.6994 464.917L93.879 457.653L92 450.444M496.564 450.444V482.444L494.685 489.653L488.864 496.917L479.098 504.287L465.38 511.81L447.705 519.537L426.068 527.518L402.837 534.968L380.297 541.069L358.309 545.817L336.736 549.211L315.44 551.247L294.282 551.926L273.124 551.247L251.828 549.211L230.255 545.817L208.267 541.069L185.726 534.968L162.496 527.518L140.859 519.537L123.184 511.81L109.466 504.287L99.6994 496.917L93.879 489.653L92 482.444V450.444" stroke="#DDDFED" stroke-width="8" stroke-linejoin="round"/>
<path d="M294.282 381.555L273.303 382.222L252.176 384.225L230.753 387.565L208.887 392.242L186.428 398.26L163.228 405.621L141.56 413.521L123.804 421.185L109.965 428.661L100.048 435.997L94.0578 443.242L92 450.444L93.879 457.653L99.6994 464.917L107.286 470.642L109.466 472.287L123.184 479.81L140.859 487.537L162.496 495.518L185.726 502.968L208.267 509.069L230.255 513.817L251.828 517.211L273.124 519.247L294.282 519.926L315.44 519.247L336.736 517.211L358.309 513.817L380.297 509.069L402.837 502.968L426.068 495.518L447.705 487.537L465.38 479.81L479.098 472.287L481.277 470.642L488.864 464.917L494.685 457.653L496.564 450.444L494.506 443.242L488.516 435.997L478.599 428.661L464.76 421.185L447.003 413.521L425.336 405.621L402.136 398.26L379.677 392.242L357.81 387.565L336.388 384.225L315.261 382.222L294.282 381.555Z" fill="white" stroke="#DDDFED" stroke-width="8" stroke-linejoin="round"/>
<path d="M462.685 425.653L464.564 418.444V386.444L462.685 393.653L456.864 400.917L449.277 406.642L447.098 408.287L433.38 415.81L415.705 423.537L394.068 431.518L370.837 438.968L348.297 445.069L326.309 449.817L304.736 453.211L283.44 455.247L262.282 455.926L241.124 455.247L219.828 453.211L198.255 449.817L176.267 445.069L153.726 438.968L130.496 431.518L108.859 423.537L91.184 415.81L77.4661 408.287L75.2862 406.642L67.6994 400.917L61.879 393.653L60 386.444V418.444L61.879 425.653L67.6994 432.917L77.4661 440.287L91.184 447.81L108.859 455.537L130.496 463.518L153.726 470.968L176.267 477.069L198.255 481.817L219.828 485.211L241.124 487.247L262.282 487.926L283.44 487.247L304.736 485.211L326.309 481.817L348.297 477.069L370.837 470.968L394.068 463.518L415.705 455.537L433.38 447.81L447.098 440.287L456.864 432.917L462.685 425.653Z" fill="#F5F6FA"/>
<path d="M464.564 386.444L462.506 379.242L456.516 371.997L446.599 364.661L432.76 357.185L415.003 349.521L393.336 341.621L370.136 334.26L347.677 328.242L325.81 323.565L304.388 320.225L283.261 318.222L262.282 317.555L241.303 318.222L220.176 320.225L198.753 323.565L176.887 328.242L154.428 334.26L131.228 341.621L109.56 349.521L91.8041 357.185L77.9647 364.661L68.0476 371.997L62.0578 379.242L60 386.444M464.564 386.444L462.685 393.653L456.864 400.917L449.277 406.642L447.098 408.287L433.38 415.81L415.705 423.537L394.068 431.518L370.837 438.968L348.297 445.069L326.309 449.817L304.736 453.211L283.44 455.247L262.282 455.926L241.124 455.247L219.828 453.211L198.255 449.817L176.267 445.069L153.726 438.968L130.496 431.518L108.859 423.537L91.184 415.81L77.4661 408.287L75.2862 406.642L67.6994 400.917L61.879 393.653L60 386.444M464.564 386.444V418.444L462.685 425.653L456.864 432.917L447.098 440.287L433.38 447.81L415.705 455.537L394.068 463.518L370.837 470.968L348.297 477.069L326.309 481.817L304.736 485.211L283.44 487.247L262.282 487.926L241.124 487.247L219.828 485.211L198.255 481.817L176.267 477.069L153.726 470.968L130.496 463.518L108.859 455.537L91.184 447.81L77.4661 440.287L67.6994 432.917L61.879 425.653L60 418.444V386.444" stroke="#DDDFED" stroke-width="8" stroke-linejoin="round"/>
<path d="M262.282 317.555L241.303 318.222L220.176 320.225L198.753 323.565L176.887 328.242L154.428 334.26L131.228 341.621L109.56 349.521L91.8041 357.185L77.9647 364.661L68.0476 371.997L62.0578 379.242L60 386.444L61.879 393.653L67.6994 400.917L75.2862 406.642L77.4661 408.287L91.184 415.81L108.859 423.537L130.496 431.518L153.726 438.968L176.267 445.069L198.255 449.817L219.828 453.211L241.124 455.247L262.282 455.926L283.44 455.247L304.736 453.211L326.309 449.817L348.297 445.069L370.837 438.968L394.068 431.518L415.705 423.537L433.38 415.81L447.098 408.287L449.277 406.642L456.864 400.917L462.685 393.653L464.564 386.444L462.506 379.242L456.516 371.997L446.599 364.661L432.76 357.185L415.003 349.521L393.336 341.621L370.136 334.26L347.677 328.242L325.81 323.565L304.388 320.225L283.261 318.222L262.282 317.555Z" fill="white" stroke="#DDDFED" stroke-width="8" stroke-linejoin="round"/>
<path d="M406.685 361.653L408.564 354.444V322.444L406.685 329.653L400.864 336.917L393.277 342.642L391.098 344.287L377.38 351.81L359.705 359.537L338.068 367.518L314.837 374.968L292.297 381.069L270.309 385.817L248.736 389.211L227.44 391.247L206.282 391.926L185.124 391.247L163.828 389.211L142.255 385.817L120.267 381.069L97.7263 374.968L74.4961 367.518L52.8587 359.537L35.184 351.81L21.4661 344.287L19.2862 342.642L11.6994 336.917L5.87899 329.653L4 322.444V354.444L5.87899 361.653L11.6994 368.917L21.4661 376.287L35.184 383.81L52.8587 391.537L74.4961 399.518L97.7263 406.968L120.267 413.069L142.255 417.817L163.828 421.211L185.124 423.247L206.282 423.926L227.44 423.247L248.736 421.211L270.309 417.817L292.297 413.069L314.837 406.968L338.068 399.518L359.705 391.537L377.38 383.81L391.098 376.287L400.864 368.917L406.685 361.653Z" fill="#F5F6FA"/>
<path d="M408.564 322.444L406.506 315.242L400.516 307.997L390.599 300.661L376.76 293.185L359.003 285.521L337.336 277.621L314.136 270.26L291.677 264.242L269.81 259.565L248.388 256.225L227.261 254.222L206.282 253.555L185.303 254.222L164.176 256.225L142.753 259.565L120.887 264.242L98.4279 270.26L75.2277 277.621L53.5603 285.521L35.8041 293.185L21.9647 300.661L12.0476 307.997L6.05775 315.242L4 322.444M408.564 322.444L406.685 329.653L400.864 336.917L393.277 342.642L391.098 344.287L377.38 351.81L359.705 359.537L338.068 367.518L314.837 374.968L292.297 381.069L270.309 385.817L248.736 389.211L227.44 391.247L206.282 391.926L185.124 391.247L163.828 389.211L142.255 385.817L120.267 381.069L97.7263 374.968L74.4961 367.518L52.8587 359.537L35.184 351.81L21.4661 344.287L19.2862 342.642L11.6994 336.917L5.87899 329.653L4 322.444M408.564 322.444V354.444L406.685 361.653L400.864 368.917L391.098 376.287L377.38 383.81L359.705 391.537L338.068 399.518L314.837 406.968L292.297 413.069L270.309 417.817L248.736 421.211L227.44 423.247L206.282 423.926L185.124 423.247L163.828 421.211L142.255 417.817L120.267 413.069L97.7263 406.968L74.4961 399.518L52.8587 391.537L35.184 383.81L21.4661 376.287L11.6994 368.917L5.87899 361.653L4 354.444V322.444" stroke="#DDDFED" stroke-width="8" stroke-linejoin="round"/>
<path d="M206.282 253.555L185.303 254.222L164.176 256.225L142.753 259.565L120.887 264.242L98.4279 270.26L75.2277 277.621L53.5603 285.521L35.8041 293.185L21.9647 300.661L12.0476 307.997L6.05775 315.242L4 322.444L5.87899 329.653L11.6994 336.917L19.2862 342.642L21.4661 344.287L35.184 351.81L52.8587 359.537L74.4961 367.518L97.7263 374.968L120.267 381.069L142.255 385.817L163.828 389.211L185.124 391.247L206.282 391.926L227.44 391.247L248.736 389.211L270.309 385.817L292.297 381.069L314.837 374.968L338.068 367.518L359.705 359.537L377.38 351.81L391.098 344.287L393.277 342.642L400.864 336.917L406.685 329.653L408.564 322.444L406.506 315.242L400.516 307.997L390.599 300.661L376.76 293.185L359.003 285.521L337.336 277.621L314.136 270.26L291.677 264.242L269.81 259.565L248.388 256.225L227.261 254.222L206.282 253.555Z" fill="white" stroke="#DDDFED" stroke-width="8" stroke-linejoin="round"/>
<path d="M518.685 297.653L520.564 290.444V258.444L518.685 265.653L512.864 272.917L505.277 278.642L503.098 280.287L489.38 287.81L471.705 295.537L450.068 303.518L426.837 310.968L404.297 317.069L382.309 321.817L360.736 325.211L339.44 327.247L318.282 327.926L297.124 327.247L275.828 325.211L254.255 321.817L232.267 317.069L209.726 310.968L186.496 303.518L164.859 295.537L147.184 287.81L133.466 280.287L131.286 278.642L123.699 272.917L117.879 265.653L116 258.444V290.444L117.879 297.653L123.699 304.917L133.466 312.287L147.184 319.81L164.859 327.537L186.496 335.518L209.726 342.968L232.267 349.069L254.255 353.817L275.828 357.211L297.124 359.247L318.282 359.926L339.44 359.247L360.736 357.211L382.309 353.817L404.297 349.069L426.837 342.968L450.068 335.518L471.705 327.537L489.38 319.81L503.098 312.287L512.864 304.917L518.685 297.653Z" fill="#F5F6FA"/>
<path d="M520.564 258.444L518.506 251.242L512.516 243.997L502.599 236.661L488.76 229.185L471.003 221.521L449.336 213.621L426.136 206.26L403.677 200.242L381.81 195.565L360.388 192.225L339.261 190.222L318.282 189.555L297.303 190.222L276.176 192.225L254.753 195.565L232.887 200.242L210.428 206.26L187.228 213.621L165.56 221.521L147.804 229.185L133.965 236.661L124.048 243.997L118.058 251.242L116 258.444M520.564 258.444L518.685 265.653L512.864 272.917L505.277 278.642L503.098 280.287L489.38 287.81L471.705 295.537L450.068 303.518L426.837 310.968L404.297 317.069L382.309 321.817L360.736 325.211L339.44 327.247L318.282 327.926L297.124 327.247L275.828 325.211L254.255 321.817L232.267 317.069L209.726 310.968L186.496 303.518L164.859 295.537L147.184 287.81L133.466 280.287L131.286 278.642L123.699 272.917L117.879 265.653L116 258.444M520.564 258.444V290.444L518.685 297.653L512.864 304.917L503.098 312.287L489.38 319.81L471.705 327.537L450.068 335.518L426.837 342.968L404.297 349.069L382.309 353.817L360.736 357.211L339.44 359.247L318.282 359.926L297.124 359.247L275.828 357.211L254.255 353.817L232.267 349.069L209.726 342.968L186.496 335.518L164.859 327.537L147.184 319.81L133.466 312.287L123.699 304.917L117.879 297.653L116 290.444V258.444" stroke="#DDDFED" stroke-width="8" stroke-linejoin="round"/>
<path d="M318.282 189.555L297.303 190.222L276.176 192.225L254.753 195.565L232.887 200.242L210.428 206.26L187.228 213.621L165.56 221.521L147.804 229.185L133.965 236.661L124.048 243.997L118.058 251.242L116 258.444L117.879 265.653L123.699 272.917L131.286 278.642L133.466 280.287L147.184 287.81L164.859 295.537L186.496 303.518L209.726 310.968L232.267 317.069L254.255 321.817L275.828 325.211L297.124 327.247L318.282 327.926L339.44 327.247L360.736 325.211L382.309 321.817L404.297 317.069L426.837 310.968L450.068 303.518L471.705 295.537L489.38 287.81L503.098 280.287L505.277 278.642L512.864 272.917L518.685 265.653L520.564 258.444L518.506 251.242L512.516 243.997L502.599 236.661L488.76 229.185L471.003 221.521L449.336 213.621L426.136 206.26L403.677 200.242L381.81 195.565L360.388 192.225L339.261 190.222L318.282 189.555Z" fill="white" stroke="#DDDFED" stroke-width="8" stroke-linejoin="round"/>
<path d="M639.115 269.914L642.281 263.171L648.133 231.71L644.967 238.454L637.916 244.531L629.411 248.772L626.967 249.99L612.104 254.878L593.315 259.243L570.583 263.132L546.382 266.209L523.106 268.085L500.62 268.732L478.791 268.123L457.481 266.231L436.556 263.029L415.879 258.493L395.314 252.596L374.725 245.315L353.977 236.625L332.932 226.505L311.456 214.933L291.643 203.13L275.679 192.301L263.568 182.396L261.726 180.38L255.314 173.365L250.92 165.159L250.391 157.728L244.539 189.188L245.068 196.619L249.462 204.825L257.717 213.856L269.827 223.761L285.791 234.59L305.604 246.393L327.08 257.966L348.125 268.086L368.874 276.775L389.462 284.056L410.027 289.953L430.704 294.49L451.629 297.691L472.939 299.583L494.769 300.192L517.254 299.545L540.53 297.669L564.731 294.592L587.463 290.703L606.253 286.339L621.115 281.451L632.065 275.992L639.115 269.914Z" fill="#F5F6FA"/>
<path d="M648.133 231.71L647.427 224.253L642.863 216.035L634.455 207.009L622.216 197.128L606.16 186.347L586.303 174.617L564.84 163.138L543.86 153.114L523.218 144.517L502.767 137.317L482.363 131.484L461.86 126.991L441.112 123.811L419.975 121.917L398.303 121.282L375.95 121.882L352.77 123.691L328.615 126.686L305.868 130.49L287.01 134.778L272.036 139.597L260.945 144.995L253.731 151.023L250.391 157.728M648.133 231.71L644.967 238.454L637.916 244.531L629.411 248.772L626.967 249.99L612.104 254.878L593.315 259.243L570.583 263.132L546.382 266.209L523.106 268.085L500.62 268.732L478.791 268.123L457.481 266.231L436.556 263.029L415.879 258.493L395.314 252.596L374.725 245.315L353.977 236.625L332.932 226.505L311.456 214.933L291.643 203.13L275.679 192.301L263.568 182.396L261.726 180.38L255.314 173.365L250.92 165.159L250.391 157.728M648.133 231.71L642.281 263.171L639.115 269.914L632.065 275.992L621.115 281.451L606.253 286.339L587.463 290.703L564.731 294.592L540.53 297.669L517.254 299.545L494.769 300.192L472.939 299.583L451.629 297.691L430.704 294.49L410.027 289.953L389.462 284.056L368.874 276.775L348.125 268.086L327.08 257.966L305.604 246.393L285.791 234.59L269.827 223.761L257.717 213.856L249.462 204.825L245.068 196.619L244.539 189.188L250.391 157.728" stroke="#DDDFED" stroke-width="8" stroke-linejoin="round"/>
<path d="M461.86 126.991L441.112 123.811L419.975 121.917L398.303 121.282L375.95 121.882L352.77 123.691L328.615 126.686L305.868 130.49L287.01 134.778L272.036 139.597L260.945 144.995L253.731 151.023L250.391 157.728L250.92 165.159L255.314 173.365L261.726 180.38L263.568 182.396L275.679 192.301L291.643 203.13L311.456 214.933L332.932 226.505L353.977 236.625L374.725 245.315L395.314 252.596L415.879 258.493L436.556 263.029L457.481 266.231L478.791 268.123L500.62 268.732L523.106 268.085L546.382 266.209L570.583 263.132L593.315 259.243L612.104 254.878L626.967 249.99L629.411 248.772L637.916 244.531L644.967 238.454L648.133 231.71L647.427 224.253L642.863 216.035L634.455 207.009L622.216 197.128L606.16 186.347L586.303 174.617L564.84 163.138L543.86 153.114L523.218 144.517L502.767 137.317L482.363 131.484L461.86 126.991Z" fill="white" stroke="#DDDFED" stroke-width="8" stroke-linejoin="round"/>
<path d="M196 4C136 49.9281 136 116.633 196 156M196 156V124M196 156H164" stroke="#000842" stroke-width="8"/>
<path opacity="0.7" d="M209 589.055L156 650.054" stroke="#FFD970" stroke-width="32"/>
<path opacity="0.7" d="M316 178.555L280 193.555L283 234.555L220 257.555" stroke="#FFD970" stroke-width="32"/>
<path opacity="0.7" d="M29.5 422.555V348.055L64.5 329.055" stroke="#FFD970" stroke-width="32"/>
<path opacity="0.7" d="M447 509.555L425 608.555" stroke="#6B7FFF" stroke-width="32"/>
<path opacity="0.7" d="M301.5 427.555L320 450.555L325.5 482.555L338 499.055" stroke="#6B7FFF" stroke-width="32"/>
</svg>
