<svg width="1047" height="871" viewBox="0 0 1047 871" fill="none" xmlns="http://www.w3.org/2000/svg">
<path d="M534.452 419.873L484.343 425.69L434.148 434.738L383.514 447.048L332.086 462.654L279.51 481.592L225.427 503.898L175.125 527.188L134.141 549.125L102.501 569.824L80.2262 589.4L67.3384 607.968L63.8593 625.644L69.8096 642.544L85.2107 658.784L104.532 670.979L110.084 674.482L144.451 689.755L188.335 704.721L241.761 719.498L298.895 732.684L354.105 742.775L407.72 749.735L460.068 753.53L511.482 754.13L562.29 751.504L612.825 745.623L663.419 736.461L714.402 723.991L766.106 708.19L818.862 689.037L872.998 666.511L923.212 643.034L963.988 620.962L995.328 600.173L1000.22 595.793L1017.24 580.548L1029.71 561.968L1032.76 544.312L1026.39 527.464L1010.58 511.304L985.357 495.716L950.708 480.581L906.641 465.783L853.16 451.205L796.116 438.227L741.118 428.319L687.808 421.505L635.831 417.808L584.83 417.255L534.452 419.873Z" fill="#FFF5DB"/>
<path d="M665.5 693L638.483 693.859L611.276 696.435L583.687 700.731L555.528 706.748L526.605 714.489L496.727 723.959L468.824 734.121L445.957 743.98L428.135 753.596L415.364 763.034L407.65 772.353L405 781.619L407.42 790.892L414.915 800.237L424.686 807.601L427.493 809.717L445.159 819.395L467.921 829.335L495.785 839.601L525.701 849.185L554.729 857.033L583.045 863.141L610.827 867.507L638.253 870.126L665.5 871L692.747 870.126L720.173 867.507L747.955 863.141L776.271 857.033L805.299 849.185L835.215 839.601L863.079 829.335L885.841 819.395L903.507 809.717L906.314 807.601L916.085 800.237L923.58 790.892L926 781.619L923.35 772.353L915.636 763.034L902.865 753.596L885.043 743.98L862.176 734.121L834.273 723.959L804.395 714.489L775.472 706.748L747.313 700.731L719.724 696.435L692.517 693.859L665.5 693Z" fill="#FFF5DB"/>
<path d="M985.393 511.653L987.272 504.444V472.444L985.393 479.653L979.573 486.917L971.986 492.642L969.806 494.287L956.088 501.81L938.414 509.537L916.776 517.518L893.546 524.968L871.006 531.069L849.018 535.817L827.445 539.211L806.148 541.247L784.991 541.926L763.833 541.247L742.536 539.211L720.963 535.817L698.975 531.069L676.435 524.968L653.205 517.518L631.567 509.537L613.893 501.81L600.175 494.287L597.995 492.642L590.408 486.917L584.588 479.653L582.709 472.444V504.444L584.588 511.653L590.408 518.917L600.175 526.287L613.893 533.81L631.567 541.537L653.205 549.518L676.435 556.968L698.975 563.069L720.963 567.817L742.536 571.211L763.833 573.247L784.991 573.926L806.148 573.247L827.445 571.211L849.018 567.817L871.006 563.069L893.546 556.968L916.776 549.518L938.414 541.537L956.088 533.81L969.806 526.287L979.573 518.917L985.393 511.653Z" fill="#E6E8FF"/>
<path d="M987.272 472.444L985.215 465.242L979.225 457.997L969.308 450.661L955.468 443.185L937.712 435.521L916.045 427.621L892.844 420.26L870.386 414.242L848.519 409.565L827.097 406.225L805.97 404.222L784.991 403.555L764.011 404.222L742.885 406.225L721.462 409.565L699.595 414.242L677.137 420.26L653.936 427.621L632.269 435.521L614.513 443.185L600.673 450.661L590.756 457.997L584.766 465.242L582.709 472.444M987.272 472.444L985.393 479.653L979.573 486.917L971.986 492.642L969.806 494.287L956.088 501.81L938.414 509.537L916.776 517.518L893.546 524.968L871.006 531.069L849.018 535.817L827.445 539.211L806.148 541.247L784.991 541.926L763.833 541.247L742.536 539.211L720.963 535.817L698.975 531.069L676.435 524.968L653.205 517.518L631.567 509.537L613.893 501.81L600.175 494.287L597.995 492.642L590.408 486.917L584.588 479.653L582.709 472.444M987.272 472.444V504.444L985.393 511.653L979.573 518.917L969.806 526.287L956.088 533.81L938.414 541.537L916.776 549.518L893.546 556.968L871.006 563.069L849.018 567.817L827.445 571.211L806.148 573.247L784.991 573.926L763.833 573.247L742.536 571.211L720.963 567.817L698.975 563.069L676.435 556.968L653.205 549.518L631.567 541.537L613.893 533.81L600.175 526.287L590.408 518.917L584.588 511.653L582.709 504.444V472.444" stroke="#BFC9FF" stroke-width="8" stroke-linejoin="round"/>
<path d="M785.282 404L764.303 404.668L743.176 406.67L721.753 410.01L699.887 414.687L677.428 420.705L654.228 428.066L632.56 435.966L614.804 443.63L600.965 451.106L591.048 458.442L585.058 465.687L583 472.889L584.879 480.098L590.699 487.363L598.286 493.087L600.466 494.732L614.184 502.255L631.859 509.982L653.496 517.963L676.726 525.413L699.267 531.514L721.255 536.262L742.828 539.656L764.124 541.692L785.282 542.371L806.44 541.692L827.736 539.656L849.309 536.262L871.297 531.514L893.837 525.413L917.068 517.963L938.705 509.982L956.38 502.255L970.098 494.732L972.277 493.087L979.864 487.363L985.685 480.098L987.564 472.889L985.506 465.687L979.516 458.442L969.599 451.106L955.76 443.63L938.003 435.966L916.336 428.066L893.136 420.705L870.677 414.687L848.81 410.01L827.388 406.67L806.261 404.668L785.282 404Z" fill="white" stroke="#BFC9FF" stroke-width="8" stroke-linejoin="round"/>
<path d="M865.393 767.653L867.272 760.444V728.444L865.393 735.653L859.573 742.917L851.986 748.642L849.806 750.287L836.088 757.81L818.414 765.537L796.776 773.518L773.546 780.968L751.006 787.069L729.018 791.817L707.445 795.211L686.148 797.247L664.991 797.926L643.833 797.247L622.536 795.211L600.963 791.817L578.975 787.069L556.435 780.968L533.205 773.518L511.567 765.537L493.893 757.81L480.175 750.287L477.995 748.642L470.408 742.917L464.588 735.653L462.709 728.444V760.444L464.588 767.653L470.408 774.917L480.175 782.287L493.893 789.81L511.567 797.537L533.205 805.518L556.435 812.968L578.975 819.069L600.963 823.817L622.536 827.211L643.833 829.247L664.991 829.926L686.148 829.247L707.445 827.211L729.018 823.817L751.006 819.069L773.546 812.968L796.776 805.518L818.414 797.537L836.088 789.81L849.806 782.287L859.573 774.917L865.393 767.653Z" fill="#E6E8FF"/>
<path d="M867.272 728.444L865.215 721.242L859.225 713.997L849.308 706.661L835.468 699.185L817.712 691.521L796.045 683.621L772.844 676.26L750.386 670.242L728.519 665.565L707.097 662.225L685.97 660.222L664.991 659.555L644.011 660.222L622.885 662.225L601.462 665.565L579.595 670.242L557.137 676.26L533.936 683.621L512.269 691.521L494.513 699.185L480.673 706.661L470.756 713.997L464.766 721.242L462.709 728.444M867.272 728.444L865.393 735.653L859.573 742.917L851.986 748.642L849.806 750.287L836.088 757.81L818.414 765.537L796.776 773.518L773.546 780.968L751.006 787.069L729.018 791.817L707.445 795.211L686.148 797.247L664.991 797.926L643.833 797.247L622.536 795.211L600.963 791.817L578.975 787.069L556.435 780.968L533.205 773.518L511.567 765.537L493.893 757.81L480.175 750.287L477.995 748.642L470.408 742.917L464.588 735.653L462.709 728.444M867.272 728.444V760.444L865.393 767.653L859.573 774.917L849.806 782.287L836.088 789.81L818.414 797.537L796.776 805.518L773.546 812.968L751.006 819.069L729.018 823.817L707.445 827.211L686.148 829.247L664.991 829.926L643.833 829.247L622.536 827.211L600.963 823.817L578.975 819.069L556.435 812.968L533.205 805.518L511.567 797.537L493.893 789.81L480.175 782.287L470.408 774.917L464.588 767.653L462.709 760.444V728.444" stroke="#BFC9FF" stroke-width="8" stroke-linejoin="round"/>
<path d="M665.282 660L644.303 660.668L623.176 662.67L601.753 666.01L579.887 670.687L557.428 676.705L534.228 684.066L512.56 691.966L494.804 699.63L480.965 707.106L471.048 714.442L465.058 721.687L463 728.889L464.879 736.098L470.699 743.363L478.286 749.087L480.466 750.732L494.184 758.255L511.859 765.982L533.496 773.963L556.726 781.413L579.267 787.514L601.255 792.262L622.828 795.656L644.124 797.692L665.282 798.371L686.44 797.692L707.736 795.656L729.309 792.262L751.297 787.514L773.837 781.413L797.068 773.963L818.705 765.982L836.38 758.255L850.098 750.732L852.277 749.087L859.864 743.363L865.685 736.098L867.564 728.889L865.506 721.687L859.516 714.442L849.599 707.106L835.76 699.63L818.003 691.966L796.336 684.066L773.136 676.705L750.677 670.687L728.81 666.01L707.388 662.67L686.261 660.668L665.282 660Z" fill="white" stroke="#BFC9FF" stroke-width="8" stroke-linejoin="round"/>
<path fill-rule="evenodd" clip-rule="evenodd" d="M754.99 477.336C754.99 477.764 754.362 478.116 753.469 478.116C752.601 478.116 751.973 477.764 751.973 477.336V469.899C751.973 469.47 752.601 469.118 753.494 469.118C754.362 469.118 754.99 469.471 754.99 469.899V477.336Z" fill="#7070A8"/>
<path fill-rule="evenodd" clip-rule="evenodd" d="M774.49 469.899V476.695C774.49 477.614 773.549 478.13 772.053 478.13H771.933C770.509 478.13 769.832 477.702 769.23 477.073L766.189 473.989L763.486 470.805L763.558 473.889L763.582 477.324C763.582 477.752 762.956 478.104 762.062 478.104C761.193 478.104 760.566 477.752 760.566 477.324V470.528C760.566 469.684 761.507 469.093 763.149 469.093H763.269C764.79 469.093 765.417 469.521 766.021 470.15L769.013 473.209L771.571 476.179L771.499 473.335L771.475 469.899C771.475 469.471 772.102 469.119 772.995 469.119C773.862 469.118 774.49 469.47 774.49 469.899Z" fill="#7070A8"/>
<path fill-rule="evenodd" clip-rule="evenodd" d="M786.581 477.324C786.581 477.752 785.954 478.104 785.061 478.104C784.193 478.104 783.565 477.752 783.565 477.324V470.591H779.824C779.053 470.591 778.426 470.289 778.426 469.849C778.426 469.421 779.053 469.119 779.824 469.119H790.322C791.094 469.119 791.721 469.422 791.721 469.862C791.721 470.29 791.094 470.591 790.322 470.591H786.581V477.324Z" fill="#7070A8"/>
<path fill-rule="evenodd" clip-rule="evenodd" d="M795.655 477.073V470.088C795.655 469.434 796.355 469.069 797.634 469.094H806.323C807.094 469.094 807.721 469.408 807.721 469.836C807.721 470.264 807.094 470.566 806.323 470.566H798.647V472.73H805.429C806.178 472.73 806.78 473.02 806.78 473.435C806.78 473.85 806.178 474.14 805.429 474.14H798.647V476.632H806.323C807.094 476.632 807.721 476.946 807.721 477.374C807.721 477.802 807.094 478.104 806.323 478.104H797.562C796.307 478.104 795.608 477.74 795.655 477.073Z" fill="#7070A8"/>
<path fill-rule="evenodd" clip-rule="evenodd" d="M824.158 478.142C825.003 477.915 825.269 477.449 824.858 477.085L821.841 474.291C824.327 474.04 825.776 473.083 825.776 471.787C825.776 470.428 824.135 469.094 820.201 469.094H814.481C813.203 469.069 812.503 469.434 812.503 470.088V477.337C812.503 477.764 813.13 478.117 813.999 478.117C814.892 478.117 815.519 477.765 815.519 477.337L815.495 474.594H818.68L822.035 477.828C822.444 478.193 823.337 478.356 824.158 478.142ZM820.271 473.17H815.493V470.565H820.247C821.84 470.565 822.733 471.093 822.733 471.861C822.733 472.629 821.889 473.17 820.271 473.17Z" fill="#7070A8"/>
<path fill-rule="evenodd" clip-rule="evenodd" d="M832.001 477.437C830.191 476.594 829.37 475.273 829.37 473.611C829.37 471.937 830.167 470.629 831.954 469.798C833.063 469.295 834.559 468.955 836.732 468.955C838.638 468.955 840.111 469.182 841.221 469.672C842.187 470.075 842.886 470.642 843.296 471.435C843.513 471.85 842.958 472.265 842.042 472.354C841.173 472.429 840.474 472.139 840.208 471.724C839.919 471.322 839.531 471.032 839.073 470.83C838.446 470.541 837.674 470.415 836.659 470.415C835.574 470.415 834.632 470.578 833.932 470.943C832.919 471.472 832.484 472.416 832.484 473.611C832.484 474.795 832.894 475.738 833.956 476.267C834.656 476.632 835.574 476.795 836.635 476.795C837.745 476.795 838.589 476.644 839.29 476.305C839.651 476.128 839.966 475.902 840.183 475.637C840.497 475.247 841.149 474.958 841.993 475.059C842.837 475.16 843.369 475.587 843.103 476.002C842.668 476.694 841.921 477.248 840.907 477.626C839.797 478.041 838.422 478.255 836.684 478.255C834.464 478.255 833.063 477.915 832.001 477.437Z" fill="#7070A8"/>
<path fill-rule="evenodd" clip-rule="evenodd" d="M854.157 468.955C848.919 468.955 846.699 470.793 846.699 473.611C846.699 476.519 848.896 478.268 854.157 478.268C859.321 478.268 861.591 476.519 861.591 473.611C861.591 470.742 859.346 468.955 854.157 468.955ZM854.133 470.428C857.005 470.428 858.5 471.472 858.5 473.611C858.5 475.751 856.98 476.795 854.133 476.795C851.261 476.795 849.812 475.751 849.812 473.611C849.812 471.472 851.308 470.428 854.133 470.428Z" fill="#7070A8"/>
<path fill-rule="evenodd" clip-rule="evenodd" d="M885 477.324C885 477.752 884.372 478.104 883.479 478.104C882.611 478.104 881.983 477.752 881.983 477.324V473.951L882.056 470.667L879.956 474.002L877.832 477.287C877.471 477.865 876.723 478.092 875.781 478.092C874.791 478.092 874.067 477.853 873.681 477.275L871.509 474.003L869.506 470.718L869.578 473.952V477.325C869.578 477.753 868.95 478.105 868.057 478.105C867.189 478.105 866.562 477.752 866.562 477.325V470.592C866.562 469.66 867.527 469.119 869.216 469.119C870.809 469.119 871.702 469.559 872.208 470.365L874.428 473.801L875.78 476.142L877.156 473.801L879.376 470.365C879.884 469.559 880.752 469.119 882.345 469.119C884.034 469.119 884.975 469.648 884.975 470.592L885 477.324Z" fill="#7070A8"/>
<path d="M727.614 474.897C727.614 475.122 727.442 475.338 727.135 475.497C726.828 475.657 726.412 475.746 725.978 475.746C725.543 475.746 725.127 475.657 724.82 475.497C724.513 475.338 724.341 475.122 724.341 474.897V467.314C724.341 467.089 724.513 466.873 724.82 466.714C725.127 466.554 725.543 466.465 725.978 466.465C726.412 466.465 726.828 466.554 727.135 466.714C727.442 466.873 727.614 467.089 727.614 467.314V474.897ZM727.046 480.152C726.83 480.264 720.742 482.895 709.581 482.895C698.42 482.895 692.373 480.278 692.116 480.166C691.954 480.095 691.821 480.008 691.723 479.911C691.626 479.813 691.567 479.706 691.549 479.597C691.532 479.487 691.556 479.377 691.621 479.272C691.685 479.168 691.789 479.071 691.927 478.987C692.209 478.818 692.609 478.713 693.04 478.696C693.471 478.679 693.897 478.751 694.226 478.896C694.321 478.931 699.759 481.218 709.568 481.218C719.376 481.218 724.855 478.917 724.909 478.896C725.241 478.752 725.669 478.681 726.101 478.698C726.533 478.715 726.935 478.819 727.222 478.987C727.498 479.154 727.636 479.371 727.605 479.59C727.575 479.81 727.379 480.014 727.06 480.159L727.046 480.152ZM691.534 467.314C691.559 467.088 691.755 466.876 692.079 466.725C692.404 466.574 692.83 466.496 693.266 466.507C693.67 466.519 694.051 466.608 694.336 466.757C694.62 466.906 694.789 467.104 694.808 467.314V474.883C694.808 475.108 694.636 475.324 694.329 475.483C694.022 475.643 693.605 475.732 693.171 475.732C692.737 475.732 692.321 475.643 692.014 475.483C691.707 475.324 691.534 475.108 691.534 474.883V467.314ZM699.746 465.63C699.77 465.404 699.966 465.193 700.291 465.041C700.615 464.89 701.042 464.812 701.478 464.823C701.881 464.835 702.262 464.924 702.547 465.073C702.832 465.222 703 465.421 703.02 465.63V476.855C703.02 477.08 702.847 477.296 702.54 477.455C702.233 477.614 701.817 477.703 701.383 477.703C700.949 477.703 700.532 477.614 700.225 477.455C699.918 477.296 699.746 477.08 699.746 476.855V465.63ZM707.998 465.209C707.998 464.984 708.171 464.768 708.478 464.609C708.785 464.45 709.201 464.36 709.635 464.36C710.069 464.36 710.486 464.45 710.793 464.609C711.1 464.768 711.272 464.984 711.272 465.209V477.416C711.272 477.641 711.1 477.857 710.793 478.016C710.486 478.175 710.069 478.265 709.635 478.265C709.201 478.265 708.785 478.175 708.478 478.016C708.171 477.857 707.998 477.641 707.998 477.416V465.209ZM716.115 465.63C716.115 465.405 716.288 465.189 716.595 465.03C716.902 464.871 717.318 464.781 717.752 464.781C718.186 464.781 718.603 464.871 718.91 465.03C719.217 465.189 719.389 465.405 719.389 465.63V476.855C719.389 477.08 719.217 477.296 718.91 477.455C718.603 477.614 718.186 477.703 717.752 477.703C717.318 477.703 716.902 477.614 716.595 477.455C716.288 477.296 716.115 477.08 716.115 476.855V465.63ZM728.061 461H691.155C690.351 460.997 689.554 461.077 688.809 461.234C688.064 461.391 687.387 461.623 686.815 461.916C686.243 462.21 685.788 462.558 685.477 462.943C685.166 463.327 685.004 463.74 685 464.157V483.098C685.004 483.515 685.166 483.928 685.477 484.312C685.788 484.697 686.243 485.045 686.815 485.339C687.387 485.632 688.064 485.864 688.809 486.021C689.554 486.178 690.351 486.258 691.155 486.255H728.061C728.864 486.258 729.66 486.178 730.404 486.022C731.148 485.865 731.825 485.634 732.397 485.341C732.968 485.049 733.423 484.701 733.735 484.317C734.048 483.933 734.211 483.522 734.216 483.105V464.157C734.213 463.74 734.051 463.329 733.74 462.945C733.43 462.561 732.976 462.212 732.406 461.919C731.836 461.626 731.16 461.394 730.416 461.236C729.673 461.078 728.877 460.998 728.074 461" fill="#7070A8"/>
<path d="M808.144 374.729L807.444 367.313L796.5 337.242L797.199 344.659L794.215 353.476L789.043 361.45L787.557 363.741L777.24 375.503L763.274 388.809L745.671 403.709L726.39 418.655L707.295 432.097L688.258 444.079L669.146 454.647L649.831 463.844L630.181 471.719L610.067 478.317L589.358 483.687L567.926 487.877L545.64 490.935L522.372 492.911L497.995 493.855L474.933 493.757L455.681 492.541L440.217 490.163L437.606 489.363L428.519 486.579L420.565 481.743L416.334 475.611L427.279 505.682L431.51 511.813L439.464 516.649L451.162 520.233L466.626 522.611L485.877 523.827L508.939 523.926L533.317 522.982L556.585 521.005L578.87 517.947L600.303 513.757L621.012 508.387L641.126 501.789L660.775 493.914L680.091 484.717L699.202 474.15L718.24 462.167L737.334 448.725L756.616 433.779L774.219 418.879L788.185 405.573L798.502 393.812L805.159 383.546L808.144 374.729Z" fill="#E6E8FF"/>
<path d="M796.5 337.242L792.102 331.178L783.996 326.419L772.168 322.917L756.606 320.625L737.3 319.497L714.237 319.484L689.918 320.501L666.756 322.528L644.608 325.611L623.335 329.8L602.797 335.144L582.855 341.692L563.37 349.495L544.202 358.603L525.213 369.068L506.265 380.942L487.219 394.278L467.936 409.13L450.277 423.964L436.213 437.239L425.765 448.997L418.955 459.283L415.804 468.139L416.334 475.611M796.5 337.242L797.199 344.659L794.215 353.476L789.043 361.45L787.557 363.741L777.24 375.503L763.274 388.809L745.671 403.709L726.39 418.655L707.295 432.097L688.258 444.079L669.146 454.647L649.831 463.844L630.181 471.719L610.067 478.317L589.358 483.687L567.926 487.877L545.64 490.935L522.372 492.911L497.995 493.855L474.933 493.757L455.681 492.541L440.217 490.163L437.606 489.363L428.519 486.579L420.565 481.743L416.334 475.611M796.5 337.242L807.444 367.313L808.144 374.729L805.159 383.546L798.502 393.812L788.185 405.573L774.219 418.879L756.616 433.779L737.334 448.725L718.24 462.167L699.202 474.15L680.091 484.717L660.775 493.914L641.126 501.789L621.012 508.387L600.303 513.757L578.87 517.947L556.585 521.005L533.317 522.982L508.939 523.926L485.877 523.827L466.626 522.611L451.162 520.233L439.464 516.649L431.51 511.813L427.279 505.682L416.334 475.611" stroke="#BFC9FF" stroke-width="8" stroke-linejoin="round"/>
<path d="M583.083 341.816L563.597 349.618L544.429 358.726L525.441 369.191L506.493 381.065L487.447 394.401L468.163 409.254L450.505 424.088L436.44 437.362L425.992 449.121L419.182 459.406L416.032 468.263L416.562 475.735L420.793 481.866L428.747 486.702L437.834 489.486L440.445 490.286L455.909 492.664L475.16 493.88L498.222 493.979L522.6 493.035L545.867 491.058L568.153 488L589.586 483.81L610.294 478.441L630.409 471.842L650.058 463.968L669.374 454.77L688.485 444.203L707.523 432.221L726.617 418.778L745.898 403.832L763.501 388.932L777.467 375.626L787.785 363.865L789.271 361.574L794.442 353.6L797.427 344.783L796.727 337.366L792.33 331.302L784.223 326.542L772.395 323.04L756.834 320.749L737.527 319.62L714.465 319.607L690.146 320.625L666.983 322.651L644.836 325.735L623.563 329.924L603.025 335.268L583.083 341.816Z" fill="white" stroke="#BFC9FF" stroke-width="8" stroke-linejoin="round"/>
<path d="M527.393 617.653L529.272 610.444V578.444L527.393 585.653L521.573 592.917L513.986 598.642L511.806 600.287L498.088 607.81L480.414 615.537L458.776 623.518L435.546 630.968L413.006 637.069L391.018 641.817L369.445 645.211L348.148 647.247L326.991 647.926L305.833 647.247L284.536 645.211L262.963 641.817L240.975 637.069L218.435 630.968L195.205 623.518L173.567 615.537L155.893 607.81L142.175 600.287L139.995 598.642L132.408 592.917L126.588 585.653L124.709 578.444V610.444L126.588 617.653L132.408 624.917L142.175 632.287L155.893 639.81L173.567 647.537L195.205 655.518L218.435 662.968L240.975 669.069L262.963 673.817L284.536 677.211L305.833 679.247L326.991 679.926L348.148 679.247L369.445 677.211L391.018 673.817L413.006 669.069L435.546 662.968L458.776 655.518L480.414 647.537L498.088 639.81L511.806 632.287L521.573 624.917L527.393 617.653Z" fill="#E6E8FF"/>
<path d="M529.272 578.444L527.215 571.242L521.225 563.997L511.308 556.661L497.468 549.185L479.712 541.521L458.045 533.621L434.844 526.26L412.386 520.242L390.519 515.565L369.097 512.225L347.97 510.222L326.991 509.555L306.011 510.222L284.885 512.225L263.462 515.565L241.595 520.242L219.137 526.26L195.936 533.621L174.269 541.521L156.513 549.185L142.673 556.661L132.756 563.997L126.766 571.242L124.709 578.444M529.272 578.444L527.393 585.653L521.573 592.917L513.986 598.642L511.806 600.287L498.088 607.81L480.414 615.537L458.776 623.518L435.546 630.968L413.006 637.069L391.018 641.817L369.445 645.211L348.148 647.247L326.991 647.926L305.833 647.247L284.536 645.211L262.963 641.817L240.975 637.069L218.435 630.968L195.205 623.518L173.567 615.537L155.893 607.81L142.175 600.287L139.995 598.642L132.408 592.917L126.588 585.653L124.709 578.444M529.272 578.444V610.444L527.393 617.653L521.573 624.917L511.806 632.287L498.088 639.81L480.414 647.537L458.776 655.518L435.546 662.968L413.006 669.069L391.018 673.817L369.445 677.211L348.148 679.247L326.991 679.926L305.833 679.247L284.536 677.211L262.963 673.817L240.975 669.069L218.435 662.968L195.205 655.518L173.567 647.537L155.893 639.81L142.175 632.287L132.408 624.917L126.588 617.653L124.709 610.444V578.444" stroke="#BFC9FF" stroke-width="8" stroke-linejoin="round"/>
<path d="M326.991 509.555L306.011 510.222L284.885 512.225L263.462 515.565L241.595 520.242L219.137 526.26L195.936 533.621L174.269 541.521L156.513 549.185L142.673 556.661L132.756 563.997L126.766 571.242L124.709 578.444L126.588 585.653L132.408 592.917L139.995 598.642L142.175 600.287L155.893 607.81L173.567 615.537L195.205 623.518L218.435 630.968L240.975 637.069L262.963 641.817L284.536 645.211L305.833 647.247L326.991 647.926L348.148 647.247L369.445 645.211L391.018 641.817L413.006 637.069L435.546 630.968L458.776 623.518L480.414 615.537L498.088 607.81L511.806 600.287L513.986 598.642L521.573 592.917L527.393 585.653L529.272 578.444L527.215 571.242L521.225 563.997L511.308 556.661L497.468 549.185L479.712 541.521L458.045 533.621L434.844 526.26L412.386 520.242L390.519 515.565L369.097 512.225L347.97 510.222L326.991 509.555Z" fill="white" stroke="#BFC9FF" stroke-width="8" stroke-linejoin="round"/>
<path d="M567.393 585.653L569.272 578.444V546.444L567.393 553.653L561.573 560.917L553.986 566.642L551.806 568.287L538.088 575.81L520.414 583.537L498.776 591.518L475.546 598.968L453.006 605.069L431.018 609.817L409.445 613.211L388.148 615.247L366.991 615.926L345.833 615.247L324.536 613.211L302.963 609.817L280.975 605.069L258.435 598.968L235.205 591.518L213.567 583.537L195.893 575.81L182.175 568.287L179.995 566.642L172.408 560.917L166.588 553.653L164.709 546.444V578.444L166.588 585.653L172.408 592.917L182.175 600.287L195.893 607.81L213.567 615.537L235.205 623.518L258.435 630.968L280.975 637.069L302.963 641.817L324.536 645.211L345.833 647.247L366.991 647.926L388.148 647.247L409.445 645.211L431.018 641.817L453.006 637.069L475.546 630.968L498.776 623.518L520.414 615.537L538.088 607.81L551.806 600.287L561.573 592.917L567.393 585.653Z" fill="#E6E8FF"/>
<path d="M569.272 546.444L567.215 539.242L561.225 531.997L551.308 524.661L537.468 517.185L519.712 509.521L498.045 501.621L474.844 494.26L452.386 488.242L430.519 483.565L409.097 480.225L387.97 478.222L366.991 477.555L346.011 478.222L324.885 480.225L303.462 483.565L281.595 488.242L259.137 494.26L235.936 501.621L214.269 509.521L196.513 517.185L182.673 524.661L172.756 531.997L166.766 539.242L164.709 546.444M569.272 546.444L567.393 553.653L561.573 560.917L553.986 566.642L551.806 568.287L538.088 575.81L520.414 583.537L498.776 591.518L475.546 598.968L453.006 605.069L431.018 609.817L409.445 613.211L388.148 615.247L366.991 615.926L345.833 615.247L324.536 613.211L302.963 609.817L280.975 605.069L258.435 598.968L235.205 591.518L213.567 583.537L195.893 575.81L182.175 568.287L179.995 566.642L172.408 560.917L166.588 553.653L164.709 546.444M569.272 546.444V578.444L567.393 585.653L561.573 592.917L551.806 600.287L538.088 607.81L520.414 615.537L498.776 623.518L475.546 630.968L453.006 637.069L431.018 641.817L409.445 645.211L388.148 647.247L366.991 647.926L345.833 647.247L324.536 645.211L302.963 641.817L280.975 637.069L258.435 630.968L235.205 623.518L213.567 615.537L195.893 607.81L182.175 600.287L172.408 592.917L166.588 585.653L164.709 578.444V546.444" stroke="#BFC9FF" stroke-width="8" stroke-linejoin="round"/>
<path d="M366.991 477.555L346.011 478.222L324.885 480.225L303.462 483.565L281.595 488.242L259.137 494.26L235.936 501.621L214.269 509.521L196.513 517.185L182.673 524.661L172.756 531.997L166.766 539.242L164.709 546.444L166.588 553.653L172.408 560.917L179.995 566.642L182.175 568.287L195.893 575.81L213.567 583.537L235.205 591.518L258.435 598.968L280.975 605.069L302.963 609.817L324.536 613.211L345.833 615.247L366.991 615.926L388.148 615.247L409.445 613.211L431.018 609.817L453.006 605.069L475.546 598.968L498.776 591.518L520.414 583.537L538.088 575.81L551.806 568.287L553.986 566.642L561.573 560.917L567.393 553.653L569.272 546.444L567.215 539.242L561.225 531.997L551.308 524.661L537.468 517.185L519.712 509.521L498.045 501.621L474.844 494.26L452.386 488.242L430.519 483.565L409.097 480.225L387.97 478.222L366.991 477.555Z" fill="white" stroke="#BFC9FF" stroke-width="8" stroke-linejoin="round"/>
<path d="M527.393 553.653L529.272 546.444V514.444L527.393 521.653L521.573 528.917L513.986 534.642L511.806 536.287L498.088 543.81L480.414 551.537L458.776 559.518L435.546 566.968L413.006 573.069L391.018 577.817L369.445 581.211L348.148 583.247L326.991 583.926L305.833 583.247L284.536 581.211L262.963 577.817L240.975 573.069L218.435 566.968L195.205 559.518L173.567 551.537L155.893 543.81L142.175 536.287L139.995 534.642L132.408 528.917L126.588 521.653L124.709 514.444V546.444L126.588 553.653L132.408 560.917L142.175 568.287L155.893 575.81L173.567 583.537L195.205 591.518L218.435 598.968L240.975 605.069L262.963 609.817L284.536 613.211L305.833 615.247L326.991 615.926L348.148 615.247L369.445 613.211L391.018 609.817L413.006 605.069L435.546 598.968L458.776 591.518L480.414 583.537L498.088 575.81L511.806 568.287L521.573 560.917L527.393 553.653Z" fill="#E6E8FF"/>
<path d="M529.272 514.444L527.215 507.242L521.225 499.997L511.308 492.661L497.468 485.185L479.712 477.521L458.045 469.621L434.844 462.26L412.386 456.242L390.519 451.565L369.097 448.225L347.97 446.222L326.991 445.555L306.011 446.222L284.885 448.225L263.462 451.565L241.595 456.242L219.137 462.26L195.936 469.621L174.269 477.521L156.513 485.185L142.673 492.661L132.756 499.997L126.766 507.242L124.709 514.444M529.272 514.444L527.393 521.653L521.573 528.917L513.986 534.642L511.806 536.287L498.088 543.81L480.414 551.537L458.776 559.518L435.546 566.968L413.006 573.069L391.018 577.817L369.445 581.211L348.148 583.247L326.991 583.926L305.833 583.247L284.536 581.211L262.963 577.817L240.975 573.069L218.435 566.968L195.205 559.518L173.567 551.537L155.893 543.81L142.175 536.287L139.995 534.642L132.408 528.917L126.588 521.653L124.709 514.444M529.272 514.444V546.444L527.393 553.653L521.573 560.917L511.806 568.287L498.088 575.81L480.414 583.537L458.776 591.518L435.546 598.968L413.006 605.069L391.018 609.817L369.445 613.211L348.148 615.247L326.991 615.926L305.833 615.247L284.536 613.211L262.963 609.817L240.975 605.069L218.435 598.968L195.205 591.518L173.567 583.537L155.893 575.81L142.175 568.287L132.408 560.917L126.588 553.653L124.709 546.444V514.444" stroke="#BFC9FF" stroke-width="8" stroke-linejoin="round"/>
<path d="M326.991 445.555L306.011 446.222L284.885 448.225L263.462 451.565L241.595 456.242L219.137 462.26L195.936 469.621L174.269 477.521L156.513 485.185L142.673 492.661L132.756 499.997L126.766 507.242L124.709 514.444L126.588 521.653L132.408 528.917L139.995 534.642L142.175 536.287L155.893 543.81L173.567 551.537L195.205 559.518L218.435 566.968L240.975 573.069L262.963 577.817L284.536 581.211L305.833 583.247L326.991 583.926L348.148 583.247L369.445 581.211L391.018 577.817L413.006 573.069L435.546 566.968L458.776 559.518L480.414 551.537L498.088 543.81L511.806 536.287L513.986 534.642L521.573 528.917L527.393 521.653L529.272 514.444L527.215 507.242L521.225 499.997L511.308 492.661L497.468 485.185L479.712 477.521L458.045 469.621L434.844 462.26L412.386 456.242L390.519 451.565L369.097 448.225L347.97 446.222L326.991 445.555Z" fill="white" stroke="#BFC9FF" stroke-width="8" stroke-linejoin="round"/>
<path d="M548.195 426.88C548.54 426.754 548.884 426.629 549.229 426.504C549.362 426.189 549.237 425.844 548.875 425.533C548.445 425.033 547.958 424.767 547.286 425.065C546.62 425.378 546.785 425.832 547.216 426.332C547.435 426.642 547.788 426.833 548.195 426.88Z" fill="#7070A8"/>
<path d="M542.307 429.608C542.817 429.547 543.184 429.484 543.256 429.387C543.358 429.279 543.216 429.277 543.045 429.198C542.74 429.043 542.082 429.087 541.604 429.137C540.36 429.324 539.13 429.842 538.244 430.626C537.94 430.861 537.658 431.158 537.829 431.238C537.852 431.301 537.977 431.255 538.071 431.221C538.29 431.141 539.238 430.53 540.38 430.061C541.063 429.795 541.798 429.669 542.307 429.608Z" fill="#7070A8"/>
<path d="M541.376 430.266C540.71 430.579 540.406 430.814 540.226 431.004C540.047 431.193 539.944 431.301 539.967 431.364L539.99 431.427L540.115 431.381C540.241 431.335 540.562 431.147 540.562 431.147C541.408 430.645 542.003 430.428 542.589 430.286C542.934 430.16 543.082 430.177 543.153 430.08C543.153 430.08 543.13 430.018 543.113 429.971C543.019 429.81 542.268 429.888 541.376 430.266Z" fill="#7070A8"/>
<path d="M541.869 430.548C542.003 430.233 541.815 429.716 541.453 429.405C541.023 428.905 540.553 428.686 539.739 428.982C539.073 429.296 539.238 429.75 539.685 430.296C539.958 430.658 540.383 430.752 540.539 430.89C541.305 431.143 541.604 430.892 541.869 430.548Z" fill="#7070A8"/>
<path d="M546.795 429.464C547.305 429.403 547.726 429.196 547.914 428.933C547.976 428.715 547.64 428.571 547.162 428.621C546.652 428.683 546.231 428.889 546.043 429.153C545.855 429.416 546.285 429.526 546.795 429.464Z" fill="#7070A8"/>
<path d="M549.189 427.174C548.845 427.3 548.563 427.597 548.665 427.879C548.751 428.114 549.05 428.253 549.52 428.082C549.864 427.957 550.146 427.659 550.043 427.378C549.864 427.177 549.534 427.049 549.189 427.174Z" fill="#7070A8"/>
<path d="M526.541 440.471C526.393 440.454 526.299 440.488 526.197 440.597C526.071 440.642 525.977 440.676 525.852 440.722C525.633 440.802 525.359 440.83 525.226 440.755C525.092 440.68 524.998 440.519 525.038 440.238L525.123 440.083C525.342 439.613 525.624 438.925 524.841 438.625C524.223 438.389 523.579 438.375 522.742 438.609C521.905 438.843 521.185 439.3 520.823 439.768C520.174 440.519 520.291 441.132 520.465 441.317C520.488 441.38 520.63 441.381 520.724 441.347C520.849 441.302 521.046 441.159 521.108 440.941L521.085 440.879C521.046 440.769 521.125 440.598 521.282 440.346C521.438 440.094 521.743 439.859 522.087 439.734C522.409 439.546 522.902 439.437 523.286 439.422C523.913 439.389 524.288 439.642 524.163 440.078C523.881 440.375 523.859 440.703 523.967 441C524.28 441.471 525.055 441.455 525.636 441.297C526.2 441.092 526.607 440.749 526.567 440.639C526.658 440.5 526.564 440.534 526.541 440.471Z" fill="#7070A8"/>
<path d="M559.511 427.372C559.488 427.309 559.283 427.135 558.939 426.871L558.281 426.525C558.884 425.649 558.679 425.086 558.451 424.849C558.201 424.55 557.731 424.331 557.042 424.192C556.352 424.053 554.849 424.21 553.041 424.602L552.093 424.823C552.093 424.823 551.694 423.727 551.403 423.318C551.278 422.974 550.965 422.503 550.432 422.111C549.837 421.548 548.92 421.172 547.863 421.096C549.711 419.058 550.713 417.133 550.297 415.99C549.504 413.813 543.867 415.085 537.603 418.925L536.328 419.708C536.328 419.708 533.366 419.368 533.241 419.413C524.61 418.795 505.718 440.656 514.434 441.119L516.282 441.226C516.023 441.977 516.157 442.637 516.502 443.292C517.034 444.073 518.287 444.593 519.885 444.791C521.491 444.916 523.456 444.662 525.303 443.99C529.532 446.351 537.044 445.94 544.982 443.193C553.509 440.214 559.983 435.587 561.665 430.95C561.799 430.635 562.197 429.196 561.821 428.163C561.627 427.045 560.325 427.075 559.511 427.372ZM525.665 442.741C525.445 442.821 525.124 443.009 524.85 443.037C522.322 443.887 519.025 443.792 518.304 442.494C517.543 441.086 518.599 439.407 521.247 438.107C521.569 437.919 521.913 437.793 522.383 437.622C523.909 437.138 526.401 436.869 527.568 438.324C528.577 439.73 528.461 441.457 525.665 442.741ZM520.478 437.358C518.818 438.157 517.511 439.147 516.823 440.178C516.173 440.149 514.975 440.071 514.787 439.944C512.782 439.113 514.885 435.244 516.53 432.943C520.418 427.255 527.737 421.345 531.709 420.467C532.438 420.326 534.944 420.779 534.944 420.779C534.944 420.779 531.46 423.289 528.431 426.076C524.257 429.617 521.573 433.644 520.478 437.358ZM549.632 433.361L549.735 433.253C549.712 433.19 549.586 433.236 549.586 433.236C549.586 433.236 545.68 434.977 541.64 435.667C541.859 434.807 542.978 434.666 544.709 434.16C547.724 433.187 550.401 431.964 552.234 430.96C553.871 430.098 555.969 428.749 557.447 427.449C558.238 427.87 558.763 428.531 558.763 428.531C558.763 428.531 559.21 428.297 559.6 428.297C559.984 428.281 560.289 428.436 560.406 429.05C560.477 430.318 559.757 431.556 558.599 432.953C557.878 433.8 556.76 434.721 555.538 435.556C554.912 435.979 554.16 436.448 553.417 436.842C547.569 440.07 541.023 441.282 538.227 439.64C538.039 439.514 537.757 439.421 537.671 439.186C536.293 437.933 536.315 435.85 538.217 433.863C538.319 433.755 538.373 433.611 538.333 433.502C538.293 433.392 538.145 433.375 538.029 433.346C537.003 433.063 533.925 433.084 533.8 430.985C533.642 429.481 535.723 427.695 537.902 426.956L538.465 426.751C539.374 426.42 540.353 426.188 541.011 425.948C542.264 425.492 543.493 424.974 544.666 423.908C545.073 423.565 545.355 423.268 546.021 422.954C546.147 422.908 546.218 422.812 546.585 422.749C546.93 422.624 547.297 422.561 547.556 422.591C548.863 422.576 549.265 423.387 549.641 424.031C549.789 424.438 550.245 425.3 550.33 425.535C550.667 426.069 550.926 426.099 551.655 425.958C552.022 425.895 552.384 425.816 552.876 425.708C554.465 425.396 555.436 425.237 556.102 425.314C556.509 425.361 556.697 425.488 556.854 425.626C557.301 426.172 556.339 427.427 553.512 429.307C550.358 431.359 546.411 432.991 543.499 433.856L542.442 434.169C540.093 434.829 539.382 436.773 541.082 437.253C542.218 437.549 544.801 437.141 547.087 436.309C552.599 434.303 556.411 431.621 557.539 430.04L557.624 429.885C557.726 429.777 557.584 429.775 557.476 429.868C556.388 430.778 551.284 434.587 545.02 436.281C545.02 436.281 544.308 436.469 543.579 436.611C542.976 436.706 541.857 436.847 541.395 436.359C546.805 435.241 549.632 433.361 549.632 433.361ZM528.437 428.627C529.886 426.859 531.913 425.021 533.792 423.752C533.917 423.707 533.917 423.707 533.94 423.769C533.877 423.987 533.635 424.394 533.627 424.664C533.65 424.726 533.775 424.681 533.775 424.681C534.862 423.771 536.978 422.469 538.934 421.704C539.059 421.658 539.082 421.721 539.082 421.721C538.777 421.956 538.621 422.208 538.339 422.505C538.339 422.505 538.362 422.568 538.487 422.522C539.865 422.021 541.892 421.549 543.288 421.484C543.413 421.439 543.327 421.594 543.202 421.64C541.175 422.111 538.012 423.068 534.84 424.683C531.99 426.111 530.009 427.488 528.616 428.633C528.454 428.674 528.36 428.708 528.437 428.627Z" fill="#7070A8"/>
<path d="M693.358 371.509C690.508 372.546 689.6 374.047 689.265 374.879C689.068 375.411 689.108 375.521 688.889 375.601C688.544 375.726 688.638 375.302 688.763 374.866C688.834 373.989 688.41 373.505 688.41 373.505L684.401 374.964L687.906 384.594L693.418 382.588L692.313 379.55C693.212 379.879 694.576 380.021 696.393 379.36C700.402 377.9 701.739 375.534 700.907 373.248C699.936 370.676 697.023 370.175 693.358 371.509ZM694.098 378.12C692.845 378.576 691.615 378.12 691.216 377.024C690.817 375.927 691.434 374.798 692.718 374.331C694.222 373.784 695.161 374.222 695.6 375.428C696.031 376.707 695.695 377.539 694.098 378.12Z" fill="#7070A8"/>
<path d="M584.399 411.167C581.988 412.045 581.214 413.426 580.829 414.222C580.61 414.692 580.713 414.973 580.368 415.099C580.024 415.224 580.158 414.909 579.75 414.473C579.155 413.909 577.728 413.595 575.348 414.461C572.843 415.373 572.083 416.891 571.818 417.626C571.622 418.158 571.662 418.268 571.442 418.348C571.098 418.473 571.192 418.049 571.317 417.613C571.388 416.736 570.964 416.252 570.964 416.252L566.955 417.711L569.707 425.274L575.094 423.314L573.721 419.54C573.447 418.788 573.68 417.675 574.839 417.253C576.092 416.797 576.508 417.16 576.821 418.021L578.32 422.139L583.832 420.133L582.459 416.359C582.208 415.671 582.418 414.494 583.577 414.073C584.83 413.617 585.331 414.215 585.559 414.841L587.041 418.912L592.303 416.997L590.678 412.534C589.903 410.6 588.064 409.833 584.399 411.167ZM677.448 377.3C675.037 378.177 674.263 379.559 673.878 380.355C673.659 380.825 673.762 381.106 673.417 381.232C673.073 381.357 673.189 380.995 672.799 380.606C672.079 380.088 670.903 379.682 668.397 380.594C665.891 381.506 665.132 383.024 664.867 383.759C664.671 384.291 664.711 384.401 664.491 384.481C664.147 384.606 664.241 384.182 664.366 383.746C664.437 382.869 664.012 382.385 664.012 382.385L660.004 383.844L662.756 391.407L668.268 389.401L666.895 385.627C666.621 384.876 666.855 383.762 668.013 383.34C669.266 382.885 669.682 383.247 669.995 384.109L671.494 388.227L677.006 386.221L675.633 382.447C675.382 381.758 675.593 380.582 676.751 380.16C678.004 379.704 678.505 380.302 678.733 380.928L680.215 384.999L685.602 383.039L683.978 378.576C682.952 376.733 681.113 375.966 677.448 377.3ZM598.837 405.912C594.609 407.451 591.876 409.297 591.876 409.297L592.708 411.583C592.708 411.583 595.675 409.404 598.431 408.4C600.623 407.602 601.053 408.102 601.116 408.664C601.116 408.664 600.53 408.807 598.588 409.514C594.109 411.144 592.199 413.009 592.78 414.607C593.345 416.157 596.078 415.871 598.27 415.073C601.371 413.945 602.373 412.41 602.623 411.733C602.842 411.263 602.757 411.029 602.976 410.949C603.321 410.823 603.258 411.041 603.383 411.386C603.594 411.965 603.76 412.419 604.121 412.731L608.287 411.215L606.93 407.488C605.956 405.201 603.754 404.122 598.837 405.912ZM599.631 412.379C598.441 413.007 597.666 413.023 597.524 412.632C597.313 412.052 598.463 411.315 600.186 410.688C601 410.391 601.712 410.203 601.712 410.203C601.76 410.434 600.946 411.705 599.631 412.379ZM613.634 398.132L619.146 396.126L622.731 405.975L617.218 407.982C617.201 407.935 613.634 398.132 613.634 398.132ZM627.433 399.99C627.182 399.301 628.207 398.219 630.493 397.387C632.999 396.475 635.294 396.349 635.809 396.303L634.846 393.657C634.846 393.657 632.975 393.487 629.06 394.912C624.926 396.416 621.951 398.864 622.909 401.495C623.866 404.126 627.491 404.438 631.938 402.819C635.383 401.565 637.191 399.808 637.191 399.808L636.274 397.287C635.647 397.71 634.059 398.997 631.522 399.921C628.82 400.975 627.684 400.679 627.433 399.99ZM645.691 388.859C642.496 390.021 641.879 391.931 641.762 392.292C641.645 392.654 641.566 392.825 641.347 392.905C641.002 393.03 641.096 392.606 641.158 392.388C641.23 391.901 641.471 390.713 641.015 389.461C640.702 388.6 640.38 388.398 640.38 388.398L635.682 390.107L639.267 399.957L644.779 397.95L643.406 394.177C643.178 393.55 643.271 392.346 644.649 391.844C645.808 391.423 646.301 391.704 646.609 392.55L648.13 396.731L653.642 394.724L652.183 390.716C651.257 388.854 650.044 387.274 645.691 388.859ZM652.518 386.569L655.271 394.132L660.783 392.125L658.03 384.562C658.03 384.562 657.225 385.175 655.377 385.847C653.512 386.473 652.518 386.569 652.518 386.569Z" fill="#7070A8"/>
<path d="M655.195 385.346C657.028 384.679 658.336 383.647 658.115 383.042C657.895 382.437 656.23 382.487 654.397 383.154C652.563 383.821 651.256 384.853 651.476 385.459C651.696 386.064 653.361 386.014 655.195 385.346Z" fill="#7070A8"/>
<path d="M607.262 403.04L610.015 410.603L615.496 408.609L612.743 401.046C612.743 401.046 611.937 401.658 610.09 402.331C610.073 402.284 607.262 403.04 607.262 403.04Z" fill="#7070A8"/>
<path d="M609.907 401.829C611.741 401.162 613.048 400.13 612.828 399.525C612.608 398.92 610.943 398.97 609.109 399.637C607.276 400.305 605.968 401.336 606.188 401.942C606.409 402.547 608.074 402.497 609.907 401.829Z" fill="#7070A8"/>
<path d="M559.393 505.653L561.272 498.444V466.444L559.393 473.653L553.573 480.917L545.986 486.642L543.806 488.287L530.088 495.81L512.414 503.537L490.776 511.518L467.546 518.968L445.006 525.069L423.018 529.817L401.445 533.211L380.148 535.247L358.991 535.926L337.833 535.247L316.536 533.211L294.963 529.817L272.975 525.069L250.435 518.968L227.205 511.518L205.567 503.537L187.893 495.81L174.175 488.287L171.995 486.642L164.408 480.917L158.588 473.653L156.709 466.444V498.444L158.588 505.653L164.408 512.917L174.175 520.287L187.893 527.81L205.567 535.537L227.205 543.518L250.435 550.968L272.975 557.069L294.963 561.817L316.536 565.211L337.833 567.247L358.991 567.926L380.148 567.247L401.445 565.211L423.018 561.817L445.006 557.069L467.546 550.968L490.776 543.518L512.414 535.537L530.088 527.81L543.806 520.287L553.573 512.917L559.393 505.653Z" fill="#E6E8FF"/>
<path d="M561.272 466.444L559.215 459.242L553.225 451.997L543.308 444.661L529.468 437.185L511.712 429.521L490.045 421.621L466.844 414.26L444.386 408.242L422.519 403.565L401.097 400.225L379.97 398.222L358.991 397.555L338.011 398.222L316.885 400.225L295.462 403.565L273.595 408.242L251.137 414.26L227.936 421.621L206.269 429.521L188.513 437.185L174.673 444.661L164.756 451.997L158.766 459.242L156.709 466.444M561.272 466.444L559.393 473.653L553.573 480.917L545.986 486.642L543.806 488.287L530.088 495.81L512.414 503.537L490.776 511.518L467.546 518.968L445.006 525.069L423.018 529.817L401.445 533.211L380.148 535.247L358.991 535.926L337.833 535.247L316.536 533.211L294.963 529.817L272.975 525.069L250.435 518.968L227.205 511.518L205.567 503.537L187.893 495.81L174.175 488.287L171.995 486.642L164.408 480.917L158.588 473.653L156.709 466.444M561.272 466.444V498.444L559.393 505.653L553.573 512.917L543.806 520.287L530.088 527.81L512.414 535.537L490.776 543.518L467.546 550.968L445.006 557.069L423.018 561.817L401.445 565.211L380.148 567.247L358.991 567.926L337.833 567.247L316.536 565.211L294.963 561.817L272.975 557.069L250.435 550.968L227.205 543.518L205.567 535.537L187.893 527.81L174.175 520.287L164.408 512.917L158.588 505.653L156.709 498.444V466.444" stroke="#BFC9FF" stroke-width="8" stroke-linejoin="round"/>
<path d="M358.991 397.555L338.011 398.222L316.885 400.225L295.462 403.565L273.595 408.242L251.137 414.26L227.936 421.621L206.269 429.521L188.513 437.185L174.673 444.661L164.756 451.997L158.766 459.242L156.709 466.444L158.588 473.653L164.408 480.917L171.995 486.642L174.175 488.287L187.893 495.81L205.567 503.537L227.205 511.518L250.435 518.968L272.975 525.069L294.963 529.817L316.536 533.211L337.833 535.247L358.991 535.926L380.148 535.247L401.445 533.211L423.018 529.817L445.006 525.069L467.546 518.968L490.776 511.518L512.414 503.537L530.088 495.81L543.806 488.287L545.986 486.642L553.573 480.917L559.393 473.653L561.272 466.444L559.215 459.242L553.225 451.997L543.308 444.661L529.468 437.185L511.712 429.521L490.045 421.621L466.844 414.26L444.386 408.242L422.519 403.565L401.097 400.225L379.97 398.222L358.991 397.555Z" fill="white" stroke="#BFC9FF" stroke-width="8" stroke-linejoin="round"/>
<path d="M503.393 425.653L505.272 418.444V386.444L503.393 393.653L497.573 400.917L489.986 406.642L487.806 408.287L474.088 415.81L456.414 423.537L434.776 431.518L411.546 438.968L389.006 445.069L367.018 449.817L345.445 453.211L324.148 455.247L302.991 455.926L281.833 455.247L260.536 453.211L238.963 449.817L216.975 445.069L194.435 438.968L171.205 431.518L149.567 423.537L131.893 415.81L118.175 408.287L115.995 406.642L108.408 400.917L102.588 393.653L100.709 386.444V418.444L102.588 425.653L108.408 432.917L118.175 440.287L131.893 447.81L149.567 455.537L171.205 463.518L194.435 470.968L216.975 477.069L238.963 481.817L260.536 485.211L281.833 487.247L302.991 487.926L324.148 487.247L345.445 485.211L367.018 481.817L389.006 477.069L411.546 470.968L434.776 463.518L456.414 455.537L474.088 447.81L487.806 440.287L497.573 432.917L503.393 425.653Z" fill="#E6E8FF"/>
<path d="M505.272 386.444L503.215 379.242L497.225 371.997L487.308 364.661L473.468 357.185L455.712 349.521L434.045 341.621L410.844 334.26L388.386 328.242L366.519 323.565L345.097 320.225L323.97 318.222L302.991 317.555L282.011 318.222L260.885 320.225L239.462 323.565L217.595 328.242L195.137 334.26L171.936 341.621L150.269 349.521L132.513 357.185L118.673 364.661L108.756 371.997L102.766 379.242L100.709 386.444M505.272 386.444L503.393 393.653L497.573 400.917L489.986 406.642L487.806 408.287L474.088 415.81L456.414 423.537L434.776 431.518L411.546 438.968L389.006 445.069L367.018 449.817L345.445 453.211L324.148 455.247L302.991 455.926L281.833 455.247L260.536 453.211L238.963 449.817L216.975 445.069L194.435 438.968L171.205 431.518L149.567 423.537L131.893 415.81L118.175 408.287L115.995 406.642L108.408 400.917L102.588 393.653L100.709 386.444M505.272 386.444V418.444L503.393 425.653L497.573 432.917L487.806 440.287L474.088 447.81L456.414 455.537L434.776 463.518L411.546 470.968L389.006 477.069L367.018 481.817L345.445 485.211L324.148 487.247L302.991 487.926L281.833 487.247L260.536 485.211L238.963 481.817L216.975 477.069L194.435 470.968L171.205 463.518L149.567 455.537L131.893 447.81L118.175 440.287L108.408 432.917L102.588 425.653L100.709 418.444V386.444" stroke="#BFC9FF" stroke-width="8" stroke-linejoin="round"/>
<path d="M302.991 317.555L282.011 318.222L260.885 320.225L239.462 323.565L217.595 328.242L195.137 334.26L171.936 341.621L150.269 349.521L132.513 357.185L118.673 364.661L108.756 371.997L102.766 379.242L100.709 386.444L102.588 393.653L108.408 400.917L115.995 406.642L118.175 408.287L131.893 415.81L149.567 423.537L171.205 431.518L194.435 438.968L216.975 445.069L238.963 449.817L260.536 453.211L281.833 455.247L302.991 455.926L324.148 455.247L345.445 453.211L367.018 449.817L389.006 445.069L411.546 438.968L434.776 431.518L456.414 423.537L474.088 415.81L487.806 408.287L489.986 406.642L497.573 400.917L503.393 393.653L505.272 386.444L503.215 379.242L497.225 371.997L487.308 364.661L473.468 357.185L455.712 349.521L434.045 341.621L410.844 334.26L388.386 328.242L366.519 323.565L345.097 320.225L323.97 318.222L302.991 317.555Z" fill="white" stroke="#BFC9FF" stroke-width="8" stroke-linejoin="round"/>
<path d="M407.393 393.653L409.272 386.444V354.444L407.393 361.653L401.573 368.917L393.986 374.642L391.806 376.287L378.088 383.81L360.414 391.537L338.776 399.518L315.546 406.968L293.006 413.069L271.018 417.817L249.445 421.211L228.148 423.247L206.991 423.926L185.833 423.247L164.536 421.211L142.963 417.817L120.975 413.069L98.435 406.968L75.2048 399.518L53.5674 391.537L35.8927 383.81L22.1748 376.287L19.9949 374.642L12.4081 368.917L6.58766 361.653L4.70868 354.444V386.444L6.58766 393.653L12.4081 400.917L22.1748 408.287L35.8927 415.81L53.5674 423.537L75.2048 431.518L98.435 438.968L120.975 445.069L142.963 449.817L164.536 453.211L185.833 455.247L206.991 455.926L228.148 455.247L249.445 453.211L271.018 449.817L293.006 445.069L315.546 438.968L338.776 431.518L360.414 423.537L378.088 415.81L391.806 408.287L401.573 400.917L407.393 393.653Z" fill="#E6E8FF"/>
<path d="M409.272 354.444L407.215 347.242L401.225 339.997L391.308 332.661L377.468 325.185L359.712 317.521L338.045 309.621L314.844 302.26L292.386 296.242L270.519 291.565L249.097 288.225L227.97 286.222L206.991 285.555L186.011 286.222L164.885 288.225L143.462 291.565L121.595 296.242L99.1366 302.26L75.9363 309.621L54.269 317.521L36.5127 325.185L22.6734 332.661L12.7563 339.997L6.76643 347.242L4.70868 354.444M409.272 354.444L407.393 361.653L401.573 368.917L393.986 374.642L391.806 376.287L378.088 383.81L360.414 391.537L338.776 399.518L315.546 406.968L293.006 413.069L271.018 417.817L249.445 421.211L228.148 423.247L206.991 423.926L185.833 423.247L164.536 421.211L142.963 417.817L120.975 413.069L98.435 406.968L75.2048 399.518L53.5674 391.537L35.8927 383.81L22.1748 376.287L19.9949 374.642L12.4081 368.917L6.58766 361.653L4.70868 354.444M409.272 354.444V386.444L407.393 393.653L401.573 400.917L391.806 408.287L378.088 415.81L360.414 423.537L338.776 431.518L315.546 438.968L293.006 445.069L271.018 449.817L249.445 453.211L228.148 455.247L206.991 455.926L185.833 455.247L164.536 453.211L142.963 449.817L120.975 445.069L98.435 438.968L75.2048 431.518L53.5674 423.537L35.8927 415.81L22.1748 408.287L12.4081 400.917L6.58766 393.653L4.70868 386.444V354.444" stroke="#BFC9FF" stroke-width="8" stroke-linejoin="round"/>
<path d="M207.282 286L186.303 286.668L165.176 288.67L143.753 292.01L121.887 296.687L99.4279 302.705L76.2277 310.066L54.5603 317.966L36.8041 325.63L22.9647 333.106L13.0476 340.442L7.05775 347.687L5 354.889L6.87899 362.098L12.6994 369.363L20.2862 375.087L22.4661 376.732L36.184 384.255L53.8587 391.982L75.4961 399.963L98.7263 407.413L121.267 413.514L143.255 418.262L164.828 421.656L186.124 423.692L207.282 424.371L228.44 423.692L249.736 421.656L271.309 418.262L293.297 413.514L315.837 407.413L339.068 399.963L360.705 391.982L378.38 384.255L392.098 376.732L394.277 375.087L401.864 369.363L407.685 362.098L409.564 354.889L407.506 347.687L401.516 340.442L391.599 333.106L377.76 325.63L360.003 317.966L338.336 310.066L315.136 302.705L292.677 296.687L270.81 292.01L249.388 288.67L228.261 286.668L207.282 286Z" fill="white" stroke="#BFC9FF" stroke-width="8" stroke-linejoin="round"/>
<path fill-rule="evenodd" clip-rule="evenodd" d="M297 355.349C297 348.95 290.8 343.9 278.95 343.9C267.05 343.9 259.85 348.95 259.85 355.299C259.85 362.824 268.35 366.624 280.55 366.624C286.5 366.624 291 365.949 294.4 364.999V359.999C291 360.849 287.1 361.374 282.15 361.374C277.3 361.374 273 360.524 272.45 357.574H296.9C296.9 357.249 297 355.949 297 355.349ZM272.3 352.975C272.3 350.15 275.75 348.975 278.9 348.975C281.95 348.975 285.2 350.15 285.2 352.975H272.3Z" fill="#7070A8"/>
<path fill-rule="evenodd" clip-rule="evenodd" d="M240.55 343.9C235.65 343.9 232.5 345.05 230.75 345.85L230.1 344.3H219.1V373.449L231.6 372.124L231.65 365.049C233.45 365.699 236.1 366.624 240.5 366.624C249.45 366.624 257.6 363.024 257.6 355.099C257.55 347.85 249.3 343.9 240.55 343.9ZM237.55 361.124C234.6 361.124 232.85 360.599 231.65 359.949L231.6 350.675C232.9 349.95 234.7 349.45 237.55 349.45C242.1 349.45 245.25 352 245.25 355.274C245.25 358.624 242.15 361.124 237.55 361.124Z" fill="#7070A8"/>
<path fill-rule="evenodd" clip-rule="evenodd" d="M201.9 342.425L214.45 341.075V336L201.9 337.325V342.425Z" fill="#7070A8"/>
<path d="M214.45 344.325H201.9V366.199H214.45V344.325Z" fill="#7070A8"/>
<path fill-rule="evenodd" clip-rule="evenodd" d="M188.45 346.175L187.65 344.325H176.85V366.199H189.35V351.375C192.3 349.45 197.3 349.8 198.85 350.075V344.325C197.25 344.025 191.4 343.475 188.45 346.175Z" fill="#7070A8"/>
<path fill-rule="evenodd" clip-rule="evenodd" d="M163.45 338.9L151.25 340.2L151.2 360.224C151.2 363.924 156.75 366.649 164.15 366.649C168.25 366.649 171.25 366.274 172.9 365.824V360.749C171.3 361.074 163.4 362.224 163.4 358.524V349.65H172.9V344.325H163.4L163.45 338.9Z" fill="#7070A8"/>
<path fill-rule="evenodd" clip-rule="evenodd" d="M129.65 350.675C129.65 349.7 131.25 349.325 133.9 349.325C137.7 349.325 142.5 349.9 146.3 350.925V345.05C142.15 344.225 138.05 343.9 133.9 343.9C123.75 343.9 117 346.55 117 350.975C117 357.874 136 356.774 136 359.749C136 360.899 134 361.274 131.2 361.274C127.05 361.274 121.75 360.424 117.55 359.274V365.224C122.2 366.224 126.9 366.649 131.2 366.649C141.6 366.649 148.75 364.074 148.75 359.599C148.7 352.15 129.65 353.475 129.65 350.675Z" fill="#7070A8"/>
<path d="M583.393 297.653L585.272 290.444V258.444L583.393 265.653L577.573 272.917L569.986 278.642L567.806 280.287L554.088 287.81L536.414 295.537L514.776 303.518L491.546 310.968L469.006 317.069L447.018 321.817L425.445 325.211L404.148 327.247L382.991 327.926L361.833 327.247L340.536 325.211L318.963 321.817L296.975 317.069L274.435 310.968L251.205 303.518L229.567 295.537L211.893 287.81L198.175 280.287L195.995 278.642L188.408 272.917L182.588 265.653L180.709 258.444V290.444L182.588 297.653L188.408 304.917L198.175 312.287L211.893 319.81L229.567 327.537L251.205 335.518L274.435 342.968L296.975 349.069L318.963 353.817L340.536 357.211L361.833 359.247L382.991 359.926L404.148 359.247L425.445 357.211L447.018 353.817L469.006 349.069L491.546 342.968L514.776 335.518L536.414 327.537L554.088 319.81L567.806 312.287L577.573 304.917L583.393 297.653Z" fill="#E6E8FF"/>
<path d="M585.272 258.444L583.215 251.242L577.225 243.997L567.308 236.661L553.468 229.185L535.712 221.521L514.045 213.621L490.844 206.26L468.386 200.242L446.519 195.565L425.097 192.225L403.97 190.222L382.991 189.555L362.011 190.222L340.885 192.225L319.462 195.565L297.595 200.242L275.137 206.26L251.936 213.621L230.269 221.521L212.513 229.185L198.673 236.661L188.756 243.997L182.766 251.242L180.709 258.444M585.272 258.444L583.393 265.653L577.573 272.917L569.986 278.642L567.806 280.287L554.088 287.81L536.414 295.537L514.776 303.518L491.546 310.968L469.006 317.069L447.018 321.817L425.445 325.211L404.148 327.247L382.991 327.926L361.833 327.247L340.536 325.211L318.963 321.817L296.975 317.069L274.435 310.968L251.205 303.518L229.567 295.537L211.893 287.81L198.175 280.287L195.995 278.642L188.408 272.917L182.588 265.653L180.709 258.444M585.272 258.444V290.444L583.393 297.653L577.573 304.917L567.806 312.287L554.088 319.81L536.414 327.537L514.776 335.518L491.546 342.968L469.006 349.069L447.018 353.817L425.445 357.211L404.148 359.247L382.991 359.926L361.833 359.247L340.536 357.211L318.963 353.817L296.975 349.069L274.435 342.968L251.205 335.518L229.567 327.537L211.893 319.81L198.175 312.287L188.408 304.917L182.588 297.653L180.709 290.444V258.444" stroke="#BFC9FF" stroke-width="8" stroke-linejoin="round"/>
<path d="M382.991 189.555L362.011 190.222L340.885 192.225L319.462 195.565L297.595 200.242L275.137 206.26L251.936 213.621L230.269 221.521L212.513 229.185L198.673 236.661L188.756 243.997L182.766 251.242L180.709 258.444L182.588 265.653L188.408 272.917L195.995 278.642L198.175 280.287L211.893 287.81L229.567 295.537L251.205 303.518L274.435 310.968L296.975 317.069L318.963 321.817L340.536 325.211L361.833 327.247L382.991 327.926L404.148 327.247L425.445 325.211L447.018 321.817L469.006 317.069L491.546 310.968L514.776 303.518L536.414 295.537L554.088 287.81L567.806 280.287L569.986 278.642L577.573 272.917L583.393 265.653L585.272 258.444L583.215 251.242L577.225 243.997L567.308 236.661L553.468 229.185L535.712 221.521L514.045 213.621L490.844 206.26L468.386 200.242L446.519 195.565L425.097 192.225L403.97 190.222L382.991 189.555Z" fill="white" stroke="#BFC9FF" stroke-width="8" stroke-linejoin="round"/>
<path d="M703.824 269.914L706.99 263.17L712.841 231.71L709.676 238.454L702.625 244.531L694.119 248.772L691.675 249.99L676.813 254.878L658.023 259.243L635.292 263.132L611.091 266.208L587.815 268.084L565.329 268.732L543.499 268.123L522.19 266.231L501.264 263.029L480.588 258.493L460.023 252.596L439.434 245.315L418.685 236.625L397.641 226.505L376.165 214.932L356.352 203.13L340.388 192.301L328.277 182.396L326.435 180.38L320.023 173.365L315.629 165.159L315.1 157.728L309.248 189.188L309.777 196.619L314.171 204.825L322.425 213.856L334.536 223.761L350.5 234.59L370.313 246.393L391.789 257.966L412.833 268.086L433.582 276.775L454.171 284.056L474.736 289.953L495.413 294.49L516.338 297.691L537.648 299.583L559.477 300.192L581.963 299.545L605.239 297.669L629.44 294.592L652.172 290.703L670.961 286.338L685.824 281.451L696.773 275.992L703.824 269.914Z" fill="#E6E8FF"/>
<path d="M712.841 231.71L712.135 224.253L707.572 216.035L699.163 207.009L686.924 197.128L670.869 186.346L651.012 174.617L629.549 163.138L608.569 153.114L587.927 144.517L567.476 137.316L547.072 131.484L526.568 126.991L505.821 123.811L484.684 121.917L463.012 121.282L440.659 121.882L417.478 123.691L393.323 126.686L370.577 130.49L351.718 134.778L336.745 139.596L325.654 144.995L318.44 151.023L315.1 157.728M712.841 231.71L709.676 238.454L702.625 244.531L694.119 248.772L691.675 249.99L676.813 254.878L658.023 259.243L635.292 263.132L611.091 266.208L587.815 268.084L565.329 268.732L543.499 268.123L522.19 266.231L501.264 263.029L480.588 258.493L460.023 252.596L439.434 245.315L418.685 236.625L397.641 226.505L376.165 214.932L356.352 203.13L340.388 192.301L328.277 182.396L326.435 180.38L320.023 173.365L315.629 165.159L315.1 157.728M712.841 231.71L706.99 263.17L703.824 269.914L696.773 275.992L685.824 281.451L670.961 286.338L652.172 290.703L629.44 294.592L605.239 297.669L581.963 299.545L559.477 300.192L537.648 299.583L516.338 297.691L495.413 294.49L474.736 289.953L454.171 284.056L433.582 276.775L412.833 268.086L391.789 257.966L370.313 246.393L350.5 234.59L334.536 223.761L322.425 213.856L314.171 204.825L309.777 196.619L309.248 189.188L315.1 157.728" stroke="#BFC9FF" stroke-width="8" stroke-linejoin="round"/>
<path d="M525.871 126.991L505.123 123.811L483.986 121.917L462.314 121.282L439.961 121.882L416.781 123.691L392.626 126.686L369.879 130.49L351.021 134.778L336.048 139.597L324.956 144.995L317.742 151.023L314.402 157.728L314.931 165.159L319.325 173.365L325.737 180.38L327.579 182.396L339.69 192.301L355.654 203.13L375.467 214.933L396.943 226.505L417.988 236.625L438.736 245.315L459.325 252.596L479.89 258.493L500.567 263.029L521.492 266.231L542.802 268.123L564.632 268.732L587.117 268.085L610.393 266.209L634.594 263.132L657.326 259.243L676.116 254.878L690.978 249.99L693.422 248.772L701.927 244.531L708.978 238.454L712.144 231.71L711.438 224.253L706.874 216.035L698.466 207.009L686.227 197.128L670.171 186.347L650.314 174.617L628.851 163.138L607.871 153.114L587.229 144.517L566.778 137.317L546.374 131.484L525.871 126.991Z" fill="white" stroke="#BFC9FF" stroke-width="8" stroke-linejoin="round"/>
<path d="M244.709 4C184.709 49.9281 184.709 116.633 244.709 156" stroke="#000842" stroke-width="8" stroke-linejoin="round"/>
<path d="M246.709 126V158H214.709" stroke="#000842" stroke-width="8" stroke-linejoin="round"/>
<path opacity="0.7" d="M257.709 589.055L204.709 650.054" stroke="#FFD970" stroke-width="32"/>
<path opacity="0.7" d="M866.5 505L887.5 528.5L897.5 561.5" stroke="#6B7FFF" stroke-width="32"/>
<path opacity="0.7" d="M380.709 178.555L344.709 193.555L347.709 234.555L284.709 257.555" stroke="#6B7FFF" stroke-width="32"/>
<path opacity="0.7" d="M65.2087 361.055L30.2087 380.055V405.5L33 433.5L27.2087 449" stroke="#FFD970" stroke-width="32"/>
<path opacity="0.7" d="M382.709 545.555L380.767 571L389.383 612L385 637" stroke="#6B7FFF" stroke-width="32"/>
<path opacity="0.7" d="M378.709 499.055L366.209 482.555L360.709 450.555L349.209 428.555L346.5 400L322.5 379" stroke="#FFD970" stroke-width="32"/>
<path d="M697.988 736.545C700.636 736.575 703.199 736.08 705.119 735.168L708.655 737.076C706.32 738.277 703.082 739.169 698.049 739.169C689.42 739.169 683.841 736.306 683.841 732.434C683.806 731.547 684.129 730.665 684.791 729.842C685.452 729.018 686.438 728.27 687.691 727.641C688.943 727.012 690.436 726.516 692.08 726.182C693.725 725.848 695.487 725.683 697.261 725.697C705.83 725.697 710.687 728.957 710.257 733.478H690.003C690.719 735.356 693.363 736.553 697.972 736.553L697.988 736.545ZM704.139 731.322C703.589 729.568 701.496 728.277 697.311 728.277C693.418 728.277 690.703 729.378 690.003 731.322H704.145H704.139ZM565 736.399L580.584 728.48H565.369V725.997H587.815V728.53L572.23 736.446H588.035V738.932H565V736.399ZM605.53 736.542C608.177 736.572 610.74 736.077 612.661 735.166L616.196 737.074C613.861 738.274 610.624 739.166 605.59 739.166C596.961 739.166 591.383 736.303 591.383 732.432C591.348 731.544 591.671 730.663 592.332 729.839C592.993 729.016 593.98 728.267 595.232 727.638C596.485 727.009 597.978 726.513 599.622 726.179C601.266 725.845 603.028 725.68 604.803 725.694C613.371 725.694 618.228 728.954 617.799 733.475H597.556C598.272 735.353 600.915 736.551 605.524 736.551L605.53 736.542ZM611.692 731.319C611.141 729.565 609.049 728.274 604.863 728.274C600.97 728.274 598.255 729.375 597.556 731.319H611.697H611.692ZM651.467 732.429C651.467 728.299 657.651 725.7 664.463 725.7C666.098 725.689 667.717 725.857 669.208 726.192C670.698 726.527 672.024 727.022 673.092 727.641V720.008H678.599V738.896H673.092V737.115C672.045 737.759 670.721 738.277 669.218 738.631C667.716 738.985 666.074 739.165 664.414 739.158C657.805 739.158 651.473 736.542 651.473 732.432L651.467 732.429ZM673.401 732.404C673.357 731.596 672.839 730.813 671.91 730.152C670.981 729.491 669.683 728.982 668.178 728.688C666.673 728.394 665.028 728.328 663.449 728.499C661.87 728.67 660.426 729.07 659.3 729.649C658.173 730.228 657.412 730.96 657.113 731.754C656.814 732.548 656.99 733.368 657.619 734.112C658.247 734.857 659.301 735.492 660.648 735.938C661.994 736.384 663.574 736.622 665.19 736.622C669.926 736.622 673.395 734.733 673.395 732.404H673.401ZM713.859 736.149L718.848 734.855C719.507 735.442 720.476 735.929 721.648 736.262C722.82 736.595 724.152 736.761 725.5 736.743C728.617 736.743 730.236 735.945 730.236 735.036C730.236 734.001 727.224 733.77 723.947 733.431C719.542 732.963 714.955 732.239 714.955 729.576C714.955 727.531 718.848 725.639 724.977 725.666C729.806 725.666 733.402 726.625 735.44 728.172L730.814 729.439C730.175 728.965 729.305 728.581 728.287 728.323C727.268 728.065 726.135 727.941 724.993 727.963C722.031 727.963 720.522 728.687 720.522 729.516C720.522 730.446 722.912 730.705 726.656 731.121C730.919 731.589 735.743 732.286 735.743 734.976C735.743 736.76 732.626 739.166 725.247 739.142C719.85 739.142 716.05 738.054 713.864 736.14L713.859 736.149ZM750.704 733.147L746.338 735.529V738.888H740.831V720H746.338V732.371L758.028 725.956H764.736L754.603 731.49L765 738.891H758.766L750.71 733.147H750.704ZM634.826 725.697C628.273 725.697 622.793 727.817 622.793 731.341V738.899H628.41V731.691C628.41 729.571 630.85 728.299 635.018 728.299C639.187 728.299 641.258 729.565 641.258 731.691V738.899H646.841V731.341C646.841 727.822 641.335 725.697 634.809 725.697" fill="#7070A8"/>
<path d="M437.436 171.577L435.974 179.437L421.531 176.75L422.994 168.89L416.141 167.615L412.65 186.378L419.504 187.653L420.919 180.048L435.358 182.735L433.943 190.339L440.799 191.615L444.29 172.852L437.436 171.577ZM463.866 189.633C463.726 190.385 462.995 190.995 461.832 191.329C460.669 191.662 459.171 191.693 457.667 191.413C456.163 191.133 454.776 190.566 453.811 189.836C452.847 189.107 452.383 188.274 452.523 187.522L454.019 179.485L447.517 178.275L446.022 186.312C445.722 187.925 446.715 189.71 448.784 191.274C450.852 192.839 453.826 194.055 457.051 194.655C460.277 195.255 463.489 195.19 465.982 194.474C468.475 193.758 470.044 192.45 470.344 190.838L471.839 182.801L465.362 181.595L463.866 189.633ZM513.383 191.387C513.689 189.739 515.966 189.623 518.353 190.067C520.279 190.425 522.684 191.63 524.182 192.829L528.906 191.111C527.048 189.278 522.922 187.483 519.392 186.826C512.338 185.513 506.852 186.63 506.215 190.054C505.033 196.406 520.938 197.28 520.276 200.835C520.072 201.932 517.763 202.504 515.325 202.05C511.48 201.335 510.408 200.163 508.827 198.841L503.644 200.418C506.322 202.835 509.875 204.471 514.34 205.302C521.042 206.549 526.822 205.462 527.43 202.193C528.742 195.141 512.803 194.443 513.372 191.385L513.383 191.387ZM607.546 219.539C603.705 218.824 602.767 217.79 603.004 216.518L604.052 210.883L610.025 211.995L610.556 209.14L604.583 208.029L605.284 204.263L598.416 204.515L596.281 215.991C595.735 218.926 599.511 221.159 605.064 222.193C605.935 222.362 606.813 222.489 607.684 222.573L609.843 219.912C609.113 219.802 608.276 219.672 607.547 219.536L607.546 219.539ZM490.093 186.294C486.873 185.695 484.538 185.744 482.165 186.405L483.314 180.229L476.804 179.018L474.674 190.465C473.876 194.75 479.526 198.839 486.489 200.134C494.213 201.572 501.564 199.848 502.313 195.824C503.052 191.851 497.364 187.65 490.093 186.297L490.093 186.294ZM488.052 197.035C487.082 196.855 486.139 196.58 485.277 196.228C484.415 195.875 483.651 195.452 483.029 194.981C482.406 194.51 481.938 194.002 481.65 193.484C481.362 192.967 481.26 192.451 481.35 191.966C481.441 191.481 481.721 191.036 482.176 190.657C482.631 190.278 483.251 189.972 484.001 189.756C484.751 189.541 485.616 189.42 486.547 189.401C487.478 189.383 488.457 189.466 489.427 189.646C491.387 190.011 493.194 190.75 494.451 191.701C495.708 192.651 496.311 193.736 496.129 194.716C495.947 195.695 494.993 196.49 493.479 196.925C491.964 197.36 490.012 197.4 488.052 197.035ZM559.531 206.294C560.281 202.263 554.055 198.021 546.317 196.581C539.355 195.286 532.611 197.068 531.814 201.354L529.683 212.808L536.194 214.019L537.344 207.835C539.317 209.302 541.481 210.191 544.698 210.789C551.969 212.142 558.789 210.268 559.529 206.294L559.531 206.294ZM553.372 205.106C553.19 206.086 552.237 206.881 550.722 207.316C549.207 207.751 547.256 207.79 545.296 207.426C543.336 207.061 541.529 206.322 540.272 205.371C539.015 204.421 538.412 203.336 538.594 202.356C538.776 201.376 539.73 200.582 541.244 200.147C542.759 199.712 544.711 199.672 546.671 200.037C548.63 200.401 550.437 201.14 551.694 202.091C552.951 203.042 553.555 204.126 553.372 205.106Z" fill="#7070A8"/>
<path d="M581.904 203.04L582.512 199.769C583.414 199.727 584.206 199.543 584.795 199.237C585.384 198.93 585.746 198.515 585.839 198.039L585.853 197.964C586.112 196.572 584.066 195.025 581.284 194.507L581.134 194.479C579.798 194.231 578.467 194.258 577.434 194.554C576.401 194.851 575.751 195.393 575.627 196.061L575.613 196.136C575.529 196.614 575.717 197.132 576.157 197.629C576.596 198.127 577.269 198.584 578.095 198.947L577.487 202.218C574.967 201.946 572.531 202.025 570.425 202.449L553.783 192.123C553.953 191.916 554.064 191.691 554.116 191.454C554.223 190.893 553.994 190.282 553.459 189.699C552.924 189.116 552.107 188.587 551.11 188.178C550.114 187.77 548.983 187.5 547.861 187.404C546.74 187.307 545.677 187.388 544.808 187.637C543.939 187.885 543.303 188.29 542.98 188.799C542.656 189.308 542.661 189.9 542.992 190.498C543.324 191.097 543.968 191.676 544.842 192.162C545.717 192.648 546.783 193.019 547.906 193.229C548.888 193.409 549.877 193.458 550.772 193.369L567.161 203.53C565.351 204.434 564.261 205.69 564.032 207.135C563.804 208.58 564.448 210.146 565.881 211.63L560.007 213.318C559.585 213.168 559.14 213.047 558.684 212.959C557.762 212.788 556.836 212.757 556.022 212.871C555.209 212.984 554.544 213.237 554.113 213.598C553.681 213.958 553.502 214.409 553.598 214.895C553.694 215.38 554.06 215.878 554.651 216.325C555.242 216.772 556.031 217.148 556.919 217.407C557.806 217.665 558.751 217.793 559.636 217.775C560.52 217.758 561.304 217.595 561.887 217.307C562.471 217.019 562.829 216.62 562.915 216.159C562.952 215.93 562.92 215.69 562.821 215.447L568.632 213.777C570.242 214.767 572.172 215.602 574.276 216.219C576.38 216.835 578.601 217.217 580.769 217.334C582.937 217.451 584.995 217.301 586.785 216.895C588.575 216.489 590.049 215.838 591.095 214.992C592.141 214.145 592.731 213.126 592.819 212.013C592.908 210.899 592.492 209.72 591.605 208.566C590.718 207.413 589.382 206.315 587.701 205.357C586.019 204.399 584.036 203.606 581.904 203.04ZM577.698 213.388C576.713 213.218 575.751 212.951 574.869 212.602C573.986 212.253 573.201 211.829 572.561 211.356C571.92 210.882 571.436 210.368 571.138 209.844C570.84 209.32 570.733 208.797 570.825 208.306C570.916 207.814 571.204 207.365 571.67 206.983C572.137 206.601 572.773 206.296 573.542 206.084C574.31 205.873 575.194 205.759 576.143 205.751C577.092 205.743 578.086 205.84 579.066 206.036C580.964 206.424 582.693 207.161 583.89 208.092C585.086 209.024 585.656 210.077 585.48 211.03C585.304 211.983 584.395 212.761 582.945 213.201C581.495 213.64 579.617 213.707 577.706 213.387" fill="#7070A8"/>
</svg>
