<svg width="1055" height="790" viewBox="0 0 1055 790" fill="none" xmlns="http://www.w3.org/2000/svg">
<path d="M542.452 338.873L492.343 344.69L442.148 353.738L391.514 366.048L340.086 381.654L287.51 400.592L233.427 422.898L183.125 446.188L142.141 468.125L110.501 488.824L88.2262 508.4L75.3384 526.968L71.8593 544.644L77.8096 561.544L93.2107 577.784L112.532 589.979L118.084 593.482L152.451 608.755L196.335 623.721L249.761 638.498L306.895 651.684L362.105 661.775L415.72 668.735L468.068 672.53L519.482 673.13L570.29 670.504L620.825 664.623L671.419 655.461L722.402 642.991L774.106 627.19L826.862 608.037L880.998 585.511L931.212 562.034L971.988 539.962L1003.33 519.173L1008.22 514.793L1025.24 499.548L1037.71 480.968L1040.76 463.312L1034.39 446.464L1018.58 430.304L993.357 414.716L958.708 399.581L914.641 384.783L861.16 370.205L804.116 357.227L749.118 347.319L695.808 340.505L643.831 336.808L592.83 336.255L542.452 338.873Z" fill="#278282" fill-opacity="0.3"/>
<path d="M673.5 612L646.483 612.859L619.276 615.435L591.687 619.731L563.528 625.748L534.605 633.489L504.727 642.959L476.824 653.121L453.957 662.98L436.135 672.596L423.364 682.034L415.65 691.353L413 700.619L415.42 709.892L422.915 719.237L432.686 726.601L435.493 728.717L453.159 738.395L475.921 748.335L503.785 758.601L533.701 768.185L562.729 776.033L591.045 782.141L618.827 786.507L646.253 789.126L673.5 790L700.747 789.126L728.173 786.507L755.955 782.141L784.271 776.033L813.299 768.185L843.215 758.601L871.079 748.335L893.841 738.395L911.507 728.717L914.314 726.601L924.085 719.237L931.58 709.892L934 700.619L931.35 691.353L923.636 682.034L910.865 672.596L893.043 662.98L870.176 653.121L842.273 642.959L812.395 633.489L783.472 625.748L755.313 619.731L727.724 615.435L700.517 612.859L673.5 612Z" fill="#278282" fill-opacity="0.3"/>
<g filter="url(#filter0_dd)">
<path d="M993.393 430.653L995.272 423.444V391.444L993.393 398.653L987.573 405.917L979.986 411.642L977.806 413.287L964.088 420.81L946.414 428.537L924.776 436.518L901.546 443.968L879.006 450.069L857.018 454.817L835.445 458.211L814.148 460.247L792.991 460.926L771.833 460.247L750.536 458.211L728.963 454.817L706.975 450.069L684.435 443.968L661.205 436.518L639.567 428.537L621.893 420.81L608.175 413.287L605.995 411.642L598.408 405.917L592.588 398.653L590.709 391.444V423.444L592.588 430.653L598.408 437.917L608.175 445.287L621.893 452.81L639.567 460.537L661.205 468.518L684.435 475.968L706.975 482.069L728.963 486.817L750.536 490.211L771.833 492.247L792.991 492.926L814.148 492.247L835.445 490.211L857.018 486.817L879.006 482.069L901.546 475.968L924.776 468.518L946.414 460.537L964.088 452.81L977.806 445.287L987.573 437.917L993.393 430.653Z" fill="#4D6469"/>
<path d="M995.272 391.444L993.215 384.242L987.225 376.997L977.308 369.661L963.468 362.185L945.712 354.521L924.045 346.621L900.844 339.26L878.386 333.242L856.519 328.565L835.097 325.225L813.97 323.222L792.991 322.555L772.011 323.222L750.885 325.225L729.462 328.565L707.595 333.242L685.137 339.26L661.936 346.621L640.269 354.521L622.513 362.185L608.673 369.661L598.756 376.997L592.766 384.242L590.709 391.444M995.272 391.444L993.393 398.653L987.573 405.917L979.986 411.642L977.806 413.287L964.088 420.81L946.414 428.537L924.776 436.518L901.546 443.968L879.006 450.069L857.018 454.817L835.445 458.211L814.148 460.247L792.991 460.926L771.833 460.247L750.536 458.211L728.963 454.817L706.975 450.069L684.435 443.968L661.205 436.518L639.567 428.537L621.893 420.81L608.175 413.287L605.995 411.642L598.408 405.917L592.588 398.653L590.709 391.444M995.272 391.444V423.444L993.393 430.653L987.573 437.917L977.806 445.287L964.088 452.81L946.414 460.537L924.776 468.518L901.546 475.968L879.006 482.069L857.018 486.817L835.445 490.211L814.148 492.247L792.991 492.926L771.833 492.247L750.536 490.211L728.963 486.817L706.975 482.069L684.435 475.968L661.205 468.518L639.567 460.537L621.893 452.81L608.175 445.287L598.408 437.917L592.588 430.653L590.709 423.444V391.444" stroke="#4D6469" stroke-width="8" stroke-linejoin="round"/>
<path d="M793.282 323L772.303 323.668L751.176 325.67L729.753 329.01L707.887 333.687L685.428 339.705L662.228 347.066L640.56 354.966L622.804 362.63L608.965 370.106L599.048 377.442L593.058 384.687L591 391.889L592.879 399.098L598.699 406.363L606.286 412.087L608.466 413.732L622.184 421.255L639.859 428.982L661.496 436.963L684.726 444.413L707.267 450.514L729.255 455.262L750.828 458.656L772.124 460.692L793.282 461.371L814.44 460.692L835.736 458.656L857.309 455.262L879.297 450.514L901.837 444.413L925.068 436.963L946.705 428.982L964.38 421.255L978.098 413.732L980.277 412.087L987.864 406.363L993.685 399.098L995.564 391.889L993.506 384.687L987.516 377.442L977.599 370.106L963.76 362.63L946.003 354.966L924.336 347.066L901.136 339.705L878.677 333.687L856.81 329.01L835.388 325.67L814.261 323.668L793.282 323Z" fill="white" stroke="#4D6469" stroke-width="8" stroke-linejoin="round"/>
</g>
<g filter="url(#filter1_dd)">
<path d="M873.393 686.653L875.272 679.444V647.444L873.393 654.653L867.573 661.917L859.986 667.642L857.806 669.287L844.088 676.81L826.414 684.537L804.776 692.518L781.546 699.968L759.006 706.069L737.018 710.817L715.445 714.211L694.148 716.247L672.991 716.926L651.833 716.247L630.536 714.211L608.963 710.817L586.975 706.069L564.435 699.968L541.205 692.518L519.567 684.537L501.893 676.81L488.175 669.287L485.995 667.642L478.408 661.917L472.588 654.653L470.709 647.444V679.444L472.588 686.653L478.408 693.917L488.175 701.287L501.893 708.81L519.567 716.537L541.205 724.518L564.435 731.968L586.975 738.069L608.963 742.817L630.536 746.211L651.833 748.247L672.991 748.926L694.148 748.247L715.445 746.211L737.018 742.817L759.006 738.069L781.546 731.968L804.776 724.518L826.414 716.537L844.088 708.81L857.806 701.287L867.573 693.917L873.393 686.653Z" fill="#4D6469"/>
<path d="M875.272 647.444L873.215 640.242L867.225 632.997L857.308 625.661L843.468 618.185L825.712 610.521L804.045 602.621L780.844 595.26L758.386 589.242L736.519 584.565L715.097 581.225L693.97 579.222L672.991 578.555L652.011 579.222L630.885 581.225L609.462 584.565L587.595 589.242L565.137 595.26L541.936 602.621L520.269 610.521L502.513 618.185L488.673 625.661L478.756 632.997L472.766 640.242L470.709 647.444M875.272 647.444L873.393 654.653L867.573 661.917L859.986 667.642L857.806 669.287L844.088 676.81L826.414 684.537L804.776 692.518L781.546 699.968L759.006 706.069L737.018 710.817L715.445 714.211L694.148 716.247L672.991 716.926L651.833 716.247L630.536 714.211L608.963 710.817L586.975 706.069L564.435 699.968L541.205 692.518L519.567 684.537L501.893 676.81L488.175 669.287L485.995 667.642L478.408 661.917L472.588 654.653L470.709 647.444M875.272 647.444V679.444L873.393 686.653L867.573 693.917L857.806 701.287L844.088 708.81L826.414 716.537L804.776 724.518L781.546 731.968L759.006 738.069L737.018 742.817L715.445 746.211L694.148 748.247L672.991 748.926L651.833 748.247L630.536 746.211L608.963 742.817L586.975 738.069L564.435 731.968L541.205 724.518L519.567 716.537L501.893 708.81L488.175 701.287L478.408 693.917L472.588 686.653L470.709 679.444V647.444" stroke="#4D6469" stroke-width="8" stroke-linejoin="round"/>
<path d="M673.282 579L652.303 579.668L631.176 581.67L609.753 585.01L587.887 589.687L565.428 595.705L542.228 603.066L520.56 610.966L502.804 618.63L488.965 626.106L479.048 633.442L473.058 640.687L471 647.889L472.879 655.098L478.699 662.363L486.286 668.087L488.466 669.732L502.184 677.255L519.859 684.982L541.496 692.963L564.726 700.413L587.267 706.514L609.255 711.262L630.828 714.656L652.124 716.692L673.282 717.371L694.44 716.692L715.736 714.656L737.309 711.262L759.297 706.514L781.837 700.413L805.068 692.963L826.705 684.982L844.38 677.255L858.098 669.732L860.277 668.087L867.864 662.363L873.685 655.098L875.564 647.889L873.506 640.687L867.516 633.442L857.599 626.106L843.76 618.63L826.003 610.966L804.336 603.066L781.136 595.705L758.677 589.687L736.81 585.01L715.388 581.67L694.261 579.668L673.282 579Z" fill="white" stroke="#4D6469" stroke-width="8" stroke-linejoin="round"/>
</g>
<path fill-rule="evenodd" clip-rule="evenodd" d="M762.99 396.336C762.99 396.764 762.362 397.116 761.469 397.116C760.601 397.116 759.973 396.764 759.973 396.336V388.899C759.973 388.47 760.601 388.118 761.494 388.118C762.362 388.118 762.99 388.471 762.99 388.899V396.336Z" fill="#002129" fill-opacity="0.3"/>
<path fill-rule="evenodd" clip-rule="evenodd" d="M782.49 388.899V395.695C782.49 396.614 781.549 397.13 780.053 397.13H779.933C778.509 397.13 777.832 396.702 777.23 396.073L774.189 392.989L771.486 389.805L771.558 392.889L771.582 396.324C771.582 396.752 770.956 397.104 770.062 397.104C769.193 397.104 768.566 396.752 768.566 396.324V389.528C768.566 388.684 769.507 388.093 771.149 388.093H771.269C772.79 388.093 773.417 388.521 774.021 389.15L777.013 392.209L779.571 395.179L779.499 392.335L779.475 388.899C779.475 388.471 780.102 388.119 780.995 388.119C781.862 388.118 782.49 388.47 782.49 388.899Z" fill="#002129" fill-opacity="0.3"/>
<path fill-rule="evenodd" clip-rule="evenodd" d="M794.581 396.324C794.581 396.752 793.954 397.104 793.061 397.104C792.193 397.104 791.565 396.752 791.565 396.324V389.591H787.824C787.053 389.591 786.426 389.289 786.426 388.849C786.426 388.421 787.053 388.119 787.824 388.119H798.322C799.094 388.119 799.721 388.422 799.721 388.862C799.721 389.29 799.094 389.591 798.322 389.591H794.581V396.324Z" fill="#002129" fill-opacity="0.3"/>
<path fill-rule="evenodd" clip-rule="evenodd" d="M803.655 396.073V389.088C803.655 388.434 804.355 388.069 805.634 388.094H814.323C815.094 388.094 815.721 388.408 815.721 388.836C815.721 389.264 815.094 389.566 814.323 389.566H806.647V391.73H813.429C814.178 391.73 814.78 392.02 814.78 392.435C814.78 392.85 814.178 393.14 813.429 393.14H806.647V395.632H814.323C815.094 395.632 815.721 395.946 815.721 396.374C815.721 396.802 815.094 397.104 814.323 397.104H805.562C804.307 397.104 803.608 396.74 803.655 396.073Z" fill="#002129" fill-opacity="0.3"/>
<path fill-rule="evenodd" clip-rule="evenodd" d="M832.158 397.142C833.003 396.915 833.269 396.449 832.858 396.085L829.841 393.291C832.327 393.04 833.776 392.083 833.776 390.787C833.776 389.428 832.135 388.094 828.201 388.094H822.481C821.203 388.069 820.503 388.434 820.503 389.088V396.337C820.503 396.764 821.13 397.117 821.999 397.117C822.892 397.117 823.519 396.765 823.519 396.337L823.495 393.594H826.68L830.035 396.828C830.444 397.193 831.337 397.356 832.158 397.142ZM828.271 392.17H823.493V389.565H828.247C829.84 389.565 830.733 390.093 830.733 390.861C830.733 391.629 829.889 392.17 828.271 392.17Z" fill="#002129" fill-opacity="0.3"/>
<path fill-rule="evenodd" clip-rule="evenodd" d="M840.001 396.437C838.191 395.594 837.37 394.273 837.37 392.611C837.37 390.937 838.167 389.629 839.954 388.798C841.063 388.295 842.559 387.955 844.732 387.955C846.638 387.955 848.111 388.182 849.221 388.672C850.187 389.075 850.886 389.642 851.296 390.435C851.513 390.85 850.958 391.265 850.042 391.354C849.173 391.429 848.474 391.139 848.208 390.724C847.919 390.322 847.531 390.032 847.073 389.83C846.446 389.541 845.674 389.415 844.659 389.415C843.574 389.415 842.632 389.578 841.932 389.943C840.919 390.472 840.484 391.416 840.484 392.611C840.484 393.795 840.894 394.738 841.956 395.267C842.656 395.632 843.574 395.795 844.635 395.795C845.745 395.795 846.589 395.644 847.29 395.305C847.651 395.128 847.966 394.902 848.183 394.637C848.497 394.247 849.149 393.958 849.993 394.059C850.837 394.16 851.369 394.587 851.103 395.002C850.668 395.694 849.921 396.248 848.907 396.626C847.797 397.041 846.422 397.255 844.684 397.255C842.464 397.255 841.063 396.915 840.001 396.437Z" fill="#002129" fill-opacity="0.3"/>
<path fill-rule="evenodd" clip-rule="evenodd" d="M862.157 387.955C856.919 387.955 854.699 389.793 854.699 392.611C854.699 395.519 856.896 397.268 862.157 397.268C867.321 397.268 869.591 395.519 869.591 392.611C869.591 389.742 867.346 387.955 862.157 387.955ZM862.133 389.428C865.005 389.428 866.5 390.472 866.5 392.611C866.5 394.751 864.98 395.795 862.133 395.795C859.261 395.795 857.812 394.751 857.812 392.611C857.812 390.472 859.308 389.428 862.133 389.428Z" fill="#002129" fill-opacity="0.3"/>
<path fill-rule="evenodd" clip-rule="evenodd" d="M893 396.324C893 396.752 892.372 397.104 891.479 397.104C890.611 397.104 889.983 396.752 889.983 396.324V392.951L890.056 389.667L887.956 393.002L885.832 396.287C885.471 396.865 884.723 397.092 883.781 397.092C882.791 397.092 882.067 396.853 881.681 396.275L879.509 393.003L877.506 389.718L877.578 392.952V396.325C877.578 396.753 876.95 397.105 876.057 397.105C875.189 397.105 874.562 396.752 874.562 396.325V389.592C874.562 388.66 875.527 388.119 877.216 388.119C878.809 388.119 879.702 388.559 880.208 389.365L882.428 392.801L883.78 395.142L885.156 392.801L887.376 389.365C887.884 388.559 888.752 388.119 890.345 388.119C892.034 388.119 892.975 388.648 892.975 389.592L893 396.324Z" fill="#002129" fill-opacity="0.3"/>
<path d="M735.614 393.897C735.614 394.122 735.442 394.338 735.135 394.497C734.828 394.657 734.412 394.746 733.978 394.746C733.543 394.746 733.127 394.657 732.82 394.497C732.513 394.338 732.341 394.122 732.341 393.897V386.314C732.341 386.089 732.513 385.873 732.82 385.714C733.127 385.554 733.543 385.465 733.978 385.465C734.412 385.465 734.828 385.554 735.135 385.714C735.442 385.873 735.614 386.089 735.614 386.314V393.897ZM735.046 399.152C734.83 399.264 728.742 401.895 717.581 401.895C706.42 401.895 700.373 399.278 700.116 399.166C699.954 399.095 699.821 399.008 699.723 398.911C699.626 398.813 699.567 398.706 699.549 398.597C699.532 398.487 699.556 398.377 699.621 398.272C699.685 398.168 699.789 398.071 699.927 397.987C700.209 397.818 700.609 397.713 701.04 397.696C701.471 397.679 701.897 397.751 702.226 397.896C702.321 397.931 707.759 400.218 717.568 400.218C727.376 400.218 732.855 397.917 732.909 397.896C733.241 397.752 733.669 397.681 734.101 397.698C734.533 397.715 734.935 397.819 735.222 397.987C735.498 398.154 735.636 398.371 735.605 398.59C735.575 398.81 735.379 399.014 735.06 399.159L735.046 399.152ZM699.534 386.314C699.559 386.088 699.755 385.876 700.079 385.725C700.404 385.574 700.83 385.496 701.266 385.507C701.67 385.519 702.051 385.608 702.336 385.757C702.62 385.906 702.789 386.104 702.808 386.314V393.883C702.808 394.108 702.636 394.324 702.329 394.483C702.022 394.643 701.605 394.732 701.171 394.732C700.737 394.732 700.321 394.643 700.014 394.483C699.707 394.324 699.534 394.108 699.534 393.883V386.314ZM707.746 384.63C707.77 384.404 707.966 384.193 708.291 384.041C708.615 383.89 709.042 383.812 709.478 383.823C709.881 383.835 710.262 383.924 710.547 384.073C710.832 384.222 711 384.421 711.02 384.63V395.855C711.02 396.08 710.847 396.296 710.54 396.455C710.233 396.614 709.817 396.703 709.383 396.703C708.949 396.703 708.532 396.614 708.225 396.455C707.918 396.296 707.746 396.08 707.746 395.855V384.63ZM715.998 384.209C715.998 383.984 716.171 383.768 716.478 383.609C716.785 383.45 717.201 383.36 717.635 383.36C718.069 383.36 718.486 383.45 718.793 383.609C719.1 383.768 719.272 383.984 719.272 384.209V396.416C719.272 396.641 719.1 396.857 718.793 397.016C718.486 397.175 718.069 397.265 717.635 397.265C717.201 397.265 716.785 397.175 716.478 397.016C716.171 396.857 715.998 396.641 715.998 396.416V384.209ZM724.115 384.63C724.115 384.405 724.288 384.189 724.595 384.03C724.902 383.871 725.318 383.781 725.752 383.781C726.186 383.781 726.603 383.871 726.91 384.03C727.217 384.189 727.389 384.405 727.389 384.63V395.855C727.389 396.08 727.217 396.296 726.91 396.455C726.603 396.614 726.186 396.703 725.752 396.703C725.318 396.703 724.902 396.614 724.595 396.455C724.288 396.296 724.115 396.08 724.115 395.855V384.63ZM736.061 380H699.155C698.351 379.997 697.554 380.077 696.809 380.234C696.064 380.391 695.387 380.623 694.815 380.916C694.243 381.21 693.788 381.558 693.477 381.943C693.166 382.327 693.004 382.74 693 383.157V402.098C693.004 402.515 693.166 402.928 693.477 403.312C693.788 403.697 694.243 404.045 694.815 404.339C695.387 404.632 696.064 404.864 696.809 405.021C697.554 405.178 698.351 405.258 699.155 405.255H736.061C736.864 405.258 737.66 405.178 738.404 405.022C739.148 404.865 739.825 404.634 740.397 404.341C740.968 404.049 741.423 403.701 741.735 403.317C742.048 402.933 742.211 402.522 742.216 402.105V383.157C742.213 382.74 742.051 382.329 741.74 381.945C741.43 381.561 740.976 381.212 740.406 380.919C739.836 380.626 739.16 380.394 738.416 380.236C737.673 380.078 736.877 379.998 736.074 380" fill="#002129" fill-opacity="0.3"/>
<g filter="url(#filter2_dd)">
<path d="M816.144 293.729L815.444 286.313L804.5 256.242L805.199 263.659L802.215 272.476L797.043 280.45L795.557 282.741L785.24 294.503L771.274 307.809L753.671 322.709L734.39 337.655L715.295 351.097L696.258 363.079L677.146 373.647L657.831 382.844L638.181 390.719L618.067 397.317L597.358 402.687L575.926 406.877L553.64 409.935L530.372 411.911L505.995 412.855L482.933 412.757L463.681 411.541L448.217 409.163L445.606 408.363L436.519 405.579L428.565 400.743L424.334 394.611L435.279 424.682L439.51 430.813L447.464 435.649L459.162 439.233L474.626 441.611L493.877 442.827L516.939 442.926L541.317 441.982L564.585 440.005L586.87 436.947L608.303 432.757L629.012 427.387L649.126 420.789L668.775 412.914L688.091 403.717L707.202 393.15L726.24 381.167L745.334 367.725L764.616 352.779L782.219 337.879L796.185 324.573L806.502 312.812L813.159 302.546L816.144 293.729Z" fill="#4D6469"/>
<path d="M804.5 256.242L800.102 250.178L791.996 245.419L780.168 241.917L764.606 239.625L745.3 238.497L722.237 238.484L697.918 239.501L674.756 241.528L652.608 244.611L631.335 248.8L610.797 254.144L590.855 260.692L571.37 268.495L552.202 277.603L533.213 288.068L514.265 299.942L495.219 313.278L475.936 328.13L458.277 342.964L444.213 356.239L433.765 367.997L426.955 378.283L423.804 387.139L424.334 394.611M804.5 256.242L805.199 263.659L802.215 272.476L797.043 280.45L795.557 282.741L785.24 294.503L771.274 307.809L753.671 322.709L734.39 337.655L715.295 351.097L696.258 363.079L677.146 373.647L657.831 382.844L638.181 390.719L618.067 397.317L597.358 402.687L575.926 406.877L553.64 409.935L530.372 411.911L505.995 412.855L482.933 412.757L463.681 411.541L448.217 409.163L445.606 408.363L436.519 405.579L428.565 400.743L424.334 394.611M804.5 256.242L815.444 286.313L816.144 293.729L813.159 302.546L806.502 312.812L796.185 324.573L782.219 337.879L764.616 352.779L745.334 367.725L726.24 381.167L707.202 393.15L688.091 403.717L668.775 412.914L649.126 420.789L629.012 427.387L608.303 432.757L586.87 436.947L564.585 440.005L541.317 441.982L516.939 442.926L493.877 442.827L474.626 441.611L459.162 439.233L447.464 435.649L439.51 430.813L435.279 424.682L424.334 394.611" stroke="#4D6469" stroke-width="8" stroke-linejoin="round"/>
<path d="M591.083 260.816L571.597 268.618L552.429 277.726L533.441 288.191L514.493 300.065L495.447 313.401L476.163 328.254L458.505 343.088L444.44 356.362L433.992 368.121L427.182 378.406L424.032 387.263L424.562 394.735L428.793 400.866L436.747 405.702L445.834 408.486L448.445 409.286L463.909 411.664L483.16 412.88L506.222 412.979L530.6 412.035L553.867 410.058L576.153 407L597.586 402.81L618.294 397.441L638.409 390.842L658.058 382.968L677.374 373.77L696.485 363.203L715.523 351.221L734.617 337.778L753.898 322.832L771.501 307.932L785.467 294.626L795.785 282.865L797.271 280.574L802.442 272.6L805.427 263.783L804.727 256.366L800.33 250.302L792.223 245.542L780.395 242.04L764.834 239.749L745.527 238.62L722.465 238.607L698.146 239.625L674.983 241.651L652.836 244.735L631.563 248.924L611.025 254.268L591.083 260.816Z" fill="white" stroke="#4D6469" stroke-width="8" stroke-linejoin="round"/>
</g>
<g filter="url(#filter3_dd)">
<path d="M535.393 536.653L537.272 529.444V497.444L535.393 504.653L529.573 511.917L521.986 517.642L519.806 519.287L506.088 526.81L488.414 534.537L466.776 542.518L443.546 549.968L421.006 556.069L399.018 560.817L377.445 564.211L356.148 566.247L334.991 566.926L313.833 566.247L292.536 564.211L270.963 560.817L248.975 556.069L226.435 549.968L203.205 542.518L181.567 534.537L163.893 526.81L150.175 519.287L147.995 517.642L140.408 511.917L134.588 504.653L132.709 497.444V529.444L134.588 536.653L140.408 543.917L150.175 551.287L163.893 558.81L181.567 566.537L203.205 574.518L226.435 581.968L248.975 588.069L270.963 592.817L292.536 596.211L313.833 598.247L334.991 598.926L356.148 598.247L377.445 596.211L399.018 592.817L421.006 588.069L443.546 581.968L466.776 574.518L488.414 566.537L506.088 558.81L519.806 551.287L529.573 543.917L535.393 536.653Z" fill="#4D6469"/>
<path d="M537.272 497.444L535.215 490.242L529.225 482.997L519.308 475.661L505.468 468.185L487.712 460.521L466.045 452.621L442.844 445.26L420.386 439.242L398.519 434.565L377.097 431.225L355.97 429.222L334.991 428.555L314.011 429.222L292.885 431.225L271.462 434.565L249.595 439.242L227.137 445.26L203.936 452.621L182.269 460.521L164.513 468.185L150.673 475.661L140.756 482.997L134.766 490.242L132.709 497.444M537.272 497.444L535.393 504.653L529.573 511.917L521.986 517.642L519.806 519.287L506.088 526.81L488.414 534.537L466.776 542.518L443.546 549.968L421.006 556.069L399.018 560.817L377.445 564.211L356.148 566.247L334.991 566.926L313.833 566.247L292.536 564.211L270.963 560.817L248.975 556.069L226.435 549.968L203.205 542.518L181.567 534.537L163.893 526.81L150.175 519.287L147.995 517.642L140.408 511.917L134.588 504.653L132.709 497.444M537.272 497.444V529.444L535.393 536.653L529.573 543.917L519.806 551.287L506.088 558.81L488.414 566.537L466.776 574.518L443.546 581.968L421.006 588.069L399.018 592.817L377.445 596.211L356.148 598.247L334.991 598.926L313.833 598.247L292.536 596.211L270.963 592.817L248.975 588.069L226.435 581.968L203.205 574.518L181.567 566.537L163.893 558.81L150.175 551.287L140.408 543.917L134.588 536.653L132.709 529.444V497.444" stroke="#4D6469" stroke-width="8" stroke-linejoin="round"/>
<path d="M334.991 428.555L314.011 429.222L292.885 431.225L271.462 434.565L249.595 439.242L227.137 445.26L203.936 452.621L182.269 460.521L164.513 468.185L150.673 475.661L140.756 482.997L134.766 490.242L132.709 497.444L134.588 504.653L140.408 511.917L147.995 517.642L150.175 519.287L163.893 526.81L181.567 534.537L203.205 542.518L226.435 549.968L248.975 556.069L270.963 560.817L292.536 564.211L313.833 566.247L334.991 566.926L356.148 566.247L377.445 564.211L399.018 560.817L421.006 556.069L443.546 549.968L466.776 542.518L488.414 534.537L506.088 526.81L519.806 519.287L521.986 517.642L529.573 511.917L535.393 504.653L537.272 497.444L535.215 490.242L529.225 482.997L519.308 475.661L505.468 468.185L487.712 460.521L466.045 452.621L442.844 445.26L420.386 439.242L398.519 434.565L377.097 431.225L355.97 429.222L334.991 428.555Z" fill="white" stroke="#4D6469" stroke-width="8" stroke-linejoin="round"/>
</g>
<g filter="url(#filter4_dd)">
<path d="M575.393 504.653L577.272 497.444V465.444L575.393 472.653L569.573 479.917L561.986 485.642L559.806 487.287L546.088 494.81L528.414 502.537L506.776 510.518L483.546 517.968L461.006 524.069L439.018 528.817L417.445 532.211L396.148 534.247L374.991 534.926L353.833 534.247L332.536 532.211L310.963 528.817L288.975 524.069L266.435 517.968L243.205 510.518L221.567 502.537L203.893 494.81L190.175 487.287L187.995 485.642L180.408 479.917L174.588 472.653L172.709 465.444V497.444L174.588 504.653L180.408 511.917L190.175 519.287L203.893 526.81L221.567 534.537L243.205 542.518L266.435 549.968L288.975 556.069L310.963 560.817L332.536 564.211L353.833 566.247L374.991 566.926L396.148 566.247L417.445 564.211L439.018 560.817L461.006 556.069L483.546 549.968L506.776 542.518L528.414 534.537L546.088 526.81L559.806 519.287L569.573 511.917L575.393 504.653Z" fill="#4D6469"/>
<path d="M577.272 465.444L575.215 458.242L569.225 450.997L559.308 443.661L545.468 436.185L527.712 428.521L506.045 420.621L482.844 413.26L460.386 407.242L438.519 402.565L417.097 399.225L395.97 397.222L374.991 396.555L354.011 397.222L332.885 399.225L311.462 402.565L289.595 407.242L267.137 413.26L243.936 420.621L222.269 428.521L204.513 436.185L190.673 443.661L180.756 450.997L174.766 458.242L172.709 465.444M577.272 465.444L575.393 472.653L569.573 479.917L561.986 485.642L559.806 487.287L546.088 494.81L528.414 502.537L506.776 510.518L483.546 517.968L461.006 524.069L439.018 528.817L417.445 532.211L396.148 534.247L374.991 534.926L353.833 534.247L332.536 532.211L310.963 528.817L288.975 524.069L266.435 517.968L243.205 510.518L221.567 502.537L203.893 494.81L190.175 487.287L187.995 485.642L180.408 479.917L174.588 472.653L172.709 465.444M577.272 465.444V497.444L575.393 504.653L569.573 511.917L559.806 519.287L546.088 526.81L528.414 534.537L506.776 542.518L483.546 549.968L461.006 556.069L439.018 560.817L417.445 564.211L396.148 566.247L374.991 566.926L353.833 566.247L332.536 564.211L310.963 560.817L288.975 556.069L266.435 549.968L243.205 542.518L221.567 534.537L203.893 526.81L190.175 519.287L180.408 511.917L174.588 504.653L172.709 497.444V465.444" stroke="#4D6469" stroke-width="8" stroke-linejoin="round"/>
<path d="M374.991 396.555L354.011 397.222L332.885 399.225L311.462 402.565L289.595 407.242L267.137 413.26L243.936 420.621L222.269 428.521L204.513 436.185L190.673 443.661L180.756 450.997L174.766 458.242L172.709 465.444L174.588 472.653L180.408 479.917L187.995 485.642L190.175 487.287L203.893 494.81L221.567 502.537L243.205 510.518L266.435 517.968L288.975 524.069L310.963 528.817L332.536 532.211L353.833 534.247L374.991 534.926L396.148 534.247L417.445 532.211L439.018 528.817L461.006 524.069L483.546 517.968L506.776 510.518L528.414 502.537L546.088 494.81L559.806 487.287L561.986 485.642L569.573 479.917L575.393 472.653L577.272 465.444L575.215 458.242L569.225 450.997L559.308 443.661L545.468 436.185L527.712 428.521L506.045 420.621L482.844 413.26L460.386 407.242L438.519 402.565L417.097 399.225L395.97 397.222L374.991 396.555Z" fill="white" stroke="#4D6469" stroke-width="8" stroke-linejoin="round"/>
</g>
<g filter="url(#filter5_dd)">
<path d="M535.393 472.653L537.272 465.444V433.444L535.393 440.653L529.573 447.917L521.986 453.642L519.806 455.287L506.088 462.81L488.414 470.537L466.776 478.518L443.546 485.968L421.006 492.069L399.018 496.817L377.445 500.211L356.148 502.247L334.991 502.926L313.833 502.247L292.536 500.211L270.963 496.817L248.975 492.069L226.435 485.968L203.205 478.518L181.567 470.537L163.893 462.81L150.175 455.287L147.995 453.642L140.408 447.917L134.588 440.653L132.709 433.444V465.444L134.588 472.653L140.408 479.917L150.175 487.287L163.893 494.81L181.567 502.537L203.205 510.518L226.435 517.968L248.975 524.069L270.963 528.817L292.536 532.211L313.833 534.247L334.991 534.926L356.148 534.247L377.445 532.211L399.018 528.817L421.006 524.069L443.546 517.968L466.776 510.518L488.414 502.537L506.088 494.81L519.806 487.287L529.573 479.917L535.393 472.653Z" fill="#4D6469"/>
<path d="M537.272 433.444L535.215 426.242L529.225 418.997L519.308 411.661L505.468 404.185L487.712 396.521L466.045 388.621L442.844 381.26L420.386 375.242L398.519 370.565L377.097 367.225L355.97 365.222L334.991 364.555L314.011 365.222L292.885 367.225L271.462 370.565L249.595 375.242L227.137 381.26L203.936 388.621L182.269 396.521L164.513 404.185L150.673 411.661L140.756 418.997L134.766 426.242L132.709 433.444M537.272 433.444L535.393 440.653L529.573 447.917L521.986 453.642L519.806 455.287L506.088 462.81L488.414 470.537L466.776 478.518L443.546 485.968L421.006 492.069L399.018 496.817L377.445 500.211L356.148 502.247L334.991 502.926L313.833 502.247L292.536 500.211L270.963 496.817L248.975 492.069L226.435 485.968L203.205 478.518L181.567 470.537L163.893 462.81L150.175 455.287L147.995 453.642L140.408 447.917L134.588 440.653L132.709 433.444M537.272 433.444V465.444L535.393 472.653L529.573 479.917L519.806 487.287L506.088 494.81L488.414 502.537L466.776 510.518L443.546 517.968L421.006 524.069L399.018 528.817L377.445 532.211L356.148 534.247L334.991 534.926L313.833 534.247L292.536 532.211L270.963 528.817L248.975 524.069L226.435 517.968L203.205 510.518L181.567 502.537L163.893 494.81L150.175 487.287L140.408 479.917L134.588 472.653L132.709 465.444V433.444" stroke="#4D6469" stroke-width="8" stroke-linejoin="round"/>
<path d="M334.991 364.555L314.011 365.222L292.885 367.225L271.462 370.565L249.595 375.242L227.137 381.26L203.936 388.621L182.269 396.521L164.513 404.185L150.673 411.661L140.756 418.997L134.766 426.242L132.709 433.444L134.588 440.653L140.408 447.917L147.995 453.642L150.175 455.287L163.893 462.81L181.567 470.537L203.205 478.518L226.435 485.968L248.975 492.069L270.963 496.817L292.536 500.211L313.833 502.247L334.991 502.926L356.148 502.247L377.445 500.211L399.018 496.817L421.006 492.069L443.546 485.968L466.776 478.518L488.414 470.537L506.088 462.81L519.806 455.287L521.986 453.642L529.573 447.917L535.393 440.653L537.272 433.444L535.215 426.242L529.225 418.997L519.308 411.661L505.468 404.185L487.712 396.521L466.045 388.621L442.844 381.26L420.386 375.242L398.519 370.565L377.097 367.225L355.97 365.222L334.991 364.555Z" fill="white" stroke="#4D6469" stroke-width="8" stroke-linejoin="round"/>
</g>
<path d="M556.195 345.88C556.54 345.754 556.884 345.629 557.229 345.504C557.362 345.189 557.237 344.844 556.875 344.533C556.445 344.033 555.958 343.767 555.286 344.065C554.62 344.378 554.785 344.832 555.216 345.332C555.435 345.642 555.788 345.833 556.195 345.88Z" fill="#002129" fill-opacity="0.3"/>
<path d="M550.307 348.608C550.817 348.547 551.184 348.484 551.256 348.387C551.358 348.279 551.216 348.277 551.045 348.198C550.74 348.043 550.082 348.087 549.604 348.137C548.36 348.324 547.13 348.842 546.244 349.626C545.94 349.861 545.658 350.158 545.829 350.238C545.852 350.301 545.977 350.255 546.071 350.221C546.29 350.141 547.238 349.53 548.38 349.061C549.063 348.795 549.798 348.669 550.307 348.608Z" fill="#002129" fill-opacity="0.3"/>
<path d="M549.376 349.266C548.71 349.579 548.406 349.814 548.226 350.004C548.047 350.193 547.944 350.301 547.967 350.364L547.99 350.427L548.115 350.381C548.241 350.335 548.562 350.147 548.562 350.147C549.408 349.645 550.003 349.428 550.589 349.286C550.934 349.16 551.082 349.177 551.153 349.08C551.153 349.08 551.13 349.018 551.113 348.971C551.019 348.81 550.268 348.888 549.376 349.266Z" fill="#002129" fill-opacity="0.3"/>
<path d="M549.869 349.548C550.003 349.233 549.815 348.716 549.453 348.405C549.023 347.905 548.553 347.686 547.739 347.982C547.073 348.296 547.238 348.75 547.685 349.296C547.958 349.658 548.383 349.752 548.539 349.89C549.305 350.143 549.604 349.892 549.869 349.548Z" fill="#002129" fill-opacity="0.3"/>
<path d="M554.795 348.464C555.305 348.403 555.726 348.196 555.914 347.933C555.976 347.715 555.64 347.571 555.162 347.621C554.652 347.683 554.231 347.889 554.043 348.153C553.855 348.416 554.285 348.526 554.795 348.464Z" fill="#002129" fill-opacity="0.3"/>
<path d="M557.189 346.174C556.845 346.3 556.563 346.597 556.665 346.879C556.751 347.114 557.05 347.253 557.52 347.082C557.864 346.957 558.146 346.659 558.043 346.378C557.864 346.177 557.534 346.049 557.189 346.174Z" fill="#002129" fill-opacity="0.3"/>
<path d="M534.541 359.471C534.393 359.454 534.299 359.488 534.197 359.597C534.071 359.642 533.977 359.676 533.852 359.722C533.633 359.802 533.359 359.83 533.226 359.755C533.092 359.68 532.998 359.519 533.038 359.238L533.123 359.083C533.342 358.613 533.624 357.925 532.841 357.625C532.223 357.389 531.579 357.375 530.742 357.609C529.905 357.843 529.185 358.3 528.823 358.768C528.174 359.519 528.291 360.132 528.465 360.317C528.488 360.38 528.63 360.381 528.724 360.347C528.849 360.302 529.046 360.159 529.108 359.941L529.085 359.879C529.046 359.769 529.125 359.598 529.282 359.346C529.438 359.094 529.743 358.859 530.087 358.734C530.409 358.546 530.902 358.437 531.286 358.422C531.913 358.389 532.288 358.642 532.163 359.078C531.881 359.375 531.859 359.703 531.967 360C532.28 360.471 533.055 360.455 533.636 360.297C534.2 360.092 534.607 359.749 534.567 359.639C534.658 359.5 534.564 359.534 534.541 359.471Z" fill="#002129" fill-opacity="0.3"/>
<path d="M567.511 346.372C567.488 346.309 567.283 346.135 566.939 345.871L566.281 345.525C566.884 344.649 566.679 344.086 566.451 343.849C566.201 343.55 565.731 343.331 565.042 343.192C564.352 343.053 562.849 343.21 561.041 343.602L560.093 343.823C560.093 343.823 559.694 342.727 559.403 342.318C559.278 341.974 558.965 341.503 558.432 341.111C557.837 340.548 556.92 340.172 555.863 340.096C557.711 338.058 558.713 336.133 558.297 334.99C557.504 332.813 551.867 334.085 545.603 337.925L544.328 338.708C544.328 338.708 541.366 338.368 541.241 338.413C532.61 337.795 513.718 359.656 522.434 360.119L524.282 360.226C524.023 360.977 524.157 361.637 524.502 362.292C525.034 363.073 526.287 363.593 527.885 363.791C529.491 363.916 531.456 363.662 533.303 362.99C537.532 365.351 545.044 364.94 552.982 362.193C561.509 359.214 567.983 354.587 569.665 349.95C569.799 349.635 570.197 348.196 569.821 347.163C569.627 346.045 568.325 346.075 567.511 346.372ZM533.665 361.741C533.445 361.821 533.124 362.009 532.85 362.037C530.322 362.887 527.025 362.792 526.304 361.494C525.543 360.086 526.599 358.407 529.247 357.107C529.569 356.919 529.913 356.793 530.383 356.622C531.909 356.138 534.401 355.869 535.568 357.324C536.577 358.73 536.461 360.457 533.665 361.741ZM528.478 356.358C526.818 357.157 525.511 358.147 524.823 359.178C524.173 359.149 522.975 359.071 522.787 358.944C520.782 358.113 522.885 354.244 524.53 351.943C528.418 346.255 535.737 340.345 539.709 339.467C540.438 339.326 542.944 339.779 542.944 339.779C542.944 339.779 539.46 342.289 536.431 345.076C532.257 348.617 529.573 352.644 528.478 356.358ZM557.632 352.361L557.735 352.253C557.712 352.19 557.586 352.236 557.586 352.236C557.586 352.236 553.68 353.977 549.64 354.667C549.859 353.807 550.978 353.666 552.709 353.16C555.724 352.187 558.401 350.964 560.234 349.96C561.871 349.098 563.969 347.749 565.447 346.449C566.238 346.87 566.763 347.531 566.763 347.531C566.763 347.531 567.21 347.297 567.6 347.297C567.984 347.281 568.289 347.436 568.406 348.05C568.477 349.318 567.757 350.556 566.599 351.953C565.878 352.8 564.76 353.721 563.538 354.556C562.912 354.979 562.16 355.448 561.417 355.842C555.569 359.07 549.023 360.282 546.227 358.64C546.039 358.514 545.757 358.421 545.671 358.186C544.293 356.933 544.315 354.85 546.217 352.863C546.319 352.755 546.373 352.611 546.333 352.502C546.293 352.392 546.145 352.375 546.029 352.346C545.003 352.063 541.925 352.084 541.8 349.985C541.642 348.481 543.723 346.695 545.902 345.956L546.465 345.751C547.374 345.42 548.353 345.188 549.011 344.948C550.264 344.492 551.493 343.974 552.666 342.908C553.073 342.565 553.355 342.268 554.021 341.954C554.147 341.908 554.218 341.812 554.585 341.749C554.93 341.624 555.297 341.561 555.556 341.591C556.863 341.576 557.265 342.387 557.641 343.031C557.789 343.438 558.245 344.3 558.33 344.535C558.667 345.069 558.926 345.099 559.655 344.958C560.022 344.895 560.384 344.816 560.876 344.708C562.465 344.396 563.436 344.237 564.102 344.314C564.509 344.361 564.697 344.488 564.854 344.626C565.301 345.172 564.339 346.427 561.512 348.307C558.358 350.359 554.411 351.991 551.499 352.856L550.442 353.169C548.093 353.829 547.382 355.773 549.082 356.253C550.218 356.549 552.801 356.141 555.087 355.309C560.599 353.303 564.411 350.621 565.539 349.04L565.624 348.885C565.726 348.777 565.584 348.775 565.476 348.868C564.388 349.778 559.284 353.587 553.02 355.281C553.02 355.281 552.308 355.469 551.579 355.611C550.976 355.706 549.857 355.847 549.395 355.359C554.805 354.241 557.632 352.361 557.632 352.361ZM536.437 347.627C537.886 345.859 539.913 344.021 541.792 342.752C541.917 342.707 541.917 342.707 541.94 342.769C541.877 342.987 541.635 343.394 541.627 343.664C541.65 343.726 541.775 343.681 541.775 343.681C542.862 342.771 544.978 341.469 546.934 340.704C547.059 340.658 547.082 340.721 547.082 340.721C546.777 340.956 546.621 341.208 546.339 341.505C546.339 341.505 546.362 341.568 546.487 341.522C547.865 341.021 549.892 340.549 551.288 340.484C551.413 340.439 551.327 340.594 551.202 340.64C549.175 341.111 546.012 342.068 542.84 343.683C539.99 345.111 538.009 346.488 536.616 347.633C536.454 347.674 536.36 347.708 536.437 347.627Z" fill="#002129" fill-opacity="0.3"/>
<path d="M701.358 290.509C698.508 291.546 697.6 293.047 697.265 293.879C697.068 294.411 697.108 294.521 696.889 294.601C696.544 294.726 696.638 294.302 696.763 293.866C696.834 292.989 696.41 292.505 696.41 292.505L692.401 293.964L695.906 303.594L701.418 301.588L700.313 298.55C701.212 298.879 702.576 299.021 704.393 298.36C708.402 296.9 709.739 294.534 708.907 292.248C707.936 289.676 705.023 289.175 701.358 290.509ZM702.098 297.12C700.845 297.576 699.615 297.12 699.216 296.024C698.817 294.927 699.434 293.798 700.718 293.331C702.222 292.784 703.161 293.222 703.6 294.428C704.031 295.707 703.695 296.539 702.098 297.12Z" fill="#002129" fill-opacity="0.3"/>
<path d="M592.399 330.167C589.988 331.045 589.214 332.426 588.829 333.222C588.61 333.692 588.713 333.973 588.368 334.099C588.024 334.224 588.158 333.909 587.75 333.473C587.155 332.909 585.728 332.595 583.348 333.461C580.843 334.373 580.083 335.891 579.818 336.626C579.622 337.158 579.662 337.268 579.442 337.348C579.098 337.473 579.192 337.049 579.317 336.613C579.388 335.736 578.964 335.252 578.964 335.252L574.955 336.711L577.707 344.274L583.094 342.314L581.721 338.54C581.447 337.788 581.68 336.675 582.839 336.253C584.092 335.797 584.508 336.16 584.821 337.021L586.32 341.139L591.832 339.133L590.459 335.359C590.208 334.671 590.418 333.494 591.577 333.073C592.83 332.617 593.331 333.215 593.559 333.841L595.041 337.912L600.303 335.997L598.678 331.534C597.903 329.6 596.064 328.833 592.399 330.167ZM685.448 296.3C683.037 297.177 682.263 298.559 681.878 299.355C681.659 299.825 681.762 300.106 681.417 300.232C681.073 300.357 681.189 299.995 680.799 299.606C680.079 299.088 678.903 298.682 676.397 299.594C673.891 300.506 673.132 302.024 672.867 302.759C672.671 303.291 672.711 303.401 672.491 303.481C672.147 303.606 672.241 303.182 672.366 302.746C672.437 301.869 672.012 301.385 672.012 301.385L668.004 302.844L670.756 310.407L676.268 308.401L674.895 304.627C674.621 303.876 674.855 302.762 676.013 302.34C677.266 301.885 677.682 302.247 677.995 303.109L679.494 307.227L685.006 305.221L683.633 301.447C683.382 300.758 683.593 299.582 684.751 299.16C686.004 298.704 686.505 299.302 686.733 299.928L688.215 303.999L693.602 302.039L691.978 297.576C690.952 295.733 689.113 294.966 685.448 296.3ZM606.837 324.912C602.609 326.451 599.876 328.297 599.876 328.297L600.708 330.583C600.708 330.583 603.675 328.404 606.431 327.4C608.623 326.602 609.053 327.102 609.116 327.664C609.116 327.664 608.53 327.807 606.588 328.514C602.109 330.144 600.199 332.009 600.78 333.607C601.345 335.157 604.078 334.871 606.27 334.073C609.371 332.945 610.373 331.41 610.623 330.733C610.842 330.263 610.757 330.029 610.976 329.949C611.321 329.823 611.258 330.041 611.383 330.386C611.594 330.965 611.76 331.419 612.121 331.731L616.287 330.215L614.93 326.488C613.956 324.201 611.754 323.122 606.837 324.912ZM607.631 331.379C606.441 332.007 605.666 332.023 605.524 331.632C605.313 331.052 606.463 330.315 608.186 329.688C609 329.391 609.712 329.203 609.712 329.203C609.76 329.434 608.946 330.705 607.631 331.379ZM621.634 317.132L627.146 315.126L630.731 324.975L625.218 326.982C625.201 326.935 621.634 317.132 621.634 317.132ZM635.433 318.99C635.182 318.301 636.207 317.219 638.493 316.387C640.999 315.475 643.294 315.349 643.809 315.303L642.846 312.657C642.846 312.657 640.975 312.487 637.06 313.912C632.926 315.416 629.951 317.864 630.909 320.495C631.866 323.126 635.491 323.438 639.938 321.819C643.383 320.565 645.191 318.808 645.191 318.808L644.274 316.287C643.647 316.71 642.059 317.997 639.522 318.921C636.82 319.975 635.684 319.679 635.433 318.99ZM653.691 307.859C650.496 309.021 649.879 310.931 649.762 311.292C649.645 311.654 649.566 311.825 649.347 311.905C649.002 312.03 649.096 311.606 649.158 311.388C649.23 310.901 649.471 309.713 649.015 308.461C648.702 307.6 648.38 307.398 648.38 307.398L643.682 309.107L647.267 318.957L652.779 316.95L651.406 313.177C651.178 312.55 651.271 311.346 652.649 310.844C653.808 310.423 654.301 310.704 654.609 311.55L656.13 315.731L661.642 313.724L660.183 309.716C659.257 307.854 658.044 306.274 653.691 307.859ZM660.518 305.569L663.271 313.132L668.783 311.125L666.03 303.562C666.03 303.562 665.225 304.175 663.377 304.847C661.512 305.473 660.518 305.569 660.518 305.569Z" fill="#002129" fill-opacity="0.3"/>
<path d="M663.195 304.346C665.028 303.679 666.336 302.647 666.115 302.042C665.895 301.437 664.23 301.487 662.397 302.154C660.563 302.821 659.256 303.853 659.476 304.459C659.696 305.064 661.361 305.014 663.195 304.346Z" fill="#002129" fill-opacity="0.3"/>
<path d="M615.262 322.04L618.015 329.603L623.496 327.609L620.743 320.046C620.743 320.046 619.937 320.658 618.09 321.331C618.073 321.284 615.262 322.04 615.262 322.04Z" fill="#002129" fill-opacity="0.3"/>
<path d="M617.907 320.829C619.741 320.162 621.048 319.13 620.828 318.525C620.608 317.92 618.943 317.97 617.109 318.637C615.276 319.305 613.968 320.336 614.188 320.942C614.409 321.547 616.074 321.497 617.907 320.829Z" fill="#002129" fill-opacity="0.3"/>
<g filter="url(#filter6_dd)">
<path d="M567.393 424.653L569.272 417.444V385.444L567.393 392.653L561.573 399.917L553.986 405.642L551.806 407.287L538.088 414.81L520.414 422.537L498.776 430.518L475.546 437.968L453.006 444.069L431.018 448.817L409.445 452.211L388.148 454.247L366.991 454.926L345.833 454.247L324.536 452.211L302.963 448.817L280.975 444.069L258.435 437.968L235.205 430.518L213.567 422.537L195.893 414.81L182.175 407.287L179.995 405.642L172.408 399.917L166.588 392.653L164.709 385.444V417.444L166.588 424.653L172.408 431.917L182.175 439.287L195.893 446.81L213.567 454.537L235.205 462.518L258.435 469.968L280.975 476.069L302.963 480.817L324.536 484.211L345.833 486.247L366.991 486.926L388.148 486.247L409.445 484.211L431.018 480.817L453.006 476.069L475.546 469.968L498.776 462.518L520.414 454.537L538.088 446.81L551.806 439.287L561.573 431.917L567.393 424.653Z" fill="#4D6469"/>
<path d="M569.272 385.444L567.215 378.242L561.225 370.997L551.308 363.661L537.468 356.185L519.712 348.521L498.045 340.621L474.844 333.26L452.386 327.242L430.519 322.565L409.097 319.225L387.97 317.222L366.991 316.555L346.011 317.222L324.885 319.225L303.462 322.565L281.595 327.242L259.137 333.26L235.936 340.621L214.269 348.521L196.513 356.185L182.673 363.661L172.756 370.997L166.766 378.242L164.709 385.444M569.272 385.444L567.393 392.653L561.573 399.917L553.986 405.642L551.806 407.287L538.088 414.81L520.414 422.537L498.776 430.518L475.546 437.968L453.006 444.069L431.018 448.817L409.445 452.211L388.148 454.247L366.991 454.926L345.833 454.247L324.536 452.211L302.963 448.817L280.975 444.069L258.435 437.968L235.205 430.518L213.567 422.537L195.893 414.81L182.175 407.287L179.995 405.642L172.408 399.917L166.588 392.653L164.709 385.444M569.272 385.444V417.444L567.393 424.653L561.573 431.917L551.806 439.287L538.088 446.81L520.414 454.537L498.776 462.518L475.546 469.968L453.006 476.069L431.018 480.817L409.445 484.211L388.148 486.247L366.991 486.926L345.833 486.247L324.536 484.211L302.963 480.817L280.975 476.069L258.435 469.968L235.205 462.518L213.567 454.537L195.893 446.81L182.175 439.287L172.408 431.917L166.588 424.653L164.709 417.444V385.444" stroke="#4D6469" stroke-width="8" stroke-linejoin="round"/>
<path d="M366.991 316.555L346.011 317.222L324.885 319.225L303.462 322.565L281.595 327.242L259.137 333.26L235.936 340.621L214.269 348.521L196.513 356.185L182.673 363.661L172.756 370.997L166.766 378.242L164.709 385.444L166.588 392.653L172.408 399.917L179.995 405.642L182.175 407.287L195.893 414.81L213.567 422.537L235.205 430.518L258.435 437.968L280.975 444.069L302.963 448.817L324.536 452.211L345.833 454.247L366.991 454.926L388.148 454.247L409.445 452.211L431.018 448.817L453.006 444.069L475.546 437.968L498.776 430.518L520.414 422.537L538.088 414.81L551.806 407.287L553.986 405.642L561.573 399.917L567.393 392.653L569.272 385.444L567.215 378.242L561.225 370.997L551.308 363.661L537.468 356.185L519.712 348.521L498.045 340.621L474.844 333.26L452.386 327.242L430.519 322.565L409.097 319.225L387.97 317.222L366.991 316.555Z" fill="white" stroke="#4D6469" stroke-width="8" stroke-linejoin="round"/>
</g>
<g filter="url(#filter7_dd)">
<path d="M511.393 344.653L513.272 337.444V305.444L511.393 312.653L505.573 319.917L497.986 325.642L495.806 327.287L482.088 334.81L464.414 342.537L442.776 350.518L419.546 357.968L397.006 364.069L375.018 368.817L353.445 372.211L332.148 374.247L310.991 374.926L289.833 374.247L268.536 372.211L246.963 368.817L224.975 364.069L202.435 357.968L179.205 350.518L157.567 342.537L139.893 334.81L126.175 327.287L123.995 325.642L116.408 319.917L110.588 312.653L108.709 305.444V337.444L110.588 344.653L116.408 351.917L126.175 359.287L139.893 366.81L157.567 374.537L179.205 382.518L202.435 389.968L224.975 396.069L246.963 400.817L268.536 404.211L289.833 406.247L310.991 406.926L332.148 406.247L353.445 404.211L375.018 400.817L397.006 396.069L419.546 389.968L442.776 382.518L464.414 374.537L482.088 366.81L495.806 359.287L505.573 351.917L511.393 344.653Z" fill="#4D6469"/>
<path d="M513.272 305.444L511.215 298.242L505.225 290.997L495.308 283.661L481.468 276.185L463.712 268.521L442.045 260.621L418.844 253.26L396.386 247.242L374.519 242.565L353.097 239.225L331.97 237.222L310.991 236.555L290.011 237.222L268.885 239.225L247.462 242.565L225.595 247.242L203.137 253.26L179.936 260.621L158.269 268.521L140.513 276.185L126.673 283.661L116.756 290.997L110.766 298.242L108.709 305.444M513.272 305.444L511.393 312.653L505.573 319.917L497.986 325.642L495.806 327.287L482.088 334.81L464.414 342.537L442.776 350.518L419.546 357.968L397.006 364.069L375.018 368.817L353.445 372.211L332.148 374.247L310.991 374.926L289.833 374.247L268.536 372.211L246.963 368.817L224.975 364.069L202.435 357.968L179.205 350.518L157.567 342.537L139.893 334.81L126.175 327.287L123.995 325.642L116.408 319.917L110.588 312.653L108.709 305.444M513.272 305.444V337.444L511.393 344.653L505.573 351.917L495.806 359.287L482.088 366.81L464.414 374.537L442.776 382.518L419.546 389.968L397.006 396.069L375.018 400.817L353.445 404.211L332.148 406.247L310.991 406.926L289.833 406.247L268.536 404.211L246.963 400.817L224.975 396.069L202.435 389.968L179.205 382.518L157.567 374.537L139.893 366.81L126.175 359.287L116.408 351.917L110.588 344.653L108.709 337.444V305.444" stroke="#4D6469" stroke-width="8" stroke-linejoin="round"/>
<path d="M310.991 236.555L290.011 237.222L268.885 239.225L247.462 242.565L225.595 247.242L203.137 253.26L179.936 260.621L158.269 268.521L140.513 276.185L126.673 283.661L116.756 290.997L110.766 298.242L108.709 305.444L110.588 312.653L116.408 319.917L123.995 325.642L126.175 327.287L139.893 334.81L157.567 342.537L179.205 350.518L202.435 357.968L224.975 364.069L246.963 368.817L268.536 372.211L289.833 374.247L310.991 374.926L332.148 374.247L353.445 372.211L375.018 368.817L397.006 364.069L419.546 357.968L442.776 350.518L464.414 342.537L482.088 334.81L495.806 327.287L497.986 325.642L505.573 319.917L511.393 312.653L513.272 305.444L511.215 298.242L505.225 290.997L495.308 283.661L481.468 276.185L463.712 268.521L442.045 260.621L418.844 253.26L396.386 247.242L374.519 242.565L353.097 239.225L331.97 237.222L310.991 236.555Z" fill="white" stroke="#4D6469" stroke-width="8" stroke-linejoin="round"/>
</g>
<g filter="url(#filter8_dd)">
<path d="M415.393 312.653L417.272 305.444V273.444L415.393 280.653L409.573 287.917L401.986 293.642L399.806 295.287L386.088 302.81L368.414 310.537L346.776 318.518L323.546 325.968L301.006 332.069L279.018 336.817L257.445 340.211L236.148 342.247L214.991 342.926L193.833 342.247L172.536 340.211L150.963 336.817L128.975 332.069L106.435 325.968L83.2048 318.518L61.5674 310.537L43.8927 302.81L30.1748 295.287L27.9949 293.642L20.4081 287.917L14.5877 280.653L12.7087 273.444V305.444L14.5877 312.653L20.4081 319.917L30.1748 327.287L43.8927 334.81L61.5674 342.537L83.2048 350.518L106.435 357.968L128.975 364.069L150.963 368.817L172.536 372.211L193.833 374.247L214.991 374.926L236.148 374.247L257.445 372.211L279.018 368.817L301.006 364.069L323.546 357.968L346.776 350.518L368.414 342.537L386.088 334.81L399.806 327.287L409.573 319.917L415.393 312.653Z" fill="#4D6469"/>
<path d="M417.272 273.444L415.215 266.242L409.225 258.997L399.308 251.661L385.468 244.185L367.712 236.521L346.045 228.621L322.844 221.26L300.386 215.242L278.519 210.565L257.097 207.225L235.97 205.222L214.991 204.555L194.011 205.222L172.885 207.225L151.462 210.565L129.595 215.242L107.137 221.26L83.9363 228.621L62.269 236.521L44.5127 244.185L30.6734 251.661L20.7563 258.997L14.7664 266.242L12.7087 273.444M417.272 273.444L415.393 280.653L409.573 287.917L401.986 293.642L399.806 295.287L386.088 302.81L368.414 310.537L346.776 318.518L323.546 325.968L301.006 332.069L279.018 336.817L257.445 340.211L236.148 342.247L214.991 342.926L193.833 342.247L172.536 340.211L150.963 336.817L128.975 332.069L106.435 325.968L83.2048 318.518L61.5674 310.537L43.8927 302.81L30.1748 295.287L27.9949 293.642L20.4081 287.917L14.5877 280.653L12.7087 273.444M417.272 273.444V305.444L415.393 312.653L409.573 319.917L399.806 327.287L386.088 334.81L368.414 342.537L346.776 350.518L323.546 357.968L301.006 364.069L279.018 368.817L257.445 372.211L236.148 374.247L214.991 374.926L193.833 374.247L172.536 372.211L150.963 368.817L128.975 364.069L106.435 357.968L83.2048 350.518L61.5674 342.537L43.8927 334.81L30.1748 327.287L20.4081 319.917L14.5877 312.653L12.7087 305.444V273.444" stroke="#4D6469" stroke-width="8" stroke-linejoin="round"/>
<path d="M215.282 205L194.303 205.668L173.176 207.67L151.753 211.01L129.887 215.687L107.428 221.705L84.2277 229.066L62.5603 236.966L44.8041 244.63L30.9647 252.106L21.0476 259.442L15.0578 266.687L13 273.889L14.879 281.098L20.6994 288.363L28.2862 294.087L30.4661 295.732L44.184 303.255L61.8587 310.982L83.4961 318.963L106.726 326.413L129.267 332.514L151.255 337.262L172.828 340.656L194.124 342.692L215.282 343.371L236.44 342.692L257.736 340.656L279.309 337.262L301.297 332.514L323.837 326.413L347.068 318.963L368.705 310.982L386.38 303.255L400.098 295.732L402.277 294.087L409.864 288.363L415.685 281.098L417.564 273.889L415.506 266.687L409.516 259.442L399.599 252.106L385.76 244.63L368.003 236.966L346.336 229.066L323.136 221.705L300.677 215.687L278.81 211.01L257.388 207.67L236.261 205.668L215.282 205Z" fill="white" stroke="#4D6469" stroke-width="8" stroke-linejoin="round"/>
</g>
<path fill-rule="evenodd" clip-rule="evenodd" d="M305 274.349C305 267.95 298.8 262.9 286.95 262.9C275.05 262.9 267.85 267.95 267.85 274.299C267.85 281.824 276.35 285.624 288.55 285.624C294.5 285.624 299 284.949 302.4 283.999V278.999C299 279.849 295.1 280.374 290.15 280.374C285.3 280.374 281 279.524 280.45 276.574H304.9C304.9 276.249 305 274.949 305 274.349ZM280.3 271.975C280.3 269.15 283.75 267.975 286.9 267.975C289.95 267.975 293.2 269.15 293.2 271.975H280.3Z" fill="#002129" fill-opacity="0.3"/>
<path fill-rule="evenodd" clip-rule="evenodd" d="M248.55 262.9C243.65 262.9 240.5 264.05 238.75 264.85L238.1 263.3H227.1V292.449L239.6 291.124L239.65 284.049C241.45 284.699 244.1 285.624 248.5 285.624C257.45 285.624 265.6 282.024 265.6 274.099C265.55 266.85 257.3 262.9 248.55 262.9ZM245.55 280.124C242.6 280.124 240.85 279.599 239.65 278.949L239.6 269.675C240.9 268.95 242.7 268.45 245.55 268.45C250.1 268.45 253.25 271 253.25 274.274C253.25 277.624 250.15 280.124 245.55 280.124Z" fill="#002129" fill-opacity="0.3"/>
<path fill-rule="evenodd" clip-rule="evenodd" d="M209.9 261.425L222.45 260.075V255L209.9 256.325V261.425Z" fill="#002129" fill-opacity="0.3"/>
<path d="M222.45 263.325H209.9V285.199H222.45V263.325Z" fill="#002129" fill-opacity="0.3"/>
<path fill-rule="evenodd" clip-rule="evenodd" d="M196.45 265.175L195.65 263.325H184.85V285.199H197.35V270.375C200.3 268.45 205.3 268.8 206.85 269.075V263.325C205.25 263.025 199.4 262.475 196.45 265.175Z" fill="#002129" fill-opacity="0.3"/>
<path fill-rule="evenodd" clip-rule="evenodd" d="M171.45 257.9L159.25 259.2L159.2 279.224C159.2 282.924 164.75 285.649 172.15 285.649C176.25 285.649 179.25 285.274 180.9 284.824V279.749C179.3 280.074 171.4 281.224 171.4 277.524V268.65H180.9V263.325H171.4L171.45 257.9Z" fill="#002129" fill-opacity="0.3"/>
<path fill-rule="evenodd" clip-rule="evenodd" d="M137.65 269.675C137.65 268.7 139.25 268.325 141.9 268.325C145.7 268.325 150.5 268.9 154.3 269.925V264.05C150.15 263.225 146.05 262.9 141.9 262.9C131.75 262.9 125 265.55 125 269.975C125 276.874 144 275.774 144 278.749C144 279.899 142 280.274 139.2 280.274C135.05 280.274 129.75 279.424 125.55 278.274V284.224C130.2 285.224 134.9 285.649 139.2 285.649C149.6 285.649 156.75 283.074 156.75 278.599C156.7 271.15 137.65 272.475 137.65 269.675Z" fill="#002129" fill-opacity="0.3"/>
<g filter="url(#filter9_dd)">
<path d="M591.393 216.653L593.272 209.444V177.444L591.393 184.653L585.573 191.917L577.986 197.642L575.806 199.287L562.088 206.81L544.414 214.537L522.776 222.518L499.546 229.968L477.006 236.069L455.018 240.817L433.445 244.211L412.148 246.247L390.991 246.926L369.833 246.247L348.536 244.211L326.963 240.817L304.975 236.069L282.435 229.968L259.205 222.518L237.567 214.537L219.893 206.81L206.175 199.287L203.995 197.642L196.408 191.917L190.588 184.653L188.709 177.444V209.444L190.588 216.653L196.408 223.917L206.175 231.287L219.893 238.81L237.567 246.537L259.205 254.518L282.435 261.968L304.975 268.069L326.963 272.817L348.536 276.211L369.833 278.247L390.991 278.926L412.148 278.247L433.445 276.211L455.018 272.817L477.006 268.069L499.546 261.968L522.776 254.518L544.414 246.537L562.088 238.81L575.806 231.287L585.573 223.917L591.393 216.653Z" fill="#4D6469"/>
<path d="M593.272 177.444L591.215 170.242L585.225 162.997L575.308 155.661L561.468 148.185L543.712 140.521L522.045 132.621L498.844 125.26L476.386 119.242L454.519 114.565L433.097 111.225L411.97 109.222L390.991 108.555L370.011 109.222L348.885 111.225L327.462 114.565L305.595 119.242L283.137 125.26L259.936 132.621L238.269 140.521L220.513 148.185L206.673 155.661L196.756 162.997L190.766 170.242L188.709 177.444M593.272 177.444L591.393 184.653L585.573 191.917L577.986 197.642L575.806 199.287L562.088 206.81L544.414 214.537L522.776 222.518L499.546 229.968L477.006 236.069L455.018 240.817L433.445 244.211L412.148 246.247L390.991 246.926L369.833 246.247L348.536 244.211L326.963 240.817L304.975 236.069L282.435 229.968L259.205 222.518L237.567 214.537L219.893 206.81L206.175 199.287L203.995 197.642L196.408 191.917L190.588 184.653L188.709 177.444M593.272 177.444V209.444L591.393 216.653L585.573 223.917L575.806 231.287L562.088 238.81L544.414 246.537L522.776 254.518L499.546 261.968L477.006 268.069L455.018 272.817L433.445 276.211L412.148 278.247L390.991 278.926L369.833 278.247L348.536 276.211L326.963 272.817L304.975 268.069L282.435 261.968L259.205 254.518L237.567 246.537L219.893 238.81L206.175 231.287L196.408 223.917L190.588 216.653L188.709 209.444V177.444" stroke="#4D6469" stroke-width="8" stroke-linejoin="round"/>
<path d="M390.991 108.555L370.011 109.222L348.885 111.225L327.462 114.565L305.595 119.242L283.137 125.26L259.936 132.621L238.269 140.521L220.513 148.185L206.673 155.661L196.756 162.997L190.766 170.242L188.709 177.444L190.588 184.653L196.408 191.917L203.995 197.642L206.175 199.287L219.893 206.81L237.567 214.537L259.205 222.518L282.435 229.968L304.975 236.069L326.963 240.817L348.536 244.211L369.833 246.247L390.991 246.926L412.148 246.247L433.445 244.211L455.018 240.817L477.006 236.069L499.546 229.968L522.776 222.518L544.414 214.537L562.088 206.81L575.806 199.287L577.986 197.642L585.573 191.917L591.393 184.653L593.272 177.444L591.215 170.242L585.225 162.997L575.308 155.661L561.468 148.185L543.712 140.521L522.045 132.621L498.844 125.26L476.386 119.242L454.519 114.565L433.097 111.225L411.97 109.222L390.991 108.555Z" fill="white" stroke="#4D6469" stroke-width="8" stroke-linejoin="round"/>
</g>
<g filter="url(#filter10_dd)">
<path d="M711.824 188.914L714.99 182.17L720.841 150.71L717.676 157.454L710.625 163.531L702.119 167.772L699.675 168.99L684.813 173.878L666.023 178.243L643.292 182.132L619.091 185.208L595.815 187.084L573.329 187.732L551.499 187.123L530.19 185.231L509.264 182.029L488.588 177.493L468.023 171.596L447.434 164.315L426.685 155.625L405.641 145.505L384.165 133.932L364.352 122.13L348.388 111.301L336.277 101.396L334.435 99.3801L328.023 92.3648L323.629 84.1585L323.1 76.7275L317.248 108.188L317.777 115.619L322.171 123.825L330.425 132.856L342.536 142.761L358.5 153.59L378.313 165.393L399.789 176.966L420.833 187.086L441.582 195.775L462.171 203.056L482.736 208.953L503.413 213.49L524.338 216.691L545.648 218.583L567.477 219.192L589.963 218.545L613.239 216.669L637.44 213.592L660.172 209.703L678.961 205.338L693.824 200.451L704.773 194.992L711.824 188.914Z" fill="#4D6469"/>
<path d="M720.841 150.71L720.135 143.253L715.572 135.035L707.163 126.009L694.924 116.128L678.869 105.346L659.012 93.6173L637.549 82.1377L616.569 72.1143L595.927 63.5171L575.476 56.3165L555.072 50.4839L534.568 45.9911L513.821 42.811L492.684 40.9166L471.012 40.2821L448.659 40.8819L425.478 42.6912L401.323 45.6856L378.577 49.4901L359.718 53.7776L344.745 58.5965L333.654 63.9954L326.44 70.0228L323.1 76.7275M720.841 150.71L717.676 157.454L710.625 163.531L702.119 167.772L699.675 168.99L684.813 173.878L666.023 178.243L643.292 182.132L619.091 185.208L595.815 187.084L573.329 187.732L551.499 187.123L530.19 185.231L509.264 182.029L488.588 177.493L468.023 171.596L447.434 164.315L426.685 155.625L405.641 145.505L384.165 133.932L364.352 122.13L348.388 111.301L336.277 101.396L334.435 99.3801L328.023 92.3648L323.629 84.1585L323.1 76.7275M720.841 150.71L714.99 182.17L711.824 188.914L704.773 194.992L693.824 200.451L678.961 205.338L660.172 209.703L637.44 213.592L613.239 216.669L589.963 218.545L567.477 219.192L545.648 218.583L524.338 216.691L503.413 213.49L482.736 208.953L462.171 203.056L441.582 195.775L420.833 187.086L399.789 176.966L378.313 165.393L358.5 153.59L342.536 142.761L330.425 132.856L322.171 123.825L317.777 115.619L317.248 108.188L323.1 76.7275" stroke="#4D6469" stroke-width="8" stroke-linejoin="round"/>
<path d="M533.871 45.9913L513.123 42.8111L491.986 40.9168L470.314 40.2822L447.961 40.882L424.781 42.6913L400.626 45.6857L377.879 49.4902L359.021 53.7777L344.048 58.5966L332.956 63.9955L325.742 70.0229L322.402 76.7276L322.931 84.1586L327.325 92.3649L333.737 99.3802L335.579 101.396L347.69 111.301L363.654 122.13L383.467 133.933L404.943 145.505L425.988 155.625L446.736 164.315L467.325 171.596L487.89 177.493L508.567 182.029L529.492 185.231L550.802 187.123L572.632 187.732L595.117 187.085L618.393 185.209L642.594 182.132L665.326 178.243L684.116 173.878L698.978 168.99L701.422 167.772L709.927 163.531L716.978 157.454L720.144 150.71L719.438 143.253L714.874 135.035L706.466 126.009L694.227 116.128L678.171 105.347L658.314 93.6175L636.851 82.1378L615.871 72.1144L595.229 63.5172L574.778 56.3166L554.374 50.484L533.871 45.9913Z" fill="white" stroke="#4D6469" stroke-width="8" stroke-linejoin="round"/>
</g>
<path opacity="0.7" d="M265.709 508.055L212.709 569.054" stroke="#FFD970" stroke-width="32"/>
<path opacity="0.7" d="M874.5 424L895.5 447.5L905.5 480.5" stroke="#278282" stroke-width="32"/>
<path opacity="0.7" d="M388.709 97.5548L352.709 112.555L355.709 153.555L292.709 176.555" stroke="#278282" stroke-width="32"/>
<path opacity="0.7" d="M73.2087 280.055L38.2087 299.055V324.5L41 352.5L35.2087 368" stroke="#FFD970" stroke-width="32"/>
<path opacity="0.7" d="M390.709 464.555L388.767 490L397.383 531L393 556" stroke="#278282" stroke-width="32"/>
<path opacity="0.7" d="M386.709 418.055L374.209 401.555L368.709 369.555L357.209 347.555L354.5 319L330.5 298" stroke="#FFD970" stroke-width="32"/>
<path d="M705.988 655.545C708.636 655.575 711.199 655.08 713.119 654.168L716.655 656.076C714.32 657.277 711.082 658.169 706.049 658.169C697.42 658.169 691.841 655.306 691.841 651.434C691.806 650.547 692.129 649.665 692.791 648.842C693.452 648.018 694.438 647.27 695.691 646.641C696.943 646.012 698.436 645.516 700.08 645.182C701.725 644.848 703.487 644.683 705.261 644.697C713.83 644.697 718.687 647.957 718.257 652.478H698.003C698.719 654.356 701.363 655.553 705.972 655.553L705.988 655.545ZM712.139 650.322C711.589 648.568 709.496 647.277 705.311 647.277C701.418 647.277 698.703 648.378 698.003 650.322H712.145H712.139ZM573 655.399L588.584 647.48H573.369V644.997H595.815V647.53L580.23 655.446H596.035V657.932H573V655.399ZM613.53 655.542C616.177 655.572 618.74 655.077 620.661 654.166L624.196 656.074C621.861 657.274 618.624 658.166 613.59 658.166C604.961 658.166 599.383 655.303 599.383 651.432C599.348 650.544 599.671 649.663 600.332 648.839C600.993 648.016 601.98 647.267 603.232 646.638C604.485 646.009 605.978 645.513 607.622 645.179C609.266 644.845 611.028 644.68 612.803 644.694C621.371 644.694 626.228 647.954 625.799 652.475H605.556C606.272 654.353 608.915 655.551 613.524 655.551L613.53 655.542ZM619.692 650.319C619.141 648.565 617.049 647.274 612.863 647.274C608.97 647.274 606.255 648.375 605.556 650.319H619.697H619.692ZM659.467 651.429C659.467 647.299 665.651 644.7 672.463 644.7C674.098 644.689 675.717 644.857 677.208 645.192C678.698 645.527 680.024 646.022 681.092 646.641V639.008H686.599V657.896H681.092V656.115C680.045 656.759 678.721 657.277 677.218 657.631C675.716 657.985 674.074 658.165 672.414 658.158C665.805 658.158 659.473 655.542 659.473 651.432L659.467 651.429ZM681.401 651.404C681.357 650.596 680.839 649.813 679.91 649.152C678.981 648.491 677.683 647.982 676.178 647.688C674.673 647.394 673.028 647.328 671.449 647.499C669.87 647.67 668.426 648.07 667.3 648.649C666.173 649.228 665.412 649.96 665.113 650.754C664.814 651.548 664.99 652.368 665.619 653.112C666.247 653.857 667.301 654.492 668.648 654.938C669.994 655.384 671.574 655.622 673.19 655.622C677.926 655.622 681.395 653.733 681.395 651.404H681.401ZM721.859 655.149L726.848 653.855C727.507 654.442 728.476 654.929 729.648 655.262C730.82 655.595 732.152 655.761 733.5 655.743C736.617 655.743 738.236 654.945 738.236 654.036C738.236 653.001 735.224 652.77 731.947 652.431C727.542 651.963 722.955 651.239 722.955 648.576C722.955 646.531 726.848 644.639 732.977 644.666C737.806 644.666 741.402 645.625 743.44 647.172L738.814 648.439C738.175 647.965 737.305 647.581 736.287 647.323C735.268 647.065 734.135 646.941 732.993 646.963C730.031 646.963 728.522 647.687 728.522 648.516C728.522 649.446 730.912 649.705 734.656 650.121C738.919 650.589 743.743 651.286 743.743 653.976C743.743 655.76 740.626 658.166 733.247 658.142C727.85 658.142 724.05 657.054 721.864 655.14L721.859 655.149ZM758.704 652.147L754.338 654.529V657.888H748.831V639H754.338V651.371L766.028 644.956H772.736L762.603 650.49L773 657.891H766.766L758.71 652.147H758.704ZM642.826 644.697C636.273 644.697 630.793 646.817 630.793 650.341V657.899H636.41V650.691C636.41 648.571 638.85 647.299 643.018 647.299C647.187 647.299 649.258 648.565 649.258 650.691V657.899H654.841V650.341C654.841 646.822 649.335 644.697 642.809 644.697" fill="#002129" fill-opacity="0.3"/>
<path d="M445.436 90.577L443.974 98.437L429.531 95.7497L430.994 87.8898L424.141 86.6149L420.65 105.378L427.504 106.653L428.919 99.048L443.358 101.735L441.943 109.339L448.799 110.615L452.29 91.8523L445.436 90.577ZM471.866 108.633C471.726 109.385 470.995 109.995 469.832 110.329C468.669 110.662 467.171 110.693 465.667 110.413C464.163 110.133 462.776 109.566 461.811 108.836C460.847 108.107 460.383 107.274 460.523 106.522L462.019 98.485L455.517 97.2753L454.022 105.312C453.722 106.925 454.715 108.71 456.784 110.274C458.852 111.839 461.826 113.055 465.051 113.655C468.277 114.255 471.489 114.19 473.982 113.474C476.475 112.758 478.044 111.45 478.344 109.838L479.839 101.801L473.362 100.595L471.866 108.633V108.633ZM521.383 110.387C521.689 108.739 523.966 108.623 526.353 109.067C528.279 109.425 530.684 110.63 532.182 111.829L536.906 110.111C535.048 108.278 530.922 106.483 527.392 105.826C520.338 104.513 514.852 105.63 514.215 109.054C513.033 115.406 528.938 116.28 528.276 119.835C528.072 120.932 525.763 121.504 523.325 121.05C519.48 120.335 518.408 119.163 516.827 117.841L511.644 119.418C514.322 121.835 517.875 123.471 522.34 124.302C529.042 125.549 534.822 124.462 535.43 121.193C536.742 114.141 520.803 113.443 521.372 110.385L521.383 110.387ZM615.546 138.539C611.705 137.824 610.767 136.79 611.004 135.518L612.052 129.883L618.025 130.995L618.556 128.14L612.583 127.029L613.284 123.263L606.416 123.515L604.281 134.991C603.735 137.926 607.511 140.159 613.064 141.193C613.935 141.362 614.813 141.489 615.684 141.573L617.843 138.912C617.113 138.802 616.276 138.672 615.547 138.536L615.546 138.539ZM498.093 105.294C494.873 104.695 492.538 104.744 490.165 105.405L491.314 99.2293L484.804 98.0179L482.674 109.465C481.876 113.75 487.526 117.839 494.489 119.134C502.213 120.572 509.564 118.848 510.313 114.824C511.052 110.851 505.364 106.65 498.093 105.297L498.093 105.294ZM496.052 116.035C495.082 115.855 494.139 115.58 493.277 115.228C492.415 114.875 491.651 114.452 491.029 113.981C490.406 113.51 489.938 113.002 489.65 112.484C489.362 111.967 489.26 111.451 489.35 110.966C489.441 110.481 489.721 110.036 490.176 109.657C490.631 109.278 491.251 108.972 492.001 108.756C492.751 108.541 493.616 108.42 494.547 108.401C495.478 108.383 496.457 108.466 497.427 108.646C499.387 109.011 501.194 109.75 502.451 110.701C503.708 111.651 504.311 112.736 504.129 113.716C503.947 114.695 502.993 115.49 501.479 115.925C499.964 116.36 498.012 116.4 496.052 116.035V116.035ZM567.531 125.294C568.281 121.263 562.055 117.021 554.317 115.581C547.355 114.286 540.611 116.068 539.814 120.354L537.683 131.808L544.194 133.019L545.344 126.835C547.317 128.302 549.481 129.191 552.698 129.789C559.969 131.142 566.789 129.268 567.529 125.294L567.531 125.294ZM561.372 124.106C561.19 125.086 560.237 125.881 558.722 126.316C557.207 126.751 555.256 126.79 553.296 126.426C551.336 126.061 549.529 125.322 548.272 124.371C547.015 123.421 546.412 122.336 546.594 121.356C546.776 120.376 547.73 119.582 549.244 119.147C550.759 118.712 552.711 118.672 554.671 119.037C556.63 119.401 558.437 120.14 559.694 121.091C560.951 122.042 561.555 123.126 561.372 124.106" fill="#002129" fill-opacity="0.3"/>
<path d="M589.904 122.04L590.512 118.769C591.414 118.727 592.206 118.543 592.795 118.237C593.384 117.93 593.746 117.515 593.839 117.039L593.853 116.964C594.112 115.572 592.066 114.025 589.284 113.507L589.134 113.479C587.798 113.231 586.467 113.258 585.434 113.554C584.401 113.851 583.751 114.393 583.627 115.061L583.613 115.136C583.529 115.614 583.717 116.132 584.157 116.629C584.596 117.127 585.269 117.584 586.095 117.947L585.487 121.218C582.967 120.946 580.531 121.025 578.425 121.449L561.783 111.123C561.953 110.916 562.064 110.691 562.116 110.454C562.223 109.893 561.994 109.282 561.459 108.699C560.924 108.116 560.107 107.587 559.11 107.178C558.114 106.77 556.983 106.5 555.861 106.404C554.74 106.307 553.677 106.388 552.808 106.637C551.939 106.885 551.303 107.29 550.98 107.799C550.656 108.308 550.661 108.9 550.992 109.498C551.324 110.097 551.968 110.676 552.842 111.162C553.717 111.648 554.783 112.019 555.906 112.229C556.888 112.409 557.877 112.458 558.772 112.369L575.161 122.53C573.351 123.434 572.261 124.69 572.032 126.135C571.804 127.58 572.448 129.146 573.881 130.63L568.007 132.318C567.585 132.168 567.14 132.047 566.684 131.959C565.762 131.788 564.836 131.757 564.022 131.871C563.209 131.984 562.544 132.237 562.113 132.598C561.681 132.958 561.502 133.409 561.598 133.895C561.694 134.38 562.06 134.878 562.651 135.325C563.242 135.772 564.031 136.148 564.919 136.407C565.806 136.665 566.751 136.793 567.636 136.775C568.52 136.758 569.304 136.595 569.887 136.307C570.471 136.019 570.829 135.62 570.915 135.159C570.952 134.93 570.92 134.69 570.821 134.447L576.632 132.777C578.242 133.767 580.172 134.602 582.276 135.219C584.38 135.835 586.601 136.217 588.769 136.334C590.937 136.451 592.995 136.301 594.785 135.895C596.575 135.489 598.049 134.838 599.095 133.992C600.141 133.145 600.731 132.126 600.819 131.013C600.908 129.899 600.492 128.72 599.605 127.566C598.718 126.413 597.382 125.315 595.701 124.357C594.019 123.399 592.036 122.606 589.904 122.04V122.04ZM585.698 132.388C584.713 132.218 583.751 131.951 582.869 131.602C581.986 131.253 581.201 130.829 580.561 130.356C579.92 129.882 579.436 129.368 579.138 128.844C578.84 128.32 578.733 127.797 578.825 127.306C578.916 126.814 579.204 126.365 579.67 125.983C580.137 125.601 580.773 125.296 581.542 125.084C582.31 124.873 583.194 124.759 584.143 124.751C585.092 124.743 586.086 124.84 587.066 125.036C588.964 125.424 590.693 126.161 591.89 127.092C593.086 128.024 593.656 129.077 593.48 130.03C593.304 130.983 592.395 131.761 590.945 132.201C589.495 132.64 587.617 132.707 585.706 132.387" fill="#002129" fill-opacity="0.3"/>
<defs>
<filter id="filter0_dd" x="578.709" y="314.555" width="428.855" height="194.371" filterUnits="userSpaceOnUse" color-interpolation-filters="sRGB">
<feFlood flood-opacity="0" result="BackgroundImageFix"/>
<feColorMatrix in="SourceAlpha" type="matrix" values="0 0 0 0 0 0 0 0 0 0 0 0 0 0 0 0 0 0 127 0"/>
<feOffset dy="4"/>
<feGaussianBlur stdDeviation="4"/>
<feColorMatrix type="matrix" values="0 0 0 0 0 0 0 0 0 0 0 0 0 0 0 0 0 0 0.05 0"/>
<feBlend mode="normal" in2="BackgroundImageFix" result="effect1_dropShadow"/>
<feColorMatrix in="SourceAlpha" type="matrix" values="0 0 0 0 0 0 0 0 0 0 0 0 0 0 0 0 0 0 127 0"/>
<feOffset/>
<feGaussianBlur stdDeviation="1"/>
<feColorMatrix type="matrix" values="0 0 0 0 0 0 0 0 0 0 0 0 0 0 0 0 0 0 0.1 0"/>
<feBlend mode="normal" in2="effect1_dropShadow" result="effect2_dropShadow"/>
<feBlend mode="normal" in="SourceGraphic" in2="effect2_dropShadow" result="shape"/>
</filter>
<filter id="filter1_dd" x="458.709" y="570.555" width="428.855" height="194.371" filterUnits="userSpaceOnUse" color-interpolation-filters="sRGB">
<feFlood flood-opacity="0" result="BackgroundImageFix"/>
<feColorMatrix in="SourceAlpha" type="matrix" values="0 0 0 0 0 0 0 0 0 0 0 0 0 0 0 0 0 0 127 0"/>
<feOffset dy="4"/>
<feGaussianBlur stdDeviation="4"/>
<feColorMatrix type="matrix" values="0 0 0 0 0 0 0 0 0 0 0 0 0 0 0 0 0 0 0.05 0"/>
<feBlend mode="normal" in2="BackgroundImageFix" result="effect1_dropShadow"/>
<feColorMatrix in="SourceAlpha" type="matrix" values="0 0 0 0 0 0 0 0 0 0 0 0 0 0 0 0 0 0 127 0"/>
<feOffset/>
<feGaussianBlur stdDeviation="1"/>
<feColorMatrix type="matrix" values="0 0 0 0 0 0 0 0 0 0 0 0 0 0 0 0 0 0 0.1 0"/>
<feBlend mode="normal" in2="effect1_dropShadow" result="effect2_dropShadow"/>
<feBlend mode="normal" in="SourceGraphic" in2="effect2_dropShadow" result="shape"/>
</filter>
<filter id="filter2_dd" x="387.646" y="182.381" width="464.69" height="324.719" filterUnits="userSpaceOnUse" color-interpolation-filters="sRGB">
<feFlood flood-opacity="0" result="BackgroundImageFix"/>
<feColorMatrix in="SourceAlpha" type="matrix" values="0 0 0 0 0 0 0 0 0 0 0 0 0 0 0 0 0 0 127 0"/>
<feOffset dy="4"/>
<feGaussianBlur stdDeviation="4"/>
<feColorMatrix type="matrix" values="0 0 0 0 0 0 0 0 0 0 0 0 0 0 0 0 0 0 0.05 0"/>
<feBlend mode="normal" in2="BackgroundImageFix" result="effect1_dropShadow"/>
<feColorMatrix in="SourceAlpha" type="matrix" values="0 0 0 0 0 0 0 0 0 0 0 0 0 0 0 0 0 0 127 0"/>
<feOffset/>
<feGaussianBlur stdDeviation="1"/>
<feColorMatrix type="matrix" values="0 0 0 0 0 0 0 0 0 0 0 0 0 0 0 0 0 0 0.1 0"/>
<feBlend mode="normal" in2="effect1_dropShadow" result="effect2_dropShadow"/>
<feBlend mode="normal" in="SourceGraphic" in2="effect2_dropShadow" result="shape"/>
</filter>
<filter id="filter3_dd" x="120.709" y="420.555" width="428.564" height="194.371" filterUnits="userSpaceOnUse" color-interpolation-filters="sRGB">
<feFlood flood-opacity="0" result="BackgroundImageFix"/>
<feColorMatrix in="SourceAlpha" type="matrix" values="0 0 0 0 0 0 0 0 0 0 0 0 0 0 0 0 0 0 127 0"/>
<feOffset dy="4"/>
<feGaussianBlur stdDeviation="4"/>
<feColorMatrix type="matrix" values="0 0 0 0 0 0 0 0 0 0 0 0 0 0 0 0 0 0 0.05 0"/>
<feBlend mode="normal" in2="BackgroundImageFix" result="effect1_dropShadow"/>
<feColorMatrix in="SourceAlpha" type="matrix" values="0 0 0 0 0 0 0 0 0 0 0 0 0 0 0 0 0 0 127 0"/>
<feOffset/>
<feGaussianBlur stdDeviation="1"/>
<feColorMatrix type="matrix" values="0 0 0 0 0 0 0 0 0 0 0 0 0 0 0 0 0 0 0.1 0"/>
<feBlend mode="normal" in2="effect1_dropShadow" result="effect2_dropShadow"/>
<feBlend mode="normal" in="SourceGraphic" in2="effect2_dropShadow" result="shape"/>
</filter>
<filter id="filter4_dd" x="160.709" y="388.555" width="428.564" height="194.371" filterUnits="userSpaceOnUse" color-interpolation-filters="sRGB">
<feFlood flood-opacity="0" result="BackgroundImageFix"/>
<feColorMatrix in="SourceAlpha" type="matrix" values="0 0 0 0 0 0 0 0 0 0 0 0 0 0 0 0 0 0 127 0"/>
<feOffset dy="4"/>
<feGaussianBlur stdDeviation="4"/>
<feColorMatrix type="matrix" values="0 0 0 0 0 0 0 0 0 0 0 0 0 0 0 0 0 0 0.05 0"/>
<feBlend mode="normal" in2="BackgroundImageFix" result="effect1_dropShadow"/>
<feColorMatrix in="SourceAlpha" type="matrix" values="0 0 0 0 0 0 0 0 0 0 0 0 0 0 0 0 0 0 127 0"/>
<feOffset/>
<feGaussianBlur stdDeviation="1"/>
<feColorMatrix type="matrix" values="0 0 0 0 0 0 0 0 0 0 0 0 0 0 0 0 0 0 0.1 0"/>
<feBlend mode="normal" in2="effect1_dropShadow" result="effect2_dropShadow"/>
<feBlend mode="normal" in="SourceGraphic" in2="effect2_dropShadow" result="shape"/>
</filter>
<filter id="filter5_dd" x="120.709" y="356.555" width="428.564" height="194.371" filterUnits="userSpaceOnUse" color-interpolation-filters="sRGB">
<feFlood flood-opacity="0" result="BackgroundImageFix"/>
<feColorMatrix in="SourceAlpha" type="matrix" values="0 0 0 0 0 0 0 0 0 0 0 0 0 0 0 0 0 0 127 0"/>
<feOffset dy="4"/>
<feGaussianBlur stdDeviation="4"/>
<feColorMatrix type="matrix" values="0 0 0 0 0 0 0 0 0 0 0 0 0 0 0 0 0 0 0.05 0"/>
<feBlend mode="normal" in2="BackgroundImageFix" result="effect1_dropShadow"/>
<feColorMatrix in="SourceAlpha" type="matrix" values="0 0 0 0 0 0 0 0 0 0 0 0 0 0 0 0 0 0 127 0"/>
<feOffset/>
<feGaussianBlur stdDeviation="1"/>
<feColorMatrix type="matrix" values="0 0 0 0 0 0 0 0 0 0 0 0 0 0 0 0 0 0 0.1 0"/>
<feBlend mode="normal" in2="effect1_dropShadow" result="effect2_dropShadow"/>
<feBlend mode="normal" in="SourceGraphic" in2="effect2_dropShadow" result="shape"/>
</filter>
<filter id="filter6_dd" x="152.709" y="308.555" width="428.564" height="194.371" filterUnits="userSpaceOnUse" color-interpolation-filters="sRGB">
<feFlood flood-opacity="0" result="BackgroundImageFix"/>
<feColorMatrix in="SourceAlpha" type="matrix" values="0 0 0 0 0 0 0 0 0 0 0 0 0 0 0 0 0 0 127 0"/>
<feOffset dy="4"/>
<feGaussianBlur stdDeviation="4"/>
<feColorMatrix type="matrix" values="0 0 0 0 0 0 0 0 0 0 0 0 0 0 0 0 0 0 0.05 0"/>
<feBlend mode="normal" in2="BackgroundImageFix" result="effect1_dropShadow"/>
<feColorMatrix in="SourceAlpha" type="matrix" values="0 0 0 0 0 0 0 0 0 0 0 0 0 0 0 0 0 0 127 0"/>
<feOffset/>
<feGaussianBlur stdDeviation="1"/>
<feColorMatrix type="matrix" values="0 0 0 0 0 0 0 0 0 0 0 0 0 0 0 0 0 0 0.1 0"/>
<feBlend mode="normal" in2="effect1_dropShadow" result="effect2_dropShadow"/>
<feBlend mode="normal" in="SourceGraphic" in2="effect2_dropShadow" result="shape"/>
</filter>
<filter id="filter7_dd" x="96.7087" y="228.555" width="428.564" height="194.371" filterUnits="userSpaceOnUse" color-interpolation-filters="sRGB">
<feFlood flood-opacity="0" result="BackgroundImageFix"/>
<feColorMatrix in="SourceAlpha" type="matrix" values="0 0 0 0 0 0 0 0 0 0 0 0 0 0 0 0 0 0 127 0"/>
<feOffset dy="4"/>
<feGaussianBlur stdDeviation="4"/>
<feColorMatrix type="matrix" values="0 0 0 0 0 0 0 0 0 0 0 0 0 0 0 0 0 0 0.05 0"/>
<feBlend mode="normal" in2="BackgroundImageFix" result="effect1_dropShadow"/>
<feColorMatrix in="SourceAlpha" type="matrix" values="0 0 0 0 0 0 0 0 0 0 0 0 0 0 0 0 0 0 127 0"/>
<feOffset/>
<feGaussianBlur stdDeviation="1"/>
<feColorMatrix type="matrix" values="0 0 0 0 0 0 0 0 0 0 0 0 0 0 0 0 0 0 0.1 0"/>
<feBlend mode="normal" in2="effect1_dropShadow" result="effect2_dropShadow"/>
<feBlend mode="normal" in="SourceGraphic" in2="effect2_dropShadow" result="shape"/>
</filter>
<filter id="filter8_dd" x="0.708679" y="196.555" width="428.855" height="194.371" filterUnits="userSpaceOnUse" color-interpolation-filters="sRGB">
<feFlood flood-opacity="0" result="BackgroundImageFix"/>
<feColorMatrix in="SourceAlpha" type="matrix" values="0 0 0 0 0 0 0 0 0 0 0 0 0 0 0 0 0 0 127 0"/>
<feOffset dy="4"/>
<feGaussianBlur stdDeviation="4"/>
<feColorMatrix type="matrix" values="0 0 0 0 0 0 0 0 0 0 0 0 0 0 0 0 0 0 0.05 0"/>
<feBlend mode="normal" in2="BackgroundImageFix" result="effect1_dropShadow"/>
<feColorMatrix in="SourceAlpha" type="matrix" values="0 0 0 0 0 0 0 0 0 0 0 0 0 0 0 0 0 0 127 0"/>
<feOffset/>
<feGaussianBlur stdDeviation="1"/>
<feColorMatrix type="matrix" values="0 0 0 0 0 0 0 0 0 0 0 0 0 0 0 0 0 0 0.1 0"/>
<feBlend mode="normal" in2="effect1_dropShadow" result="effect2_dropShadow"/>
<feBlend mode="normal" in="SourceGraphic" in2="effect2_dropShadow" result="shape"/>
</filter>
<filter id="filter9_dd" x="176.709" y="100.555" width="428.564" height="194.371" filterUnits="userSpaceOnUse" color-interpolation-filters="sRGB">
<feFlood flood-opacity="0" result="BackgroundImageFix"/>
<feColorMatrix in="SourceAlpha" type="matrix" values="0 0 0 0 0 0 0 0 0 0 0 0 0 0 0 0 0 0 127 0"/>
<feOffset dy="4"/>
<feGaussianBlur stdDeviation="4"/>
<feColorMatrix type="matrix" values="0 0 0 0 0 0 0 0 0 0 0 0 0 0 0 0 0 0 0.05 0"/>
<feBlend mode="normal" in2="BackgroundImageFix" result="effect1_dropShadow"/>
<feColorMatrix in="SourceAlpha" type="matrix" values="0 0 0 0 0 0 0 0 0 0 0 0 0 0 0 0 0 0 127 0"/>
<feOffset/>
<feGaussianBlur stdDeviation="1"/>
<feColorMatrix type="matrix" values="0 0 0 0 0 0 0 0 0 0 0 0 0 0 0 0 0 0 0.1 0"/>
<feBlend mode="normal" in2="effect1_dropShadow" result="effect2_dropShadow"/>
<feBlend mode="normal" in="SourceGraphic" in2="effect2_dropShadow" result="shape"/>
</filter>
<filter id="filter10_dd" x="291.878" y="0.335815" width="454.225" height="266.809" filterUnits="userSpaceOnUse" color-interpolation-filters="sRGB">
<feFlood flood-opacity="0" result="BackgroundImageFix"/>
<feColorMatrix in="SourceAlpha" type="matrix" values="0 0 0 0 0 0 0 0 0 0 0 0 0 0 0 0 0 0 127 0"/>
<feOffset dy="4"/>
<feGaussianBlur stdDeviation="4"/>
<feColorMatrix type="matrix" values="0 0 0 0 0 0 0 0 0 0 0 0 0 0 0 0 0 0 0.05 0"/>
<feBlend mode="normal" in2="BackgroundImageFix" result="effect1_dropShadow"/>
<feColorMatrix in="SourceAlpha" type="matrix" values="0 0 0 0 0 0 0 0 0 0 0 0 0 0 0 0 0 0 127 0"/>
<feOffset/>
<feGaussianBlur stdDeviation="1"/>
<feColorMatrix type="matrix" values="0 0 0 0 0 0 0 0 0 0 0 0 0 0 0 0 0 0 0.1 0"/>
<feBlend mode="normal" in2="effect1_dropShadow" result="effect2_dropShadow"/>
<feBlend mode="normal" in="SourceGraphic" in2="effect2_dropShadow" result="shape"/>
</filter>
</defs>
</svg>
