<svg width="336" height="816" viewBox="0 0 336 816" fill="none" xmlns="http://www.w3.org/2000/svg">
<g clip-path="url(#clip0)">
<path fill-rule="evenodd" clip-rule="evenodd" d="M132.413 89.7842C131.596 78.417 136.658 67.508 147.196 56.9706C157.494 46.6724 168.603 39.4041 180.177 37.6281C192.025 35.8099 203.618 39.8539 214.371 50.6066C224.716 60.9514 231.951 72.4167 233.716 84.3141C235.517 96.451 231.531 108.4 220.735 119.196C210.213 129.718 198.093 136.026 185.63 136.809C173.078 137.598 160.743 132.743 150.024 122.024C139.689 111.689 133.219 100.997 132.413 89.7842Z" fill="#FFD970"/>
<path fill-rule="evenodd" clip-rule="evenodd" d="M199.999 24C200 24 200 24 200 28C200 32 200 32 200 32L199.986 32L199.934 32.0001C199.887 32.0003 199.815 32.0006 199.719 32.0011C199.528 32.0023 199.243 32.0047 198.876 32.0094C198.14 32.0189 197.075 32.0381 195.77 32.0764C193.155 32.1532 189.593 32.3066 185.789 32.6122C181.972 32.9187 177.981 33.3731 174.487 34.0387C170.87 34.7277 168.237 35.5639 166.823 36.4208C165.229 37.3869 163.259 39.1347 161.104 41.437C158.99 43.6947 156.868 46.2993 154.963 48.7998C154.026 50.0287 153.149 51.2222 152.359 52.3233C156.911 52.0859 162.1 52 168 52C172.765 52 177.055 52.0563 180.91 52.2014C181.451 50.6095 181.838 49.0436 182.031 47.5039L189.969 48.4961C189.386 53.1585 187.594 57.5728 185.578 61.5215C184.118 64.384 182.424 67.2089 180.9 69.7516C180.347 70.6736 179.817 71.5584 179.328 72.3945C177.361 75.7569 176.11 78.2591 175.714 80.1706C175.532 81.0497 175.588 81.5601 175.677 81.8501C175.749 82.0866 175.909 82.4176 176.456 82.8426C176.664 83.0048 177.707 83.598 180.924 81.7822C183.903 80.101 187.475 76.9875 191.167 72.9321C198.548 64.8253 205.478 54.0006 208.255 46.5955L215.745 49.4045C214.484 52.7693 212.555 56.6063 210.204 60.5486C212.414 63.0031 213.795 65.9861 214.641 69.4171C215.763 73.9616 216 79.5117 216 86C216 92.5047 215.762 98.0672 214.632 102.619C213.461 107.34 211.276 111.207 207.312 114.014C203.521 116.7 198.501 118.123 192.266 118.935C185.991 119.752 178.02 120 168 120C157.98 120 150.009 119.752 143.734 118.935C137.499 118.123 132.479 116.7 128.688 114.014C124.724 111.207 122.539 107.34 121.368 102.619C120.238 98.0672 120 92.5047 120 86C120 79.4953 120.238 73.9328 121.368 69.3807C122.539 64.6603 124.724 60.7935 128.688 57.9859C132.116 55.558 136.548 54.1612 141.973 53.3157C142.032 53.2264 142.097 53.1266 142.17 53.0168C142.511 52.4979 143.006 51.7559 143.624 50.8519C144.858 49.0466 146.594 46.5818 148.6 43.9502C150.6 41.3257 152.901 38.4928 155.264 35.9693C157.585 33.4903 160.146 31.1131 162.677 29.5792C165.388 27.9361 169.224 26.8973 172.99 26.18C176.878 25.4394 181.184 24.9563 185.148 24.6378C189.126 24.3184 192.83 24.1593 195.535 24.0798C196.89 24.0401 197.999 24.0201 198.772 24.0101C199.159 24.0051 199.462 24.0026 199.67 24.0013C199.775 24.0007 199.855 24.0003 199.91 24.0002L199.975 24L199.999 24ZM205.536 67.7221C202.899 71.464 200.012 75.101 197.083 78.3179C193.15 82.6375 188.91 86.4615 184.857 88.749C181.042 90.902 175.836 92.4952 171.544 89.1574C169.841 87.8324 168.626 86.1634 168.023 84.1772C167.435 82.2446 167.515 80.3097 167.88 78.5482C168.578 75.1784 170.514 71.6181 172.422 68.3555C173 67.3678 173.586 66.3904 174.171 65.4139C175.225 63.6554 176.278 61.9002 177.276 60.095C174.439 60.0284 171.355 60 168 60C158.02 60 150.491 60.2523 144.766 60.9978C139.001 61.7485 135.521 62.9495 133.312 64.5141C131.276 65.9565 129.961 67.9647 129.132 71.3068C128.262 74.8172 128 79.5047 128 86C128 92.4953 128.262 97.1828 129.132 100.693C129.961 104.035 131.276 106.043 133.312 107.486C135.521 109.05 139.001 110.252 144.766 111.002C150.491 111.748 158.02 112 168 112C177.98 112 185.509 111.748 191.234 111.002C196.999 110.252 200.479 109.05 202.688 107.486C204.724 106.043 206.039 104.035 206.868 100.693C207.738 97.1828 208 92.4953 208 86C208 79.5222 207.74 74.8419 206.874 71.3335C206.522 69.9067 206.082 68.7228 205.536 67.7221ZM142.703 75.0736C142.432 75.3216 142 75.923 142 78C142 80.077 142.432 80.6784 142.703 80.9264C143.087 81.2782 144.329 82 148 82C151.671 82 152.913 81.2782 153.297 80.9264C153.568 80.6784 154 80.077 154 78C154 75.923 153.568 75.3216 153.297 75.0736C152.913 74.7218 151.671 74 148 74C144.329 74 143.087 74.7218 142.703 75.0736ZM137.297 69.1764C139.913 66.7782 143.671 66 148 66C152.329 66 156.087 66.7782 158.703 69.1764C161.432 71.6784 162 75.077 162 78C162 80.923 161.432 84.3216 158.703 86.8236C156.087 89.2218 152.329 90 148 90C143.671 90 139.913 89.2218 137.297 86.8236C134.568 84.3216 134 80.923 134 78C134 75.077 134.568 71.6784 137.297 69.1764Z" fill="#002129"/>
</g>
<g clip-path="url(#clip1)">
<path fill-rule="evenodd" clip-rule="evenodd" d="M185.666 307.469C174.299 308.286 163.39 303.224 152.852 292.686C142.554 282.388 135.286 271.279 133.51 259.706C131.691 247.857 135.735 236.264 146.488 225.511C156.833 215.166 168.298 207.931 180.196 206.166C192.333 204.365 204.281 208.351 215.078 219.147C225.599 229.669 231.907 241.789 232.691 254.252C233.479 266.804 228.625 279.139 217.906 289.858C207.571 300.193 196.878 306.663 185.666 307.469Z" fill="#FFD970"/>
<path fill-rule="evenodd" clip-rule="evenodd" d="M130.48 208.279C138.197 198.457 150.415 192 168 192C185.212 192 197.417 196.709 205.278 204.998C213.098 213.245 216 224.389 216 236C216 247.381 214.112 257.961 210.666 265.851C207.347 273.449 201.856 280 194 280C189.579 280 186.505 277.427 184.363 274.748C182.61 272.554 181.071 269.757 179.696 267.256C179.449 266.809 179.209 266.371 178.973 265.948C177.295 262.938 175.741 260.405 173.907 258.602C172.196 256.918 170.376 256 168 256C163.623 256 160.076 258.244 157.435 260.848C156.135 262.131 155.136 263.425 154.465 264.397C154.131 264.88 153.885 265.274 153.729 265.536C153.651 265.667 153.595 265.764 153.563 265.821C153.547 265.85 153.537 265.869 153.533 265.877L153.533 265.876L153.534 265.873L153.536 265.871C153.536 265.869 153.537 265.868 150 264C146.463 262.132 146.464 262.131 146.465 262.129L146.466 262.126L146.47 262.119L146.479 262.102L146.505 262.055C146.525 262.017 146.552 261.969 146.585 261.909C146.651 261.791 146.744 261.63 146.861 261.433C147.097 261.038 147.437 260.495 147.88 259.853C148.762 258.575 150.077 256.869 151.818 255.152C155.262 251.756 160.715 248 168 248C172.913 248 176.654 250.082 179.517 252.898C182.259 255.595 184.293 259.062 185.961 262.052C186.247 262.566 186.521 263.062 186.786 263.543C188.181 266.07 189.326 268.144 190.612 269.752C192.068 271.573 193.087 272 194 272C196.81 272 200.32 269.551 203.334 262.649C206.221 256.039 208 246.619 208 236C208 225.611 205.402 216.755 199.473 210.502C193.583 204.291 183.788 200 168 200C152.585 200 142.803 205.543 136.77 213.221C130.614 221.056 128 231.586 128 242C128 252.381 130.591 261.668 137.431 268.399C144.284 275.144 156.091 280 176 280V288C154.909 288 140.716 282.856 131.819 274.101C122.909 265.332 120 253.619 120 242C120 230.414 122.886 217.944 130.48 208.279ZM163.107 222.156C162.573 222.783 162 224.137 162 227C162 229.558 162.679 230.898 163.391 231.609C164.102 232.321 165.442 233 168 233C170.711 233 172.014 232.368 172.663 231.744C173.283 231.147 174 229.884 174 227C174 224.41 173.208 223.145 172.367 222.44C171.405 221.633 169.708 221 167 221C164.449 221 163.524 221.667 163.107 222.156ZM157.018 216.969C159.476 214.083 163.051 213 167 213C170.792 213 174.595 213.867 177.508 216.31C180.542 218.855 182 222.59 182 227C182 231.116 180.967 234.853 178.212 237.506C175.486 240.132 171.789 241 168 241C164.058 241 160.398 239.929 157.734 237.266C155.071 234.602 154 230.942 154 227C154 223.363 154.677 219.717 157.018 216.969Z" fill="#002129"/>
</g>
<g clip-path="url(#clip2)">
<path fill-rule="evenodd" clip-rule="evenodd" d="M235.351 422.216C236.168 433.583 231.106 444.492 220.569 455.029C210.271 465.328 199.162 472.596 187.588 474.372C175.74 476.19 164.147 472.146 153.394 461.393C143.049 451.049 135.814 439.583 134.048 427.686C132.247 415.549 136.234 403.6 147.03 392.804C157.552 382.282 169.671 375.974 182.134 375.191C194.687 374.402 207.022 379.257 217.741 389.976C228.076 400.311 234.545 411.003 235.351 422.216Z" fill="#FFD970"/>
<path fill-rule="evenodd" clip-rule="evenodd" d="M130.835 370.947C139.165 362.836 152.348 360 171 360C178.414 360 187.154 360.106 194.077 361.802C197.55 362.654 200.966 363.994 203.571 366.249C206.33 368.638 208 371.911 208 376C208 380.001 206.12 384.343 203.669 388.278C201.144 392.333 197.687 396.475 193.841 400.19C191.1 402.837 188.108 405.319 185.04 407.426L196.531 425.185L189.815 429.531L178.106 411.436C174.768 412.984 171.306 414 168 414C164.073 414 160.524 412.6 157.487 410.667L144.772 431.012L137.988 426.772L151.284 405.498C150.009 404.179 148.841 402.808 147.79 401.468C145.486 398.53 143.648 395.613 142.391 393.443C141.759 392.354 141.268 391.441 140.93 390.794C140.761 390.47 140.631 390.211 140.54 390.029C140.495 389.938 140.46 389.866 140.435 389.815L140.405 389.753L140.395 389.734L140.391 389.725C140.391 389.724 140.39 389.723 144 388L140.39 389.723L138.667 386.113L145.887 382.667L147.61 386.277L147.611 386.279L147.627 386.311C147.642 386.343 147.667 386.395 147.702 386.465C147.772 386.605 147.88 386.819 148.025 387.097C148.314 387.652 148.748 388.459 149.312 389.432C150.445 391.387 152.077 393.97 154.085 396.532C156.108 399.111 158.418 401.547 160.882 403.309C163.35 405.075 165.734 406 168 406C170.372 406 173.594 404.969 177.336 402.831C181.002 400.738 184.818 397.783 188.284 394.435C191.75 391.087 194.762 387.448 196.878 384.05C199.068 380.532 200 377.749 200 376C200 374.339 199.42 373.237 198.335 372.297C197.096 371.225 195.075 370.284 192.173 369.573C186.346 368.144 178.586 368 171 368C152.652 368 142.335 370.914 136.415 376.678C130.539 382.4 128 391.909 128 408C128 416.075 128.316 422.575 129.32 427.836C130.317 433.06 131.944 436.789 134.374 439.54C139.224 445.034 148.523 448 168 448C190.274 448 199.795 444.131 204.032 437.679C206.215 434.354 207.36 429.842 207.597 423.583C207.834 417.32 207.153 409.722 206.029 400.483L205.546 396.512L213.488 395.546L213.971 399.517C215.097 408.778 215.854 416.93 215.591 423.886C215.328 430.845 214.035 437.021 210.718 442.071C203.955 452.369 190.226 456 168 456C148.477 456 135.776 453.216 128.376 444.835C124.681 440.649 122.621 435.409 121.462 429.336C120.309 423.3 120 416.175 120 408C120 391.591 122.461 379.1 130.835 370.947Z" fill="#002129"/>
</g>
<g clip-path="url(#clip3)">
<path fill-rule="evenodd" clip-rule="evenodd" d="M182.098 540.531C193.465 539.714 204.374 544.776 214.912 555.314C225.21 565.612 232.478 576.721 234.254 588.294C236.072 600.143 232.028 611.736 221.275 622.489C210.931 632.834 199.465 640.069 187.568 641.834C175.431 643.635 163.482 639.649 152.686 628.853C142.164 618.331 135.856 606.211 135.073 593.748C134.284 581.196 139.139 568.861 149.858 558.142C160.193 547.807 170.885 541.337 182.098 540.531Z" fill="#FFD970"/>
<path fill-rule="evenodd" clip-rule="evenodd" d="M133.655 540.804C130.042 544.01 128 549.907 128 562C128 574.87 130.306 580.727 134.404 583.807C135.409 584.563 136 585.747 136 587.004V592L141.251 588.061L146.051 594.461L134.4 603.2C133.188 604.109 131.566 604.255 130.211 603.578C128.856 602.9 128 601.515 128 600V588.867C121.898 583.197 120 574.197 120 562C120 549.593 121.958 540.49 128.345 534.821C134.584 529.283 144.031 528 156 528C165.766 528 173.584 529.885 179.462 534.019C184.696 537.701 188 542.885 189.887 549.135C197.491 550.445 203.931 553.097 208.552 558.125C213.732 563.762 216 571.698 216 582C216 593.992 214.087 602.96 208 608.676V620C208 621.515 207.144 622.9 205.789 623.578C204.434 624.255 202.812 624.109 201.6 623.2L191.215 615.412C187.841 615.83 184.103 616 180 616C169.596 616 161.476 614.439 155.901 612.846C153.115 612.05 150.966 611.247 149.487 610.627C148.747 610.318 148.174 610.054 147.773 609.86C147.572 609.763 147.414 609.684 147.299 609.625C147.242 609.595 147.195 609.571 147.159 609.552L147.114 609.527L147.097 609.518L147.09 609.515L147.087 609.513C147.086 609.512 147.085 609.512 149 606C150.915 602.488 150.914 602.488 150.913 602.487L150.911 602.486L150.907 602.484L150.905 602.483C150.912 602.487 150.93 602.496 150.958 602.51C151.014 602.539 151.112 602.588 151.251 602.656C151.529 602.79 151.972 602.995 152.576 603.248C153.784 603.753 155.635 604.45 158.099 605.154C163.024 606.561 170.404 608 180 608C184.577 608 188.433 607.775 191.683 607.27C192.748 607.105 193.835 607.376 194.697 608.023L200 612V606.83C200 605.584 200.581 604.409 201.57 603.652C205.707 600.489 208 594.572 208 582C208 572.765 205.961 567.128 202.661 563.538C200.157 560.813 196.571 558.875 191.57 557.648C191.866 560.297 192 563.086 192 566C192 574.839 190.465 582.37 186.461 587.76C182.278 593.391 175.933 596 168 596C160.31 596 154.17 593.404 149.985 588.823C145.853 584.302 144 578.26 144 572C144 563.857 146.584 557.472 152.27 553.33C157.677 549.39 165.222 548 174 548C176.429 548 178.769 548.055 181.015 548.179C179.542 544.922 177.507 542.425 174.86 540.563C170.817 537.72 164.838 536 156 536C143.969 536 137.416 537.467 133.655 540.804ZM183.329 556.36C180.481 556.112 177.375 556 174 556C165.778 556 160.323 557.36 156.98 559.795C153.916 562.028 152 565.643 152 572C152 576.74 153.397 580.698 155.89 583.427C158.33 586.096 162.19 588 168 588C174.067 588 177.722 586.109 180.039 582.99C182.535 579.63 184 574.161 184 566C184 562.443 183.781 559.234 183.329 556.36ZM150.902 602.481L150.905 602.483C150.902 602.481 150.901 602.48 150.902 602.481Z" fill="#002129"/>
</g>
<g clip-path="url(#clip4)">
<path fill-rule="evenodd" clip-rule="evenodd" d="M132.413 761.784C131.596 750.417 136.658 739.508 147.196 728.971C157.494 718.672 168.603 711.404 180.177 709.628C192.025 707.81 203.618 711.854 214.371 722.607C224.716 732.951 231.951 744.417 233.716 756.314C235.517 768.451 231.531 780.4 220.735 791.196C210.213 801.718 198.093 808.026 185.63 808.809C173.078 809.598 160.743 804.743 150.024 794.024C139.689 783.689 133.219 772.997 132.413 761.784Z" fill="#FFD970"/>
<path fill-rule="evenodd" clip-rule="evenodd" d="M199.284 712.716C193.478 706.91 183.851 704 168 704V696C184.449 696 196.822 698.94 204.941 707.059C213.06 715.178 216 727.551 216 744C216 760.449 213.06 772.822 204.941 780.941C196.822 789.06 184.449 792 168 792C161.536 792 156.141 788.366 154.485 782.912C152.751 777.199 155.567 771.212 162.015 767.527C162.044 767.511 162.073 767.494 162.103 767.479L162.103 767.478L162.104 767.478L162.112 767.474L162.156 767.449C162.198 767.427 162.263 767.391 162.351 767.342C162.525 767.245 162.788 767.098 163.125 766.904C163.801 766.516 164.776 765.942 165.95 765.212C168.306 763.748 171.425 761.677 174.523 759.234C177.644 756.774 180.618 754.034 182.778 751.251C184.987 748.403 186 745.956 186 744C186 742.052 184.848 739.165 182.225 735.554C179.696 732.073 176.191 728.446 172.42 725.128C168.66 721.819 164.751 718.918 161.5 716.868C160.111 715.993 158.886 715.301 157.877 714.804C157.876 714.906 157.874 715.011 157.873 715.121L157.872 715.145C157.859 716.059 157.842 717.203 157.733 718.373C157.516 720.685 156.888 723.778 154.544 726.252C152.113 728.815 148.541 730 144 730C138.294 730 134.407 730.982 131.971 732.895C129.747 734.643 128 737.77 128 744C128 750.253 129.615 753.112 132.42 754.85C135.797 756.943 141.743 758 152 758V766C141.757 766 133.703 765.057 128.205 761.65C122.135 757.888 120 751.747 120 744C120 736.23 122.253 730.357 127.029 726.605C131.593 723.018 137.706 722 144 722C147.209 722 148.324 721.185 148.738 720.748C149.237 720.222 149.609 719.315 149.767 717.627C149.844 716.808 149.86 715.961 149.873 715.004C149.874 714.963 149.875 714.921 149.875 714.879C149.887 714.027 149.902 712.988 150.01 712.045C150.115 711.128 150.364 709.662 151.279 708.372C152.416 706.77 154.155 706 156 706C157.63 706 159.369 706.677 160.709 707.293C162.226 707.989 163.951 708.956 165.766 710.101C169.405 712.394 173.652 715.556 177.705 719.122C181.747 722.679 185.71 726.739 188.697 730.852C191.59 734.835 194 739.448 194 744C194 748.544 191.763 752.722 189.097 756.156C186.382 759.654 182.856 762.851 179.477 765.516C176.075 768.198 172.694 770.44 170.175 772.006C168.911 772.792 167.855 773.414 167.109 773.842C166.736 774.056 166.44 774.222 166.233 774.337C166.13 774.394 166.05 774.438 165.993 774.469L165.949 774.493C161.932 776.803 161.75 779.304 162.14 780.588C162.609 782.134 164.464 784 168 784C183.851 784 193.478 781.09 199.284 775.284C205.09 769.478 208 759.851 208 744C208 728.149 205.09 718.522 199.284 712.716ZM158.018 712.599C158.018 712.599 158.017 712.6 158.017 712.603C158.017 712.6 158.018 712.599 158.018 712.599Z" fill="#002129"/>
</g>
<defs>
<clipPath id="clip0">
<rect width="144" height="144" fill="white" transform="translate(96)"/>
</clipPath>
<clipPath id="clip1">
<rect width="144" height="144" fill="white" transform="translate(96 168)"/>
</clipPath>
<clipPath id="clip2">
<rect width="144" height="144" fill="white" transform="translate(96 336)"/>
</clipPath>
<clipPath id="clip3">
<rect width="144" height="144" fill="white" transform="translate(96 504)"/>
</clipPath>
<clipPath id="clip4">
<rect width="144" height="144" fill="white" transform="translate(96 672)"/>
</clipPath>
</defs>
</svg>
