<svg width="485" height="485" viewBox="0 0 485 485" fill="none" xmlns="http://www.w3.org/2000/svg">
<g clip-path="url(#clip0)">
<path fill-rule="evenodd" clip-rule="evenodd" d="M70.4286 123.799C69.6115 112.432 74.6734 101.523 85.2108 90.9852C95.509 80.6871 106.618 73.4188 118.192 71.6427C130.04 69.8245 141.633 73.8685 152.386 84.6212C162.731 94.966 169.966 106.431 171.731 118.329C173.532 130.466 169.546 142.414 158.75 153.211C148.228 163.732 136.108 170.04 123.645 170.824C111.093 171.613 98.7581 166.758 88.0393 156.039C77.7039 145.704 71.2345 135.012 70.4286 123.799Z" fill="#FFD970"/>
<path fill-rule="evenodd" clip-rule="evenodd" d="M138.014 58.0146C138.014 58.0146 138.015 58.0146 138.015 62.0146C138.015 66.0146 138.015 66.0146 138.015 66.0146L138.001 66.0147L137.949 66.0148C137.902 66.0149 137.829 66.0152 137.734 66.0158C137.543 66.017 137.258 66.0193 136.89 66.0241C136.155 66.0336 135.09 66.0527 133.784 66.091C131.17 66.1678 127.608 66.3213 123.804 66.6268C119.987 66.9334 115.996 67.3877 112.501 68.0534C108.884 68.7423 106.252 69.5785 104.838 70.4354C103.244 71.4015 101.274 73.1493 99.1182 75.4516C97.0043 77.7094 94.883 80.314 92.9772 82.8144C92.0405 84.0433 91.1637 85.2368 90.3739 86.3379C94.9252 86.1005 100.115 86.0146 106.015 86.0146C110.78 86.0146 115.07 86.071 118.925 86.2161C119.466 84.6241 119.853 83.0582 120.046 81.5185L127.984 82.5108C127.401 87.1731 125.608 91.5875 123.593 95.5361C122.132 98.3986 120.439 101.224 118.915 103.766C118.362 104.688 117.831 105.573 117.342 106.409C115.376 109.772 114.124 112.274 113.728 114.185C113.546 115.064 113.603 115.575 113.691 115.865C113.763 116.101 113.924 116.432 114.47 116.857C114.679 117.019 115.722 117.613 118.939 115.797C121.918 114.116 125.49 111.002 129.182 106.947C136.563 98.8399 143.492 88.0153 146.269 80.6102L153.76 83.4191C152.498 86.784 150.57 90.6209 148.219 94.5633C150.429 97.0178 151.809 100.001 152.656 103.432C153.777 107.976 154.015 113.526 154.015 120.015C154.015 126.519 153.776 132.082 152.647 136.634C151.476 141.354 149.29 145.221 145.327 148.029C141.536 150.714 136.516 152.138 130.281 152.95C124.006 153.767 116.035 154.015 106.015 154.015C95.9946 154.015 88.0234 153.767 81.7482 152.95C75.5137 152.138 70.4938 150.714 66.7026 148.029C62.7389 145.221 60.5533 141.354 59.3823 136.634C58.2531 132.082 58.0146 126.519 58.0146 120.015C58.0146 113.51 58.2531 107.947 59.3823 103.395C60.5533 98.675 62.7389 94.8081 66.7026 92.0005C70.1302 89.5726 74.5622 88.1759 79.988 87.3304C80.0464 87.2411 80.1119 87.1412 80.1843 87.0314C80.526 86.5125 81.0203 85.7706 81.6383 84.8666C82.8725 83.0613 84.6089 80.5964 86.6146 77.9649C88.615 75.3403 90.9156 72.5074 93.2783 69.9839C95.5993 67.505 98.1605 65.1278 100.691 63.5939C103.403 61.9508 107.239 60.912 111.004 60.1947C114.893 59.4541 119.199 58.9709 123.163 58.6525C127.14 58.333 130.844 58.174 133.55 58.0945C134.904 58.0547 136.013 58.0348 136.787 58.0247C137.173 58.0197 137.477 58.0172 137.685 58.0159C137.789 58.0153 137.87 58.015 137.925 58.0148L137.989 58.0147L138.014 58.0146ZM143.551 101.737C140.914 105.479 138.026 109.116 135.097 112.333C131.165 116.652 126.924 120.476 122.871 122.764C119.057 124.917 113.85 126.51 109.559 123.172C107.855 121.847 106.641 120.178 106.037 118.192C105.45 116.259 105.53 114.324 105.895 112.563C106.593 109.193 108.529 105.633 110.437 102.37C111.015 101.382 111.601 100.405 112.186 99.4286C113.24 97.67 114.292 95.9148 115.29 94.1096C112.454 94.043 109.37 94.0146 106.015 94.0146C96.0347 94.0146 88.5059 94.267 82.7811 95.0124C77.0156 95.7631 73.5355 96.9642 71.3267 98.5287C69.2904 99.9712 67.976 101.979 67.147 105.321C66.2762 108.832 66.0146 113.519 66.0146 120.015C66.0146 126.51 66.2762 131.197 67.147 134.708C67.976 138.05 69.2904 140.058 71.3267 141.501C73.5355 143.065 77.0156 144.266 82.7811 145.017C88.5059 145.762 96.0347 146.015 106.015 146.015C115.995 146.015 123.523 145.762 129.248 145.017C135.014 144.266 138.494 143.065 140.703 141.501C142.739 140.058 144.053 138.05 144.882 134.708C145.753 131.197 146.015 126.51 146.015 120.015C146.015 113.537 145.755 108.857 144.889 105.348C144.537 103.921 144.097 102.737 143.551 101.737ZM80.7175 109.088C80.447 109.336 80.0146 109.938 80.0146 112.015C80.0146 114.092 80.447 114.693 80.7175 114.941C81.1014 115.293 82.3439 116.015 86.0146 116.015C89.6854 116.015 90.9279 115.293 91.3118 114.941C91.5823 114.693 92.0146 114.092 92.0146 112.015C92.0146 109.938 91.5823 109.336 91.3118 109.088C90.9279 108.736 89.6854 108.015 86.0146 108.015C82.3439 108.015 81.1014 108.736 80.7175 109.088ZM75.3117 103.191C77.9279 100.793 81.6854 100.015 86.0146 100.015C90.3439 100.015 94.1014 100.793 96.7175 103.191C99.447 105.693 100.015 109.092 100.015 112.015C100.015 114.938 99.447 118.336 96.7175 120.838C94.1014 123.236 90.3439 124.015 86.0146 124.015C81.6854 124.015 77.9279 123.236 75.3117 120.838C72.5823 118.336 72.0146 114.938 72.0146 112.015C72.0146 109.092 72.5823 105.693 75.3117 103.191Z" fill="#002129"/>
</g>
<g clip-path="url(#clip1)">
<path fill-rule="evenodd" clip-rule="evenodd" d="M86.8234 280.727C98.1907 279.91 109.1 284.972 119.637 295.509C129.935 305.808 137.204 316.917 138.98 328.49C140.798 340.339 136.754 351.932 126.001 362.685C115.656 373.029 104.191 380.264 92.2935 382.03C80.1566 383.831 68.2079 379.845 57.4117 369.049C46.89 358.527 40.5818 346.407 39.7986 333.944C39.0098 321.392 43.8644 309.057 54.5833 298.338C64.9187 288.002 75.6108 281.533 86.8234 280.727Z" fill="#FFD970"/>
<path fill-rule="evenodd" clip-rule="evenodd" d="M38.3807 281C34.768 284.206 32.7256 290.102 32.7256 302.196C32.7256 315.066 35.0319 320.923 39.1292 324.003C40.1343 324.759 40.7256 325.943 40.7256 327.2V332.196L45.977 328.257L50.777 334.657L39.1256 343.396C37.9135 344.305 36.2919 344.451 34.9367 343.774C33.5816 343.096 32.7256 341.711 32.7256 340.196V329.063C26.6233 323.393 24.7256 314.393 24.7256 302.196C24.7256 289.789 26.6831 280.685 33.0705 275.017C39.31 269.479 48.7563 268.196 60.7256 268.196C70.4916 268.196 78.3091 270.081 84.1876 274.215C89.4217 277.896 92.7253 283.081 94.6128 289.33C102.216 290.641 108.657 293.292 113.277 298.321C118.457 303.957 120.726 311.894 120.726 322.196C120.726 334.188 118.813 343.156 112.726 348.872V360.196C112.726 361.711 111.87 363.096 110.514 363.774C109.159 364.451 107.538 364.305 106.326 363.396L95.9411 355.607C92.5665 356.025 88.8289 356.196 84.7256 356.196C74.3215 356.196 66.2015 354.635 60.6267 353.042C57.8405 352.246 55.6918 351.442 54.2123 350.823C53.4725 350.513 52.8999 350.25 52.4983 350.056C52.2975 349.959 52.1395 349.879 52.0246 349.82C51.9672 349.791 51.9206 349.766 51.8848 349.747L51.8393 349.723L51.8227 349.714L51.8159 349.711L51.8129 349.709C51.8115 349.708 51.8102 349.707 53.7256 346.196C55.641 342.684 55.6397 342.684 55.6385 342.683L55.6362 342.682L55.6325 342.68L55.6307 342.679C55.6378 342.682 55.6554 342.692 55.6834 342.706C55.7395 342.735 55.8373 342.784 55.9763 342.851C56.2544 342.986 56.6974 343.191 57.3014 343.444C58.5094 343.949 60.3607 344.646 62.8245 345.35C67.7497 346.757 75.1297 348.196 84.7256 348.196C89.3027 348.196 93.1587 347.971 96.409 347.466C97.474 347.301 98.5607 347.572 99.4229 348.219L104.726 352.196V347.026C104.726 345.78 105.306 344.605 106.296 343.848C110.432 340.685 112.726 334.768 112.726 322.196C112.726 312.96 110.686 307.324 107.387 303.734C104.883 301.009 101.296 299.071 96.2958 297.843C96.5912 300.493 96.7256 303.281 96.7256 306.196C96.7256 315.035 95.1904 322.566 91.1866 327.956C87.0036 333.587 80.6589 336.196 72.7256 336.196C65.0355 336.196 58.896 333.6 54.7102 329.019C50.579 324.498 48.7256 318.456 48.7256 312.196C48.7256 304.053 51.3101 297.667 56.9952 293.525C62.403 289.585 69.9476 288.196 78.7256 288.196C81.155 288.196 83.4948 288.251 85.7402 288.374C84.2671 285.118 82.2326 282.621 79.5855 280.759C75.5426 277.916 69.5633 276.196 60.7256 276.196C48.6949 276.196 42.1412 277.663 38.3807 281ZM88.0543 296.556C85.2069 296.308 82.1007 296.196 78.7256 296.196C70.5036 296.196 65.0481 297.556 61.706 299.991C58.6411 302.224 56.7256 305.838 56.7256 312.196C56.7256 316.936 58.1222 320.894 60.6159 323.623C63.0552 326.292 66.9157 328.196 72.7256 328.196C78.7922 328.196 82.4475 326.305 84.7646 323.186C87.2608 319.825 88.7256 314.357 88.7256 306.196C88.7256 302.639 88.5067 299.43 88.0543 296.556ZM55.6279 342.677L55.6307 342.679C55.6271 342.677 55.6262 342.676 55.6279 342.677Z" fill="#002129"/>
</g>
<g clip-path="url(#clip2)">
<path fill-rule="evenodd" clip-rule="evenodd" d="M329.683 427.021C330.5 438.388 325.438 449.297 314.9 459.835C304.602 470.133 293.493 477.401 281.92 479.177C270.071 480.995 258.478 476.951 247.725 466.199C237.381 455.854 230.145 444.388 228.38 432.491C226.579 420.354 230.565 408.405 241.361 397.609C251.883 387.088 264.003 380.779 276.466 379.996C289.018 379.207 301.353 384.062 312.072 394.781C322.407 405.116 328.877 415.808 329.683 427.021Z" fill="#FFD970"/>
<path fill-rule="evenodd" clip-rule="evenodd" d="M225.167 375.752C233.497 367.641 246.68 364.805 265.332 364.805C272.746 364.805 281.486 364.911 288.409 366.608C291.882 367.459 295.298 368.799 297.903 371.055C300.662 373.443 302.332 376.716 302.332 380.805C302.332 384.806 300.452 389.148 298.001 393.083C295.476 397.139 292.019 401.28 288.173 404.995C285.432 407.643 282.44 410.124 279.372 412.231L290.863 429.99L284.147 434.336L272.438 416.241C269.1 417.79 265.638 418.805 262.332 418.805C258.405 418.805 254.856 417.405 251.819 415.473L239.104 435.817L232.32 431.577L245.616 410.304C244.341 408.984 243.173 407.614 242.122 406.273C239.818 403.335 237.98 400.418 236.723 398.248C236.091 397.159 235.6 396.247 235.262 395.599C235.093 395.275 234.963 395.017 234.872 394.835C234.827 394.744 234.792 394.672 234.767 394.62L234.737 394.558L234.727 394.539L234.723 394.53C234.723 394.529 234.722 394.528 238.332 392.805L234.722 394.528L232.999 390.918L240.219 387.472L241.942 391.082L241.943 391.084L241.959 391.116C241.974 391.148 241.999 391.2 242.034 391.27C242.104 391.41 242.212 391.624 242.357 391.902C242.646 392.458 243.08 393.264 243.644 394.237C244.777 396.192 246.409 398.776 248.417 401.337C250.44 403.916 252.75 406.352 255.214 408.115C257.682 409.88 260.066 410.805 262.332 410.805C264.704 410.805 267.926 409.774 271.669 407.636C275.334 405.543 279.15 402.588 282.616 399.24C286.082 395.893 289.094 392.253 291.21 388.855C293.4 385.338 294.332 382.554 294.332 380.805C294.332 379.144 293.752 378.042 292.667 377.103C291.428 376.03 289.407 375.089 286.505 374.378C280.678 372.95 272.918 372.805 265.332 372.805C246.984 372.805 236.668 375.719 230.747 381.484C224.871 387.206 222.332 396.714 222.332 412.805C222.332 420.88 222.648 427.381 223.652 432.641C224.649 437.865 226.276 441.594 228.706 444.345C233.556 449.839 242.855 452.805 262.332 452.805C284.606 452.805 294.127 448.936 298.364 442.484C300.547 439.159 301.692 434.647 301.929 428.388C302.166 422.126 301.485 414.528 300.361 405.288L299.878 401.317L307.82 400.352L308.303 404.322C309.429 413.583 310.186 421.735 309.923 428.691C309.66 435.65 308.367 441.826 305.051 446.876C298.287 457.175 284.558 460.805 262.332 460.805C242.809 460.805 230.108 458.022 222.708 449.64C219.013 445.454 216.953 440.214 215.794 434.141C214.641 428.105 214.332 420.98 214.332 412.805C214.332 396.397 216.793 383.905 225.167 375.752Z" fill="#002129"/>
</g>
<g clip-path="url(#clip3)">
<path fill-rule="evenodd" clip-rule="evenodd" d="M430.472 329.801C419.105 330.618 408.196 325.556 397.658 315.019C387.36 304.721 380.092 293.612 378.316 282.038C376.498 270.189 380.542 258.596 391.294 247.844C401.639 237.499 413.104 230.264 425.002 228.498C437.139 226.697 449.088 230.683 459.884 241.48C470.405 252.001 476.714 264.121 477.497 276.584C478.286 289.136 473.431 301.471 462.712 312.19C452.377 322.526 441.685 328.995 430.472 329.801Z" fill="#FFD970"/>
<path fill-rule="evenodd" clip-rule="evenodd" d="M375.285 230.611C383.002 220.789 395.22 214.332 412.805 214.332C430.017 214.332 442.222 219.041 450.083 227.33C457.903 235.577 460.805 246.722 460.805 258.332C460.805 269.714 458.917 280.293 455.471 288.183C452.152 295.782 446.661 302.332 438.805 302.332C434.385 302.332 431.31 299.759 429.168 297.08C427.415 294.886 425.876 292.089 424.501 289.588C424.255 289.141 424.014 288.703 423.778 288.28C422.101 285.271 420.546 282.738 418.713 280.934C417.001 279.251 415.181 278.332 412.805 278.332C408.428 278.332 404.881 280.577 402.241 283.18C400.94 284.463 399.941 285.757 399.27 286.729C398.937 287.212 398.69 287.607 398.534 287.869C398.456 287.999 398.401 288.096 398.368 288.153C398.352 288.182 398.342 288.201 398.338 288.209L398.338 288.209L398.34 288.205L398.341 288.203C398.341 288.202 398.342 288.2 394.805 286.332C391.268 284.464 391.269 284.463 391.27 284.461L391.271 284.458L391.275 284.451L391.284 284.434L391.31 284.387C391.33 284.349 391.357 284.301 391.39 284.242C391.456 284.123 391.549 283.962 391.667 283.765C391.902 283.37 392.242 282.827 392.686 282.185C393.567 280.908 394.882 279.201 396.623 277.484C400.067 274.088 405.52 270.332 412.805 270.332C417.718 270.332 421.459 272.414 424.323 275.231C427.064 277.927 429.099 281.394 430.766 284.385C431.052 284.898 431.326 285.395 431.591 285.875C432.986 288.402 434.132 290.477 435.417 292.085C436.873 293.906 437.893 294.332 438.805 294.332C441.616 294.332 445.125 291.883 448.14 284.981C451.027 278.371 452.805 268.951 452.805 258.332C452.805 247.943 450.207 239.088 444.278 232.835C438.388 226.624 428.594 222.332 412.805 222.332C397.39 222.332 387.608 227.876 381.575 235.554C375.419 243.388 372.805 253.918 372.805 264.332C372.805 274.713 375.396 284 382.236 290.731C389.089 297.476 400.896 302.332 420.805 302.332V310.332C399.714 310.332 385.521 305.189 376.624 296.433C367.714 287.664 364.805 275.952 364.805 264.332C364.805 252.746 367.691 240.276 375.285 230.611ZM407.913 244.489C407.379 245.116 406.805 246.469 406.805 249.332C406.805 251.89 407.485 253.23 408.196 253.941C408.908 254.653 410.247 255.332 412.805 255.332C415.516 255.332 416.819 254.701 417.468 254.076C418.088 253.479 418.805 252.217 418.805 249.332C418.805 246.742 418.013 245.478 417.172 244.772C416.21 243.965 414.513 243.332 411.805 243.332C409.254 243.332 408.329 244 407.913 244.489ZM401.823 239.301C404.281 236.415 407.856 235.332 411.805 235.332C415.597 235.332 419.4 236.199 422.313 238.643C425.347 241.187 426.805 244.923 426.805 249.332C426.805 253.448 425.772 257.185 423.017 259.839C420.291 262.464 416.594 263.332 412.805 263.332C408.863 263.332 405.203 262.262 402.539 259.598C399.876 256.935 398.805 253.274 398.805 249.332C398.805 245.696 399.482 242.049 401.823 239.301Z" fill="#002129"/>
</g>
<g clip-path="url(#clip4)">
<path fill-rule="evenodd" clip-rule="evenodd" d="M280.61 90.5096C279.793 79.1423 284.855 68.2333 295.392 57.6959C305.691 47.3978 316.8 40.1295 328.373 38.3534C340.222 36.5352 351.815 40.5792 362.568 51.3319C372.912 61.6767 380.148 73.142 381.913 85.0395C383.714 97.1764 379.728 109.125 368.932 119.921C358.41 130.443 346.29 136.751 333.827 137.534C321.275 138.323 308.94 133.469 298.221 122.75C287.886 112.414 281.416 101.722 280.61 90.5096Z" fill="#FFD970"/>
<path fill-rule="evenodd" clip-rule="evenodd" d="M347.481 41.4411C341.674 35.6349 332.047 32.7253 316.196 32.7253V24.7253C332.646 24.7253 345.019 27.6655 353.137 35.7842C361.256 43.903 364.196 56.2759 364.196 72.7253C364.196 89.1748 361.256 101.548 353.137 109.666C345.019 117.785 332.646 120.725 316.196 120.725C309.732 120.725 304.337 117.091 302.681 111.637C300.947 105.925 303.763 99.9371 310.212 96.2524C310.241 96.2359 310.27 96.2198 310.299 96.204L310.299 96.2038L310.3 96.2035L310.308 96.1991L310.353 96.1748C310.394 96.152 310.46 96.1161 310.547 96.0677C310.721 95.9707 310.984 95.8235 311.322 95.6295C311.998 95.2414 312.973 94.6678 314.147 93.9378C316.502 92.4731 319.621 90.4023 322.72 87.9593C325.84 85.4989 328.814 82.759 330.974 79.976C333.184 77.1286 334.196 74.6809 334.196 72.7253C334.196 70.777 333.044 67.8907 330.421 64.2792C327.893 60.7984 324.387 57.1714 320.616 53.8532C316.857 50.5447 312.948 47.6434 309.696 45.5935C308.307 44.7181 307.083 44.026 306.074 43.5294C306.072 43.631 306.071 43.7365 306.069 43.8462L306.069 43.8706C306.055 44.7848 306.039 45.9282 305.929 47.0987C305.712 49.4104 305.085 52.5036 302.74 54.9772C300.31 57.5408 296.738 58.7253 292.196 58.7253C286.49 58.7253 282.603 59.7072 280.168 61.6206C277.943 63.3685 276.196 66.4952 276.196 72.7253C276.196 78.9784 277.811 81.837 280.616 83.5753C283.994 85.6686 289.939 86.7253 300.196 86.7253V94.7253C289.954 94.7253 281.899 93.7821 276.402 90.3754C270.332 86.6136 268.196 80.4723 268.196 72.7253C268.196 64.9555 270.45 59.0821 275.225 55.3301C279.79 51.7435 285.902 50.7253 292.196 50.7253C295.405 50.7253 296.52 49.9098 296.934 49.4735C297.433 48.9471 297.805 48.0403 297.964 46.352C298.041 45.5329 298.056 44.6862 298.07 43.7295C298.07 43.6881 298.071 43.6462 298.072 43.6039C298.084 42.7519 298.099 41.713 298.207 40.77C298.312 39.8529 298.56 38.3871 299.475 37.0975C300.613 35.4955 302.351 34.7253 304.196 34.7253C305.826 34.7253 307.565 35.4023 308.906 36.0181C310.422 36.7145 312.147 37.6817 313.962 38.8259C317.601 41.1198 321.848 44.281 325.901 47.8475C329.943 51.4043 333.906 55.4648 336.894 59.5778C339.786 63.56 342.196 68.1736 342.196 72.7253C342.196 77.2697 339.959 81.447 337.294 84.881C334.579 88.3792 331.052 91.5768 327.673 94.2414C324.271 96.9234 320.89 99.1651 318.371 100.732C317.107 101.517 316.051 102.139 315.305 102.567C314.932 102.782 314.636 102.948 314.43 103.062C314.327 103.119 314.246 103.164 314.189 103.195L314.145 103.219C310.128 105.528 309.947 108.03 310.336 109.313C310.806 110.859 312.66 112.725 316.196 112.725C332.047 112.725 341.674 109.816 347.481 104.01C353.287 98.2035 356.196 88.5764 356.196 72.7253C356.196 56.8743 353.287 47.2472 347.481 41.4411ZM306.214 41.3241C306.214 41.3241 306.214 41.3257 306.213 41.3287C306.214 41.3255 306.214 41.324 306.214 41.3241Z" fill="#002129"/>
</g>
<defs>
<clipPath id="clip0">
<rect width="144" height="144" fill="white" transform="translate(34.0146 34.0146)"/>
</clipPath>
<clipPath id="clip1">
<rect width="144" height="144" fill="white" transform="translate(0.725586 244.196)"/>
</clipPath>
<clipPath id="clip2">
<rect width="144" height="144" fill="white" transform="translate(190.332 340.805)"/>
</clipPath>
<clipPath id="clip3">
<rect width="144" height="144" fill="white" transform="translate(340.805 190.332)"/>
</clipPath>
<clipPath id="clip4">
<rect width="144" height="144" fill="white" transform="translate(244.196 0.725342)"/>
</clipPath>
</defs>
</svg>
