<svg width="432" height="816" viewBox="0 0 432 816" fill="none" xmlns="http://www.w3.org/2000/svg">
<g clip-path="url(#clip0)">
<path fill-rule="evenodd" clip-rule="evenodd" d="M180.413 89.7842C179.596 78.417 184.658 67.508 195.196 56.9706C205.494 46.6724 216.603 39.4041 228.177 37.6281C240.025 35.8099 251.618 39.8539 262.371 50.6066C272.716 60.9514 279.951 72.4167 281.716 84.3141C283.517 96.451 279.531 108.4 268.735 119.196C258.213 129.718 246.093 136.026 233.63 136.809C221.078 137.598 208.743 132.743 198.024 122.024C187.689 111.689 181.219 100.997 180.413 89.7842Z" fill="#FFD970"/>
<path fill-rule="evenodd" clip-rule="evenodd" d="M247.999 24C248 24 248 24 248 28C248 32 248 32 248 32L247.986 32L247.934 32.0001C247.887 32.0003 247.815 32.0006 247.719 32.0011C247.528 32.0023 247.243 32.0047 246.876 32.0094C246.14 32.0189 245.075 32.0381 243.77 32.0764C241.155 32.1532 237.593 32.3066 233.789 32.6122C229.972 32.9187 225.981 33.3731 222.487 34.0387C218.87 34.7277 216.237 35.5639 214.823 36.4208C213.229 37.3869 211.259 39.1347 209.104 41.437C206.99 43.6947 204.868 46.2993 202.963 48.7998C202.026 50.0287 201.149 51.2222 200.359 52.3233C204.911 52.0859 210.1 52 216 52C220.765 52 225.055 52.0563 228.91 52.2014C229.451 50.6095 229.838 49.0436 230.031 47.5039L237.969 48.4961C237.386 53.1585 235.594 57.5728 233.578 61.5215C232.118 64.384 230.424 67.2089 228.9 69.7516C228.347 70.6736 227.817 71.5584 227.328 72.3945C225.361 75.7569 224.11 78.2591 223.714 80.1706C223.532 81.0497 223.588 81.5601 223.677 81.8501C223.749 82.0866 223.909 82.4176 224.456 82.8426C224.664 83.0048 225.707 83.598 228.924 81.7822C231.903 80.101 235.475 76.9875 239.167 72.9321C246.548 64.8253 253.478 54.0006 256.255 46.5955L263.745 49.4045C262.484 52.7693 260.555 56.6063 258.204 60.5486C260.414 63.0031 261.795 65.9861 262.641 69.4171C263.763 73.9616 264 79.5117 264 86C264 92.5047 263.762 98.0672 262.632 102.619C261.461 107.34 259.276 111.207 255.312 114.014C251.521 116.7 246.501 118.123 240.266 118.935C233.991 119.752 226.02 120 216 120C205.98 120 198.009 119.752 191.734 118.935C185.499 118.123 180.479 116.7 176.688 114.014C172.724 111.207 170.539 107.34 169.368 102.619C168.238 98.0672 168 92.5047 168 86C168 79.4953 168.238 73.9328 169.368 69.3807C170.539 64.6603 172.724 60.7935 176.688 57.9859C180.116 55.558 184.548 54.1612 189.973 53.3157C190.032 53.2264 190.097 53.1266 190.17 53.0168C190.511 52.4979 191.006 51.7559 191.624 50.8519C192.858 49.0466 194.594 46.5818 196.6 43.9502C198.6 41.3257 200.901 38.4928 203.264 35.9693C205.585 33.4903 208.146 31.1131 210.677 29.5792C213.388 27.9361 217.224 26.8973 220.99 26.18C224.878 25.4394 229.184 24.9563 233.148 24.6378C237.126 24.3184 240.83 24.1593 243.535 24.0798C244.89 24.0401 245.999 24.0201 246.772 24.0101C247.159 24.0051 247.462 24.0026 247.67 24.0013C247.775 24.0007 247.855 24.0003 247.91 24.0002L247.975 24L247.999 24ZM253.536 67.7221C250.899 71.464 248.012 75.101 245.083 78.3179C241.15 82.6375 236.91 86.4615 232.857 88.749C229.042 90.902 223.836 92.4952 219.544 89.1574C217.841 87.8324 216.626 86.1634 216.023 84.1772C215.435 82.2446 215.515 80.3097 215.88 78.5482C216.578 75.1784 218.514 71.6181 220.422 68.3555C221 67.3678 221.586 66.3904 222.171 65.4139C223.225 63.6554 224.278 61.9002 225.276 60.095C222.439 60.0284 219.355 60 216 60C206.02 60 198.491 60.2523 192.766 60.9978C187.001 61.7485 183.521 62.9495 181.312 64.5141C179.276 65.9565 177.961 67.9647 177.132 71.3068C176.262 74.8172 176 79.5047 176 86C176 92.4953 176.262 97.1828 177.132 100.693C177.961 104.035 179.276 106.043 181.312 107.486C183.521 109.05 187.001 110.252 192.766 111.002C198.491 111.748 206.02 112 216 112C225.98 112 233.509 111.748 239.234 111.002C244.999 110.252 248.479 109.05 250.688 107.486C252.724 106.043 254.039 104.035 254.868 100.693C255.738 97.1828 256 92.4953 256 86C256 79.5222 255.74 74.8419 254.874 71.3335C254.522 69.9067 254.082 68.7228 253.536 67.7221ZM190.703 75.0736C190.432 75.3216 190 75.923 190 78C190 80.077 190.432 80.6784 190.703 80.9264C191.087 81.2782 192.329 82 196 82C199.671 82 200.913 81.2782 201.297 80.9264C201.568 80.6784 202 80.077 202 78C202 75.923 201.568 75.3216 201.297 75.0736C200.913 74.7218 199.671 74 196 74C192.329 74 191.087 74.7218 190.703 75.0736ZM185.297 69.1764C187.913 66.7782 191.671 66 196 66C200.329 66 204.087 66.7782 206.703 69.1764C209.432 71.6784 210 75.077 210 78C210 80.923 209.432 84.3216 206.703 86.8236C204.087 89.2218 200.329 90 196 90C191.671 90 187.913 89.2218 185.297 86.8236C182.568 84.3216 182 80.923 182 78C182 75.077 182.568 71.6784 185.297 69.1764Z" fill="#002129"/>
</g>
<g clip-path="url(#clip1)">
<path fill-rule="evenodd" clip-rule="evenodd" d="M233.666 307.469C222.299 308.286 211.39 303.224 200.852 292.686C190.554 282.388 183.286 271.279 181.51 259.706C179.691 247.857 183.735 236.264 194.488 225.511C204.833 215.166 216.298 207.931 228.196 206.166C240.333 204.365 252.281 208.351 263.078 219.147C273.599 229.669 279.907 241.789 280.691 254.252C281.479 266.804 276.625 279.139 265.906 289.858C255.571 300.193 244.878 306.663 233.666 307.469Z" fill="#FFD970"/>
<path fill-rule="evenodd" clip-rule="evenodd" d="M178.48 208.279C186.197 198.457 198.415 192 216 192C233.212 192 245.417 196.709 253.278 204.998C261.098 213.245 264 224.389 264 236C264 247.381 262.112 257.961 258.666 265.851C255.347 273.449 249.856 280 242 280C237.579 280 234.505 277.427 232.363 274.748C230.61 272.554 229.071 269.757 227.696 267.256C227.449 266.809 227.209 266.371 226.973 265.948C225.295 262.938 223.741 260.405 221.907 258.602C220.196 256.918 218.376 256 216 256C211.623 256 208.076 258.244 205.435 260.848C204.135 262.131 203.136 263.425 202.465 264.397C202.131 264.88 201.885 265.274 201.729 265.536C201.651 265.667 201.595 265.764 201.563 265.821C201.547 265.85 201.537 265.869 201.533 265.877L201.533 265.876L201.534 265.873L201.536 265.871C201.536 265.869 201.537 265.868 198 264C194.463 262.132 194.464 262.131 194.465 262.129L194.466 262.126L194.47 262.119L194.479 262.102L194.505 262.055C194.525 262.017 194.552 261.969 194.585 261.909C194.651 261.791 194.744 261.63 194.861 261.433C195.097 261.038 195.437 260.495 195.88 259.853C196.762 258.575 198.077 256.869 199.818 255.152C203.262 251.756 208.715 248 216 248C220.913 248 224.654 250.082 227.517 252.898C230.259 255.595 232.293 259.062 233.961 262.052C234.247 262.566 234.521 263.062 234.786 263.543C236.181 266.07 237.326 268.144 238.612 269.752C240.068 271.573 241.087 272 242 272C244.81 272 248.32 269.551 251.334 262.649C254.221 256.039 256 246.619 256 236C256 225.611 253.402 216.755 247.473 210.502C241.583 204.291 231.788 200 216 200C200.585 200 190.803 205.543 184.77 213.221C178.614 221.056 176 231.586 176 242C176 252.381 178.591 261.668 185.431 268.399C192.284 275.144 204.091 280 224 280V288C202.909 288 188.716 282.856 179.819 274.101C170.909 265.332 168 253.619 168 242C168 230.414 170.886 217.944 178.48 208.279ZM211.107 222.156C210.573 222.783 210 224.137 210 227C210 229.558 210.679 230.898 211.391 231.609C212.102 232.321 213.442 233 216 233C218.711 233 220.014 232.368 220.663 231.744C221.283 231.147 222 229.884 222 227C222 224.41 221.208 223.145 220.367 222.44C219.405 221.633 217.708 221 215 221C212.449 221 211.524 221.667 211.107 222.156ZM205.018 216.969C207.476 214.083 211.051 213 215 213C218.792 213 222.595 213.867 225.508 216.31C228.542 218.855 230 222.59 230 227C230 231.116 228.967 234.853 226.212 237.506C223.486 240.132 219.789 241 216 241C212.058 241 208.398 239.929 205.734 237.266C203.071 234.602 202 230.942 202 227C202 223.363 202.677 219.717 205.018 216.969Z" fill="#002129"/>
</g>
<g clip-path="url(#clip2)">
<path fill-rule="evenodd" clip-rule="evenodd" d="M283.351 422.216C284.168 433.583 279.106 444.492 268.569 455.029C258.271 465.328 247.162 472.596 235.588 474.372C223.74 476.19 212.147 472.146 201.394 461.393C191.049 451.049 183.814 439.583 182.048 427.686C180.247 415.549 184.234 403.6 195.03 392.804C205.552 382.282 217.671 375.974 230.134 375.191C242.687 374.402 255.022 379.257 265.741 389.976C276.076 400.311 282.545 411.003 283.351 422.216Z" fill="#FFD970"/>
<path fill-rule="evenodd" clip-rule="evenodd" d="M178.835 370.947C187.165 362.836 200.348 360 219 360C226.414 360 235.154 360.106 242.077 361.802C245.55 362.654 248.966 363.994 251.571 366.249C254.33 368.638 256 371.911 256 376C256 380.001 254.12 384.343 251.669 388.278C249.144 392.333 245.687 396.475 241.841 400.19C239.1 402.837 236.108 405.319 233.04 407.426L244.531 425.185L237.815 429.531L226.106 411.436C222.768 412.984 219.306 414 216 414C212.073 414 208.524 412.6 205.487 410.667L192.772 431.012L185.988 426.772L199.284 405.498C198.009 404.179 196.841 402.808 195.79 401.468C193.486 398.53 191.648 395.613 190.391 393.443C189.759 392.354 189.268 391.441 188.93 390.794C188.761 390.47 188.631 390.211 188.54 390.029C188.495 389.938 188.46 389.866 188.435 389.815L188.405 389.753L188.395 389.734L188.391 389.725C188.391 389.724 188.39 389.723 192 388L188.39 389.723L186.667 386.113L193.887 382.667L195.61 386.277L195.611 386.279L195.627 386.311C195.642 386.343 195.667 386.395 195.702 386.465C195.772 386.605 195.88 386.819 196.025 387.097C196.314 387.652 196.748 388.459 197.312 389.432C198.445 391.387 200.077 393.97 202.085 396.532C204.108 399.111 206.418 401.547 208.882 403.309C211.35 405.075 213.734 406 216 406C218.372 406 221.594 404.969 225.336 402.831C229.002 400.738 232.818 397.783 236.284 394.435C239.75 391.087 242.762 387.448 244.878 384.05C247.068 380.532 248 377.749 248 376C248 374.339 247.42 373.237 246.335 372.297C245.096 371.225 243.075 370.284 240.173 369.573C234.346 368.144 226.586 368 219 368C200.652 368 190.335 370.914 184.415 376.678C178.539 382.4 176 391.909 176 408C176 416.075 176.316 422.575 177.32 427.836C178.317 433.06 179.944 436.789 182.374 439.54C187.224 445.034 196.523 448 216 448C238.274 448 247.795 444.131 252.032 437.679C254.215 434.354 255.36 429.842 255.597 423.583C255.834 417.32 255.153 409.722 254.029 400.483L253.546 396.512L261.488 395.546L261.971 399.517C263.097 408.778 263.854 416.93 263.591 423.886C263.328 430.845 262.035 437.021 258.718 442.071C251.955 452.369 238.226 456 216 456C196.477 456 183.776 453.216 176.376 444.835C172.681 440.649 170.621 435.409 169.462 429.336C168.309 423.3 168 416.175 168 408C168 391.591 170.461 379.1 178.835 370.947Z" fill="#002129"/>
</g>
<g clip-path="url(#clip3)">
<path fill-rule="evenodd" clip-rule="evenodd" d="M230.098 540.531C241.465 539.714 252.374 544.776 262.912 555.314C273.21 565.612 280.478 576.721 282.254 588.294C284.072 600.143 280.028 611.736 269.275 622.489C258.931 632.834 247.465 640.069 235.568 641.834C223.431 643.635 211.482 639.649 200.686 628.853C190.164 618.331 183.856 606.211 183.073 593.748C182.284 581.196 187.139 568.861 197.858 558.142C208.193 547.807 218.885 541.337 230.098 540.531Z" fill="#FFD970"/>
<path fill-rule="evenodd" clip-rule="evenodd" d="M181.655 540.804C178.042 544.01 176 549.907 176 562C176 574.87 178.306 580.727 182.404 583.807C183.409 584.563 184 585.747 184 587.004V592L189.251 588.061L194.051 594.461L182.4 603.2C181.188 604.109 179.566 604.255 178.211 603.578C176.856 602.9 176 601.515 176 600V588.867C169.898 583.197 168 574.197 168 562C168 549.593 169.958 540.49 176.345 534.821C182.584 529.283 192.031 528 204 528C213.766 528 221.584 529.885 227.462 534.019C232.696 537.701 236 542.885 237.887 549.135C245.491 550.445 251.931 553.097 256.552 558.125C261.732 563.762 264 571.698 264 582C264 593.992 262.087 602.96 256 608.676V620C256 621.515 255.144 622.9 253.789 623.578C252.434 624.255 250.812 624.109 249.6 623.2L239.215 615.412C235.841 615.83 232.103 616 228 616C217.596 616 209.476 614.439 203.901 612.846C201.115 612.05 198.966 611.247 197.487 610.627C196.747 610.318 196.174 610.054 195.773 609.86C195.572 609.763 195.414 609.684 195.299 609.625C195.242 609.595 195.195 609.571 195.159 609.552L195.114 609.527L195.097 609.518L195.09 609.515L195.087 609.513C195.086 609.512 195.085 609.512 197 606C198.915 602.488 198.914 602.488 198.913 602.487L198.911 602.486L198.907 602.484L198.905 602.483C198.912 602.487 198.93 602.496 198.958 602.51C199.014 602.539 199.112 602.588 199.251 602.656C199.529 602.79 199.972 602.995 200.576 603.248C201.784 603.753 203.635 604.45 206.099 605.154C211.024 606.561 218.404 608 228 608C232.577 608 236.433 607.775 239.683 607.27C240.748 607.105 241.835 607.376 242.697 608.023L248 612V606.83C248 605.584 248.581 604.409 249.57 603.652C253.707 600.489 256 594.572 256 582C256 572.765 253.961 567.128 250.661 563.538C248.157 560.813 244.571 558.875 239.57 557.648C239.866 560.297 240 563.086 240 566C240 574.839 238.465 582.37 234.461 587.76C230.278 593.391 223.933 596 216 596C208.31 596 202.17 593.404 197.985 588.823C193.853 584.302 192 578.26 192 572C192 563.857 194.584 557.472 200.27 553.33C205.677 549.39 213.222 548 222 548C224.429 548 226.769 548.055 229.015 548.179C227.542 544.922 225.507 542.425 222.86 540.563C218.817 537.72 212.838 536 204 536C191.969 536 185.416 537.467 181.655 540.804ZM231.329 556.36C228.481 556.112 225.375 556 222 556C213.778 556 208.323 557.36 204.98 559.795C201.916 562.028 200 565.643 200 572C200 576.74 201.397 580.698 203.89 583.427C206.33 586.096 210.19 588 216 588C222.067 588 225.722 586.109 228.039 582.99C230.535 579.63 232 574.161 232 566C232 562.443 231.781 559.234 231.329 556.36ZM198.902 602.481L198.905 602.483C198.902 602.481 198.901 602.48 198.902 602.481Z" fill="#002129"/>
</g>
<g clip-path="url(#clip4)">
<path fill-rule="evenodd" clip-rule="evenodd" d="M180.413 761.784C179.596 750.417 184.658 739.508 195.196 728.971C205.494 718.672 216.603 711.404 228.177 709.628C240.025 707.81 251.618 711.854 262.371 722.607C272.716 732.951 279.951 744.417 281.716 756.314C283.517 768.451 279.531 780.4 268.735 791.196C258.213 801.718 246.093 808.026 233.63 808.809C221.078 809.598 208.743 804.743 198.024 794.024C187.689 783.689 181.219 772.997 180.413 761.784Z" fill="#FFD970"/>
<path fill-rule="evenodd" clip-rule="evenodd" d="M247.284 712.716C241.478 706.91 231.851 704 216 704V696C232.449 696 244.822 698.94 252.941 707.059C261.06 715.178 264 727.551 264 744C264 760.449 261.06 772.822 252.941 780.941C244.822 789.06 232.449 792 216 792C209.536 792 204.141 788.366 202.485 782.912C200.751 777.199 203.567 771.212 210.015 767.527C210.044 767.511 210.073 767.494 210.103 767.479L210.103 767.478L210.104 767.478L210.112 767.474L210.156 767.449C210.198 767.427 210.263 767.391 210.351 767.342C210.525 767.245 210.788 767.098 211.125 766.904C211.801 766.516 212.776 765.942 213.95 765.212C216.306 763.748 219.425 761.677 222.523 759.234C225.644 756.774 228.618 754.034 230.778 751.251C232.987 748.403 234 745.956 234 744C234 742.052 232.848 739.165 230.225 735.554C227.696 732.073 224.191 728.446 220.42 725.128C216.66 721.819 212.751 718.918 209.5 716.868C208.111 715.993 206.886 715.301 205.877 714.804C205.876 714.906 205.874 715.011 205.873 715.121L205.872 715.145C205.859 716.059 205.842 717.203 205.733 718.373C205.516 720.685 204.888 723.778 202.544 726.252C200.113 728.815 196.541 730 192 730C186.294 730 182.407 730.982 179.971 732.895C177.747 734.643 176 737.77 176 744C176 750.253 177.615 753.112 180.42 754.85C183.797 756.943 189.743 758 200 758V766C189.757 766 181.703 765.057 176.205 761.65C170.135 757.888 168 751.747 168 744C168 736.23 170.253 730.357 175.029 726.605C179.593 723.018 185.706 722 192 722C195.209 722 196.324 721.185 196.738 720.748C197.237 720.222 197.609 719.315 197.767 717.627C197.844 716.808 197.86 715.961 197.873 715.004C197.874 714.963 197.875 714.921 197.875 714.879C197.887 714.027 197.902 712.988 198.01 712.045C198.115 711.128 198.364 709.662 199.279 708.372C200.416 706.77 202.155 706 204 706C205.63 706 207.369 706.677 208.709 707.293C210.226 707.989 211.951 708.956 213.766 710.101C217.405 712.394 221.652 715.556 225.705 719.122C229.747 722.679 233.71 726.739 236.697 730.852C239.59 734.835 242 739.448 242 744C242 748.544 239.763 752.722 237.097 756.156C234.382 759.654 230.856 762.851 227.477 765.516C224.075 768.198 220.694 770.44 218.175 772.006C216.911 772.792 215.855 773.414 215.109 773.842C214.736 774.056 214.44 774.222 214.233 774.337C214.13 774.394 214.05 774.438 213.993 774.469L213.949 774.493C209.932 776.803 209.75 779.304 210.14 780.588C210.609 782.134 212.464 784 216 784C231.851 784 241.478 781.09 247.284 775.284C253.09 769.478 256 759.851 256 744C256 728.149 253.09 718.522 247.284 712.716ZM206.018 712.599C206.018 712.599 206.017 712.6 206.017 712.603C206.017 712.6 206.018 712.599 206.018 712.599Z" fill="#002129"/>
</g>
<defs>
<clipPath id="clip0">
<rect width="144" height="144" fill="white" transform="translate(144)"/>
</clipPath>
<clipPath id="clip1">
<rect width="144" height="144" fill="white" transform="translate(144 168)"/>
</clipPath>
<clipPath id="clip2">
<rect width="144" height="144" fill="white" transform="translate(144 336)"/>
</clipPath>
<clipPath id="clip3">
<rect width="144" height="144" fill="white" transform="translate(144 504)"/>
</clipPath>
<clipPath id="clip4">
<rect width="144" height="144" fill="white" transform="translate(144 672)"/>
</clipPath>
</defs>
</svg>
