<?xml version="1.0" encoding="utf-8"?>
<!-- Generator: Adobe Illustrator 19.2.1, SVG Export Plug-In . SVG Version: 6.00 Build 0)  -->
<svg version="1.1" id="Layer_1" xmlns="http://www.w3.org/2000/svg" xmlns:xlink="http://www.w3.org/1999/xlink" x="0px" y="0px"
	 viewBox="0 0 358.3 72.7" style="enable-background:new 0 0 358.3 72.7;" xml:space="preserve">
<g>
	<path d="M26.7,54.6H0v-0.8c2.8-0.3,5.5-1.8,5.5-8V13.2c0-6.1-2.7-8-5.5-8.3V4.2h42.6L44.2,21h-1.5c-5.8-11.4-12-15.1-18-15.1h-3.8
		v21.8h0.6c5.5,0,11.2-5.4,12.1-9.6h1.1v21.1h-1.1c-1.1-4.8-7-9.9-12.1-9.9h-0.6v16.6c0,6.2,2.9,7.7,5.8,8V54.6z"/>
	<path d="M42,38.2c0-9.8,8.6-18.1,18.9-18.1c11.2,0,18.9,8.1,18.9,17.9c0,9.3-8.1,17.9-18.9,17.9C50,55.9,42,48,42,38.2z M60.8,54.6
		c2.4,0,4.9-3.2,4.9-16.4c0-10.9-1.9-16.6-5.2-16.6c-2.4,0-4.8,3.4-4.8,16.3C55.8,48.7,57.7,54.6,60.8,54.6z"/>
	<path d="M104,54.6H82.7v-0.6c1.8-0.2,3.7-1.4,3.7-4.7v-19c0-4-2.4-4.8-4.4-4.7v-0.7l17.4-4.7l0.6,0.2V28c2.2-6.6,6.8-9.1,10.4-9.1
		c3.5,0,5.7,2.5,5.7,5.6c0,3.3-2.4,6-5.8,6c-3.6,0-4.5-3.3-7.2-3.3c-1.8,0-2.5,1.4-3,4.1v18c0,3.2,2.2,4.3,3.9,4.5V54.6z"/>
	<path d="M135.4,23v20.7c0,3.2,1.7,4.8,3.6,4.8c1.5,0,2.8-0.7,3.9-2.3l0.9,0.6c-2.6,4.9-7.6,9-13.2,9c-5.3,0-8.9-3.5-8.9-8.6v-24
		h-3.7v-0.8c6.1-1.8,13.7-9.5,16.3-16.3h1.1v15.3h7.2V23H135.4z"/>
	<path d="M165,54.6h-19.5v-0.7c1.6-0.2,3.2-1.5,3.2-4.7V9.7c0-4-2-4.8-3.9-4.8V4.2L161.9,0l0.6,0.2v25.9c3.2-3.5,7.4-6,12-6
		c5.4,0,9.4,3.2,9.4,9.6v19.5c0,3.2,1.6,4.5,3.5,4.7v0.7h-19.9v-0.6c1.9-0.2,2.7-1.2,2.7-4.5V30.3c0-2.7-1.6-4.1-3.7-4.1
		c-1.4,0-2.7,0.6-4,1.8v21.4c0,3.2,1.2,4.3,2.6,4.5V54.6z"/>
	<path d="M210.7,54.6h-21.2v-0.6c1.8-0.2,3.7-1.4,3.7-4.7v-19c0-4-2.4-4.8-4.4-4.7v-0.7l17.4-4.7l0.6,0.2V28
		c2.2-6.6,6.8-9.1,10.4-9.1c3.5,0,5.7,2.5,5.7,5.6c0,3.3-2.4,6-5.8,6c-3.6,0-4.5-3.3-7.2-3.3c-1.8,0-2.5,1.4-3,4.1v18
		c0,3.2,2.2,4.3,3.9,4.5V54.6z"/>
	<path d="M225.2,54.6v-0.7c1.7-0.2,3.5-1.5,3.5-4.7V30.3c0-3.9-2.4-4.9-4.5-4.8v-0.7l17.7-4.7l0.6,0.2l-0.1,9.6v19.2
		c0,3.2,2,4.5,3.7,4.7v0.7H225.2z M235.4,1.9c4.2,0,7.8,3.4,7.8,7.7c0,4.2-3.6,7.7-7.8,7.7c-4.2,0-7.8-3.4-7.8-7.7
		C227.6,5.3,231.2,1.9,235.4,1.9z"/>
	<path d="M264.6,72.7c-12.9,0-19.2-3.5-19.2-8.7c0-2.9,2.3-5.6,6.4-7.1c-1.6-1.4-2.4-3.4-2.4-5.8c0-3.7,2.4-6.7,6.6-8.7
		c-4-2.2-6.5-5.7-6.5-9.6c0-7,8.3-12.7,16.9-12.7c2,0,4.1,0.3,6.2,0.9c-0.1-0.7-0.1-1.4-0.1-2.2c0.1-6.2,3.8-9.6,7.8-9.6
		c3.2,0,5.8,2.1,5.8,5c0,2.3-1.4,5.3-5.5,5.3c-0.9,0-1.8-0.1-2.4-0.1c-2,0-3.2,0.6-3.4,2.2c5.2,2,9.4,5.8,9.4,11.1
		c0,6.6-6.9,12.2-17.8,12.2c-3,0-5.9-0.6-8.4-1.6c-1.2,0.6-1.7,1.4-1.7,2.4c0,1.4,0.9,2.4,5.7,2.7l11.7,0.6
		c8.1,0.4,12.7,4.2,12.7,9.6C286.4,66.3,277.3,72.7,264.6,72.7z M275.8,64.7c0-2.4-1.2-3.6-4.1-3.7l-8.6-0.4
		c-2.8-0.1-5.3-0.6-7.3-1.4c-0.7,1.2-1.1,2.5-1.1,4.1c0,5,3.5,7.8,10.4,7.8C271.9,71.1,275.8,68.3,275.8,64.7z M266.8,43.3
		c2.4,0,4.3-3.3,4.3-10.8s-2-10.8-4.4-10.8s-4.2,3.3-4.2,10.7C262.5,40,264.5,43.3,266.8,43.3z"/>
	<path d="M308.4,54.6h-19.5v-0.7c1.6-0.2,3.2-1.5,3.2-4.7V9.7c0-4-2-4.8-3.9-4.8V4.2L305.3,0l0.6,0.2v25.9c3.2-3.5,7.4-6,12-6
		c5.4,0,9.4,3.2,9.4,9.6v19.5c0,3.2,1.6,4.5,3.5,4.7v0.7h-19.9v-0.6c1.9-0.2,2.7-1.2,2.7-4.5V30.3c0-2.7-1.6-4.1-3.7-4.1
		c-1.4,0-2.7,0.6-4,1.8v21.4c0,3.2,1.2,4.3,2.6,4.5V54.6z"/>
	<path d="M349.9,23v20.7c0,3.2,1.7,4.8,3.6,4.8c1.5,0,2.8-0.7,3.9-2.3l0.9,0.6c-2.6,4.9-7.6,9-13.2,9c-5.3,0-8.9-3.5-8.9-8.6v-24
		h-3.7v-0.8c6.1-1.8,13.7-9.5,16.3-16.3h1.1v15.3h7.2V23H349.9z"/>
</g>
</svg>
