<svg width="96" height="24" viewBox="0 0 96 24" fill="none" xmlns="http://www.w3.org/2000/svg">
<path fill-rule="evenodd" clip-rule="evenodd" d="M19.0662 4.02331C17.198 2.65222 14.4467 2 11 2C7.63789 2 5.46117 2.92254 4.09811 4.49672C2.70968 6.10021 2 8.56645 2 12C2 15.298 3.13381 17.7592 5.00349 19.4078C6.88997 21.0712 9.63232 22 13 22C16.2706 22 18.4537 20.8264 19.8546 18.9372C21.2916 16.9994 22 14.1802 22 10.75C22 7.46401 20.8783 5.35328 19.0662 4.02331ZM20.2495 2.41095C22.6655 4.18407 24 6.94833 24 10.75C24 14.4074 23.2522 17.7132 21.4611 20.1285C19.634 22.5924 16.817 24 13 24C9.28002 24 6.02238 22.9726 3.68077 20.9079C1.32236 18.8284 0 15.7897 0 12C0 8.3459 0.74649 5.31214 2.58615 3.18754C4.45118 1.03363 7.27446 0 11 0C14.6409 0 17.8896 0.678949 20.2495 2.41095Z" fill="#FFD970"/>
<path fill-rule="evenodd" clip-rule="evenodd" d="M16.3039 7.63064C15.2473 6.61141 13.6708 6 11.6136 6C9.53931 6 8.19414 6.56822 7.3519 7.48511C6.49519 8.41777 6 9.88247 6 12C6 14.0881 6.54844 15.5513 7.46743 16.4929C8.38249 17.4304 9.81096 18 11.8864 18C13.9843 18 15.4824 17.4689 16.4518 16.563C17.4097 15.6678 18 14.2671 18 12.2045C18 10.1673 17.3559 8.6453 16.3039 7.63064ZM17.6924 6.19116C19.2061 7.65119 20 9.73151 20 12.2045C20 14.6523 19.2886 16.6493 17.8173 18.0243C16.3574 19.3886 14.2987 20 11.8864 20C9.45144 20 7.43673 19.3248 6.03619 17.8899C4.63958 16.459 4 14.4223 4 12C4 9.6072 4.55647 7.5719 5.87899 6.13214C7.21599 4.67662 9.17763 4 11.6136 4C14.0668 4 16.1835 4.7357 17.6924 6.19116Z" fill="#FFD970"/>
<path fill-rule="evenodd" clip-rule="evenodd" d="M14.6718 9.06306C15.514 9.79249 16 10.8454 16 12.0877C16 13.1819 15.7573 14.2068 15.0536 14.9542C14.3385 15.7137 13.3253 16 12.2013 16C11.1774 16 10.1241 15.858 9.30998 15.2994C8.41527 14.6855 8 13.7097 8 12.5C8 11.4508 8.17164 10.3527 8.72453 9.4869C9.32267 8.55027 10.2955 8 11.5844 8C12.7442 8 13.845 8.34695 14.6718 9.06306Z" fill="#FFD970"/>
<path d="M34.9479 4.914C31.0239 4.914 28.6299 7.812 28.6299 11.61C28.6299 15.408 31.0239 18.306 34.9479 18.306C38.8719 18.306 41.2479 15.408 41.2479 11.61C41.2479 7.812 38.8719 4.914 34.9479 4.914ZM34.9479 7.146C37.1979 7.146 38.6559 8.91 38.6559 11.61C38.6559 14.328 37.1979 16.074 34.9479 16.074C32.6979 16.074 31.2219 14.328 31.2219 11.61C31.2219 8.91 32.6979 7.146 34.9479 7.146Z" fill="#002129"/>
<path d="M48.3126 8.802V14.346C48.3126 15.624 47.5566 16.254 46.4226 16.254C45.3786 16.254 44.8926 15.66 44.8926 14.724V8.802H42.5526V15.372C42.5526 17.046 43.5246 18.288 45.8106 18.288C47.1966 18.288 48.0606 17.766 48.5106 17.028V18H50.6526V8.802H48.3126Z" fill="#002129"/>
<path d="M57.6808 16.02C57.0868 16.164 56.7988 16.182 56.5288 16.182C55.9168 16.182 55.6108 15.984 55.6108 15.336V10.584H57.8068V8.802H55.6108V5.958H53.2708V8.802H51.6328V10.584H53.2708V15.624C53.2708 17.334 54.0088 18.216 55.8808 18.216C56.4748 18.216 57.1408 18.144 57.9508 17.874L57.6808 16.02Z" fill="#002129"/>
<path d="M62.6223 8.496C60.1563 8.496 58.7883 9.81 58.7883 11.376C58.7883 13.014 59.5803 13.662 62.1723 14.238C63.4863 14.526 64.4403 14.67 64.4403 15.426C64.4403 16.056 63.7563 16.398 62.8383 16.398C61.7583 16.398 61.0383 16.128 59.6883 15.03L58.3383 16.542C59.8323 17.874 61.0923 18.288 62.7843 18.288C65.2863 18.288 66.7263 17.046 66.7263 15.282C66.7263 13.572 65.6823 12.906 63.1623 12.348C61.6143 12.006 61.0203 11.898 61.0203 11.304C61.0203 10.764 61.6323 10.386 62.5683 10.386C63.5043 10.386 64.2063 10.602 65.3223 11.466L66.5823 9.936C65.2863 8.856 64.1703 8.496 62.6223 8.496Z" fill="#002129"/>
<path d="M72.3377 16.308C70.7357 16.308 69.9437 15.336 69.7457 14.004H76.3517C76.3697 13.806 76.3877 13.374 76.3877 13.086C76.3877 10.26 74.8937 8.496 72.0857 8.496C69.1877 8.496 67.4597 10.602 67.4597 13.446C67.4597 16.38 69.3137 18.288 72.2837 18.288C73.7777 18.288 75.0377 17.856 76.3877 16.488L75.0737 15.048C73.9937 15.948 73.4177 16.308 72.3377 16.308ZM72.0137 10.332C73.2917 10.332 74.0117 11.106 74.1017 12.33H69.7997C70.0517 11.142 70.7717 10.332 72.0137 10.332Z" fill="#002129"/>
<path d="M82.8625 16.02C82.2685 16.164 81.9805 16.182 81.7105 16.182C81.0985 16.182 80.7925 15.984 80.7925 15.336V10.584H82.9885V8.802H80.7925V5.958H78.4525V8.802H76.8145V10.584H78.4525V15.624C78.4525 17.334 79.1905 18.216 81.0625 18.216C81.6565 18.216 82.3225 18.144 83.1325 17.874L82.8625 16.02Z" fill="#002129"/>
<path d="M88.2026 8.496C86.3846 8.496 85.0526 9.198 83.9006 10.566L85.3766 11.916C86.3306 10.998 86.9786 10.422 88.2386 10.422C89.3006 10.422 89.9666 10.926 89.9666 11.826V12.042L87.8066 12.438C85.7186 12.816 83.8286 13.554 83.8286 15.678C83.8286 17.55 85.3766 18.306 87.1226 18.306C88.5446 18.306 89.5346 17.82 90.0926 17.046V18H92.1986V11.79C92.1986 9.846 90.8486 8.496 88.2026 8.496ZM87.5186 16.434C86.6366 16.434 86.1146 16.092 86.1146 15.516C86.1146 14.652 87.0326 14.328 88.4186 14.04L89.9666 13.716V14.256C89.9666 15.858 88.7066 16.434 87.5186 16.434Z" fill="#002129"/>
</svg>
