<svg width="96" height="24" viewBox="0 0 96 24" fill="none" xmlns="http://www.w3.org/2000/svg">
<path d="M35.084 4.99219C31.3486 4.99219 28.9756 7.54102 28.9756 11.6543C28.9756 15.7676 31.3135 18.3252 35.084 18.3252C38.8281 18.3252 41.1836 15.7676 41.1836 11.6543C41.1836 7.5498 38.8193 4.99219 35.084 4.99219ZM35.084 7.32129C37.1406 7.32129 38.4678 9 38.4678 11.6543C38.4678 14.2998 37.1494 15.9961 35.084 15.9961C32.9922 15.9961 31.6914 14.2998 31.6914 11.6543C31.6914 9 33.0186 7.32129 35.084 7.32129ZM51.5027 8.30566H48.945V13.8955C48.945 15.1875 48.2595 15.9873 46.9851 15.9873C45.8073 15.9873 45.2009 15.3018 45.2009 13.9658V8.30566H42.6433V14.625C42.6433 16.875 43.9441 18.2109 46.0359 18.2109C47.5036 18.2109 48.4089 17.5693 48.8659 16.4443H49.0241V18H51.5027V8.30566ZM54.0786 6.00293V8.40234H52.5668V10.415H54.0786V15.3809C54.0786 17.2705 55.0102 18.0352 57.3657 18.0352C57.8579 18.0352 58.3325 17.9824 58.6489 17.9209V15.9697C58.4028 15.9961 58.227 16.0049 57.893 16.0049C57.0229 16.0049 56.6362 15.6182 56.6362 14.7744V10.415H58.6489V8.40234H56.6362V6.00293H54.0786ZM59.757 11.1533C59.757 12.6475 60.6711 13.5439 62.5519 13.957L64.3097 14.3525C65.1623 14.5371 65.5314 14.8271 65.5314 15.3018C65.5314 15.9258 64.8459 16.3389 63.8527 16.3389C62.8332 16.3389 62.2091 15.9609 62.0158 15.3018H59.5197C59.6955 17.165 61.2423 18.2109 63.8 18.2109C66.34 18.2109 68.0714 16.9453 68.0714 15.0117C68.0714 13.5615 67.2277 12.7705 65.3468 12.3574L63.5275 11.9619C62.631 11.7598 62.2179 11.4697 62.2179 10.9951C62.2179 10.3799 62.8947 9.9668 63.8088 9.9668C64.758 9.9668 65.3468 10.3535 65.4787 10.9775H67.8429C67.7023 9.12305 66.2521 8.09473 63.7912 8.09473C61.3742 8.09473 59.757 9.31641 59.757 11.1533ZM73.6444 10.0547C74.8397 10.0547 75.6132 10.8545 75.6659 12.1377H71.535C71.6229 10.8809 72.4579 10.0547 73.6444 10.0547ZM75.7186 15.2402C75.4462 15.8818 74.7518 16.2422 73.7411 16.2422C72.4052 16.2422 71.5614 15.3457 71.5262 13.9043V13.7725H78.1796V12.9902C78.1796 9.91406 76.4921 8.09473 73.6356 8.09473C70.7528 8.09473 68.9774 10.0459 68.9774 13.2012C68.9774 16.3477 70.7177 18.2109 73.6708 18.2109C76.0438 18.2109 77.7225 17.0596 78.1005 15.2402H75.7186ZM80.2896 6.00293V8.40234H78.7779V10.415H80.2896V15.3809C80.2896 17.2705 81.2213 18.0352 83.5768 18.0352C84.0689 18.0352 84.5436 17.9824 84.86 17.9209V15.9697C84.6139 15.9961 84.4381 16.0049 84.1041 16.0049C83.234 16.0049 82.8473 15.6182 82.8473 14.7744V10.415H84.86V8.40234H82.8473V6.00293H80.2896ZM89.7738 16.2246C88.8861 16.2246 88.262 15.7852 88.262 15.0645C88.262 14.3701 88.7982 13.9746 89.8968 13.8955L91.8568 13.7725V14.4844C91.8568 15.4688 90.9603 16.2246 89.7738 16.2246ZM88.93 18.1494C90.1868 18.1494 91.2415 17.6221 91.7425 16.7344H91.9007V18H94.3792V11.3818C94.3792 9.30762 92.929 8.09473 90.3626 8.09473C87.928 8.09473 86.2845 9.21973 86.1175 11.0127H88.473C88.6839 10.4326 89.2991 10.1162 90.222 10.1162C91.2767 10.1162 91.8568 10.5732 91.8568 11.3818V12.1729L89.5101 12.3135C87.1019 12.4541 85.7571 13.4736 85.7571 15.2314C85.7571 17.0068 87.0667 18.1494 88.93 18.1494Z" fill="#000842"/>
<path fill-rule="evenodd" clip-rule="evenodd" d="M19.0662 4.02331C17.198 2.65222 14.4467 2 11 2C7.63789 2 5.46117 2.92254 4.09811 4.49672C2.70968 6.10021 2 8.56645 2 12C2 15.298 3.13381 17.7592 5.00349 19.4078C6.88997 21.0712 9.63232 22 13 22C16.2706 22 18.4537 20.8264 19.8546 18.9372C21.2916 16.9994 22 14.1802 22 10.75C22 7.46401 20.8783 5.35328 19.0662 4.02331ZM20.2495 2.41095C22.6655 4.18407 24 6.94833 24 10.75C24 14.4074 23.2522 17.7132 21.4611 20.1285C19.634 22.5924 16.817 24 13 24C9.28002 24 6.02238 22.9726 3.68077 20.9079C1.32236 18.8284 0 15.7897 0 12C0 8.3459 0.74649 5.31214 2.58615 3.18754C4.45118 1.03363 7.27446 0 11 0C14.6409 0 17.8896 0.678949 20.2495 2.41095Z" fill="#FFD970"/>
<path fill-rule="evenodd" clip-rule="evenodd" d="M16.304 7.63064C15.2473 6.61141 13.6708 6 11.6136 6C9.53931 6 8.19414 6.56822 7.3519 7.48511C6.49519 8.41777 6 9.88247 6 12C6 14.0881 6.54844 15.5513 7.46743 16.4929C8.38249 17.4304 9.81096 18 11.8864 18C13.9843 18 15.4824 17.4689 16.4518 16.563C17.4097 15.6678 18 14.2671 18 12.2045C18 10.1673 17.3559 8.6453 16.304 7.63064ZM17.6924 6.19116C19.2061 7.65119 20 9.73151 20 12.2045C20 14.6523 19.2886 16.6493 17.8173 18.0243C16.3574 19.3886 14.2987 20 11.8864 20C9.45144 20 7.43673 19.3248 6.03619 17.8899C4.63958 16.459 4 14.4223 4 12C4 9.6072 4.55647 7.5719 5.87899 6.13214C7.21599 4.67662 9.17763 4 11.6136 4C14.0668 4 16.1835 4.7357 17.6924 6.19116Z" fill="#FFD970"/>
<path fill-rule="evenodd" clip-rule="evenodd" d="M14.6718 9.06306C15.514 9.79249 16 10.8454 16 12.0877C16 13.1819 15.7573 14.2068 15.0536 14.9542C14.3385 15.7137 13.3253 16 12.2013 16C11.1774 16 10.1241 15.858 9.30998 15.2994C8.41527 14.6855 8 13.7097 8 12.5C8 11.4508 8.17164 10.3527 8.72453 9.4869C9.32267 8.55027 10.2955 8 11.5844 8C12.7442 8 13.845 8.34695 14.6718 9.06306Z" fill="#FFD970"/>
</svg>
