<svg width="96" height="24" viewBox="0 0 96 24" fill="none" xmlns="http://www.w3.org/2000/svg">
<path d="M34.948 4.914C31.024 4.914 28.63 7.812 28.63 11.61C28.63 15.408 31.024 18.306 34.948 18.306C38.872 18.306 41.248 15.408 41.248 11.61C41.248 7.812 38.872 4.914 34.948 4.914ZM34.948 7.146C37.198 7.146 38.656 8.91 38.656 11.61C38.656 14.328 37.198 16.074 34.948 16.074C32.698 16.074 31.222 14.328 31.222 11.61C31.222 8.91 32.698 7.146 34.948 7.146ZM48.3127 8.802V14.346C48.3127 15.624 47.5567 16.254 46.4227 16.254C45.3787 16.254 44.8927 15.66 44.8927 14.724V8.802H42.5527V15.372C42.5527 17.046 43.5247 18.288 45.8107 18.288C47.1967 18.288 48.0607 17.766 48.5107 17.028V18H50.6527V8.802H48.3127ZM57.6809 16.02C57.0869 16.164 56.7989 16.182 56.5289 16.182C55.9169 16.182 55.6109 15.984 55.6109 15.336V10.584H57.8069V8.802H55.6109V5.958H53.2709V8.802H51.6329V10.584H53.2709V15.624C53.2709 17.334 54.0089 18.216 55.8809 18.216C56.4749 18.216 57.1409 18.144 57.9509 17.874L57.6809 16.02ZM62.6224 8.496C60.1564 8.496 58.7884 9.81 58.7884 11.376C58.7884 13.014 59.5804 13.662 62.1724 14.238C63.4864 14.526 64.4404 14.67 64.4404 15.426C64.4404 16.056 63.7564 16.398 62.8384 16.398C61.7584 16.398 61.0384 16.128 59.6884 15.03L58.3384 16.542C59.8324 17.874 61.0924 18.288 62.7844 18.288C65.2864 18.288 66.7264 17.046 66.7264 15.282C66.7264 13.572 65.6824 12.906 63.1624 12.348C61.6144 12.006 61.0204 11.898 61.0204 11.304C61.0204 10.764 61.6324 10.386 62.5684 10.386C63.5044 10.386 64.2064 10.602 65.3224 11.466L66.5824 9.936C65.2864 8.856 64.1704 8.496 62.6224 8.496ZM72.3378 16.308C70.7358 16.308 69.9438 15.336 69.7458 14.004H76.3518C76.3698 13.806 76.3878 13.374 76.3878 13.086C76.3878 10.26 74.8938 8.496 72.0858 8.496C69.1878 8.496 67.4598 10.602 67.4598 13.446C67.4598 16.38 69.3138 18.288 72.2838 18.288C73.7778 18.288 75.0378 17.856 76.3878 16.488L75.0738 15.048C73.9938 15.948 73.4178 16.308 72.3378 16.308ZM72.0138 10.332C73.2918 10.332 74.0118 11.106 74.1018 12.33H69.7998C70.0518 11.142 70.7718 10.332 72.0138 10.332ZM82.8626 16.02C82.2686 16.164 81.9806 16.182 81.7106 16.182C81.0986 16.182 80.7926 15.984 80.7926 15.336V10.584H82.9886V8.802H80.7926V5.958H78.4526V8.802H76.8146V10.584H78.4526V15.624C78.4526 17.334 79.1906 18.216 81.0626 18.216C81.6566 18.216 82.3226 18.144 83.1326 17.874L82.8626 16.02ZM88.2027 8.496C86.3847 8.496 85.0527 9.198 83.9007 10.566L85.3767 11.916C86.3307 10.998 86.9787 10.422 88.2387 10.422C89.3007 10.422 89.9667 10.926 89.9667 11.826V12.042L87.8067 12.438C85.7187 12.816 83.8287 13.554 83.8287 15.678C83.8287 17.55 85.3767 18.306 87.1227 18.306C88.5447 18.306 89.5347 17.82 90.0927 17.046V18H92.1987V11.79C92.1987 9.846 90.8487 8.496 88.2027 8.496ZM87.5187 16.434C86.6367 16.434 86.1147 16.092 86.1147 15.516C86.1147 14.652 87.0327 14.328 88.4187 14.04L89.9667 13.716V14.256C89.9667 15.858 88.7067 16.434 87.5187 16.434Z" fill="#000842"/>
<path fill-rule="evenodd" clip-rule="evenodd" d="M19.0662 4.02331C17.198 2.65222 14.4467 2 11 2C7.63789 2 5.46117 2.92254 4.09811 4.49672C2.70968 6.10021 2 8.56645 2 12C2 15.298 3.13381 17.7592 5.00349 19.4078C6.88997 21.0712 9.63232 22 13 22C16.2706 22 18.4537 20.8264 19.8546 18.9372C21.2916 16.9994 22 14.1802 22 10.75C22 7.46401 20.8783 5.35328 19.0662 4.02331ZM20.2495 2.41095C22.6655 4.18407 24 6.94833 24 10.75C24 14.4074 23.2522 17.7132 21.4611 20.1285C19.634 22.5924 16.817 24 13 24C9.28002 24 6.02238 22.9726 3.68077 20.9079C1.32236 18.8284 0 15.7897 0 12C0 8.3459 0.74649 5.31214 2.58615 3.18754C4.45118 1.03363 7.27446 0 11 0C14.6409 0 17.8896 0.678949 20.2495 2.41095Z" fill="#FFD970"/>
<path fill-rule="evenodd" clip-rule="evenodd" d="M16.304 7.63064C15.2473 6.61141 13.6708 6 11.6136 6C9.53931 6 8.19414 6.56822 7.3519 7.48511C6.49519 8.41777 6 9.88247 6 12C6 14.0881 6.54844 15.5513 7.46743 16.4929C8.38249 17.4304 9.81096 18 11.8864 18C13.9843 18 15.4824 17.4689 16.4518 16.563C17.4097 15.6678 18 14.2671 18 12.2045C18 10.1673 17.3559 8.6453 16.304 7.63064ZM17.6924 6.19116C19.2061 7.65119 20 9.73151 20 12.2045C20 14.6523 19.2886 16.6493 17.8173 18.0243C16.3574 19.3886 14.2987 20 11.8864 20C9.45144 20 7.43673 19.3248 6.03619 17.8899C4.63958 16.459 4 14.4223 4 12C4 9.6072 4.55647 7.5719 5.87899 6.13214C7.21599 4.67662 9.17763 4 11.6136 4C14.0668 4 16.1835 4.7357 17.6924 6.19116Z" fill="#FFD970"/>
<path fill-rule="evenodd" clip-rule="evenodd" d="M14.6718 9.06306C15.514 9.79249 16 10.8454 16 12.0877C16 13.1819 15.7573 14.2068 15.0536 14.9542C14.3385 15.7137 13.3253 16 12.2013 16C11.1774 16 10.1241 15.858 9.30998 15.2994C8.41527 14.6855 8 13.7097 8 12.5C8 11.4508 8.17164 10.3527 8.72453 9.4869C9.32267 8.55027 10.2955 8 11.5844 8C12.7442 8 13.845 8.34695 14.6718 9.06306Z" fill="#FFD970"/>
</svg>
