<svg width="400" height="400" viewBox="0 0 400 400" fill="none" xmlns="http://www.w3.org/2000/svg">
<rect width="400" height="400" fill="#002129"/>
<path fill-rule="evenodd" clip-rule="evenodd" d="M258.885 133.528C243.317 122.102 220.389 116.667 191.667 116.667C163.649 116.667 145.51 124.355 134.151 137.473C122.581 150.835 116.667 171.387 116.667 200C116.667 227.483 126.115 247.994 141.696 261.732C157.416 275.593 180.269 283.333 208.333 283.333C235.589 283.333 253.781 273.553 265.455 257.81C277.43 241.662 283.333 218.168 283.333 189.583C283.333 162.2 273.986 144.611 258.885 133.528ZM268.746 120.091C288.879 134.867 300 157.903 300 189.583C300 220.062 293.768 247.61 278.843 267.738C263.616 288.27 240.142 300 208.333 300C177.334 300 150.186 291.439 130.673 274.233C111.02 256.904 100 231.581 100 200C100 169.549 106.221 144.268 121.551 126.563C137.093 108.614 160.62 100 191.667 100C222.008 100 249.08 105.658 268.746 120.091Z" fill="#FFD970"/>
<path fill-rule="evenodd" clip-rule="evenodd" d="M235.866 163.589C227.061 155.095 213.924 150 196.78 150C179.494 150 168.284 154.735 161.266 162.376C154.127 170.148 150 182.354 150 200C150 217.4 154.57 229.594 162.229 237.441C169.854 245.253 181.758 250 199.053 250C216.536 250 229.02 245.574 237.098 238.025C245.081 230.565 250 218.893 250 201.705C250 184.727 244.632 172.044 235.866 163.589ZM247.437 151.593C260.051 163.76 266.667 181.096 266.667 201.705C266.667 222.103 260.739 238.744 248.478 250.202C236.312 261.571 219.156 266.667 199.053 266.667C178.762 266.667 161.973 261.04 150.302 249.082C138.663 237.158 133.333 220.186 133.333 200C133.333 180.06 137.971 163.099 148.992 151.101C160.133 138.972 176.48 133.333 196.78 133.333C217.223 133.333 234.863 139.464 247.437 151.593Z" fill="#FFD970"/>
<path fill-rule="evenodd" clip-rule="evenodd" d="M222.265 175.525C229.283 181.604 233.333 190.378 233.333 200.731C233.333 209.849 231.311 218.39 225.446 224.619C219.487 230.947 211.044 233.333 201.677 233.333C193.145 233.333 184.367 232.15 177.583 227.495C170.127 222.379 166.667 214.248 166.667 204.167C166.667 195.423 168.097 186.272 172.704 179.058C177.689 171.252 185.796 166.667 196.537 166.667C206.202 166.667 215.375 169.558 222.265 175.525Z" fill="#FFD970"/>
</svg>
