<svg width="340" height="32" viewBox="0 0 340 32" fill="none" xmlns="http://www.w3.org/2000/svg">
<path d="M154.938 8.864L149.02 24H145.852L139.912 8.864H143.674L147.436 19.05L151.198 8.864H154.938ZM156.654 24V8.864H166.202V11.856H160.328V14.87H165.344V17.752H160.328V21.008H166.378V24H156.654ZM172.802 11.768V15.772H174.474C175.728 15.772 176.63 14.914 176.63 13.77C176.63 12.582 175.728 11.768 174.474 11.768H172.802ZM169.216 24V8.864H174.958C178.082 8.864 180.304 10.888 180.304 13.77C180.304 15.728 179.27 17.312 177.532 18.148L180.898 24H176.982L174.034 18.654H172.802V24H169.216ZM183.296 24V8.864H186.97V24H183.296ZM190.578 24V8.864H200.126V11.856H194.252V15.442H199.268V18.434H194.252V24H190.578ZM202.612 24V8.864H206.286V24H202.612ZM209.894 24V8.864H219.442V11.856H213.568V14.87H218.584V17.752H213.568V21.008H219.618V24H209.894ZM222.456 24V8.864H228.462C232.84 8.864 235.942 12.01 235.942 16.432C235.942 20.854 232.84 24 228.462 24H222.456ZM226.13 11.856V21.008H228.286C230.596 21.008 232.202 19.138 232.202 16.432C232.202 13.726 230.596 11.856 228.286 11.856H226.13ZM244.104 24V8.864H249.934C253.102 8.864 255.346 10.932 255.346 13.858C255.346 16.784 253.102 18.808 249.934 18.808H247.69V24H244.104ZM247.69 11.768V15.926H249.45C250.748 15.926 251.694 15.068 251.694 13.858C251.694 12.604 250.748 11.768 249.45 11.768H247.69ZM254.554 24L260.494 8.864H263.662L269.58 24H266.016L264.85 20.876H259.284L258.14 24H254.554ZM262.078 13.286L260.296 18.148H263.838L262.078 13.286ZM274.882 11.768V15.772H276.554C277.808 15.772 278.71 14.914 278.71 13.77C278.71 12.582 277.808 11.768 276.554 11.768H274.882ZM271.296 24V8.864H277.038C280.162 8.864 282.384 10.888 282.384 13.77C282.384 15.728 281.35 17.312 279.612 18.148L282.978 24H279.062L276.114 18.654H274.882V24H271.296ZM288.104 24V11.856H283.726V8.864H296.112V11.856H291.756V24H288.104ZM298.444 24V8.864H301.612L308.432 18.192V8.864H311.842V24H308.674L301.876 14.672V24H298.444ZM315.45 24V8.864H324.998V11.856H319.124V14.87H324.14V17.752H319.124V21.008H325.174V24H315.45ZM331.598 11.768V15.772H333.27C334.524 15.772 335.426 14.914 335.426 13.77C335.426 12.582 334.524 11.768 333.27 11.768H331.598ZM328.012 24V8.864H333.754C336.878 8.864 339.1 10.888 339.1 13.77C339.1 15.728 338.066 17.312 336.328 18.148L339.694 24H335.778L332.83 18.654H331.598V24H328.012ZM92 7.01318L124 0V24.9951L92 32V7.01318ZM104.086 21.5081C104.78 22.167 105.89 22.1635 106.58 21.5002L115.479 12.9509C116.174 12.2759 116.174 11.1814 115.479 10.5063C114.785 9.83123 113.658 9.83123 112.964 10.5063L105.337 17.8059L103.036 15.7061C102.342 15.0311 101.216 15.0311 100.521 15.7061C99.8264 16.3812 99.8264 17.4757 100.521 18.1507L104.086 21.5081ZM75.9297 18.4455H65.7297C65.9619 20.9451 67.7514 21.6808 69.7816 21.6808C71.8511 21.6808 73.4803 21.2359 74.9012 20.5016V24.798C73.4845 25.6 71.6161 26.1802 69.1246 26.1802C64.0499 26.1802 60.4933 22.9277 60.4933 16.496C60.4933 11.065 63.5097 6.75132 68.4675 6.75132C73.417 6.75132 76 11.0636 76 16.5248C76 17.0403 75.9536 18.1576 75.9297 18.4455ZM68.4338 11.0996C67.131 11.0996 65.6833 12.106 65.6833 14.5091H71.0703C71.0703 12.1089 69.714 11.0996 68.4338 11.0996ZM52.2293 26.1802C50.4059 26.1802 49.2917 25.3927 48.5432 24.8311L48.532 30.8654L43.3223 32L43.3194 7.10695H47.9087L48.1788 8.42439C48.9006 7.73471 50.2188 6.75132 52.2616 6.75132C55.9209 6.75132 59.3678 10.1248 59.3678 16.3333C59.3678 23.1106 55.9575 26.1802 52.2293 26.1802ZM51.0165 11.4754C49.8193 11.4754 49.0708 11.9231 48.5277 12.5322L48.5587 20.457C49.0638 21.0171 49.7939 21.4692 51.0165 21.4692C52.9425 21.4692 54.2341 19.3224 54.2341 16.4514C54.2341 13.661 52.9228 11.4754 51.0165 11.4754ZM35.96 7.10695H41.1908V25.7987H35.96V7.10695ZM35.96 1.1389L41.1908 0V4.34394L35.96 5.4814V1.1389ZM30.5562 13.1268V25.7987H25.3479V7.10695H29.8527L30.1805 8.68355C31.3989 6.38848 33.8356 6.85354 34.5292 7.10839V12.0095C33.8666 11.7907 31.7872 11.471 30.5562 13.1268ZM19.5585 19.2403C19.5585 22.3834 22.8464 21.4058 23.5147 21.1322V25.4733C22.8197 25.8635 21.5605 26.1802 19.8568 26.1802C16.7645 26.1802 14.4445 23.8492 14.4445 20.6917L14.467 3.58227L19.5543 2.47649L19.5585 7.10695H23.5161V11.6539H19.5585V19.2403ZM13.236 20.1503C13.236 23.9888 10.2506 26.1802 5.91736 26.1802C4.12077 26.1802 2.15676 25.8232 0.219474 24.9694V19.8782C1.96823 20.8515 4.19674 21.5815 5.92299 21.5815C7.08508 21.5815 7.92218 21.2618 7.92218 20.277C7.92218 17.7314 0 18.6903 0 12.7856C0 9.01039 2.81799 6.75132 7.04428 6.75132C8.77053 6.75132 10.4968 7.02344 12.223 7.72751V12.7496C10.6375 11.8742 8.62562 11.3775 7.04006 11.3775C5.94832 11.3775 5.2702 11.7 5.2702 12.5336C5.2702 14.9324 13.236 13.792 13.236 20.1503Z" fill="#32325D"/>
</svg>
