<svg width="97" height="40" viewBox="0 0 97 40" fill="none" xmlns="http://www.w3.org/2000/svg">
<path fill-rule="evenodd" clip-rule="evenodd" d="M96.1284 20.6675C96.1284 13.8317 92.8173 8.43787 86.4888 8.43787C80.1337 8.43787 76.2886 13.8317 76.2886 20.6141C76.2886 28.6515 80.828 32.7102 87.3433 32.7102C90.5209 32.7102 92.9241 31.9893 94.7398 30.9746V25.6341C92.9241 26.542 90.8413 27.1028 88.1978 27.1028C85.6077 27.1028 83.3113 26.1949 83.0175 23.044H96.0749C96.0749 22.6969 96.1284 21.3084 96.1284 20.6675ZM82.9374 18.1308C82.9374 15.1134 84.7799 13.8584 86.4621 13.8584C88.091 13.8584 89.8266 15.1134 89.8266 18.1308H82.9374Z" fill="#32325D"/>
<path fill-rule="evenodd" clip-rule="evenodd" d="M65.9816 8.43787C63.3648 8.43787 61.6826 9.66617 60.748 10.5206L60.4009 8.8651H54.5264V39.9999L61.2019 38.5847L61.2286 31.028C62.1899 31.7222 63.6051 32.7102 65.9549 32.7102C70.7346 32.7102 75.0871 28.8651 75.0871 20.4005C75.0604 12.6568 70.6545 8.43787 65.9816 8.43787ZM64.3795 26.8357C62.8041 26.8357 61.8695 26.275 61.2286 25.5807L61.2019 15.6742C61.8962 14.8998 62.8575 14.3658 64.3795 14.3658C66.8094 14.3658 68.4916 17.0894 68.4916 20.5874C68.4916 24.1655 66.8361 26.8357 64.3795 26.8357Z" fill="#32325D"/>
<path fill-rule="evenodd" clip-rule="evenodd" d="M45.3408 6.86248L52.0431 5.42056V0L45.3408 1.41522V6.86248Z" fill="#32325D"/>
<path d="M52.0431 8.89185H45.3408V32.2563H52.0431V8.89185Z" fill="#32325D"/>
<path fill-rule="evenodd" clip-rule="evenodd" d="M38.1578 10.8678L37.7306 8.89185H31.9629V32.2563H38.6385V16.4219C40.2139 14.3658 42.8841 14.7397 43.7119 15.0334V8.89185C42.8574 8.57143 39.7333 7.98398 38.1578 10.8678Z" fill="#32325D"/>
<path fill-rule="evenodd" clip-rule="evenodd" d="M24.8062 3.09747L18.2909 4.48599L18.2642 25.8745C18.2642 29.8264 21.2281 32.737 25.18 32.737C27.3696 32.737 28.9718 32.3365 29.8529 31.8558V26.4353C28.9985 26.7824 24.7795 28.0107 24.7795 24.0588V14.5794H29.8529V8.89187H24.7795L24.8062 3.09747Z" fill="#32325D"/>
<path fill-rule="evenodd" clip-rule="evenodd" d="M6.75567 15.6742C6.75567 14.6328 7.61015 14.2323 9.02537 14.2323C11.0547 14.2323 13.6182 14.8464 15.6475 15.9412V9.66617C13.4312 8.785 11.2417 8.43787 9.02537 8.43787C3.60481 8.43787 0 11.2683 0 15.9946C0 23.3644 10.1469 22.1895 10.1469 25.3671C10.1469 26.5954 9.07877 26.9959 7.58344 26.9959C5.36716 26.9959 2.53671 26.0881 0.293725 24.8598V31.2149C2.77704 32.283 5.28705 32.7369 7.58344 32.7369C13.1375 32.7369 16.9559 29.9866 16.9559 25.2069C16.9292 17.2496 6.75567 18.6648 6.75567 15.6742Z" fill="#32325D"/>
</svg>
